<svg width="42" height="47" viewBox="0 0 42 47" fill="none" xmlns="http://www.w3.org/2000/svg">
<path d="M34.6474 10.0748H7.28268C6.42955 10.0748 5.73486 9.39549 5.73486 8.56014V7.31446C5.73486 6.4791 6.42955 5.79889 7.28268 5.79889H34.6474C35.5005 5.79889 36.1952 6.4791 36.1952 7.31446V8.55922C36.1952 9.39457 35.5005 10.0748 34.6474 10.0748ZM7.28268 7.21807C7.2283 7.21807 7.18424 7.26121 7.18424 7.31446V8.55922C7.18424 8.61246 7.2283 8.65561 7.28268 8.65561H34.6474C34.7017 8.65561 34.7458 8.61246 34.7458 8.55922V7.31446C34.7458 7.26121 34.7017 7.21807 34.6474 7.21807H7.28268Z" fill="#006291"/>
<path d="M17.1636 34.4328C16.7633 34.4328 16.4389 34.1152 16.4389 33.7233V26.8256L7.59358 9.58802C7.41358 9.23828 7.55795 8.81142 7.91607 8.63609C8.27232 8.45984 8.7092 8.60121 8.88826 8.95187L17.8104 26.3391C17.8611 26.4383 17.8873 26.5466 17.8873 26.6576V33.7233C17.8883 34.1152 17.5639 34.4328 17.1636 34.4328Z" fill="#006291"/>
<path d="M24.1379 34.3717C24.1248 34.3717 24.1107 34.3717 24.0976 34.3708C23.6982 34.3497 23.3926 34.0146 23.4142 33.6236L23.8107 26.569C23.8163 26.4616 23.8473 26.3579 23.9007 26.2642L33.6976 8.98806C33.8917 8.64474 34.3323 8.52173 34.682 8.71267C35.0317 8.90269 35.1582 9.33413 34.9632 9.67653L25.2479 26.8095L24.8607 33.7016C24.8392 34.0798 24.5195 34.3717 24.1379 34.3717Z" fill="#006291"/>
<path d="M20.7456 46.908C17.2234 46.908 14.3584 44.1026 14.3584 40.6538C14.3584 37.205 17.2234 34.3997 20.7456 34.3997C24.2678 34.3997 27.1328 37.205 27.1328 40.6538C27.1328 44.1026 24.2678 46.908 20.7456 46.908ZM20.7456 35.818C18.0221 35.818 15.8068 37.9871 15.8068 40.6538C15.8068 43.3205 18.0221 45.4897 20.7456 45.4897C23.469 45.4897 25.6843 43.3205 25.6843 40.6538C25.6843 37.9871 23.469 35.818 20.7456 35.818Z" fill="#006291"/>
<path d="M20.9402 44.3624H20.2756V43.5546C19.7815 43.4904 19.369 43.3196 19.0371 43.0452C18.7052 42.7688 18.5159 42.3053 18.469 41.6526H19.6343C19.6306 41.6866 19.6296 41.7113 19.6296 41.726C19.6296 41.9418 19.6859 42.1299 19.7993 42.2897C19.9127 42.4503 20.0712 42.5568 20.2756 42.6082V40.6502C19.609 40.3491 19.159 40.0507 18.9265 39.757C18.694 39.4623 18.5777 39.1401 18.5777 38.7894C18.5777 38.3644 18.7334 38.0018 19.0446 37.6998C19.3559 37.3987 19.7665 37.228 20.2756 37.1876V36.9471H20.9402V37.1876C21.4877 37.2307 21.9227 37.4033 22.2471 37.7044C22.5715 38.0064 22.7327 38.4011 22.7327 38.8868H21.5674C21.5149 38.4039 21.3049 38.1423 20.9402 38.1019V39.6395L21.5815 39.9213C21.9434 40.0819 22.2312 40.2637 22.4468 40.4693C22.6624 40.6731 22.8115 40.887 22.8949 41.1082C22.9784 41.3295 23.0196 41.5553 23.0196 41.782C23.0196 42.2777 22.8321 42.6936 22.4562 43.0286C22.0802 43.3646 21.5749 43.5399 20.9402 43.5555V44.3624ZM20.2756 38.1046C19.9202 38.1689 19.7431 38.3516 19.7431 38.6499C19.7431 38.906 19.9212 39.1364 20.2756 39.343V38.1046ZM20.9402 42.6486C21.2102 42.6523 21.4334 42.5788 21.6077 42.4274C21.7821 42.2768 21.8693 42.0969 21.8693 41.8867C21.8693 41.4837 21.559 41.1652 20.9402 40.9311V42.6486Z" fill="#006291"/>
<path d="M25.9405 24.842C25.6161 24.842 25.3217 24.6281 25.2383 24.3068C25.1398 23.9268 25.3742 23.5412 25.7623 23.4448C38.8958 20.1851 39.838 17.9324 39.8136 17.3192C39.7564 15.8725 35.1261 14.4203 32.0145 13.8943C31.6198 13.8282 31.3555 13.461 31.4239 13.0745C31.4914 12.689 31.8655 12.4246 32.2611 12.4962C33.7423 12.7468 41.1392 14.1531 41.262 17.2641C41.3258 18.8779 39.8258 21.418 26.1186 24.819C26.0595 24.8356 25.9995 24.842 25.9405 24.842Z" fill="#006291"/>
<path d="M15.8674 24.8421C15.8083 24.8421 15.7493 24.8348 15.6893 24.8201C2.15083 21.4603 0.674265 18.9432 0.740828 17.3432C0.873015 14.1817 8.58958 12.7515 10.1346 12.4963C10.5321 12.4312 10.9033 12.6928 10.969 13.0783C11.0355 13.4648 10.7693 13.8311 10.3746 13.8953C7.10926 14.4342 2.24927 15.9213 2.18833 17.401C2.16302 18.006 3.08833 20.2293 16.0446 23.4449C16.4327 23.5413 16.6671 23.9269 16.5686 24.3069C16.4861 24.6282 16.1908 24.8421 15.8674 24.8421Z" fill="#006291"/>
<path d="M30.8244 7.24369C28.8107 7.24369 27.1729 5.64 27.1729 3.6682C27.1729 1.69641 28.8107 0.0917969 30.8244 0.0917969C32.8382 0.0917969 34.4769 1.69641 34.4769 3.6682C34.4769 5.64 32.8382 7.24369 30.8244 7.24369ZM30.8244 1.51006C29.6094 1.51006 28.6213 2.4776 28.6213 3.66729C28.6213 4.85697 29.6094 5.82451 30.8244 5.82451C32.0394 5.82451 33.0275 4.85697 33.0275 3.66729C33.0275 2.47852 32.0394 1.51006 30.8244 1.51006Z" fill="#006291"/>
<path d="M12.9138 7.22457C12.7104 7.22457 12.5088 7.14104 12.3645 6.97855C12.1038 6.68205 12.1367 6.23408 12.4395 5.97797C12.8613 5.6218 13.1023 5.1059 13.1023 4.56154C13.1023 3.53066 12.2454 2.69164 11.1926 2.69164C10.1398 2.69164 9.28291 3.53066 9.28291 4.56154C9.28291 5.1059 9.52479 5.6218 9.94572 5.97705C10.2485 6.23316 10.2823 6.68113 10.0207 6.97764C9.7601 7.27414 9.30166 7.30719 8.99885 7.05107C8.25822 6.42594 7.83447 5.51807 7.83447 4.56063C7.83447 2.74764 9.34103 1.27246 11.1926 1.27246C13.0451 1.27246 14.5517 2.74764 14.5517 4.56063C14.5517 5.51807 14.127 6.42594 13.3863 7.05199C13.2504 7.16766 13.0817 7.22457 12.9138 7.22457Z" fill="#006291"/>
<path d="M20.5397 7.21806C19.184 7.21806 18.0815 6.13853 18.0815 4.81115C18.0815 3.48469 19.184 2.40424 20.5397 2.40424C21.8953 2.40424 22.9978 3.48377 22.9978 4.81115C22.9978 6.13853 21.8953 7.21806 20.5397 7.21806ZM20.5397 3.82342C19.9828 3.82342 19.5309 4.26679 19.5309 4.81115C19.5309 5.35551 19.9837 5.79888 20.5397 5.79888C21.0965 5.79888 21.5484 5.35551 21.5484 4.81115C21.5484 4.26679 21.0965 3.82342 20.5397 3.82342Z" fill="#006291"/>
</svg>
