<svg width="48" height="48" viewBox="0 0 48 48" fill="none" xmlns="http://www.w3.org/2000/svg">
<path d="M38.7097 23.6283V20.129H39.8199C40.9154 20.129 41.8064 19.2379 41.8064 18.1424C41.8064 17.7832 41.7089 17.4294 41.5231 17.1205L37.4493 10.33C37.0645 9.68899 36.3608 9.29028 35.6129 9.29028C34.865 9.29028 34.1613 9.68899 33.7765 10.33L29.7019 17.1205C29.5169 17.4294 29.4194 17.7824 29.4194 18.1424C29.4194 19.2379 30.3105 20.129 31.4059 20.129H32.5161V23.6283C28.1195 24.7625 24.7417 28.2263 23.6253 32.5161H20.9032C20.4875 32.5161 20.1027 32.6345 19.7644 32.8265C19.3525 32.177 18.631 31.7419 17.8065 31.7419H3.87097C1.73652 31.7419 0 33.4784 0 35.6129C0 37.7473 1.73652 39.4838 3.87097 39.4838H17.8065C18.631 39.4838 19.3525 39.0487 19.7644 38.3992C20.1027 38.5912 20.4875 38.7096 20.9032 38.7096H23.6338C25.0142 44.0431 29.8537 48 35.6129 48C42.4428 48 48 42.4428 48 35.6129C48 29.9605 44.1267 25.0258 38.7097 23.6283ZM38.7097 28.5212C41.4875 29.7375 43.3548 32.5176 43.3548 35.6129C43.3548 38.7801 41.4403 41.506 38.7097 42.7037V28.5212ZM31.4059 18.5806C31.1644 18.5806 30.9677 18.384 30.9677 18.1424C30.9677 18.0627 30.9894 17.9853 31.0305 17.9171L35.1043 11.1267C35.3172 10.7713 35.9086 10.7713 36.1215 11.1267L40.1954 17.9163C40.2364 17.9845 40.2581 18.0627 40.2581 18.1424C40.2581 18.384 40.0614 18.5806 39.8199 18.5806H37.1613V43.1984C36.6612 43.3006 36.1432 43.3548 35.6129 43.3548C35.0826 43.3548 34.5646 43.3006 34.0645 43.1984V18.5806H31.4059ZM32.5161 42.7037C29.7855 41.506 27.871 38.7801 27.871 35.6129C27.871 32.5176 29.7383 29.7375 32.5161 28.5212V42.7037ZM18.5806 37.1613C18.5806 37.5886 18.233 37.9354 17.8065 37.9354H3.87097C2.59045 37.9354 1.54839 36.8934 1.54839 35.6129C1.54839 34.3323 2.59045 33.2903 3.87097 33.2903H17.8065C18.233 33.2903 18.5806 33.6371 18.5806 34.0645V34.8387V36.3871V37.1613ZM20.9032 37.1613C20.4766 37.1613 20.129 36.8144 20.129 36.3871V34.8387C20.129 34.4113 20.4766 34.0645 20.9032 34.0645H23.335C23.2699 34.5739 23.2258 35.0887 23.2258 35.6129C23.2258 36.1385 23.2692 36.6526 23.3334 37.1613H20.9032ZM35.6129 46.4516C29.6361 46.4516 24.7742 41.5896 24.7742 35.6129C24.7742 30.802 27.9786 26.5742 32.5161 25.2232V26.8575C28.8426 28.1574 26.3226 31.6722 26.3226 35.6129C26.3226 40.7357 30.4901 44.9032 35.6129 44.9032C40.7357 44.9032 44.9032 40.7357 44.9032 35.6129C44.9032 31.673 42.3832 28.1582 38.7097 26.8575V25.2232C43.248 26.5742 46.4516 30.8005 46.4516 35.6129C46.4516 41.5896 41.5897 46.4516 35.6129 46.4516Z" fill="#006290"/>
<path d="M3.09973 41.0322H13.9384V42.5806H3.09973V41.0322Z" fill="#006290"/>
<path d="M3.09973 44.1289H13.9384V45.6773H3.09973V44.1289Z" fill="#006290"/>
<path d="M21.6774 17.8065H15.4839V28.6452H13.9355V13.1614H7.74194V28.6452H6.19355V20.9033H0V30.1936H21.6774V17.8065ZM4.64516 28.6452H1.54839V22.4517H4.64516V28.6452ZM9.29032 14.7098H12.3871V28.6452H9.29032V14.7098ZM20.129 28.6452H17.0323V19.3549H20.129V28.6452Z" fill="#006290"/>
<path d="M3.09677 19.3548C4.80465 19.3548 6.19355 17.9659 6.19355 16.2581C6.19355 15.6852 6.0271 15.1556 5.75458 14.695L9.27561 11.1739C9.73626 11.4465 10.2658 11.6129 10.8387 11.6129C11.6834 11.6129 12.449 11.2715 13.008 10.721L15.624 12.2903C15.5419 12.5683 15.4839 12.857 15.4839 13.1613C15.4839 14.8692 16.8728 16.2581 18.5806 16.2581C20.2885 16.2581 21.6774 14.8692 21.6774 13.1613C21.6774 12.9012 21.6356 12.6519 21.5745 12.4103L32.671 6.35768C33.3817 7.1969 34.4299 7.74194 35.6129 7.74194C37.7474 7.74194 39.4839 6.00542 39.4839 3.87097C39.4839 1.73652 37.7474 0 35.6129 0C33.4785 0 31.7419 1.73652 31.7419 3.87097C31.7419 4.26581 31.8186 4.63897 31.9293 4.99819L20.8336 11.0508C20.2684 10.447 19.471 10.0645 18.5806 10.0645C17.736 10.0645 16.9703 10.4059 16.4114 10.9564L13.7954 9.3871C13.8774 9.10916 13.9355 8.82039 13.9355 8.51613C13.9355 6.80826 12.5466 5.41935 10.8387 5.41935C9.13084 5.41935 7.74194 6.80826 7.74194 8.51613C7.74194 9.08903 7.90839 9.61858 8.1809 10.0792L4.65987 13.6003C4.19923 13.3277 3.66968 13.1613 3.09677 13.1613C1.3889 13.1613 0 14.5502 0 16.2581C0 17.9659 1.3889 19.3548 3.09677 19.3548ZM35.6129 1.54839C36.8934 1.54839 37.9355 2.59045 37.9355 3.87097C37.9355 5.15148 36.8934 6.19355 35.6129 6.19355C34.3324 6.19355 33.2903 5.15148 33.2903 3.87097C33.2903 2.59045 34.3324 1.54839 35.6129 1.54839ZM18.5806 11.6129C19.4346 11.6129 20.129 12.3074 20.129 13.1613C20.129 14.0152 19.4346 14.7097 18.5806 14.7097C17.7267 14.7097 17.0323 14.0152 17.0323 13.1613C17.0323 12.3074 17.7267 11.6129 18.5806 11.6129ZM10.8387 6.96774C11.6926 6.96774 12.3871 7.66219 12.3871 8.51613C12.3871 9.37006 11.6926 10.0645 10.8387 10.0645C9.98478 10.0645 9.29032 9.37006 9.29032 8.51613C9.29032 7.66219 9.98478 6.96774 10.8387 6.96774ZM3.09677 14.7097C3.95071 14.7097 4.64516 15.4041 4.64516 16.2581C4.64516 17.112 3.95071 17.8065 3.09677 17.8065C2.24284 17.8065 1.54839 17.112 1.54839 16.2581C1.54839 15.4041 2.24284 14.7097 3.09677 14.7097Z" fill="#006290"/>
</svg>
