<svg width="351" height="343" viewBox="0 0 351 343" fill="none" xmlns="http://www.w3.org/2000/svg">
<g clip-path="url(#clip0)">
<path d="M112.679 70.7269C106.714 70.7269 103.732 63.4613 107.881 59.1798C112.679 54.3794 112.679 46.5949 107.881 41.7944L105.417 39.3293C100.62 34.5289 92.8401 34.5289 88.0425 39.3293C83.7636 43.6108 76.5024 40.497 76.5024 34.5289C76.5024 27.7823 71.0565 22.2034 64.1843 22.2034H60.6834C53.9409 22.2034 48.3654 27.6525 48.3654 34.5289C48.3654 40.497 41.1042 43.4811 36.8253 39.3293C32.0277 34.5289 24.2479 34.5289 19.4503 39.3293L16.9867 41.7944C12.1892 46.5949 12.1892 54.3794 16.9867 59.1798C21.2656 63.4613 18.2834 70.7269 12.1892 70.7269C5.44664 70.7269 -0.128906 76.1761 -0.128906 83.0524V86.5554C-0.128906 93.302 5.31697 98.8809 12.1892 98.8809C18.1537 98.8809 21.136 106.146 16.9867 110.428C12.1892 115.228 12.1892 123.013 16.9867 127.813L19.4503 130.278C24.2479 135.079 32.0277 135.079 36.8253 130.278C41.1042 125.997 48.3654 128.981 48.3654 135.079C48.3654 141.826 53.8112 147.404 60.6834 147.404H64.1843C70.9269 147.404 76.5024 141.955 76.5024 135.079C76.5024 129.111 83.7636 126.127 88.0425 130.278C92.8401 135.079 100.62 135.079 105.417 130.278L107.881 127.813C112.679 123.013 112.679 115.228 107.881 110.428C103.602 106.146 106.584 98.8809 112.679 98.8809C119.421 98.8809 124.997 93.4317 124.997 86.5554V83.0524C124.867 76.1761 119.421 70.7269 112.679 70.7269ZM62.4987 115.228C45.6424 115.228 32.0277 101.605 32.0277 84.739C32.0277 67.8726 45.6424 54.2496 62.4987 54.2496C79.355 54.2496 92.9697 67.8726 92.9697 84.739C92.9697 101.605 79.355 115.228 62.4987 115.228Z" fill="#006291"/>
<path d="M109.176 63.3315C116.956 64.3695 227.818 63.3315 227.818 63.3315L258.419 37.9021" stroke="#AAC9F7" stroke-width="5.3813" stroke-miterlimit="10"/>
<path d="M270.548 40.09C275.969 37.8302 278.532 31.6014 276.274 26.1776C274.015 20.7538 267.79 18.1888 262.369 20.4486C256.949 22.7084 254.386 28.9372 256.644 34.361C258.902 39.7848 265.127 42.3498 270.548 40.09Z" stroke="#AAC9F7" stroke-width="5.3813" stroke-miterlimit="10"/>
<path d="M146.262 124.699C154.042 125.737 264.904 124.699 264.904 124.699L298.098 96.1562" stroke="#AAC9F7" stroke-width="5.3813" stroke-miterlimit="10"/>
<path d="M176.212 171.017H326.363" stroke="#AAC9F7" stroke-width="5.3813" stroke-miterlimit="10"/>
<path d="M117.863 265.08H258.937V313.085" stroke="#AAC9F7" stroke-width="5.3813" stroke-miterlimit="10"/>
<path d="M174.008 206.697H307.043V274.033" stroke="#AAC9F7" stroke-width="5.3813" stroke-miterlimit="10"/>
<path d="M258.937 332.806C264.809 332.806 269.57 328.043 269.57 322.167C269.57 316.291 264.809 311.528 258.937 311.528C253.065 311.528 248.305 316.291 248.305 322.167C248.305 328.043 253.065 332.806 258.937 332.806Z" stroke="#AAC9F7" stroke-width="5.3813" stroke-miterlimit="10"/>
<path d="M307.047 292.586C312.919 292.586 317.679 287.823 317.679 281.947C317.679 276.071 312.919 271.308 307.047 271.308C301.174 271.308 296.414 276.071 296.414 281.947C296.414 287.823 301.174 292.586 307.047 292.586Z" stroke="#AAC9F7" stroke-width="5.3813" stroke-miterlimit="10"/>
<path d="M307.047 99.5296C312.919 99.5296 317.679 94.7665 317.679 88.8908C317.679 83.0151 312.919 78.252 307.047 78.252C301.174 78.252 296.414 83.0151 296.414 88.8908C296.414 94.7665 301.174 99.5296 307.047 99.5296Z" stroke="#AAC9F7" stroke-width="5.3813" stroke-miterlimit="10"/>
<path d="M336.867 181.656C342.739 181.656 347.499 176.893 347.499 171.017C347.499 165.142 342.739 160.378 336.867 160.378C330.995 160.378 326.234 165.142 326.234 171.017C326.234 176.893 330.995 181.656 336.867 181.656Z" stroke="#AAC9F7" stroke-width="5.3813" stroke-miterlimit="10"/>
<path d="M208.372 36.3452C208.372 35.8263 208.372 35.3073 208.372 34.9181C208.372 15.9757 190.608 1.05541 170.899 5.98561C157.673 9.22916 148.726 21.2952 148.726 34.9181V35.0478C148.726 36.6047 147.041 37.3832 145.874 36.475C140.817 32.8422 134.463 31.4151 127.461 31.4151C110.994 31.4151 97.7684 44.519 97.5091 60.9962C97.5091 63.4613 97.7684 65.0182 98.2871 66.7049C98.5464 67.7428 97.8981 68.7808 96.9904 69.0402C95.6938 69.2997 94.2675 69.9484 92.8412 69.9484C71.4466 69.9484 54.0717 87.3339 54.0717 108.741C54.0717 114.45 55.3683 118.731 57.5726 123.402C58.0913 124.57 57.4429 125.867 56.1463 125.997C37.4747 128.981 23.082 146.496 23.082 165.958C23.082 184.381 35.7891 198.263 52.9047 202.156C54.0717 202.415 54.72 203.842 54.0717 204.88C50.4411 211.108 48.3665 219.411 48.3665 226.807C48.3665 245.749 61.7219 260.15 79.4858 263.913C80.5231 264.172 81.1714 265.21 80.9121 266.118C80.0045 269.751 79.4858 274.422 79.4858 278.055C79.4858 299.462 96.8607 316.848 118.255 316.848C128.758 316.848 138.224 312.696 145.225 305.949C146.911 306.728 147.041 306.728 148.726 307.506C148.597 309.063 148.726 310.49 148.856 312.047C150.542 327.746 164.675 339.163 180.494 338.514C210.317 337.476 207.853 313.863 207.853 313.863L208.372 36.3452Z" fill="white" stroke="#95B0D6" stroke-width="6.412" stroke-miterlimit="10"/>
<path d="M93.747 64.1099C95.5623 79.16 103.731 92.0044 114.104 102.773C117.605 106.406 123.051 100.827 119.55 97.3238C110.733 88.2419 102.953 77.0841 101.397 64.2396C101.138 62.1638 99.8412 60.3474 97.5072 60.3474C95.6919 60.2176 93.4877 62.034 93.747 64.1099Z" fill="#95B0D6"/>
<path d="M143.018 39.4591C143.536 39.7186 143.925 40.1078 144.444 40.3673C144.574 40.497 144.833 40.6268 144.963 40.7565C145.87 41.4052 144.703 40.497 145.092 40.8862C145.87 41.535 146.648 42.3134 147.426 42.9621C147.815 43.3513 148.075 43.7406 148.464 44.0001C148.593 44.2595 148.853 44.3893 148.982 44.6488C148.982 44.7785 149.631 45.4272 149.242 45.038C148.982 44.6488 149.501 45.4272 149.501 45.4272C149.631 45.557 149.76 45.8164 149.89 45.9462C150.149 46.4652 150.538 46.8544 150.798 47.3734C151.316 48.2815 151.705 49.1897 152.224 49.9682C152.613 50.8764 152.094 49.579 152.354 50.0979C152.483 50.3574 152.613 50.6169 152.613 50.8764C152.742 51.3953 153.002 51.7846 153.131 52.3035C153.391 53.3415 153.65 54.3794 153.909 55.4174C153.909 55.6768 154.039 55.9363 154.039 56.1958C154.169 56.8445 153.909 55.2876 154.039 56.3255C154.039 56.8445 154.169 57.4932 154.169 58.0122C154.298 60.0881 155.854 62.0342 158.059 61.9045C160.133 61.7747 162.078 60.2178 161.949 58.0122C161.43 47.6328 155.854 38.0319 147.037 32.5828C145.352 31.5448 142.629 32.1935 141.721 34.0099C140.684 36.0858 141.202 38.2914 143.018 39.4591Z" fill="#95B0D6"/>
<path d="M57.7023 130.278C72.6136 127.424 88.5623 133.003 98.9354 144.291C100.362 145.847 102.955 145.718 104.381 144.291C105.937 142.734 105.808 140.398 104.381 138.841C92.1928 125.478 73.2619 119.51 55.498 122.883C53.4233 123.272 52.2564 125.737 52.775 127.684C53.553 129.759 55.6276 130.668 57.7023 130.278Z" fill="#95B0D6"/>
<path d="M207.722 121.845C201.498 121.715 195.274 123.013 189.828 126.127C185.031 128.851 181.27 132.873 178.029 137.285C175.176 141.307 172.842 145.588 170.379 149.87C169.212 151.945 168.174 154.021 166.878 155.967C166.229 156.876 165.711 157.914 165.062 158.822C164.803 159.211 164.414 159.6 164.155 159.989C163.766 160.638 164.673 159.47 164.155 159.989C164.025 160.249 163.766 160.379 163.636 160.638C162.858 161.546 162.08 162.325 161.302 163.103C161.043 163.233 160.913 163.492 160.654 163.622C160.005 164.141 161.172 163.363 160.654 163.622C160.265 163.882 159.746 164.271 159.357 164.53C158.968 164.79 158.449 164.92 157.931 165.179C158.449 164.79 158.449 164.92 157.931 165.179C157.671 165.309 157.412 165.309 157.023 165.439C156.504 165.568 155.986 165.568 155.467 165.828C155.467 165.828 156.245 165.828 155.467 165.828C155.078 165.828 154.819 165.828 154.43 165.828C149.373 165.958 149.373 173.742 154.43 173.612C164.414 173.353 170.379 165.309 174.917 157.265C177.251 153.113 179.455 148.702 182.048 144.68C182.697 143.642 183.475 142.604 184.123 141.566C184.253 141.307 184.512 141.047 184.642 140.917C184.771 140.788 184.771 140.658 184.901 140.528C184.901 140.528 184.512 141.047 184.771 140.788C185.16 140.269 185.549 139.75 185.938 139.36C186.716 138.452 187.624 137.414 188.531 136.636C188.92 136.247 189.439 135.857 189.828 135.468C190.087 135.338 190.217 135.079 190.476 134.949C190.995 134.56 189.958 135.209 190.736 134.69C191.903 133.911 193.07 133.133 194.366 132.354C194.626 132.225 195.015 132.095 195.274 131.835C195.533 131.706 196.311 131.446 195.663 131.706C196.311 131.446 197.089 131.187 197.738 130.927C198.516 130.668 199.164 130.538 199.942 130.278C200.331 130.149 200.72 130.149 201.109 130.019C201.239 130.019 201.498 130.019 201.628 129.889C201.757 129.889 202.665 129.759 202.146 129.759C201.757 129.759 202.794 129.63 203.054 129.63C203.443 129.63 203.961 129.5 204.35 129.5C205.258 129.5 206.295 129.5 207.203 129.5C212.649 129.63 212.649 121.845 207.722 121.845Z" fill="#95B0D6"/>
<path d="M128.24 104.849C128.888 109.909 125.387 114.58 120.33 115.358C115.273 116.007 110.605 112.504 109.827 107.444C109.179 102.384 112.68 97.7132 117.737 96.9348C122.923 96.1563 127.591 99.7891 128.24 104.849Z" fill="white" stroke="#95B0D6" stroke-width="5" stroke-miterlimit="10"/>
<path d="M118.382 147.275C118.382 152.464 114.232 156.616 109.046 156.616C103.859 156.616 99.71 152.464 99.71 147.275C99.71 142.085 103.859 137.933 109.046 137.933C114.232 137.933 118.382 142.085 118.382 147.275Z" fill="white" stroke="#95B0D6" stroke-width="5" stroke-miterlimit="10"/>
<path d="M158.058 76.5652C163.214 76.5652 167.394 72.3829 167.394 67.2237C167.394 62.0646 163.214 57.8823 158.058 57.8823C152.902 57.8823 148.723 62.0646 148.723 67.2237C148.723 72.3829 152.902 76.5652 158.058 76.5652Z" fill="white" stroke="#95B0D6" stroke-width="5" stroke-miterlimit="10"/>
<path d="M158.058 174.78C158.058 179.97 153.909 184.121 148.723 184.121C143.536 184.121 139.387 179.97 139.387 174.78C139.387 169.59 143.536 165.438 148.723 165.438C153.909 165.438 158.058 169.59 158.058 174.78Z" fill="white" stroke="#95B0D6" stroke-width="5" stroke-miterlimit="10"/>
<path d="M149.89 232.126C149.89 237.316 145.741 241.467 140.555 241.467C135.368 241.467 131.219 237.316 131.219 232.126C131.219 226.936 135.368 222.784 140.555 222.784C145.741 222.784 149.89 227.066 149.89 232.126Z" fill="white" stroke="#95B0D6" stroke-width="5" stroke-miterlimit="10"/>
<path d="M183.343 205.14C183.343 210.329 179.194 214.481 174.008 214.481C168.821 214.481 164.672 210.329 164.672 205.14C164.672 199.95 168.821 195.798 174.008 195.798C179.194 195.798 183.343 199.95 183.343 205.14Z" fill="white" stroke="#95B0D6" stroke-width="5" stroke-miterlimit="10"/>
<path d="M146.002 311.009C156.764 302.576 163.247 289.602 164.414 276.109C164.544 274.033 162.469 272.216 160.524 272.216C158.32 272.216 156.764 274.033 156.634 276.109C155.597 287.526 149.503 298.294 140.426 305.56C138.741 306.857 139 309.712 140.426 311.009C142.112 312.566 144.316 312.307 146.002 311.009Z" fill="#95B0D6"/>
<path d="M170.508 271.438C170.508 276.627 166.358 280.779 161.172 280.779C155.985 280.779 151.836 276.627 151.836 271.438C151.836 266.248 155.985 262.096 161.172 262.096C166.358 262.096 170.508 266.248 170.508 271.438Z" fill="white" stroke="#95B0D6" stroke-width="5" stroke-miterlimit="10"/>
<path d="M83.1139 274.292C82.8545 268.584 85.0588 263.394 89.5971 259.631C90.375 258.983 91.931 258.074 93.098 257.556C93.2277 257.556 93.3573 257.426 93.487 257.426C93.2276 257.556 93.3573 257.556 93.487 257.426C93.876 257.296 94.1353 257.166 94.5243 257.037C95.3023 256.777 96.2099 256.518 96.9879 256.388C99.5812 255.869 102.434 255.999 105.157 256.777C109.954 258.075 112.029 250.549 107.231 249.252C99.3218 247.046 90.764 248.863 84.4105 254.052C78.446 258.853 74.9451 266.767 75.334 274.552C75.4637 276.628 77.0197 278.444 79.224 278.444C81.2986 278.185 83.2435 276.368 83.1139 274.292Z" fill="#95B0D6"/>
<path d="M122.144 255.869C122.144 261.058 117.995 265.21 112.808 265.21C107.621 265.21 103.472 261.058 103.472 255.869C103.472 250.679 107.621 246.527 112.808 246.527C117.995 246.527 122.144 250.679 122.144 255.869Z" fill="white" stroke="#95B0D6" stroke-width="5" stroke-miterlimit="10"/>
<path d="M151.577 236.926C155.338 237.056 158.32 237.445 161.951 238.224C163.506 238.613 164.933 239.002 166.359 239.391C167.007 239.651 167.656 239.91 168.304 240.17C169.341 240.559 167.915 239.91 168.434 240.17C168.823 240.3 169.082 240.429 169.471 240.689C170.638 241.208 171.675 241.857 172.713 242.505C173.231 242.765 173.75 243.154 174.139 243.413C174.269 243.543 174.398 243.673 174.658 243.803C175.565 244.451 174.528 243.673 174.917 244.062C176.473 245.489 178.029 246.787 179.325 248.473C179.585 248.863 179.974 249.252 180.233 249.641C179.455 248.733 180.492 250.03 180.622 250.16C181.141 250.938 181.659 251.717 182.178 252.495C183.215 254.052 184.123 255.479 185.16 257.036C187.365 260.28 189.699 263.264 192.94 265.599C197.089 268.454 202.406 269.362 207.333 269.102C209.407 268.973 211.223 267.416 211.223 265.21C211.223 263.134 209.407 261.188 207.333 261.318C206.166 261.318 204.869 261.318 203.702 261.318C203.443 261.318 203.184 261.318 202.924 261.188C202.017 261.188 203.832 261.318 202.924 261.188C202.406 261.058 201.887 261.058 201.498 260.929C200.979 260.799 200.59 260.669 200.072 260.539C199.812 260.41 198.386 259.761 199.553 260.41C198.775 260.02 197.997 259.631 197.349 259.242C197.089 259.112 195.922 258.074 196.96 258.982C196.7 258.723 196.311 258.464 196.052 258.204C195.404 257.685 194.885 257.036 194.366 256.388C194.107 256.128 193.848 255.739 193.588 255.479C193.07 254.831 194.107 256.258 193.718 255.609C193.588 255.479 193.459 255.22 193.329 255.09C192.811 254.442 192.292 253.663 191.903 253.014C189.699 249.641 187.624 246.268 185.031 243.284C182.048 239.781 178.288 236.797 174.139 234.721C167.137 231.218 159.357 229.92 151.577 229.531C149.503 229.401 147.688 231.347 147.688 233.423C147.688 235.24 149.373 236.797 151.577 236.926Z" fill="#95B0D6"/>
<path d="M47.4557 204.231C62.8857 209.81 80.0013 210.459 95.8203 206.178C100.618 204.88 98.5432 197.355 93.7456 198.653C79.2233 202.675 63.7933 201.896 49.5303 196.706C47.5853 195.928 45.2514 197.485 44.7327 199.431C44.2141 201.637 45.5107 203.453 47.4557 204.231Z" fill="#95B0D6"/>
<path d="M113.328 200.469C113.328 205.659 109.179 209.81 103.992 209.81C98.8055 209.81 94.6562 205.659 94.6562 200.469C94.6562 195.279 98.8055 191.127 103.992 191.127C109.179 191.127 113.328 195.409 113.328 200.469Z" fill="white" stroke="#95B0D6" stroke-width="5" stroke-miterlimit="10"/>
<path d="M155.594 133.262C167.264 129.5 172.321 117.045 176.211 106.406C177.248 103.422 178.286 100.438 179.453 97.4536C179.971 95.8967 180.49 94.4695 181.138 92.9126C181.398 92.1342 181.657 91.4855 182.046 90.707C182.176 90.3178 182.305 90.0583 182.435 89.6691C182.565 89.5393 182.565 89.2798 182.694 89.1501C182.953 88.5014 182.565 89.5393 182.694 89.1501C183.861 86.2958 185.158 83.5712 186.714 80.9764C187.492 79.6789 188.27 78.5113 189.177 77.2138C189.437 76.9544 189.826 76.4354 189.307 76.9544C189.566 76.6949 189.826 76.4354 189.955 76.0462C190.474 75.5272 190.863 74.8785 191.382 74.3595C191.9 73.8405 192.419 73.3216 193.067 72.8026C193.327 72.5431 193.586 72.2836 193.845 72.1539C193.975 72.0242 194.364 71.7647 193.975 72.0242C193.456 72.4134 194.105 71.8944 194.234 71.8944C195.531 70.9862 196.828 70.2078 198.254 69.5591C198.902 69.2996 198.254 69.5591 198.124 69.5591C198.384 69.4293 198.513 69.4293 198.773 69.2996C199.161 69.1698 199.55 69.0401 199.939 68.9103C200.717 68.6509 201.495 68.3914 202.403 68.2616C202.792 68.1319 203.181 68.1319 203.57 68.0022C203.7 68.0022 204.348 67.8724 203.829 68.0022C203.181 68.1319 204.218 68.0022 204.218 68.0022C205.256 67.8724 206.163 67.8724 207.201 67.8724C212.258 67.8724 212.258 60.0879 207.201 60.0879C200.328 60.0879 193.845 62.2935 188.399 66.575C183.602 70.3375 180.231 75.7867 177.637 81.1061C174.785 87.0742 172.58 93.1721 170.376 99.3997C169.339 102.384 168.301 105.368 167.135 108.222C167.005 108.482 166.875 108.871 166.746 109.13C166.616 109.26 166.227 110.558 166.616 109.52C166.357 110.168 165.968 110.947 165.708 111.595C165.19 112.893 164.541 114.061 163.893 115.358C163.115 116.655 162.337 117.953 161.559 119.25C161.3 119.51 161.17 119.899 160.911 120.158C161.429 119.51 161.04 120.029 160.781 120.288C160.262 120.807 159.873 121.326 159.355 121.845C158.836 122.364 158.317 122.753 157.928 123.143C157.28 123.661 158.577 122.753 157.669 123.272C157.41 123.402 157.15 123.661 156.891 123.791C156.243 124.18 155.724 124.44 155.076 124.829C154.168 125.218 155.465 124.699 154.946 124.959C154.557 125.089 154.168 125.218 153.779 125.348C151.834 125.997 150.538 128.073 151.056 130.149C151.445 132.484 153.649 133.911 155.594 133.262Z" fill="#95B0D6"/>
<path d="M160.785 132.225C160.785 137.414 156.636 141.566 151.449 141.566C146.263 141.566 142.113 137.414 142.113 132.225C142.113 127.035 146.263 122.883 151.449 122.883C156.636 122.883 160.785 127.035 160.785 132.225Z" fill="white" stroke="#95B0D6" stroke-width="5" stroke-miterlimit="10"/>
<path d="M207.204 205.14H183.734" stroke="#95B0D6" stroke-width="5" stroke-miterlimit="10"/>
</g>
<defs>
<clipPath id="clip0">
<rect width="351" height="342" fill="white" transform="translate(0 0.795898)"/>
</clipPath>
</defs>
</svg>
