<svg width="50" height="50" viewBox="0 0 50 50" fill="none" xmlns="http://www.w3.org/2000/svg">
<g clip-path="url(#clip0)">
<path d="M46.5901 43.0175C48.4703 43.0175 50 41.4878 50 39.6076V4.88257C50 2.19019 47.8096 -0.000244141 45.1172 -0.000244141H4.88281C2.19043 -0.000244141 0 2.19019 0 4.88257V39.6076C0 41.4878 1.52969 43.0175 3.40986 43.0175H4.49219V48.0466H0.976562C0.437207 48.0466 0 48.4839 0 49.0232C0 49.5625 0.437207 49.9998 0.976562 49.9998H49.0234C49.5628 49.9998 50 49.5625 50 49.0232C50 48.4839 49.5628 48.0466 49.0234 48.0466H45.5078V43.0175H46.5901ZM1.95312 4.88257C1.95312 3.26714 3.26738 1.95288 4.88281 1.95288H45.1172C46.7326 1.95288 48.0469 3.26714 48.0469 4.88257V7.03101H2.05117C2.01807 7.03101 1.98535 7.03276 1.95312 7.03599V4.88257ZM10.7422 48.0466H6.44531V39.2576H10.7422V48.0466ZM21.6797 48.0466H17.3828V28.4599H21.6797V48.0466ZM32.6172 48.0466H28.3203V36.7185H32.6172V48.0466ZM44.5312 25.0486H38.2812C37.7419 25.0486 37.3047 25.4859 37.3047 26.0251V30.9567C37.3047 31.4959 37.7419 31.9333 38.2812 31.9333C38.8206 31.9333 39.2578 31.4959 39.2578 30.9567V27.0017H43.5547V48.0466H39.2578V37.5242C39.2578 36.9849 38.8206 36.5476 38.2812 36.5476C37.7419 36.5476 37.3047 36.9849 37.3047 37.5242V48.0466H34.5703V35.7419C34.5703 35.2027 34.1331 34.7654 33.5938 34.7654H27.3438C26.8044 34.7654 26.3672 35.2027 26.3672 35.7419V48.0466H23.6328V27.4834C23.6328 26.9441 23.1956 26.5068 22.6562 26.5068H16.4062C15.8669 26.5068 15.4297 26.9441 15.4297 27.4834V48.0466H12.6953V38.281C12.6953 37.7417 12.2581 37.3044 11.7188 37.3044H5.46875C4.92939 37.3044 4.49219 37.7417 4.49219 38.281V41.0644H3.40986C2.60654 41.0644 1.95312 40.4109 1.95312 39.6076V8.97915C1.98535 8.98237 2.01807 8.98413 2.05117 8.98413H48.0469V39.6076C48.0469 40.4109 47.3934 41.0644 46.5901 41.0644H45.5078V26.0251C45.5078 25.4859 45.0706 25.0486 44.5312 25.0486Z" fill="#006290"/>
<path d="M43.7476 3.51538H21.6836C21.1442 3.51538 20.707 3.95269 20.707 4.49194C20.707 5.0312 21.1442 5.46851 21.6836 5.46851H43.7476C44.2869 5.46851 44.7241 5.0312 44.7241 4.49194C44.7241 3.95269 44.2869 3.51538 43.7476 3.51538Z" fill="#006290"/>
<path d="M10.8467 3.80151C10.665 3.61987 10.4131 3.51538 10.1562 3.51538C9.89941 3.51538 9.64746 3.61978 9.46582 3.80151C9.28418 3.98315 9.17969 4.23511 9.17969 4.49194C9.17969 4.74878 9.28418 5.00073 9.46582 5.18228C9.64746 5.36401 9.89941 5.46851 10.1562 5.46851C10.4131 5.46851 10.665 5.36401 10.8467 5.18228C11.0283 5.00073 11.1328 4.74878 11.1328 4.49194C11.1328 4.23511 11.0283 3.98315 10.8467 3.80151Z" fill="#006290"/>
<path d="M6.94043 3.80151C6.75879 3.61987 6.50684 3.51538 6.25 3.51538C5.99316 3.51538 5.74121 3.61978 5.55957 3.80151C5.37793 3.98315 5.27344 4.23511 5.27344 4.49194C5.27344 4.74878 5.37793 5.00073 5.55957 5.18228C5.74121 5.36401 5.99316 5.46851 6.25 5.46851C6.50684 5.46851 6.75879 5.36401 6.94043 5.18228C7.12207 5.00073 7.22656 4.74878 7.22656 4.49194C7.22656 4.23511 7.12207 3.98315 6.94043 3.80151Z" fill="#006290"/>
<path d="M14.7529 3.80151C14.5713 3.61987 14.3203 3.51538 14.0625 3.51538C13.8057 3.51538 13.5537 3.61978 13.3721 3.80151C13.1904 3.98315 13.0859 4.23511 13.0859 4.49194C13.0859 4.74878 13.1904 5.00073 13.3721 5.18228C13.5537 5.36401 13.8057 5.46851 14.0625 5.46851C14.3193 5.46851 14.5713 5.36401 14.7529 5.18228C14.9346 5.00073 15.0391 4.74878 15.0391 4.49194C15.0391 4.23511 14.9346 3.98315 14.7529 3.80151Z" fill="#006290"/>
<path d="M38.9717 33.7467C38.79 33.5641 38.5381 33.4606 38.2812 33.4606C38.0244 33.4606 37.7725 33.5642 37.5908 33.7467C37.4092 33.9283 37.3047 34.1803 37.3047 34.4371C37.3047 34.694 37.4092 34.9459 37.5908 35.1276C37.7725 35.3091 38.0244 35.4137 38.2812 35.4137C38.5381 35.4137 38.79 35.3092 38.9717 35.1276C39.1533 34.9459 39.2578 34.694 39.2578 34.4371C39.2578 34.1793 39.1533 33.9283 38.9717 33.7467Z" fill="#006290"/>
<path d="M41.4047 13.2751C39.4661 13.2751 37.8891 14.8522 37.8891 16.7908C37.8891 17.5608 38.1386 18.2733 38.5601 18.8531L32.0732 25.3399C31.5698 25.0613 30.9915 24.9021 30.3765 24.9021C29.8223 24.9021 29.2979 25.0315 28.8312 25.2609L22.0578 18.4875C22.3364 17.9841 22.4956 17.4058 22.4956 16.7908C22.4956 14.8522 20.9186 13.2751 18.98 13.2751C17.0414 13.2751 15.4644 14.8522 15.4644 16.7908C15.4644 17.4683 15.6575 18.1013 15.9909 18.6386L10.224 24.4054C9.72061 24.1268 9.14228 23.9676 8.52734 23.9676C6.58877 23.9676 5.01172 25.5447 5.01172 27.4833C5.01172 29.4218 6.58877 30.9989 8.52734 30.9989C10.4659 30.9989 12.043 29.4218 12.043 27.4833C12.043 26.8682 11.8838 26.2899 11.6052 25.7865L17.4409 19.9507C17.9061 20.1782 18.4283 20.3063 18.98 20.3063C19.5949 20.3063 20.1732 20.1471 20.6767 19.8685L27.3837 26.5754C27.0525 27.1116 26.8608 27.7424 26.8608 28.4175C26.8608 30.3561 28.4379 31.9332 30.3765 31.9332C32.315 31.9332 33.8921 30.3561 33.8921 28.4175C33.8921 27.8025 33.7329 27.2242 33.4543 26.7208L40.1149 20.0601C40.5146 20.2185 40.9495 20.3064 41.4047 20.3064C43.3433 20.3064 44.9203 18.7293 44.9203 16.7908C44.9203 14.8522 43.3433 13.2751 41.4047 13.2751ZM8.52744 29.0459C7.66592 29.0459 6.96494 28.345 6.96494 27.4834C6.96494 26.6219 7.66592 25.9209 8.52744 25.9209C9.38896 25.9209 10.0899 26.6219 10.0899 27.4834C10.0899 28.345 9.38896 29.0459 8.52744 29.0459ZM18.9801 18.3533C18.1186 18.3533 17.4176 17.6523 17.4176 16.7908C17.4176 15.9292 18.1186 15.2283 18.9801 15.2283C19.8416 15.2283 20.5426 15.9292 20.5426 16.7908C20.5426 17.6523 19.8416 18.3533 18.9801 18.3533ZM30.3766 29.9802C29.515 29.9802 28.8141 29.2792 28.8141 28.4177C28.8141 27.5562 29.515 26.8552 30.3766 26.8552C31.2381 26.8552 31.9391 27.5562 31.9391 28.4177C31.9391 29.2792 31.2381 29.9802 30.3766 29.9802ZM41.4047 18.3533C40.5432 18.3533 39.8422 17.6523 39.8422 16.7908C39.8422 15.9292 40.5432 15.2283 41.4047 15.2283C42.2662 15.2283 42.9672 15.9292 42.9672 16.7908C42.9672 17.6523 42.2662 18.3533 41.4047 18.3533Z" fill="#006290"/>
<path d="M14.4838 12.5926C14.3011 12.411 14.0502 12.3064 13.7933 12.3064C13.5355 12.3064 13.2836 12.4109 13.1019 12.5926C12.9203 12.7741 12.8168 13.0261 12.8168 13.2829C12.8168 13.5398 12.9203 13.7917 13.1019 13.9734C13.2845 14.155 13.5355 14.2595 13.7933 14.2595C14.0502 14.2595 14.3011 14.1551 14.4838 13.9734C14.6654 13.7917 14.7699 13.5398 14.7699 13.2829C14.7699 13.0261 14.6654 12.7741 14.4838 12.5926Z" fill="#006290"/>
<path d="M10.1562 12.3065H5.46875C4.92939 12.3065 4.49219 12.7438 4.49219 13.283C4.49219 13.8223 4.92939 14.2596 5.46875 14.2596H10.1562C10.6956 14.2596 11.1328 13.8223 11.1328 13.283C11.1328 12.7438 10.6956 12.3065 10.1562 12.3065Z" fill="#006290"/>
<path d="M10.1562 16.994H5.46875C4.92939 16.994 4.49219 17.4313 4.49219 17.9706C4.49219 18.5098 4.92939 18.9471 5.46875 18.9471H10.1562C10.6956 18.9471 11.1328 18.5098 11.1328 17.9706C11.1328 17.4313 10.6956 16.994 10.1562 16.994Z" fill="#006290"/>
</g>
<defs>
<clipPath id="clip0">
<rect width="50" height="50" fill="white" transform="translate(0 -0.000244141)"/>
</clipPath>
</defs>
</svg>
