<svg width="56" height="56" viewBox="0 0 56 56" fill="none" xmlns="http://www.w3.org/2000/svg">
<path d="M51.1875 6.10205H4.8125C4.00056 6.10296 3.22214 6.42015 2.64801 6.98402C2.07388 7.5479 1.75093 8.31242 1.75 9.10986V40.9067C1.75093 41.7042 2.07388 42.4687 2.64801 43.0326C3.22214 43.5965 4.00056 43.9136 4.8125 43.9146H43.7417L48.2023 48.6883L49.3855 49.9547C49.6186 50.2041 49.8995 50.406 50.212 50.5489C50.5245 50.6917 50.8627 50.7727 51.2071 50.7872C51.5515 50.8017 51.8954 50.7495 52.2193 50.6334C52.5431 50.5174 52.8405 50.3398 53.0945 50.1109C53.3485 49.882 53.5541 49.6062 53.6995 49.2992C53.845 48.9923 53.9274 48.6602 53.9422 48.3219C53.957 47.9837 53.9038 47.6458 53.7856 47.3278C53.6675 47.0097 53.4867 46.7176 53.2536 46.4682L52.0703 45.2019L50.8671 43.9146H51.1875C51.9994 43.9136 52.7779 43.5965 53.352 43.0326C53.9261 42.4687 54.2491 41.7042 54.25 40.9067V9.10986C54.2491 8.31242 53.9261 7.5479 53.352 6.98402C52.7779 6.42015 51.9994 6.10296 51.1875 6.10205ZM3.5 9.10986C3.50038 8.7681 3.63878 8.44043 3.88484 8.19877C4.1309 7.9571 4.46452 7.82117 4.8125 7.8208H51.1875C51.5355 7.82117 51.8691 7.9571 52.1152 8.19877C52.3612 8.44043 52.4996 8.7681 52.5 9.10986V11.2583H3.5V9.10986ZM11.375 42.1958V16.4146H44.625V37.2339L40.2379 32.5386C40.2269 32.5268 40.2149 32.5161 40.2033 32.5051C40.1956 32.4978 40.1885 32.4901 40.1805 32.4836C40.1578 32.4632 40.1339 32.444 40.1091 32.4261L39.3531 31.8833H42C42.2321 31.8833 42.4546 31.7928 42.6187 31.6316C42.7828 31.4704 42.875 31.2518 42.875 31.0239C42.875 30.796 42.7828 30.5774 42.6187 30.4163C42.4546 30.2551 42.2321 30.1646 42 30.1646H36.8966C36.5192 29.9892 36.0944 29.938 35.6851 30.0186C35.2758 30.0991 34.9038 30.307 34.6243 30.6115C34.3448 30.9161 34.1727 31.3009 34.1334 31.7091C34.0942 32.1173 34.19 32.527 34.4065 32.8775L36.2621 35.8827L36.2659 35.8888V35.8895C36.2666 35.8907 36.2674 35.8916 36.2682 35.8928C36.2834 35.9172 36.2999 35.9408 36.3175 35.9636C36.3245 35.9726 36.3323 35.981 36.3394 35.9897C36.3493 36.0015 36.3585 36.0137 36.3692 36.0251L37.3178 37.0396H15.75C15.5179 37.0396 15.2954 37.1301 15.1313 37.2913C14.9672 37.4524 14.875 37.671 14.875 37.8989C14.875 38.1269 14.9672 38.3454 15.1313 38.5066C15.2954 38.6678 15.5179 38.7583 15.75 38.7583H38.9237L42.1357 42.1958H11.375ZM49.5447 46.3119L48.8994 46.893L47.7162 45.6266L49.0056 44.4646L50.1888 45.7308L49.5447 46.3119ZM46.5335 44.3604L38.2507 35.496L39.5402 34.3339L47.8229 43.1983L46.5335 44.3604ZM35.9373 31.749C35.9701 31.7196 36.0123 31.7021 36.0566 31.6997C36.101 31.6972 36.1449 31.7099 36.1808 31.7356L38.2152 33.1951L37.2089 34.1018L35.9026 31.9861C35.8797 31.9487 35.8706 31.9047 35.877 31.8616C35.8833 31.8184 35.9046 31.7787 35.9373 31.7492V31.749ZM51.9112 48.8446C51.7401 48.9983 51.514 49.0791 51.2823 49.0693C51.0506 49.0596 50.8324 48.96 50.6753 48.7925L50.0837 48.1593L51.3726 46.9976L51.9643 47.6308C52.1211 47.7987 52.2036 48.0209 52.1936 48.2485C52.1837 48.4762 52.0821 48.6906 51.9112 48.8447V48.8446ZM51.1875 42.1958H49.2614L46.375 39.1067V15.5552C46.375 15.3273 46.2828 15.1087 46.1187 14.9475C45.9546 14.7863 45.7321 14.6958 45.5 14.6958H10.5C10.2679 14.6958 10.0454 14.7863 9.88128 14.9475C9.71719 15.1087 9.625 15.3273 9.625 15.5552V42.1958H4.8125C4.46452 42.1954 4.1309 42.0595 3.88484 41.8178C3.63878 41.5762 3.50038 41.2485 3.5 40.9067V12.9771H52.5V40.9067C52.4996 41.2485 52.3612 41.5762 52.1152 41.8178C51.8691 42.0595 51.5355 42.1954 51.1875 42.1958Z" fill="#006291"/>
<path d="M6.125 10.3989C6.60825 10.3989 7 10.0142 7 9.53955C7 9.06493 6.60825 8.68018 6.125 8.68018C5.64175 8.68018 5.25 9.06493 5.25 9.53955C5.25 10.0142 5.64175 10.3989 6.125 10.3989Z" fill="#006291"/>
<path d="M9.625 10.3989C10.1082 10.3989 10.5 10.0142 10.5 9.53955C10.5 9.06493 10.1082 8.68018 9.625 8.68018C9.14175 8.68018 8.75 9.06493 8.75 9.53955C8.75 10.0142 9.14175 10.3989 9.625 10.3989Z" fill="#006291"/>
<path d="M13.125 10.3989C13.6082 10.3989 14 10.0142 14 9.53955C14 9.06493 13.6082 8.68018 13.125 8.68018C12.6418 8.68018 12.25 9.06493 12.25 9.53955C12.25 10.0142 12.6418 10.3989 13.125 10.3989Z" fill="#006291"/>
<path d="M33.25 34.4614V18.9927C33.25 18.7648 33.1578 18.5462 32.9937 18.385C32.8296 18.2238 32.6071 18.1333 32.375 18.1333H14C13.7679 18.1333 13.5454 18.2238 13.3813 18.385C13.2172 18.5462 13.125 18.7648 13.125 18.9927V34.4614C13.125 34.6893 13.2172 34.9079 13.3813 35.0691C13.5454 35.2303 13.7679 35.3208 14 35.3208H32.375C32.6071 35.3208 32.8296 35.2303 32.9937 35.0691C33.1578 34.9079 33.25 34.6893 33.25 34.4614ZM31.5 33.6021H14.875V19.8521H31.5V33.6021Z" fill="#006291"/>
<path d="M19.25 29.3052H19.2533C19.2693 29.7507 19.4324 30.179 19.7181 30.5254C20.0039 30.8718 20.3966 31.1175 20.837 31.2253L21.8969 31.4858C22.0646 31.5271 22.2368 31.548 22.4096 31.5481C22.9646 31.5464 23.4962 31.3288 23.8881 30.9428C24.2799 30.5568 24.4999 30.034 24.5 29.489V29.4216L27.8102 30.1441C27.9381 30.172 28.0708 30.1714 28.1984 30.1422C28.326 30.113 28.4453 30.056 28.5476 29.9755C28.6498 29.895 28.7322 29.7929 28.7889 29.6769C28.8456 29.5609 28.875 29.4338 28.875 29.3052V22.4302C28.875 22.3015 28.8456 22.1744 28.7889 22.0584C28.7322 21.9424 28.6498 21.8403 28.5476 21.7598C28.4453 21.6793 28.326 21.6223 28.1984 21.5931C28.0708 21.5639 27.9381 21.5633 27.8102 21.5912L20.9896 23.0798C20.6114 22.7501 20.1443 22.5348 19.6444 22.4597C19.1445 22.3847 18.6331 22.4532 18.172 22.657C17.7108 22.8608 17.3194 23.1911 17.0449 23.6083C16.7705 24.0254 16.6246 24.5116 16.625 25.0083V26.727C16.6258 27.4106 16.9026 28.0659 17.3947 28.5492C17.8868 29.0325 18.554 29.3044 19.25 29.3052ZM22.75 29.489C22.75 29.5405 22.7381 29.5913 22.715 29.6376C22.692 29.684 22.6586 29.7245 22.6172 29.7562C22.5759 29.7879 22.5277 29.81 22.4764 29.8207C22.4251 29.8313 22.3719 29.8304 22.321 29.8179L21.2615 29.5578C21.1868 29.5395 21.1204 29.4972 21.073 29.4376C21.0256 29.378 20.9999 29.3045 21 29.2289V28.6577L22.75 29.0396V29.489ZM27.125 28.2338L21.8495 27.0824C21.8663 26.9646 21.8748 26.8459 21.875 26.727V25.0083C21.8748 24.8894 21.8663 24.7707 21.8495 24.6529L27.125 23.5015V28.2338ZM18.375 25.0083C18.375 24.7804 18.4672 24.5618 18.6313 24.4006C18.7954 24.2394 19.0179 24.1489 19.25 24.1489C19.4821 24.1489 19.7046 24.2394 19.8687 24.4006C20.0328 24.5618 20.125 24.7804 20.125 25.0083V26.727C20.125 26.955 20.0328 27.1735 19.8687 27.3347C19.7046 27.4959 19.4821 27.5864 19.25 27.5864C19.0179 27.5864 18.7954 27.4959 18.6313 27.3347C18.4672 27.1735 18.375 26.955 18.375 26.727V25.0083Z" fill="#006291"/>
<path d="M37.625 21.5708H42C42.2321 21.5708 42.4546 21.4803 42.6187 21.3191C42.7828 21.1579 42.875 20.9393 42.875 20.7114C42.875 20.4835 42.7828 20.2649 42.6187 20.1038C42.4546 19.9426 42.2321 19.8521 42 19.8521H37.625C37.3929 19.8521 37.1704 19.9426 37.0063 20.1038C36.8422 20.2649 36.75 20.4835 36.75 20.7114C36.75 20.9393 36.8422 21.1579 37.0063 21.3191C37.1704 21.4803 37.3929 21.5708 37.625 21.5708Z" fill="#006291"/>
<path d="M35.875 26.7271H42C42.2321 26.7271 42.4546 26.6365 42.6187 26.4753C42.7828 26.3142 42.875 26.0956 42.875 25.8677C42.875 25.6398 42.7828 25.4212 42.6187 25.26C42.4546 25.0988 42.2321 25.0083 42 25.0083H35.875C35.6429 25.0083 35.4204 25.0988 35.2563 25.26C35.0922 25.4212 35 25.6398 35 25.8677C35 26.0956 35.0922 26.3142 35.2563 26.4753C35.4204 26.6365 35.6429 26.7271 35.875 26.7271Z" fill="#006291"/>
</svg>
