<svg width="351" height="292" viewBox="0 0 351 292" fill="none" xmlns="http://www.w3.org/2000/svg">
<path d="M174 214V258C174 271.255 184.745 282 198 282H217" stroke="#E2EDFB" stroke-width="5"/>
<path d="M184 194V249C184 256.732 190.268 263 198 263V263" stroke="#006290" stroke-width="5"/>
<path d="M67 76.6979C99.0196 67.0417 161.342 70.3834 154.476 161" stroke="#E2EDFB" stroke-width="4"/>
<path d="M290 71.7819C257.617 61.9062 194.586 65.3239 201.53 158" stroke="#006290" stroke-width="4"/>
<path d="M163.184 192.273L166.808 237H191.192L194.816 192.273L265 114H93L163.184 192.273Z" fill="#C6DBF8"/>
<path d="M62.88 7.26893C63.683 7.26797 64.4528 6.94857 65.0206 6.38078C65.5884 5.81299 65.9078 5.04318 65.9088 4.24021V3.02872C65.9088 2.22546 65.5897 1.45509 65.0217 0.887092C64.4537 0.319097 63.6833 0 62.88 0C62.0768 0 61.3064 0.319097 60.7384 0.887092C60.1704 1.45509 59.8513 2.22546 59.8513 3.02872V4.24021C59.8523 5.04318 60.1717 5.81299 60.7395 6.38078C61.3073 6.94857 62.0771 7.26797 62.88 7.26893ZM61.0628 3.02872C61.0628 2.54676 61.2543 2.08454 61.5951 1.74374C61.9359 1.40295 62.3981 1.21149 62.88 1.21149C63.362 1.21149 63.8242 1.40295 64.165 1.74374C64.5058 2.08454 64.6973 2.54676 64.6973 3.02872V4.24021C64.6973 4.72217 64.5058 5.18439 64.165 5.52519C63.8242 5.86599 63.362 6.05745 62.88 6.05745C62.3981 6.05745 61.9359 5.86599 61.5951 5.52519C61.2543 5.18439 61.0628 4.72217 61.0628 4.24021V3.02872Z" fill="#006291"/>
<path d="M64.0915 8.48047H61.6685C60.7462 8.47909 59.839 8.71435 59.0335 9.16375C58.8972 9.24425 58.7978 9.37491 58.7566 9.52778C58.7154 9.68065 58.7357 9.84357 58.8132 9.98165C58.8906 10.1197 59.019 10.222 59.1709 10.2666C59.3228 10.3112 59.4862 10.2945 59.6259 10.2202C60.2506 9.87269 60.9537 9.69085 61.6685 9.69196H64.0915C65.2156 9.69341 66.2933 10.1406 67.0882 10.9355C67.8831 11.7304 68.3303 12.808 68.3317 13.9322V18.7781C68.3302 19.1526 68.2129 19.5175 67.9961 19.8229C67.7792 20.1282 67.4733 20.3591 67.1202 20.4839V15.1437C67.1202 14.983 67.0564 14.8289 66.9428 14.7153C66.8292 14.6017 66.6751 14.5379 66.5145 14.5379C66.3538 14.5379 66.1997 14.6017 66.0861 14.7153C65.9725 14.8289 65.9087 14.983 65.9087 15.1437V30.893C65.9087 31.375 65.7173 31.8372 65.3765 32.178C65.0357 32.5188 64.5735 32.7103 64.0915 32.7103H63.4858V21.2011C63.4858 21.0405 63.4219 20.8864 63.3083 20.7728C63.1947 20.6592 63.0407 20.5954 62.88 20.5954C62.7194 20.5954 62.5653 20.6592 62.4517 20.7728C62.3381 20.8864 62.2743 21.0405 62.2743 21.2011V32.7103H61.6685C61.1866 32.7103 60.7243 32.5188 60.3835 32.178C60.0427 31.8372 59.8513 31.375 59.8513 30.893V15.1437C59.8513 14.983 59.7875 14.8289 59.6739 14.7153C59.5603 14.6017 59.4062 14.5379 59.2455 14.5379C59.0849 14.5379 58.9308 14.6017 58.8172 14.7153C58.7036 14.8289 58.6398 14.983 58.6398 15.1437V20.4839C58.2867 20.3591 57.9808 20.1282 57.7639 19.8229C57.5471 19.5175 57.4299 19.1526 57.4283 18.7781V13.9322C57.4266 13.3883 57.5322 12.8494 57.7391 12.3463C57.7728 12.2723 57.7912 12.1923 57.7933 12.111C57.7954 12.0297 57.7811 11.9488 57.7512 11.8731C57.7214 11.7974 57.6766 11.7286 57.6196 11.6706C57.5626 11.6126 57.4944 11.5667 57.4193 11.5356C57.3441 11.5045 57.2635 11.4889 57.1822 11.4896C57.1008 11.4904 57.0205 11.5075 56.9459 11.54C56.8713 11.5725 56.8041 11.6196 56.7481 11.6786C56.6922 11.7377 56.6487 11.8074 56.6202 11.8835C56.3519 12.5331 56.2148 13.2294 56.2168 13.9322V18.7781C56.2176 19.4761 56.459 20.1525 56.9004 20.6932C57.3418 21.2338 57.9561 21.6058 58.6398 21.7463V30.893C58.6408 31.696 58.9602 32.4658 59.528 33.0336C60.0957 33.6014 60.8655 33.9208 61.6685 33.9217H64.0915C64.8945 33.9208 65.6643 33.6014 66.2321 33.0336C66.7999 32.4658 67.1193 31.696 67.1202 30.893V21.7463C67.8039 21.6057 68.4181 21.2337 68.8595 20.693C69.3008 20.1524 69.5423 19.4761 69.5432 18.7781V13.9322C69.5416 12.4868 68.9667 11.1011 67.9447 10.079C66.9226 9.05697 65.5369 8.48208 64.0915 8.48047Z" fill="#006291"/>
<path d="M214.923 214.466C215.726 214.465 216.496 214.146 217.064 213.578C217.631 213.01 217.951 212.24 217.952 211.437V210.226C217.952 209.423 217.633 208.652 217.065 208.084C216.497 207.516 215.726 207.197 214.923 207.197C214.12 207.197 213.349 207.516 212.781 208.084C212.213 208.652 211.894 209.423 211.894 210.226V211.437C211.895 212.24 212.215 213.01 212.782 213.578C213.35 214.146 214.12 214.465 214.923 214.466ZM213.106 210.226C213.106 209.744 213.297 209.282 213.638 208.941C213.979 208.6 214.441 208.409 214.923 208.409C215.405 208.409 215.867 208.6 216.208 208.941C216.549 209.282 216.74 209.744 216.74 210.226V211.437C216.74 211.919 216.549 212.382 216.208 212.722C215.867 213.063 215.405 213.255 214.923 213.255C214.441 213.255 213.979 213.063 213.638 212.722C213.297 212.382 213.106 211.919 213.106 211.437V210.226Z" fill="#006291"/>
<path d="M216.134 215.678H213.711C212.789 215.676 211.882 215.912 211.076 216.361C210.94 216.442 210.841 216.572 210.8 216.725C210.758 216.878 210.779 217.041 210.856 217.179C210.934 217.317 211.062 217.419 211.214 217.464C211.366 217.508 211.529 217.492 211.669 217.417C212.294 217.07 212.997 216.888 213.711 216.889H216.134C217.259 216.891 218.336 217.338 219.131 218.133C219.926 218.928 220.373 220.005 220.375 221.129V225.975C220.373 226.35 220.256 226.715 220.039 227.02C219.822 227.325 219.516 227.556 219.163 227.681V222.341C219.163 222.18 219.099 222.026 218.986 221.913C218.872 221.799 218.718 221.735 218.557 221.735C218.397 221.735 218.243 221.799 218.129 221.913C218.016 222.026 217.952 222.18 217.952 222.341V238.09C217.952 238.572 217.76 239.034 217.419 239.375C217.079 239.716 216.616 239.908 216.134 239.908H215.529V228.398C215.529 228.238 215.465 228.084 215.351 227.97C215.238 227.856 215.084 227.793 214.923 227.793C214.762 227.793 214.608 227.856 214.495 227.97C214.381 228.084 214.317 228.238 214.317 228.398V239.908H213.711C213.23 239.908 212.767 239.716 212.427 239.375C212.086 239.034 211.894 238.572 211.894 238.09V222.341C211.894 222.18 211.83 222.026 211.717 221.913C211.603 221.799 211.449 221.735 211.289 221.735C211.128 221.735 210.974 221.799 210.86 221.913C210.747 222.026 210.683 222.18 210.683 222.341V227.681C210.33 227.556 210.024 227.325 209.807 227.02C209.59 226.715 209.473 226.35 209.471 225.975V221.129C209.47 220.586 209.575 220.047 209.782 219.544C209.816 219.47 209.834 219.39 209.836 219.308C209.838 219.227 209.824 219.146 209.794 219.07C209.764 218.995 209.72 218.926 209.663 218.868C209.606 218.81 209.537 218.764 209.462 218.733C209.387 218.702 209.306 218.686 209.225 218.687C209.144 218.688 209.063 218.705 208.989 218.737C208.914 218.77 208.847 218.817 208.791 218.876C208.735 218.935 208.692 219.005 208.663 219.081C208.395 219.73 208.258 220.427 208.26 221.129V225.975C208.261 226.673 208.502 227.35 208.943 227.89C209.385 228.431 209.999 228.803 210.683 228.944V238.09C210.684 238.893 211.003 239.663 211.571 240.231C212.139 240.799 212.909 241.118 213.711 241.119H216.134C216.937 241.118 217.707 240.799 218.275 240.231C218.843 239.663 219.162 238.893 219.163 238.09V228.944C219.847 228.803 220.461 228.431 220.902 227.89C221.344 227.35 221.585 226.673 221.586 225.975V221.129C221.585 219.684 221.01 218.298 219.988 217.276C218.966 216.254 217.58 215.679 216.134 215.678Z" fill="#006291"/>
<path d="M241.511 262.14C242.314 262.139 243.084 261.819 243.651 261.252C244.219 260.684 244.539 259.914 244.54 259.111V257.9C244.54 257.096 244.221 256.326 243.653 255.758C243.085 255.19 242.314 254.871 241.511 254.871C240.708 254.871 239.937 255.19 239.369 255.758C238.801 256.326 238.482 257.096 238.482 257.9V259.111C238.483 259.914 238.803 260.684 239.37 261.252C239.938 261.819 240.708 262.139 241.511 262.14ZM239.694 257.9C239.694 257.418 239.885 256.955 240.226 256.615C240.567 256.274 241.029 256.082 241.511 256.082C241.993 256.082 242.455 256.274 242.796 256.615C243.137 256.955 243.328 257.418 243.328 257.9V259.111C243.328 259.593 243.137 260.055 242.796 260.396C242.455 260.737 241.993 260.928 241.511 260.928C241.029 260.928 240.567 260.737 240.226 260.396C239.885 260.055 239.694 259.593 239.694 259.111V257.9Z" fill="#006291"/>
<path d="M242.875 263H240.452C239.529 262.999 238.622 263.234 237.817 263.683C237.68 263.764 237.581 263.894 237.54 264.047C237.499 264.2 237.519 264.363 237.596 264.501C237.674 264.639 237.802 264.742 237.954 264.786C238.106 264.831 238.269 264.814 238.409 264.74C239.034 264.392 239.737 264.21 240.452 264.211H242.875C243.999 264.213 245.077 264.66 245.871 265.455C246.666 266.25 247.113 267.328 247.115 268.452V273.298C247.113 273.672 246.996 274.037 246.779 274.342C246.562 274.648 246.257 274.879 245.903 275.003V269.663C245.903 269.503 245.84 269.348 245.726 269.235C245.612 269.121 245.458 269.057 245.298 269.057C245.137 269.057 244.983 269.121 244.869 269.235C244.756 269.348 244.692 269.503 244.692 269.663V285.413C244.692 285.895 244.5 286.357 244.16 286.698C243.819 287.038 243.357 287.23 242.875 287.23H242.269V275.721C242.269 275.56 242.205 275.406 242.092 275.292C241.978 275.179 241.824 275.115 241.663 275.115C241.503 275.115 241.348 275.179 241.235 275.292C241.121 275.406 241.057 275.56 241.057 275.721V287.23H240.452C239.97 287.23 239.508 287.038 239.167 286.698C238.826 286.357 238.634 285.895 238.634 285.413V269.663C238.634 269.503 238.571 269.348 238.457 269.235C238.343 269.121 238.189 269.057 238.029 269.057C237.868 269.057 237.714 269.121 237.6 269.235C237.487 269.348 237.423 269.503 237.423 269.663V275.003C237.07 274.879 236.764 274.648 236.547 274.342C236.33 274.037 236.213 273.672 236.212 273.298V268.452C236.21 267.908 236.315 267.369 236.522 266.866C236.556 266.792 236.574 266.712 236.576 266.63C236.579 266.549 236.564 266.468 236.534 266.393C236.505 266.317 236.46 266.248 236.403 266.19C236.346 266.132 236.278 266.086 236.202 266.055C236.127 266.024 236.047 266.008 235.965 266.009C235.884 266.01 235.804 266.027 235.729 266.06C235.655 266.092 235.587 266.139 235.531 266.198C235.475 266.257 235.432 266.327 235.403 266.403C235.135 267.053 234.998 267.749 235 268.452V273.298C235.001 273.996 235.242 274.672 235.684 275.213C236.125 275.753 236.739 276.125 237.423 276.266V285.413C237.424 286.216 237.743 286.985 238.311 287.553C238.879 288.121 239.649 288.44 240.452 288.441H242.875C243.678 288.44 244.447 288.121 245.015 287.553C245.583 286.985 245.902 286.216 245.903 285.413V276.266C246.587 276.125 247.201 275.753 247.643 275.213C248.084 274.672 248.326 273.996 248.326 273.298V268.452C248.325 267.006 247.75 265.621 246.728 264.599C245.706 263.576 244.32 263.002 242.875 263Z" fill="#006291"/>
<path d="M255.261 214.466C256.064 214.465 256.834 214.146 257.401 213.578C257.969 213.01 258.289 212.24 258.29 211.437V210.226C258.29 209.423 257.971 208.652 257.403 208.084C256.835 207.516 256.064 207.197 255.261 207.197C254.458 207.197 253.687 207.516 253.119 208.084C252.551 208.652 252.232 209.423 252.232 210.226V211.437C252.233 212.24 252.553 213.01 253.12 213.578C253.688 214.146 254.458 214.465 255.261 214.466ZM253.444 210.226C253.444 209.744 253.635 209.282 253.976 208.941C254.317 208.6 254.779 208.409 255.261 208.409C255.743 208.409 256.205 208.6 256.546 208.941C256.887 209.282 257.078 209.744 257.078 210.226V211.437C257.078 211.919 256.887 212.382 256.546 212.722C256.205 213.063 255.743 213.255 255.261 213.255C254.779 213.255 254.317 213.063 253.976 212.722C253.635 212.382 253.444 211.919 253.444 211.437V210.226Z" fill="#006291"/>
<path d="M256.472 215.678H254.049C253.127 215.676 252.22 215.912 251.414 216.361C251.278 216.442 251.179 216.572 251.137 216.725C251.096 216.878 251.117 217.041 251.194 217.179C251.271 217.317 251.4 217.419 251.552 217.464C251.704 217.508 251.867 217.492 252.007 217.417C252.631 217.07 253.335 216.888 254.049 216.889H256.472C257.596 216.891 258.674 217.338 259.469 218.133C260.264 218.928 260.711 220.005 260.713 221.129V225.975C260.711 226.35 260.594 226.715 260.377 227.02C260.16 227.325 259.854 227.556 259.501 227.681V222.341C259.501 222.18 259.437 222.026 259.324 221.913C259.21 221.799 259.056 221.735 258.895 221.735C258.735 221.735 258.581 221.799 258.467 221.913C258.353 222.026 258.29 222.18 258.29 222.341V238.09C258.29 238.572 258.098 239.034 257.757 239.375C257.417 239.716 256.954 239.908 256.472 239.908H255.867V228.398C255.867 228.238 255.803 228.084 255.689 227.97C255.576 227.856 255.422 227.793 255.261 227.793C255.1 227.793 254.946 227.856 254.833 227.97C254.719 228.084 254.655 228.238 254.655 228.398V239.908H254.049C253.567 239.908 253.105 239.716 252.764 239.375C252.424 239.034 252.232 238.572 252.232 238.09V222.341C252.232 222.18 252.168 222.026 252.055 221.913C251.941 221.799 251.787 221.735 251.626 221.735C251.466 221.735 251.312 221.799 251.198 221.913C251.084 222.026 251.021 222.18 251.021 222.341V227.681C250.668 227.556 250.362 227.325 250.145 227.02C249.928 226.715 249.811 226.35 249.809 225.975V221.129C249.807 220.586 249.913 220.047 250.12 219.544C250.154 219.47 250.172 219.39 250.174 219.308C250.176 219.227 250.162 219.146 250.132 219.07C250.102 218.995 250.057 218.926 250 218.868C249.943 218.81 249.875 218.764 249.8 218.733C249.725 218.702 249.644 218.686 249.563 218.687C249.482 218.688 249.401 218.705 249.327 218.737C249.252 218.77 249.185 218.817 249.129 218.876C249.073 218.935 249.03 219.005 249.001 219.081C248.733 219.73 248.596 220.427 248.598 221.129V225.975C248.598 226.673 248.84 227.35 249.281 227.89C249.723 228.431 250.337 228.803 251.021 228.944V238.09C251.022 238.893 251.341 239.663 251.909 240.231C252.477 240.799 253.246 241.118 254.049 241.119H256.472C257.275 241.118 258.045 240.799 258.613 240.231C259.181 239.663 259.5 238.893 259.501 238.09V228.944C260.185 228.803 260.799 228.431 261.24 227.89C261.682 227.35 261.923 226.673 261.924 225.975V221.129C261.922 219.684 261.348 218.298 260.326 217.276C259.303 216.254 257.918 215.679 256.472 215.678Z" fill="#006291"/>
<path d="M295.603 214.466C296.406 214.465 297.175 214.146 297.743 213.578C298.311 213.01 298.63 212.24 298.631 211.437V210.226C298.631 209.423 298.312 208.652 297.744 208.084C297.176 207.516 296.406 207.197 295.603 207.197C294.799 207.197 294.029 207.516 293.461 208.084C292.893 208.652 292.574 209.423 292.574 210.226V211.437C292.575 212.24 292.894 213.01 293.462 213.578C294.03 214.146 294.8 214.465 295.603 214.466ZM293.785 210.226C293.785 209.744 293.977 209.282 294.318 208.941C294.659 208.6 295.121 208.409 295.603 208.409C296.085 208.409 296.547 208.6 296.888 208.941C297.228 209.282 297.42 209.744 297.42 210.226V211.437C297.42 211.919 297.228 212.382 296.888 212.722C296.547 213.063 296.085 213.255 295.603 213.255C295.121 213.255 294.659 213.063 294.318 212.722C293.977 212.382 293.785 211.919 293.785 211.437V210.226Z" fill="#006291"/>
<path d="M296.814 215.678H294.391C293.469 215.676 292.562 215.912 291.756 216.361C291.62 216.442 291.52 216.572 291.479 216.725C291.438 216.878 291.458 217.041 291.536 217.179C291.613 217.317 291.742 217.419 291.894 217.464C292.045 217.508 292.209 217.492 292.349 217.417C292.973 217.07 293.676 216.888 294.391 216.889H296.814C297.938 216.891 299.016 217.338 299.811 218.133C300.606 218.928 301.053 220.005 301.054 221.129V225.975C301.053 226.35 300.936 226.715 300.719 227.02C300.502 227.325 300.196 227.556 299.843 227.681V222.341C299.843 222.18 299.779 222.026 299.665 221.913C299.552 221.799 299.398 221.735 299.237 221.735C299.076 221.735 298.922 221.799 298.809 221.913C298.695 222.026 298.631 222.18 298.631 222.341V238.09C298.631 238.572 298.44 239.034 298.099 239.375C297.758 239.716 297.296 239.908 296.814 239.908H296.208V228.398C296.208 228.238 296.145 228.084 296.031 227.97C295.917 227.856 295.763 227.793 295.603 227.793C295.442 227.793 295.288 227.856 295.174 227.97C295.061 228.084 294.997 228.238 294.997 228.398V239.908H294.391C293.909 239.908 293.447 239.716 293.106 239.375C292.765 239.034 292.574 238.572 292.574 238.09V222.341C292.574 222.18 292.51 222.026 292.397 221.913C292.283 221.799 292.129 221.735 291.968 221.735C291.808 221.735 291.653 221.799 291.54 221.913C291.426 222.026 291.362 222.18 291.362 222.341V227.681C291.009 227.556 290.703 227.325 290.487 227.02C290.27 226.715 290.153 226.35 290.151 225.975V221.129C290.149 220.586 290.255 220.047 290.462 219.544C290.495 219.47 290.514 219.39 290.516 219.308C290.518 219.227 290.504 219.146 290.474 219.07C290.444 218.995 290.399 218.926 290.342 218.868C290.285 218.81 290.217 218.764 290.142 218.733C290.067 218.702 289.986 218.686 289.905 218.687C289.823 218.688 289.743 218.705 289.669 218.737C289.594 218.77 289.527 218.817 289.471 218.876C289.415 218.935 289.371 219.005 289.343 219.081C289.075 219.73 288.937 220.427 288.939 221.129V225.975C288.94 226.673 289.182 227.35 289.623 227.89C290.064 228.431 290.679 228.803 291.362 228.944V238.09C291.363 238.893 291.683 239.663 292.251 240.231C292.818 240.799 293.588 241.118 294.391 241.119H296.814C297.617 241.118 298.387 240.799 298.955 240.231C299.523 239.663 299.842 238.893 299.843 238.09V228.944C300.527 228.803 301.141 228.431 301.582 227.89C302.024 227.35 302.265 226.673 302.266 225.975V221.129C302.264 219.684 301.689 218.298 300.667 217.276C299.645 216.254 298.26 215.679 296.814 215.678Z" fill="#006291"/>
<path d="M230.066 7.26893C230.869 7.26797 231.638 6.94857 232.206 6.38078C232.774 5.81299 233.093 5.04318 233.094 4.24021V3.02872C233.094 2.22546 232.775 1.45509 232.207 0.887092C231.639 0.319097 230.869 0 230.066 0C229.262 0 228.492 0.319097 227.924 0.887092C227.356 1.45509 227.037 2.22546 227.037 3.02872V4.24021C227.038 5.04318 227.357 5.81299 227.925 6.38078C228.493 6.94857 229.263 7.26797 230.066 7.26893ZM228.248 3.02872C228.248 2.54676 228.44 2.08454 228.781 1.74374C229.121 1.40295 229.584 1.21149 230.066 1.21149C230.548 1.21149 231.01 1.40295 231.351 1.74374C231.691 2.08454 231.883 2.54676 231.883 3.02872V4.24021C231.883 4.72217 231.691 5.18439 231.351 5.52519C231.01 5.86599 230.548 6.05745 230.066 6.05745C229.584 6.05745 229.121 5.86599 228.781 5.52519C228.44 5.18439 228.248 4.72217 228.248 4.24021V3.02872Z" fill="#006291"/>
<path d="M231.277 8.48047H228.854C227.932 8.47909 227.024 8.71435 226.219 9.16375C226.083 9.24425 225.983 9.37491 225.942 9.52778C225.901 9.68065 225.921 9.84357 225.999 9.98165C226.076 10.1197 226.205 10.222 226.356 10.2666C226.508 10.3112 226.672 10.2945 226.811 10.2202C227.436 9.87269 228.139 9.69085 228.854 9.69196H231.277C232.401 9.69341 233.479 10.1406 234.274 10.9355C235.069 11.7304 235.516 12.808 235.517 13.9322V18.7781C235.516 19.1526 235.398 19.5175 235.182 19.8229C234.965 20.1282 234.659 20.3591 234.306 20.4839V15.1437C234.306 14.983 234.242 14.8289 234.128 14.7153C234.015 14.6017 233.861 14.5379 233.7 14.5379C233.539 14.5379 233.385 14.6017 233.272 14.7153C233.158 14.8289 233.094 14.983 233.094 15.1437V30.893C233.094 31.375 232.903 31.8372 232.562 32.178C232.221 32.5188 231.759 32.7103 231.277 32.7103H230.671V21.2011C230.671 21.0405 230.607 20.8864 230.494 20.7728C230.38 20.6592 230.226 20.5954 230.066 20.5954C229.905 20.5954 229.751 20.6592 229.637 20.7728C229.524 20.8864 229.46 21.0405 229.46 21.2011V32.7103H228.854C228.372 32.7103 227.91 32.5188 227.569 32.178C227.228 31.8372 227.037 31.375 227.037 30.893V15.1437C227.037 14.983 226.973 14.8289 226.859 14.7153C226.746 14.6017 226.592 14.5379 226.431 14.5379C226.27 14.5379 226.116 14.6017 226.003 14.7153C225.889 14.8289 225.825 14.983 225.825 15.1437V20.4839C225.472 20.3591 225.166 20.1282 224.949 19.8229C224.733 19.5175 224.615 19.1526 224.614 18.7781V13.9322C224.612 13.3883 224.718 12.8494 224.925 12.3463C224.958 12.2723 224.977 12.1923 224.979 12.111C224.981 12.0297 224.967 11.9488 224.937 11.8731C224.907 11.7974 224.862 11.7286 224.805 11.6706C224.748 11.6126 224.68 11.5667 224.605 11.5356C224.53 11.5045 224.449 11.4889 224.368 11.4896C224.286 11.4904 224.206 11.5075 224.131 11.54C224.057 11.5725 223.99 11.6196 223.934 11.6786C223.878 11.7377 223.834 11.8074 223.806 11.8835C223.537 12.5331 223.4 13.2294 223.402 13.9322V18.7781C223.403 19.4761 223.645 20.1525 224.086 20.6932C224.527 21.2338 225.142 21.6058 225.825 21.7463V30.893C225.826 31.696 226.146 32.4658 226.713 33.0336C227.281 33.6014 228.051 33.9208 228.854 33.9217H231.277C232.08 33.9208 232.85 33.6014 233.418 33.0336C233.985 32.4658 234.305 31.696 234.306 30.893V21.7463C234.989 21.6057 235.604 21.2337 236.045 20.693C236.486 20.1524 236.728 19.4761 236.729 18.7781V13.9322C236.727 12.4868 236.152 11.1011 235.13 10.079C234.108 9.05697 232.722 8.48208 231.277 8.48047Z" fill="#006291"/>
<path d="M90.7433 7.26893C91.5463 7.26797 92.3161 6.94857 92.8839 6.38078C93.4517 5.81299 93.7711 5.04318 93.772 4.24021V3.02872C93.772 2.22546 93.4529 1.45509 92.885 0.887092C92.317 0.319097 91.5466 0 90.7433 0C89.9401 0 89.1697 0.319097 88.6017 0.887092C88.0337 1.45509 87.7146 2.22546 87.7146 3.02872V4.24021C87.7156 5.04318 88.035 5.81299 88.6028 6.38078C89.1705 6.94857 89.9404 7.26797 90.7433 7.26893ZM88.9261 3.02872C88.9261 2.54676 89.1175 2.08454 89.4583 1.74374C89.7991 1.40295 90.2614 1.21149 90.7433 1.21149C91.2253 1.21149 91.6875 1.40295 92.0283 1.74374C92.3691 2.08454 92.5606 2.54676 92.5606 3.02872V4.24021C92.5606 4.72217 92.3691 5.18439 92.0283 5.52519C91.6875 5.86599 91.2253 6.05745 90.7433 6.05745C90.2614 6.05745 89.7991 5.86599 89.4583 5.52519C89.1175 5.18439 88.9261 4.72217 88.9261 4.24021V3.02872Z" fill="#006291"/>
<path d="M91.9548 8.48047H89.5318C88.6095 8.47909 87.7022 8.71435 86.8968 9.16375C86.7605 9.24425 86.6611 9.37491 86.6199 9.52778C86.5787 9.68065 86.599 9.84357 86.6764 9.98165C86.7539 10.1197 86.8823 10.222 87.0342 10.2666C87.1861 10.3112 87.3495 10.2945 87.4892 10.2202C88.1139 9.87269 88.817 9.69085 89.5318 9.69196H91.9548C93.0789 9.69341 94.1566 10.1406 94.9515 10.9355C95.7463 11.7304 96.1935 12.808 96.195 13.9322V18.7781C96.1934 19.1526 96.0762 19.5175 95.8594 19.8229C95.6425 20.1282 95.3366 20.3591 94.9835 20.4839V15.1437C94.9835 14.983 94.9197 14.8289 94.8061 14.7153C94.6925 14.6017 94.5384 14.5379 94.3778 14.5379C94.2171 14.5379 94.063 14.6017 93.9494 14.7153C93.8358 14.8289 93.772 14.983 93.772 15.1437V30.893C93.772 31.375 93.5806 31.8372 93.2398 32.178C92.899 32.5188 92.4367 32.7103 91.9548 32.7103H91.349V21.2011C91.349 21.0405 91.2852 20.8864 91.1716 20.7728C91.058 20.6592 90.9039 20.5954 90.7433 20.5954C90.5826 20.5954 90.4286 20.6592 90.315 20.7728C90.2014 20.8864 90.1375 21.0405 90.1375 21.2011V32.7103H89.5318C89.0498 32.7103 88.5876 32.5188 88.2468 32.178C87.906 31.8372 87.7146 31.375 87.7146 30.893V15.1437C87.7146 14.983 87.6507 14.8289 87.5371 14.7153C87.4235 14.6017 87.2695 14.5379 87.1088 14.5379C86.9482 14.5379 86.7941 14.6017 86.6805 14.7153C86.5669 14.8289 86.5031 14.983 86.5031 15.1437V20.4839C86.15 20.3591 85.8441 20.1282 85.6272 19.8229C85.4104 19.5175 85.2931 19.1526 85.2916 18.7781V13.9322C85.2898 13.3883 85.3954 12.8494 85.6023 12.3463C85.636 12.2723 85.6545 12.1923 85.6566 12.111C85.6587 12.0297 85.6444 11.9488 85.6145 11.8731C85.5847 11.7974 85.5399 11.7286 85.4829 11.6706C85.4258 11.6126 85.3577 11.5667 85.2826 11.5356C85.2074 11.5045 85.1268 11.4889 85.0454 11.4896C84.9641 11.4904 84.8838 11.5075 84.8092 11.54C84.7346 11.5725 84.6674 11.6196 84.6114 11.6786C84.5555 11.7377 84.512 11.8074 84.4835 11.8835C84.2152 12.5331 84.0781 13.2294 84.0801 13.9322V18.7781C84.0809 19.4761 84.3223 20.1525 84.7637 20.6932C85.2051 21.2338 85.8194 21.6058 86.5031 21.7463V30.893C86.504 31.696 86.8234 32.4658 87.3912 33.0336C87.959 33.6014 88.7288 33.9208 89.5318 33.9217H91.9548C92.7578 33.9208 93.5276 33.6014 94.0953 33.0336C94.6631 32.4658 94.9825 31.696 94.9835 30.893V21.7463C95.6671 21.6057 96.2814 21.2337 96.7228 20.693C97.1641 20.1524 97.4056 19.4761 97.4065 18.7781V13.9322C97.4049 12.4868 96.83 11.1011 95.8079 10.079C94.7859 9.05697 93.4002 8.48208 91.9548 8.48047Z" fill="#006291"/>
<path d="M257.931 7.26893C258.734 7.26797 259.504 6.94857 260.071 6.38078C260.639 5.81299 260.959 5.04318 260.96 4.24021V3.02872C260.96 2.22546 260.64 1.45509 260.072 0.887092C259.504 0.319097 258.734 0 257.931 0C257.128 0 256.357 0.319097 255.789 0.887092C255.221 1.45509 254.902 2.22546 254.902 3.02872V4.24021C254.903 5.04318 255.222 5.81299 255.79 6.38078C256.358 6.94857 257.128 7.26797 257.931 7.26893ZM256.114 3.02872C256.114 2.54676 256.305 2.08454 256.646 1.74374C256.987 1.40295 257.449 1.21149 257.931 1.21149C258.413 1.21149 258.875 1.40295 259.216 1.74374C259.557 2.08454 259.748 2.54676 259.748 3.02872V4.24021C259.748 4.72217 259.557 5.18439 259.216 5.52519C258.875 5.86599 258.413 6.05745 257.931 6.05745C257.449 6.05745 256.987 5.86599 256.646 5.52519C256.305 5.18439 256.114 4.72217 256.114 4.24021V3.02872Z" fill="#006291"/>
<path d="M259.142 8.48047H256.719C255.797 8.47909 254.89 8.71435 254.084 9.16375C253.948 9.24425 253.849 9.37491 253.807 9.52778C253.766 9.68065 253.786 9.84357 253.864 9.98165C253.941 10.1197 254.07 10.222 254.222 10.2666C254.374 10.3112 254.537 10.2945 254.677 10.2202C255.301 9.87269 256.005 9.69085 256.719 9.69196H259.142C260.266 9.69341 261.344 10.1406 262.139 10.9355C262.934 11.7304 263.381 12.808 263.382 13.9322V18.7781C263.381 19.1526 263.264 19.5175 263.047 19.8229C262.83 20.1282 262.524 20.3591 262.171 20.4839V15.1437C262.171 14.983 262.107 14.8289 261.994 14.7153C261.88 14.6017 261.726 14.5379 261.565 14.5379C261.405 14.5379 261.251 14.6017 261.137 14.7153C261.023 14.8289 260.96 14.983 260.96 15.1437V30.893C260.96 31.375 260.768 31.8372 260.427 32.178C260.086 32.5188 259.624 32.7103 259.142 32.7103H258.537V21.2011C258.537 21.0405 258.473 20.8864 258.359 20.7728C258.246 20.6592 258.091 20.5954 257.931 20.5954C257.77 20.5954 257.616 20.6592 257.502 20.7728C257.389 20.8864 257.325 21.0405 257.325 21.2011V32.7103H256.719C256.237 32.7103 255.775 32.5188 255.434 32.178C255.094 31.8372 254.902 31.375 254.902 30.893V15.1437C254.902 14.983 254.838 14.8289 254.725 14.7153C254.611 14.6017 254.457 14.5379 254.296 14.5379C254.136 14.5379 253.982 14.6017 253.868 14.7153C253.754 14.8289 253.691 14.983 253.691 15.1437V20.4839C253.337 20.3591 253.032 20.1282 252.815 19.8229C252.598 19.5175 252.481 19.1526 252.479 18.7781V13.9322C252.477 13.3883 252.583 12.8494 252.79 12.3463C252.824 12.2723 252.842 12.1923 252.844 12.111C252.846 12.0297 252.832 11.9488 252.802 11.8731C252.772 11.7974 252.727 11.7286 252.67 11.6706C252.613 11.6126 252.545 11.5667 252.47 11.5356C252.395 11.5045 252.314 11.4889 252.233 11.4896C252.152 11.4904 252.071 11.5075 251.997 11.54C251.922 11.5725 251.855 11.6196 251.799 11.6786C251.743 11.7377 251.699 11.8074 251.671 11.8835C251.403 12.5331 251.266 13.2294 251.268 13.9322V18.7781C251.268 19.4761 251.51 20.1525 251.951 20.6932C252.393 21.2338 253.007 21.6058 253.691 21.7463V30.893C253.692 31.696 254.011 32.4658 254.579 33.0336C255.147 33.6014 255.916 33.9208 256.719 33.9217H259.142C259.945 33.9208 260.715 33.6014 261.283 33.0336C261.851 32.4658 262.17 31.696 262.171 30.893V21.7463C262.855 21.6057 263.469 21.2337 263.91 20.693C264.352 20.1524 264.593 19.4761 264.594 18.7781V13.9322C264.592 12.4868 264.017 11.1011 262.995 10.079C261.973 9.05697 260.588 8.48208 259.142 8.48047Z" fill="#006291"/>
<path d="M118.609 7.26893C119.412 7.26797 120.181 6.94857 120.749 6.38078C121.317 5.81299 121.636 5.04318 121.637 4.24021V3.02872C121.637 2.22546 121.318 1.45509 120.75 0.887092C120.182 0.319097 119.412 0 118.609 0C117.805 0 117.035 0.319097 116.467 0.887092C115.899 1.45509 115.58 2.22546 115.58 3.02872V4.24021C115.581 5.04318 115.9 5.81299 116.468 6.38078C117.036 6.94857 117.806 7.26797 118.609 7.26893ZM116.791 3.02872C116.791 2.54676 116.983 2.08454 117.324 1.74374C117.664 1.40295 118.127 1.21149 118.609 1.21149C119.091 1.21149 119.553 1.40295 119.894 1.74374C120.234 2.08454 120.426 2.54676 120.426 3.02872V4.24021C120.426 4.72217 120.234 5.18439 119.894 5.52519C119.553 5.86599 119.091 6.05745 118.609 6.05745C118.127 6.05745 117.664 5.86599 117.324 5.52519C116.983 5.18439 116.791 4.72217 116.791 4.24021V3.02872Z" fill="#006291"/>
<path d="M119.82 8.48047H117.397C116.475 8.47909 115.567 8.71435 114.762 9.16375C114.626 9.24425 114.526 9.37491 114.485 9.52778C114.444 9.68065 114.464 9.84357 114.542 9.98165C114.619 10.1197 114.748 10.222 114.899 10.2666C115.051 10.3112 115.215 10.2945 115.354 10.2202C115.979 9.87269 116.682 9.69085 117.397 9.69196H119.82C120.944 9.69341 122.022 10.1406 122.817 10.9355C123.612 11.7304 124.059 12.808 124.06 13.9322V18.7781C124.059 19.1526 123.941 19.5175 123.725 19.8229C123.508 20.1282 123.202 20.3591 122.849 20.4839V15.1437C122.849 14.983 122.785 14.8289 122.671 14.7153C122.558 14.6017 122.404 14.5379 122.243 14.5379C122.082 14.5379 121.928 14.6017 121.815 14.7153C121.701 14.8289 121.637 14.983 121.637 15.1437V30.893C121.637 31.375 121.446 31.8372 121.105 32.178C120.764 32.5188 120.302 32.7103 119.82 32.7103H119.214V21.2011C119.214 21.0405 119.15 20.8864 119.037 20.7728C118.923 20.6592 118.769 20.5954 118.609 20.5954C118.448 20.5954 118.294 20.6592 118.18 20.7728C118.067 20.8864 118.003 21.0405 118.003 21.2011V32.7103H117.397C116.915 32.7103 116.453 32.5188 116.112 32.178C115.771 31.8372 115.58 31.375 115.58 30.893V15.1437C115.58 14.983 115.516 14.8289 115.402 14.7153C115.289 14.6017 115.135 14.5379 114.974 14.5379C114.813 14.5379 114.659 14.6017 114.546 14.7153C114.432 14.8289 114.368 14.983 114.368 15.1437V20.4839C114.015 20.3591 113.709 20.1282 113.492 19.8229C113.276 19.5175 113.158 19.1526 113.157 18.7781V13.9322C113.155 13.3883 113.261 12.8494 113.468 12.3463C113.501 12.2723 113.52 12.1923 113.522 12.111C113.524 12.0297 113.51 11.9488 113.48 11.8731C113.45 11.7974 113.405 11.7286 113.348 11.6706C113.291 11.6126 113.223 11.5667 113.148 11.5356C113.073 11.5045 112.992 11.4889 112.911 11.4896C112.829 11.4904 112.749 11.5075 112.674 11.54C112.6 11.5725 112.533 11.6196 112.477 11.6786C112.421 11.7377 112.377 11.8074 112.349 11.8835C112.08 12.5331 111.943 13.2294 111.945 13.9322V18.7781C111.946 19.4761 112.188 20.1525 112.629 20.6932C113.07 21.2338 113.685 21.6058 114.368 21.7463V30.893C114.369 31.696 114.689 32.4658 115.256 33.0336C115.824 33.6014 116.594 33.9208 117.397 33.9217H119.82C120.623 33.9208 121.393 33.6014 121.961 33.0336C122.528 32.4658 122.848 31.696 122.849 30.893V21.7463C123.532 21.6057 124.147 21.2337 124.588 20.693C125.029 20.1524 125.271 19.4761 125.272 18.7781V13.9322C125.27 12.4868 124.695 11.1011 123.673 10.079C122.651 9.05697 121.265 8.48208 119.82 8.48047Z" fill="#006291"/>
<path d="M285.794 7.26893C286.597 7.26797 287.367 6.94857 287.935 6.38078C288.502 5.81299 288.822 5.04318 288.823 4.24021V3.02872C288.823 2.22546 288.504 1.45509 287.936 0.887092C287.368 0.319097 286.597 0 285.794 0C284.991 0 284.22 0.319097 283.652 0.887092C283.084 1.45509 282.765 2.22546 282.765 3.02872V4.24021C282.766 5.04318 283.086 5.81299 283.654 6.38078C284.221 6.94857 284.991 7.26797 285.794 7.26893ZM283.977 3.02872C283.977 2.54676 284.168 2.08454 284.509 1.74374C284.85 1.40295 285.312 1.21149 285.794 1.21149C286.276 1.21149 286.738 1.40295 287.079 1.74374C287.42 2.08454 287.611 2.54676 287.611 3.02872V4.24021C287.611 4.72217 287.42 5.18439 287.079 5.52519C286.738 5.86599 286.276 6.05745 285.794 6.05745C285.312 6.05745 284.85 5.86599 284.509 5.52519C284.168 5.18439 283.977 4.72217 283.977 4.24021V3.02872Z" fill="#006291"/>
<path d="M287.006 8.48047H284.583C283.66 8.47909 282.753 8.71435 281.948 9.16375C281.811 9.24425 281.712 9.37491 281.671 9.52778C281.629 9.68065 281.65 9.84357 281.727 9.98165C281.805 10.1197 281.933 10.222 282.085 10.2666C282.237 10.3112 282.4 10.2945 282.54 10.2202C283.165 9.87269 283.868 9.69085 284.583 9.69196H287.006C288.13 9.69341 289.207 10.1406 290.002 10.9355C290.797 11.7304 291.244 12.808 291.246 13.9322V18.7781C291.244 19.1526 291.127 19.5175 290.91 19.8229C290.693 20.1282 290.387 20.3591 290.034 20.4839V15.1437C290.034 14.983 289.97 14.8289 289.857 14.7153C289.743 14.6017 289.589 14.5379 289.429 14.5379C289.268 14.5379 289.114 14.6017 289 14.7153C288.887 14.8289 288.823 14.983 288.823 15.1437V30.893C288.823 31.375 288.631 31.8372 288.291 32.178C287.95 32.5188 287.488 32.7103 287.006 32.7103H286.4V21.2011C286.4 21.0405 286.336 20.8864 286.222 20.7728C286.109 20.6592 285.955 20.5954 285.794 20.5954C285.633 20.5954 285.479 20.6592 285.366 20.7728C285.252 20.8864 285.188 21.0405 285.188 21.2011V32.7103H284.583C284.101 32.7103 283.638 32.5188 283.298 32.178C282.957 31.8372 282.765 31.375 282.765 30.893V15.1437C282.765 14.983 282.702 14.8289 282.588 14.7153C282.474 14.6017 282.32 14.5379 282.16 14.5379C281.999 14.5379 281.845 14.6017 281.731 14.7153C281.618 14.8289 281.554 14.983 281.554 15.1437V20.4839C281.201 20.3591 280.895 20.1282 280.678 19.8229C280.461 19.5175 280.344 19.1526 280.342 18.7781V13.9322C280.341 13.3883 280.446 12.8494 280.653 12.3463C280.687 12.2723 280.705 12.1923 280.707 12.111C280.709 12.0297 280.695 11.9488 280.665 11.8731C280.635 11.7974 280.591 11.7286 280.534 11.6706C280.477 11.6126 280.409 11.5667 280.333 11.5356C280.258 11.5045 280.178 11.4889 280.096 11.4896C280.015 11.4904 279.935 11.5075 279.86 11.54C279.785 11.5725 279.718 11.6196 279.662 11.6786C279.606 11.7377 279.563 11.8074 279.534 11.8835C279.266 12.5331 279.129 13.2294 279.131 13.9322V18.7781C279.132 19.4761 279.373 20.1525 279.814 20.6932C280.256 21.2338 280.87 21.6058 281.554 21.7463V30.893C281.555 31.696 281.874 32.4658 282.442 33.0336C283.01 33.6014 283.78 33.9208 284.583 33.9217H287.006C287.809 33.9208 288.578 33.6014 289.146 33.0336C289.714 32.4658 290.033 31.696 290.034 30.893V21.7463C290.718 21.6057 291.332 21.2337 291.774 20.693C292.215 20.1524 292.456 19.4761 292.457 18.7781V13.9322C292.456 12.4868 291.881 11.1011 290.859 10.079C289.837 9.05697 288.451 8.48208 287.006 8.48047Z" fill="#006291"/>
<path d="M146.474 7.26893C147.277 7.26797 148.047 6.94857 148.614 6.38078C149.182 5.81299 149.502 5.04318 149.503 4.24021V3.02872C149.503 2.22546 149.183 1.45509 148.615 0.887092C148.047 0.319097 147.277 0 146.474 0C145.671 0 144.9 0.319097 144.332 0.887092C143.764 1.45509 143.445 2.22546 143.445 3.02872V4.24021C143.446 5.04318 143.765 5.81299 144.333 6.38078C144.901 6.94857 145.671 7.26797 146.474 7.26893ZM144.657 3.02872C144.657 2.54676 144.848 2.08454 145.189 1.74374C145.53 1.40295 145.992 1.21149 146.474 1.21149C146.956 1.21149 147.418 1.40295 147.759 1.74374C148.1 2.08454 148.291 2.54676 148.291 3.02872V4.24021C148.291 4.72217 148.1 5.18439 147.759 5.52519C147.418 5.86599 146.956 6.05745 146.474 6.05745C145.992 6.05745 145.53 5.86599 145.189 5.52519C144.848 5.18439 144.657 4.72217 144.657 4.24021V3.02872Z" fill="#006291"/>
<path d="M147.685 8.48047H145.262C144.34 8.47909 143.433 8.71435 142.627 9.16375C142.491 9.24425 142.392 9.37491 142.35 9.52778C142.309 9.68065 142.329 9.84357 142.407 9.98165C142.484 10.1197 142.613 10.222 142.765 10.2666C142.917 10.3112 143.08 10.2945 143.22 10.2202C143.844 9.87269 144.547 9.69085 145.262 9.69196H147.685C148.809 9.69341 149.887 10.1406 150.682 10.9355C151.477 11.7304 151.924 12.808 151.925 13.9322V18.7781C151.924 19.1526 151.807 19.5175 151.59 19.8229C151.373 20.1282 151.067 20.3591 150.714 20.4839V15.1437C150.714 14.983 150.65 14.8289 150.537 14.7153C150.423 14.6017 150.269 14.5379 150.108 14.5379C149.948 14.5379 149.793 14.6017 149.68 14.7153C149.566 14.8289 149.502 14.983 149.502 15.1437V30.893C149.502 31.375 149.311 31.8372 148.97 32.178C148.629 32.5188 148.167 32.7103 147.685 32.7103H147.08V21.2011C147.08 21.0405 147.016 20.8864 146.902 20.7728C146.788 20.6592 146.634 20.5954 146.474 20.5954C146.313 20.5954 146.159 20.6592 146.045 20.7728C145.932 20.8864 145.868 21.0405 145.868 21.2011V32.7103H145.262C144.78 32.7103 144.318 32.5188 143.977 32.178C143.636 31.8372 143.445 31.375 143.445 30.893V15.1437C143.445 14.983 143.381 14.8289 143.268 14.7153C143.154 14.6017 143 14.5379 142.839 14.5379C142.679 14.5379 142.525 14.6017 142.411 14.7153C142.297 14.8289 142.234 14.983 142.234 15.1437V20.4839C141.88 20.3591 141.575 20.1282 141.358 19.8229C141.141 19.5175 141.024 19.1526 141.022 18.7781V13.9322C141.02 13.3883 141.126 12.8494 141.333 12.3463C141.367 12.2723 141.385 12.1923 141.387 12.111C141.389 12.0297 141.375 11.9488 141.345 11.8731C141.315 11.7974 141.27 11.7286 141.213 11.6706C141.156 11.6126 141.088 11.5667 141.013 11.5356C140.938 11.5045 140.857 11.4889 140.776 11.4896C140.695 11.4904 140.614 11.5075 140.54 11.54C140.465 11.5725 140.398 11.6196 140.342 11.6786C140.286 11.7377 140.242 11.8074 140.214 11.8835C139.946 12.5331 139.809 13.2294 139.811 13.9322V18.7781C139.811 19.4761 140.053 20.1525 140.494 20.6932C140.936 21.2338 141.55 21.6058 142.234 21.7463V30.893C142.235 31.696 142.554 32.4658 143.122 33.0336C143.689 33.6014 144.459 33.9208 145.262 33.9217H147.685C148.488 33.9208 149.258 33.6014 149.826 33.0336C150.394 32.4658 150.713 31.696 150.714 30.893V21.7463C151.398 21.6057 152.012 21.2337 152.453 20.693C152.895 20.1524 153.136 19.4761 153.137 18.7781V13.9322C153.135 12.4868 152.56 11.1011 151.538 10.079C150.516 9.05697 149.131 8.48208 147.685 8.48047Z" fill="#006291"/>
<path d="M313.659 7.26893C314.462 7.26797 315.232 6.94857 315.8 6.38078C316.368 5.81299 316.687 5.04318 316.688 4.24021V3.02872C316.688 2.22546 316.369 1.45509 315.801 0.887092C315.233 0.319097 314.463 0 313.659 0C312.856 0 312.086 0.319097 311.518 0.887092C310.95 1.45509 310.631 2.22546 310.631 3.02872V4.24021C310.632 5.04318 310.951 5.81299 311.519 6.38078C312.087 6.94857 312.856 7.26797 313.659 7.26893ZM311.842 3.02872C311.842 2.54676 312.034 2.08454 312.374 1.74374C312.715 1.40295 313.177 1.21149 313.659 1.21149C314.141 1.21149 314.604 1.40295 314.944 1.74374C315.285 2.08454 315.477 2.54676 315.477 3.02872V4.24021C315.477 4.72217 315.285 5.18439 314.944 5.52519C314.604 5.86599 314.141 6.05745 313.659 6.05745C313.177 6.05745 312.715 5.86599 312.374 5.52519C312.034 5.18439 311.842 4.72217 311.842 4.24021V3.02872Z" fill="#006291"/>
<path d="M314.871 8.48047H312.448C311.525 8.47909 310.618 8.71435 309.813 9.16375C309.676 9.24425 309.577 9.37491 309.536 9.52778C309.495 9.68065 309.515 9.84357 309.592 9.98165C309.67 10.1197 309.798 10.222 309.95 10.2666C310.102 10.3112 310.265 10.2945 310.405 10.2202C311.03 9.87269 311.733 9.69085 312.448 9.69196H314.871C315.995 9.69341 317.073 10.1406 317.867 10.9355C318.662 11.7304 319.11 12.808 319.111 13.9322V18.7781C319.109 19.1526 318.992 19.5175 318.775 19.8229C318.559 20.1282 318.253 20.3591 317.9 20.4839V15.1437C317.9 14.983 317.836 14.8289 317.722 14.7153C317.608 14.6017 317.454 14.5379 317.294 14.5379C317.133 14.5379 316.979 14.6017 316.865 14.7153C316.752 14.8289 316.688 14.983 316.688 15.1437V30.893C316.688 31.375 316.497 31.8372 316.156 32.178C315.815 32.5188 315.353 32.7103 314.871 32.7103H314.265V21.2011C314.265 21.0405 314.201 20.8864 314.088 20.7728C313.974 20.6592 313.82 20.5954 313.659 20.5954C313.499 20.5954 313.345 20.6592 313.231 20.7728C313.117 20.8864 313.054 21.0405 313.054 21.2011V32.7103H312.448C311.966 32.7103 311.504 32.5188 311.163 32.178C310.822 31.8372 310.631 31.375 310.631 30.893V15.1437C310.631 14.983 310.567 14.8289 310.453 14.7153C310.34 14.6017 310.185 14.5379 310.025 14.5379C309.864 14.5379 309.71 14.6017 309.597 14.7153C309.483 14.8289 309.419 14.983 309.419 15.1437V20.4839C309.066 20.3591 308.76 20.1282 308.543 19.8229C308.326 19.5175 308.209 19.1526 308.208 18.7781V13.9322C308.206 13.3883 308.311 12.8494 308.518 12.3463C308.552 12.2723 308.57 12.1923 308.573 12.111C308.575 12.0297 308.56 11.9488 308.531 11.8731C308.501 11.7974 308.456 11.7286 308.399 11.6706C308.342 11.6126 308.274 11.5667 308.199 11.5356C308.123 11.5045 308.043 11.4889 307.961 11.4896C307.88 11.4904 307.8 11.5075 307.725 11.54C307.651 11.5725 307.583 11.6196 307.527 11.6786C307.471 11.7377 307.428 11.8074 307.4 11.8835C307.131 12.5331 306.994 13.2294 306.996 13.9322V18.7781C306.997 19.4761 307.238 20.1525 307.68 20.6932C308.121 21.2338 308.735 21.6058 309.419 21.7463V30.893C309.42 31.696 309.739 32.4658 310.307 33.0336C310.875 33.6014 311.645 33.9208 312.448 33.9217H314.871C315.674 33.9208 316.444 33.6014 317.011 33.0336C317.579 32.4658 317.899 31.696 317.9 30.893V21.7463C318.583 21.6057 319.197 21.2337 319.639 20.693C320.08 20.1524 320.322 19.4761 320.322 18.7781V13.9322C320.321 12.4868 319.746 11.1011 318.724 10.079C317.702 9.05697 316.316 8.48208 314.871 8.48047Z" fill="#006291"/>
<path d="M344.193 7.26893C344.996 7.26797 345.765 6.94857 346.333 6.38078C346.901 5.81299 347.22 5.04318 347.221 4.24021V3.02872C347.221 2.22546 346.902 1.45509 346.334 0.887092C345.766 0.319097 344.996 0 344.193 0C343.389 0 342.619 0.319097 342.051 0.887092C341.483 1.45509 341.164 2.22546 341.164 3.02872V4.24021C341.165 5.04318 341.484 5.81299 342.052 6.38078C342.62 6.94857 343.39 7.26797 344.193 7.26893ZM342.375 3.02872C342.375 2.54676 342.567 2.08454 342.908 1.74374C343.248 1.40295 343.711 1.21149 344.193 1.21149C344.675 1.21149 345.137 1.40295 345.478 1.74374C345.818 2.08454 346.01 2.54676 346.01 3.02872V4.24021C346.01 4.72217 345.818 5.18439 345.478 5.52519C345.137 5.86599 344.675 6.05745 344.193 6.05745C343.711 6.05745 343.248 5.86599 342.908 5.52519C342.567 5.18439 342.375 4.72217 342.375 4.24021V3.02872Z" fill="#006291"/>
<path d="M345.404 8.48047H342.981C342.059 8.47909 341.151 8.71435 340.346 9.16375C340.21 9.24425 340.11 9.37491 340.069 9.52778C340.028 9.68065 340.048 9.84357 340.126 9.98165C340.203 10.1197 340.332 10.222 340.483 10.2666C340.635 10.3112 340.799 10.2945 340.938 10.2202C341.563 9.87269 342.266 9.69085 342.981 9.69196H345.404C346.528 9.69341 347.606 10.1406 348.401 10.9355C349.196 11.7304 349.643 12.808 349.644 13.9322V18.7781C349.643 19.1526 349.525 19.5175 349.309 19.8229C349.092 20.1282 348.786 20.3591 348.433 20.4839V15.1437C348.433 14.983 348.369 14.8289 348.255 14.7153C348.142 14.6017 347.988 14.5379 347.827 14.5379C347.666 14.5379 347.512 14.6017 347.399 14.7153C347.285 14.8289 347.221 14.983 347.221 15.1437V30.893C347.221 31.375 347.03 31.8372 346.689 32.178C346.348 32.5188 345.886 32.7103 345.404 32.7103H344.798V21.2011C344.798 21.0405 344.734 20.8864 344.621 20.7728C344.507 20.6592 344.353 20.5954 344.193 20.5954C344.032 20.5954 343.878 20.6592 343.764 20.7728C343.651 20.8864 343.587 21.0405 343.587 21.2011V32.7103H342.981C342.499 32.7103 342.037 32.5188 341.696 32.178C341.355 31.8372 341.164 31.375 341.164 30.893V15.1437C341.164 14.983 341.1 14.8289 340.986 14.7153C340.873 14.6017 340.719 14.5379 340.558 14.5379C340.397 14.5379 340.243 14.6017 340.13 14.7153C340.016 14.8289 339.952 14.983 339.952 15.1437V20.4839C339.599 20.3591 339.293 20.1282 339.076 19.8229C338.86 19.5175 338.742 19.1526 338.741 18.7781V13.9322C338.739 13.3883 338.845 12.8494 339.052 12.3463C339.085 12.2723 339.104 12.1923 339.106 12.111C339.108 12.0297 339.094 11.9488 339.064 11.8731C339.034 11.7974 338.989 11.7286 338.932 11.6706C338.875 11.6126 338.807 11.5667 338.732 11.5356C338.657 11.5045 338.576 11.4889 338.495 11.4896C338.413 11.4904 338.333 11.5075 338.258 11.54C338.184 11.5725 338.117 11.6196 338.061 11.6786C338.005 11.7377 337.961 11.8074 337.933 11.8835C337.664 12.5331 337.527 13.2294 337.529 13.9322V18.7781C337.53 19.4761 337.772 20.1525 338.213 20.6932C338.654 21.2338 339.269 21.6058 339.952 21.7463V30.893C339.953 31.696 340.273 32.4658 340.84 33.0336C341.408 33.6014 342.178 33.9208 342.981 33.9217H345.404C346.207 33.9208 346.977 33.6014 347.545 33.0336C348.112 32.4658 348.432 31.696 348.433 30.893V21.7463C349.116 21.6057 349.731 21.2337 350.172 20.693C350.613 20.1524 350.855 19.4761 350.856 18.7781V13.9322C350.854 12.4868 350.279 11.1011 349.257 10.079C348.235 9.05697 346.849 8.48208 345.404 8.48047Z" fill="#006291"/>
<path d="M35.0148 7.26893C35.8178 7.26797 36.5876 6.94857 37.1554 6.38078C37.7232 5.81299 38.0426 5.04318 38.0435 4.24021V3.02872C38.0435 2.22546 37.7244 1.45509 37.1564 0.887092C36.5884 0.319097 35.8181 0 35.0148 0C34.2115 0 33.4412 0.319097 32.8732 0.887092C32.3052 1.45509 31.9861 2.22546 31.9861 3.02872V4.24021C31.987 5.04318 32.3065 5.81299 32.8742 6.38078C33.442 6.94857 34.2118 7.26797 35.0148 7.26893ZM33.1976 3.02872C33.1976 2.54676 33.389 2.08454 33.7298 1.74374C34.0706 1.40295 34.5328 1.21149 35.0148 1.21149C35.4968 1.21149 35.959 1.40295 36.2998 1.74374C36.6406 2.08454 36.832 2.54676 36.832 3.02872V4.24021C36.832 4.72217 36.6406 5.18439 36.2998 5.52519C35.959 5.86599 35.4968 6.05745 35.0148 6.05745C34.5328 6.05745 34.0706 5.86599 33.7298 5.52519C33.389 5.18439 33.1976 4.72217 33.1976 4.24021V3.02872Z" fill="#006291"/>
<path d="M36.2263 8.48047H33.8033C32.881 8.47909 31.9737 8.71435 31.1683 9.16375C31.032 9.24425 30.9326 9.37491 30.8914 9.52778C30.8502 9.68065 30.8705 9.84357 30.9479 9.98165C31.0254 10.1197 31.1538 10.222 31.3057 10.2666C31.4576 10.3112 31.6209 10.2945 31.7607 10.2202C32.3853 9.87269 33.0885 9.69085 33.8033 9.69196H36.2263C37.3504 9.69341 38.4281 10.1406 39.223 10.9355C40.0178 11.7304 40.465 12.808 40.4665 13.9322V18.7781C40.4649 19.1526 40.3477 19.5175 40.1308 19.8229C39.914 20.1282 39.6081 20.3591 39.255 20.4839V15.1437C39.255 14.983 39.1912 14.8289 39.0776 14.7153C38.964 14.6017 38.8099 14.5379 38.6492 14.5379C38.4886 14.5379 38.3345 14.6017 38.2209 14.7153C38.1073 14.8289 38.0435 14.983 38.0435 15.1437V30.893C38.0435 31.375 37.852 31.8372 37.5112 32.178C37.1704 32.5188 36.7082 32.7103 36.2263 32.7103H35.6205V21.2011C35.6205 21.0405 35.5567 20.8864 35.4431 20.7728C35.3295 20.6592 35.1754 20.5954 35.0148 20.5954C34.8541 20.5954 34.7 20.6592 34.5864 20.7728C34.4728 20.8864 34.409 21.0405 34.409 21.2011V32.7103H33.8033C33.3213 32.7103 32.8591 32.5188 32.5183 32.178C32.1775 31.8372 31.9861 31.375 31.9861 30.893V15.1437C31.9861 14.983 31.9222 14.8289 31.8086 14.7153C31.695 14.6017 31.541 14.5379 31.3803 14.5379C31.2197 14.5379 31.0656 14.6017 30.952 14.7153C30.8384 14.8289 30.7746 14.983 30.7746 15.1437V20.4839C30.4215 20.3591 30.1156 20.1282 29.8987 19.8229C29.6819 19.5175 29.5646 19.1526 29.5631 18.7781V13.9322C29.5613 13.3883 29.6669 12.8494 29.8738 12.3463C29.9075 12.2723 29.926 12.1923 29.9281 12.111C29.9302 12.0297 29.9159 11.9488 29.886 11.8731C29.8562 11.7974 29.8114 11.7286 29.7544 11.6706C29.6973 11.6126 29.6292 11.5667 29.5541 11.5356C29.4789 11.5045 29.3982 11.4889 29.3169 11.4896C29.2356 11.4904 29.1553 11.5075 29.0807 11.54C29.0061 11.5725 28.9388 11.6196 28.8829 11.6786C28.8269 11.7377 28.7835 11.8074 28.755 11.8835C28.4867 12.5331 28.3496 13.2294 28.3516 13.9322V18.7781C28.3524 19.4761 28.5938 20.1525 29.0352 20.6932C29.4765 21.2338 30.0909 21.6058 30.7746 21.7463V30.893C30.7755 31.696 31.0949 32.4658 31.6627 33.0336C32.2305 33.6014 33.0003 33.9208 33.8033 33.9217H36.2263C37.0292 33.9208 37.799 33.6014 38.3668 33.0336C38.9346 32.4658 39.254 31.696 39.255 30.893V21.7463C39.9386 21.6057 40.5529 21.2337 40.9942 20.693C41.4356 20.1524 41.6771 19.4761 41.678 18.7781V13.9322C41.6764 12.4868 41.1015 11.1011 40.0794 10.079C39.0574 9.05697 37.6717 8.48208 36.2263 8.48047Z" fill="#006291"/>
<path d="M6.80778 7.26893C7.61075 7.26797 8.38056 6.94857 8.94834 6.38078C9.51613 5.81299 9.83554 5.04318 9.8365 4.24021V3.02872C9.8365 2.22546 9.5174 1.45509 8.94941 0.887092C8.38141 0.319097 7.61104 0 6.80778 0C6.00451 0 5.23414 0.319097 4.66614 0.887092C4.09815 1.45509 3.77905 2.22546 3.77905 3.02872V4.24021C3.78001 5.04318 4.09942 5.81299 4.66721 6.38078C5.23499 6.94857 6.0048 7.26797 6.80778 7.26893ZM4.99054 3.02872C4.99054 2.54676 5.182 2.08454 5.5228 1.74374C5.86359 1.40295 6.32581 1.21149 6.80778 1.21149C7.28974 1.21149 7.75196 1.40295 8.09275 1.74374C8.43355 2.08454 8.62501 2.54676 8.62501 3.02872V4.24021C8.62501 4.72217 8.43355 5.18439 8.09275 5.52519C7.75196 5.86599 7.28974 6.05745 6.80778 6.05745C6.32581 6.05745 5.86359 5.86599 5.5228 5.52519C5.182 5.18439 4.99054 4.72217 4.99054 4.24021V3.02872Z" fill="#006291"/>
<path d="M8.01923 8.48047H5.59625C4.67394 8.47909 3.76669 8.71435 2.96127 9.16375C2.82493 9.24425 2.72553 9.37491 2.68434 9.52778C2.64315 9.68065 2.66345 9.84357 2.74089 9.98165C2.81833 10.1197 2.94675 10.222 3.09866 10.2666C3.25058 10.3112 3.41391 10.2945 3.55368 10.2202C4.17831 9.87269 4.88148 9.69085 5.59625 9.69196H8.01923C9.14336 9.69341 10.221 10.1406 11.0159 10.9355C11.8108 11.7304 12.258 12.808 12.2594 13.9322V18.7781C12.2579 19.1526 12.1407 19.5175 11.9238 19.8229C11.7069 20.1282 11.401 20.3591 11.048 20.4839V15.1437C11.048 14.983 10.9841 14.8289 10.8705 14.7153C10.7569 14.6017 10.6029 14.5379 10.4422 14.5379C10.2816 14.5379 10.1275 14.6017 10.0139 14.7153C9.90028 14.8289 9.83646 14.983 9.83646 15.1437V30.893C9.83646 31.375 9.64501 31.8372 9.30421 32.178C8.96341 32.5188 8.50119 32.7103 8.01923 32.7103H7.41349V21.2011C7.41349 21.0405 7.34967 20.8864 7.23607 20.7728C7.12247 20.6592 6.9684 20.5954 6.80774 20.5954C6.64709 20.5954 6.49302 20.6592 6.37942 20.7728C6.26582 20.8864 6.202 21.0405 6.202 21.2011V32.7103H5.59625C5.11429 32.7103 4.65207 32.5188 4.31128 32.178C3.97048 31.8372 3.77902 31.375 3.77902 30.893V15.1437C3.77902 14.983 3.7152 14.8289 3.6016 14.7153C3.488 14.6017 3.33393 14.5379 3.17328 14.5379C3.01262 14.5379 2.85855 14.6017 2.74495 14.7153C2.63135 14.8289 2.56753 14.983 2.56753 15.1437V20.4839C2.21444 20.3591 1.90854 20.1282 1.69168 19.8229C1.47482 19.5175 1.35759 19.1526 1.35604 18.7781V13.9322C1.3543 13.3883 1.4599 12.8494 1.66679 12.3463C1.70049 12.2723 1.71893 12.1923 1.72103 12.111C1.72312 12.0297 1.70882 11.9488 1.67898 11.8731C1.64914 11.7974 1.60437 11.7286 1.54733 11.6706C1.4903 11.6126 1.42218 11.5667 1.34702 11.5356C1.27186 11.5045 1.19122 11.4889 1.10989 11.4896C1.02856 11.4904 0.948219 11.5075 0.873651 11.54C0.799082 11.5725 0.731816 11.6196 0.675864 11.6786C0.619911 11.7377 0.576419 11.8074 0.547979 11.8835C0.279632 12.5331 0.142522 13.2294 0.144554 13.9322V18.7781C0.145321 19.4761 0.386751 20.1525 0.828132 20.6932C1.26951 21.2338 1.88384 21.6058 2.56753 21.7463V30.893C2.56849 31.696 2.8879 32.4658 3.45569 33.0336C4.02347 33.6014 4.79328 33.9208 5.59625 33.9217H8.01923C8.8222 33.9208 9.59201 33.6014 10.1598 33.0336C10.7276 32.4658 11.047 31.696 11.048 30.893V21.7463C11.7316 21.6057 12.3459 21.2337 12.7872 20.693C13.2286 20.1524 13.4701 19.4761 13.4709 18.7781V13.9322C13.4693 12.4868 12.8944 11.1011 11.8724 10.079C10.8504 9.05697 9.46462 8.48208 8.01923 8.48047Z" fill="#006291"/>
<path d="M231.499 241.912C231.499 242.944 232.339 243.784 233.371 243.784C234.404 243.784 235.243 242.944 235.243 241.912C235.243 240.879 234.403 240.039 233.371 240.039C232.339 240.039 231.499 240.879 231.499 241.912ZM232.401 241.912C232.401 241.377 232.836 240.941 233.371 240.941C233.906 240.941 234.342 241.377 234.342 241.912C234.342 242.446 233.906 242.882 233.371 242.882C232.836 242.882 232.401 242.446 232.401 241.912Z" fill="#006291" stroke="#006291" stroke-width="0.3"/>
<path d="M224.677 241.912C224.677 242.944 225.517 243.784 226.549 243.784C227.582 243.784 228.421 242.944 228.421 241.912C228.421 240.879 227.582 240.039 226.549 240.039C225.517 240.039 224.677 240.879 224.677 241.912ZM225.579 241.912C225.579 241.377 226.014 240.941 226.549 240.941C227.084 240.941 227.52 241.377 227.52 241.912C227.52 242.446 227.084 242.882 226.549 242.882C226.014 242.882 225.579 242.446 225.579 241.912Z" fill="#006291" stroke="#006291" stroke-width="0.3"/>
<path d="M234.048 239.572H234.048H234.048H234.048H234.048H234.048H234.048H234.048H234.048H234.048H234.048H234.048H234.048H234.048H234.048H234.048H234.048H234.048H234.048H234.048H234.048H234.048H234.048H234.048H234.048H234.048H234.048H234.048H234.048H234.048H234.048H234.048H234.048H234.048H234.048H234.048H234.048H234.048H234.048H234.048H234.048H234.048H234.048H234.048H234.048H234.048H234.048H234.048H234.048H234.048H234.048H234.048H234.048H234.048H234.048H234.048H234.048H234.048H234.048H234.048H234.048H234.048H234.048H234.048H234.048H234.048H234.048H234.048H234.048H234.048H234.048H234.048H234.048H234.048H234.048H234.048H234.048H234.048H234.048H234.048H234.048H234.048H234.048H234.048H234.048H234.048H234.048H234.048H234.048H234.048H234.048H234.048H234.048H234.048H234.048H234.048H234.048H234.048H234.048H234.048H234.048H234.048H234.048H234.048H234.048H234.048H234.048H234.048H234.048H234.048C234.7 239.572 235.294 239.165 235.53 238.555L235.531 238.554L238.359 231.021C238.36 231.021 238.36 231.02 238.36 231.02C238.481 230.707 238.44 230.354 238.25 230.077C238.059 229.799 237.745 229.633 237.409 229.633H223.172C223.038 229.633 222.911 229.693 222.825 229.796C222.74 229.9 222.705 230.036 222.729 230.167L222.729 230.167L224.253 238.281L224.253 238.282C224.397 239.028 225.052 239.569 225.812 239.569H225.812L234.048 239.572ZM223.716 230.535H237.409C237.449 230.535 237.483 230.553 237.506 230.586C237.528 230.618 237.534 230.657 237.518 230.698L237.517 230.699L234.688 238.232C234.688 238.232 234.688 238.232 234.688 238.232C234.586 238.494 234.329 238.67 234.048 238.67H234.048H234.048H234.048H234.048H234.048H234.048H234.048H234.048H234.048H234.048H234.048H234.048H234.048H234.048H234.048H234.048H234.048H234.048H234.048H234.048H234.048H234.048H234.048H234.048H234.048H234.048H234.048H234.048H234.048H234.048H234.048H234.048H234.048H234.048H234.048H234.048H234.048H234.048H234.048H234.048H234.048H234.048H234.048H234.048H234.048H234.048H234.048H234.048H234.048H234.048H234.048H234.048H234.048H234.048H234.048H234.048H234.048L225.812 238.667C225.484 238.667 225.201 238.433 225.139 238.113C225.139 238.113 225.139 238.113 225.139 238.113L223.716 230.535Z" fill="#006291" stroke="#006291" stroke-width="0.3"/>
<path d="M223.25 228.441L223.25 228.441L223.612 229.981L223.612 229.981L223.466 230.015C223.504 230.177 223.404 230.339 223.242 230.377L223.25 228.441ZM223.25 228.441C223.08 227.721 222.444 227.217 221.704 227.217H220.33C220.081 227.217 219.879 227.419 219.879 227.668C219.879 227.917 220.081 228.119 220.33 228.119H221.704C222.024 228.119 222.298 228.336 222.372 228.648L222.734 230.187L223.25 228.441Z" fill="#006291" stroke="#006291" stroke-width="0.3"/>
<path d="M223.6 232.48H228.541C228.79 232.48 228.992 232.278 228.992 232.03C228.992 231.781 228.79 231.579 228.541 231.579H223.6C223.351 231.579 223.15 231.781 223.15 232.03C223.15 232.278 223.351 232.48 223.6 232.48Z" fill="#006291" stroke="#006291" stroke-width="0.3"/>
<path d="M258.086 289.585C258.086 290.618 258.925 291.457 259.958 291.457C260.99 291.457 261.83 290.618 261.83 289.585C261.83 288.553 260.99 287.713 259.958 287.713C258.925 287.713 258.086 288.553 258.086 289.585ZM258.987 289.585C258.987 289.05 259.423 288.615 259.958 288.615C260.493 288.615 260.928 289.05 260.928 289.585C260.928 290.12 260.493 290.556 259.958 290.556C259.423 290.556 258.987 290.12 258.987 289.585Z" fill="#006291" stroke="#006291" stroke-width="0.3"/>
<path d="M251.266 289.585C251.266 290.618 252.106 291.457 253.138 291.457C254.17 291.457 255.01 290.618 255.01 289.585C255.01 288.553 254.17 287.713 253.138 287.713C252.106 287.713 251.266 288.553 251.266 289.585ZM252.168 289.585C252.168 289.05 252.603 288.615 253.138 288.615C253.673 288.615 254.109 289.05 254.109 289.585C254.109 290.12 253.673 290.556 253.138 290.556C252.603 290.556 252.168 290.12 252.168 289.585Z" fill="#006291" stroke="#006291" stroke-width="0.3"/>
<path d="M260.636 287.246H260.636H260.636H260.636H260.636H260.636H260.636H260.636H260.636H260.636H260.637H260.637H260.637H260.637H260.637H260.637H260.637H260.637H260.637H260.637H260.637H260.637H260.637H260.637H260.637H260.637H260.637H260.637H260.637H260.637H260.637H260.637H260.637H260.637H260.637H260.637H260.637H260.637H260.637H260.637H260.637H260.637H260.637H260.637H260.637H260.637H260.637H260.637H260.637H260.637H260.637H260.637H260.637H260.637H260.637H260.637H260.637H260.637H260.637H260.637H260.637H260.637H260.637H260.637H260.637H260.637H260.637H260.637H260.637H260.637H260.637H260.637H260.637H260.637H260.637H260.637H260.637H260.637H260.637H260.637H260.637H260.637H260.637H260.637H260.637H260.637H260.637H260.637H260.637H260.637H260.637H260.637H260.637H260.637H260.637H260.637H260.637H260.637H260.637H260.637H260.637H260.637H260.637H260.637H260.637H260.637H260.637H260.637H260.637H260.637C261.289 287.246 261.883 286.838 262.119 286.229L262.12 286.227L264.948 278.695C264.948 278.694 264.948 278.694 264.949 278.694C265.07 278.38 265.029 278.028 264.839 277.75C264.648 277.473 264.334 277.307 263.998 277.307H249.761C249.627 277.307 249.5 277.367 249.414 277.47C249.329 277.573 249.294 277.709 249.318 277.841L249.318 277.841L250.842 285.955L250.842 285.956C250.986 286.701 251.641 287.242 252.4 287.243H252.401L260.636 287.246ZM250.305 278.208H263.998C264.038 278.208 264.072 278.226 264.095 278.259C264.117 278.292 264.123 278.33 264.107 278.371L264.106 278.373L261.277 285.905C261.277 285.906 261.277 285.906 261.277 285.906C261.175 286.168 260.918 286.344 260.637 286.344H260.637H260.637H260.637H260.637H260.637H260.637H260.637H260.637H260.637H260.637H260.637H260.637H260.637H260.637H260.637H260.637H260.637H260.637H260.637H260.637H260.637H260.637H260.637H260.637H260.637H260.637H260.637H260.637H260.637H260.637H260.637H260.637H260.637H260.637H260.637H260.637H260.637H260.637H260.637H260.637H260.637H260.637H260.637H260.637H260.637H260.637H260.637H260.637H260.637H260.637H260.637H260.637H260.637H260.637H260.637H260.637H260.637L252.401 286.341C252.073 286.341 251.79 286.107 251.728 285.787C251.728 285.787 251.728 285.786 251.728 285.786L250.305 278.208Z" fill="#006291" stroke="#006291" stroke-width="0.3"/>
<path d="M249.839 276.115L249.839 276.115L250.202 277.654L250.202 277.654L250.056 277.689C250.094 277.85 249.993 278.012 249.832 278.05L249.839 276.115ZM249.839 276.115C249.67 275.394 249.034 274.891 248.294 274.891H246.92C246.671 274.891 246.469 275.092 246.469 275.341C246.469 275.59 246.671 275.792 246.92 275.792H248.294C248.614 275.792 248.888 276.009 248.962 276.321L249.324 277.861L249.839 276.115Z" fill="#006291" stroke="#006291" stroke-width="0.3"/>
<path d="M250.187 280.154H255.128C255.377 280.154 255.579 279.952 255.579 279.703C255.579 279.455 255.377 279.253 255.128 279.253H250.187C249.938 279.253 249.736 279.455 249.736 279.703C249.736 279.952 249.938 280.154 250.187 280.154Z" fill="#006291" stroke="#006291" stroke-width="0.3"/>
<path d="M271.837 241.912C271.837 242.944 272.677 243.784 273.709 243.784C274.742 243.784 275.581 242.944 275.581 241.912C275.581 240.879 274.742 240.039 273.709 240.039C272.677 240.039 271.837 240.879 271.837 241.912ZM272.739 241.912C272.739 241.377 273.174 240.941 273.709 240.941C274.244 240.941 274.68 241.377 274.68 241.912C274.68 242.446 274.244 242.882 273.709 242.882C273.174 242.882 272.739 242.446 272.739 241.912Z" fill="#006291" stroke="#006291" stroke-width="0.3"/>
<path d="M265.017 241.912C265.017 242.944 265.857 243.784 266.89 243.784C267.922 243.784 268.762 242.944 268.762 241.912C268.762 240.879 267.922 240.039 266.89 240.039C265.857 240.039 265.017 240.879 265.017 241.912ZM265.919 241.912C265.919 241.377 266.355 240.941 266.89 240.941C267.424 240.941 267.86 241.377 267.86 241.912C267.86 242.446 267.424 242.882 266.89 242.882C266.355 242.882 265.919 242.446 265.919 241.912Z" fill="#006291" stroke="#006291" stroke-width="0.3"/>
<path d="M274.388 239.572H274.388H274.388H274.388H274.388H274.388H274.388H274.388H274.388H274.388H274.388H274.388H274.388H274.388H274.388H274.388H274.388H274.388H274.388H274.388H274.388H274.388H274.388H274.388H274.388H274.388H274.388H274.388H274.388H274.388H274.388H274.388H274.388H274.388H274.388H274.388H274.388H274.388H274.388H274.388H274.388H274.388H274.388H274.388H274.388H274.388H274.388H274.388H274.388H274.388H274.388H274.388H274.388H274.388H274.388H274.388H274.388H274.388H274.388H274.388H274.388H274.388H274.388H274.388H274.388H274.388H274.388H274.388H274.388H274.388H274.388H274.388H274.388H274.388H274.388H274.389H274.389H274.389H274.389H274.389H274.389H274.389H274.389H274.389H274.389H274.389H274.389H274.389H274.389H274.389H274.389H274.389H274.389H274.389H274.389H274.389H274.389H274.389H274.389H274.389H274.389H274.389H274.389H274.389H274.389H274.389H274.389H274.389H274.389H274.389C275.04 239.572 275.634 239.165 275.871 238.555L275.871 238.554L278.7 231.021C278.7 231.021 278.7 231.02 278.7 231.02C278.821 230.707 278.78 230.354 278.59 230.077C278.4 229.799 278.085 229.633 277.749 229.633H263.513C263.379 229.633 263.251 229.693 263.166 229.796C263.08 229.9 263.045 230.036 263.07 230.167L263.07 230.167L264.593 238.281L264.594 238.282C264.737 239.028 265.393 239.569 266.152 239.569H266.152L274.388 239.572ZM264.056 230.535H277.749C277.789 230.535 277.824 230.553 277.846 230.586C277.869 230.618 277.874 230.657 277.858 230.698L277.858 230.699L275.029 238.232C275.029 238.232 275.029 238.232 275.029 238.232C274.927 238.494 274.669 238.67 274.389 238.67H274.389H274.389H274.389H274.389H274.389H274.389H274.389H274.389H274.389H274.389H274.389H274.389H274.389H274.389H274.389H274.389H274.389H274.389H274.389H274.389H274.389H274.389H274.389H274.389H274.389H274.389H274.389H274.389H274.389H274.389H274.389H274.389H274.389H274.389H274.389H274.389H274.389H274.389H274.388H274.388H274.388H274.388H274.388H274.388H274.388H274.388H274.388H274.388H274.388H274.388H274.388H274.388H274.388H274.388H274.388H274.388H274.388L266.153 238.667C265.825 238.667 265.541 238.433 265.479 238.113C265.479 238.113 265.479 238.113 265.479 238.113L264.056 230.535Z" fill="#006291" stroke="#006291" stroke-width="0.3"/>
<path d="M263.591 228.441L263.591 228.441L263.954 229.981L263.954 229.981L263.808 230.015C263.846 230.177 263.745 230.339 263.584 230.377L263.591 228.441ZM263.591 228.441C263.422 227.721 262.786 227.217 262.046 227.217H260.672C260.423 227.217 260.221 227.419 260.221 227.668C260.221 227.917 260.423 228.119 260.672 228.119H262.046C262.366 228.119 262.64 228.336 262.714 228.648L263.076 230.187L263.591 228.441Z" fill="#006291" stroke="#006291" stroke-width="0.3"/>
<path d="M263.939 232.48H268.879C269.128 232.48 269.33 232.278 269.33 232.03C269.33 231.781 269.128 231.579 268.879 231.579H263.939C263.69 231.579 263.488 231.781 263.488 232.03C263.488 232.278 263.69 232.48 263.939 232.48Z" fill="#006291" stroke="#006291" stroke-width="0.3"/>
<path d="M312.177 241.912C312.177 242.944 313.017 243.784 314.049 243.784C315.082 243.784 315.922 242.944 315.922 241.912C315.922 240.879 315.082 240.039 314.049 240.039C313.017 240.039 312.177 240.879 312.177 241.912ZM313.079 241.912C313.079 241.377 313.515 240.941 314.049 240.941C314.585 240.941 315.02 241.377 315.02 241.912C315.02 242.446 314.585 242.882 314.049 242.882C313.515 242.882 313.079 242.446 313.079 241.912Z" fill="#006291" stroke="#006291" stroke-width="0.3"/>
<path d="M305.356 241.912C305.356 242.944 306.195 243.784 307.228 243.784C308.26 243.784 309.1 242.944 309.1 241.912C309.1 240.879 308.26 240.039 307.228 240.039C306.195 240.039 305.356 240.879 305.356 241.912ZM306.257 241.912C306.257 241.377 306.693 240.941 307.228 240.941C307.763 240.941 308.198 241.377 308.198 241.912C308.198 242.446 307.763 242.882 307.228 242.882C306.693 242.882 306.257 242.446 306.257 241.912Z" fill="#006291" stroke="#006291" stroke-width="0.3"/>
<path d="M314.726 239.572H314.726H314.726H314.726H314.726H314.726H314.726H314.726H314.726H314.726H314.726H314.726H314.726H314.726H314.726H314.726H314.726H314.726H314.726H314.726H314.726H314.726H314.726H314.726H314.726H314.726H314.726H314.726H314.726H314.726H314.726H314.726H314.726H314.726H314.726H314.726H314.726H314.726H314.726H314.726H314.726H314.726H314.726H314.726H314.726H314.726H314.726H314.726H314.726H314.726H314.726H314.726H314.726H314.726H314.726H314.726H314.726H314.726H314.727H314.727H314.727H314.727H314.727H314.727H314.727H314.727H314.727H314.727H314.727H314.727H314.727H314.727H314.727H314.727H314.727H314.727H314.727H314.727H314.727H314.727H314.727H314.727H314.727H314.727H314.727H314.727H314.727H314.727H314.727H314.727H314.727H314.727H314.727H314.727H314.727H314.727H314.727H314.727H314.727H314.727H314.727H314.727H314.727H314.727H314.727H314.727H314.727H314.727H314.727H314.727C315.378 239.572 315.972 239.165 316.209 238.555L316.209 238.554L319.038 231.021C319.038 231.021 319.038 231.02 319.038 231.02C319.159 230.707 319.118 230.354 318.928 230.077C318.738 229.799 318.424 229.633 318.087 229.633H303.851C303.717 229.633 303.59 229.693 303.504 229.796C303.418 229.9 303.383 230.036 303.408 230.167L303.408 230.167L304.932 238.281L304.932 238.282C305.076 239.028 305.731 239.569 306.49 239.569H306.49L314.726 239.572ZM304.394 230.535H318.087C318.128 230.535 318.162 230.553 318.185 230.586C318.207 230.618 318.212 230.657 318.196 230.698L318.196 230.699L315.367 238.232C315.367 238.232 315.367 238.232 315.367 238.232C315.265 238.494 315.007 238.67 314.727 238.67H314.727H314.727H314.727H314.727H314.727H314.727H314.727H314.727H314.727H314.727H314.727H314.727H314.727H314.727H314.727H314.727H314.727H314.727H314.727H314.727H314.727H314.727H314.727H314.727H314.727H314.727H314.727H314.727H314.727H314.727H314.727H314.727H314.727H314.727H314.727H314.727H314.727H314.727H314.727H314.727H314.727H314.727H314.727H314.727H314.727H314.727H314.727H314.727H314.727H314.727H314.727H314.727H314.727H314.727H314.726H314.726H314.726L306.491 238.667C306.163 238.667 305.88 238.433 305.818 238.113C305.818 238.113 305.818 238.113 305.818 238.113L304.394 230.535Z" fill="#006291" stroke="#006291" stroke-width="0.3"/>
<path d="M303.929 228.441L303.929 228.441L304.291 229.981L304.291 229.981L304.145 230.015C304.184 230.177 304.083 230.339 303.922 230.377L303.929 228.441ZM303.929 228.441C303.76 227.721 303.124 227.217 302.384 227.217H301.01C300.761 227.217 300.559 227.419 300.559 227.668C300.559 227.917 300.761 228.119 301.01 228.119H302.384C302.704 228.119 302.978 228.336 303.051 228.648L303.414 230.187L303.929 228.441Z" fill="#006291" stroke="#006291" stroke-width="0.3"/>
<path d="M304.279 232.48H309.22C309.469 232.48 309.671 232.278 309.671 232.03C309.671 231.781 309.469 231.579 309.22 231.579H304.279C304.03 231.579 303.828 231.781 303.828 232.03C303.828 232.278 304.03 232.48 304.279 232.48Z" fill="#006291" stroke="#006291" stroke-width="0.3"/>
<path d="M202.202 7.26893C203.005 7.26797 203.775 6.94857 204.343 6.38078C204.911 5.81299 205.23 5.04318 205.231 4.24021V3.02872C205.231 2.22546 204.912 1.45509 204.344 0.887092C203.776 0.319097 203.006 0 202.202 0C201.399 0 200.629 0.319097 200.061 0.887092C199.493 1.45509 199.174 2.22546 199.174 3.02872V4.24021C199.175 5.04318 199.494 5.81299 200.062 6.38078C200.63 6.94857 201.399 7.26797 202.202 7.26893ZM200.385 3.02872C200.385 2.54676 200.577 2.08454 200.917 1.74374C201.258 1.40295 201.72 1.21149 202.202 1.21149C202.684 1.21149 203.146 1.40295 203.487 1.74374C203.828 2.08454 204.02 2.54676 204.02 3.02872V4.24021C204.02 4.72217 203.828 5.18439 203.487 5.52519C203.146 5.86599 202.684 6.05745 202.202 6.05745C201.72 6.05745 201.258 5.86599 200.917 5.52519C200.577 5.18439 200.385 4.72217 200.385 4.24021V3.02872Z" fill="#006291"/>
<path d="M203.414 8.48047H200.991C200.068 8.47909 199.161 8.71435 198.356 9.16375C198.219 9.24425 198.12 9.37491 198.079 9.52778C198.038 9.68065 198.058 9.84357 198.135 9.98165C198.213 10.1197 198.341 10.222 198.493 10.2666C198.645 10.3112 198.808 10.2945 198.948 10.2202C199.573 9.87269 200.276 9.69085 200.991 9.69196H203.414C204.538 9.69341 205.616 10.1406 206.41 10.9355C207.205 11.7304 207.653 12.808 207.654 13.9322V18.7781C207.652 19.1526 207.535 19.5175 207.318 19.8229C207.101 20.1282 206.796 20.3591 206.442 20.4839V15.1437C206.442 14.983 206.379 14.8289 206.265 14.7153C206.151 14.6017 205.997 14.5379 205.837 14.5379C205.676 14.5379 205.522 14.6017 205.408 14.7153C205.295 14.8289 205.231 14.983 205.231 15.1437V30.893C205.231 31.375 205.04 31.8372 204.699 32.178C204.358 32.5188 203.896 32.7103 203.414 32.7103H202.808V21.2011C202.808 21.0405 202.744 20.8864 202.631 20.7728C202.517 20.6592 202.363 20.5954 202.202 20.5954C202.042 20.5954 201.888 20.6592 201.774 20.7728C201.66 20.8864 201.597 21.0405 201.597 21.2011V32.7103H200.991C200.509 32.7103 200.047 32.5188 199.706 32.178C199.365 31.8372 199.174 31.375 199.174 30.893V15.1437C199.174 14.983 199.11 14.8289 198.996 14.7153C198.883 14.6017 198.728 14.5379 198.568 14.5379C198.407 14.5379 198.253 14.6017 198.139 14.7153C198.026 14.8289 197.962 14.983 197.962 15.1437V20.4839C197.609 20.3591 197.303 20.1282 197.086 19.8229C196.869 19.5175 196.752 19.1526 196.751 18.7781V13.9322C196.749 13.3883 196.854 12.8494 197.061 12.3463C197.095 12.2723 197.113 12.1923 197.116 12.111C197.118 12.0297 197.103 11.9488 197.074 11.8731C197.044 11.7974 196.999 11.7286 196.942 11.6706C196.885 11.6126 196.817 11.5667 196.742 11.5356C196.666 11.5045 196.586 11.4889 196.504 11.4896C196.423 11.4904 196.343 11.5075 196.268 11.54C196.194 11.5725 196.126 11.6196 196.07 11.6786C196.014 11.7377 195.971 11.8074 195.943 11.8835C195.674 12.5331 195.537 13.2294 195.539 13.9322V18.7781C195.54 19.4761 195.781 20.1525 196.223 20.6932C196.664 21.2338 197.278 21.6058 197.962 21.7463V30.893C197.963 31.696 198.282 32.4658 198.85 33.0336C199.418 33.6014 200.188 33.9208 200.991 33.9217H203.414C204.217 33.9208 204.987 33.6014 205.554 33.0336C206.122 32.4658 206.442 31.696 206.442 30.893V21.7463C207.126 21.6057 207.74 21.2337 208.182 20.693C208.623 20.1524 208.865 19.4761 208.865 18.7781V13.9322C208.864 12.4868 208.289 11.1011 207.267 10.079C206.245 9.05697 204.859 8.48208 203.414 8.48047Z" fill="#006291"/>
</svg>
