<svg width="575" height="299" viewBox="0 0 575 299" fill="none" xmlns="http://www.w3.org/2000/svg">
<path d="M2.93469 266.492L2.93468 173.948L248.004 173.948L2.93469 266.492Z" fill="#E2EDFB"/>
<path d="M574.481 28.2772L574.482 173.948L243.724 173.948L574.481 28.2772Z" fill="#95B0D6"/>
<rect x="2.93555" y="173.091" width="571.544" height="2.57066" fill="#C6DBF8"/>
<path d="M8.09912 294.91C6.58186 294.91 5.40278 294.462 4.56189 293.566C3.73014 292.671 3.31426 291.46 3.31426 289.933V289.824C3.31426 288.361 3.76213 287.164 4.65786 286.232C5.56273 285.29 6.70068 284.819 8.0717 284.819C9.24164 284.819 10.2059 285.112 10.9645 285.697C11.7323 286.282 12.171 287.132 12.2807 288.247H10.4299C10.2196 286.931 9.43815 286.273 8.08541 286.273C7.2171 286.273 6.52245 286.593 6.00146 287.232C5.48961 287.863 5.23369 288.722 5.23369 289.81V289.92C5.23369 291.025 5.48504 291.889 5.98775 292.511C6.49046 293.123 7.19425 293.429 8.09912 293.429C8.79377 293.429 9.36046 293.256 9.79918 292.908C10.247 292.552 10.5167 292.035 10.6081 291.359H12.3904C12.2533 292.511 11.8009 293.393 11.0331 294.005C10.2745 294.608 9.29648 294.91 8.09912 294.91ZM13.0151 294.773L16.2918 284.97H18.6774L21.913 294.773H20.021L19.2395 292.346H15.4966L14.7289 294.773H13.0151ZM17.3749 286.465L15.9216 291.016H18.8145L17.3749 286.465ZM27.1515 294.91C25.6342 294.91 24.4551 294.462 23.6142 293.566C22.7825 292.671 22.3666 291.46 22.3666 289.933V289.824C22.3666 288.361 22.8145 287.164 23.7102 286.232C24.6151 285.29 25.753 284.819 27.124 284.819C28.294 284.819 29.2583 285.112 30.0169 285.697C30.7847 286.282 31.2234 287.132 31.3331 288.247H29.4822C29.272 286.931 28.4905 286.273 27.1378 286.273C26.2694 286.273 25.5748 286.593 25.0538 287.232C24.542 287.863 24.286 288.722 24.286 289.81V289.92C24.286 291.025 24.5374 291.889 25.0401 292.511C25.5428 293.123 26.2466 293.429 27.1515 293.429C27.8461 293.429 28.4128 293.256 28.8515 292.908C29.2994 292.552 29.569 292.035 29.6604 291.359H31.4428C31.3057 292.511 30.8532 293.393 30.0854 294.005C29.3268 294.608 28.3488 294.91 27.1515 294.91Z" fill="#006291"/>
<path d="M548.782 13V1.97186H550.833V11.3651H555.538V13H548.782ZM558.248 13V3.59138H555.178V1.97186H563.384V3.59138H560.314V13H558.248ZM567.992 13L564.275 1.97186H566.419L569.288 10.9178L572.172 1.97186H574.1L570.367 13H567.992Z" fill="#006291"/>
<path d="M534.821 205.954C533.115 205.954 531.788 205.45 530.842 204.442C529.906 203.434 529.439 202.072 529.439 200.355V200.231C529.439 198.586 529.942 197.239 530.95 196.19C531.968 195.131 533.248 194.602 534.791 194.602C536.107 194.602 537.192 194.931 538.045 195.589C538.909 196.247 539.402 197.203 539.526 198.458H537.444C537.207 196.977 536.328 196.237 534.806 196.237C533.829 196.237 533.048 196.596 532.462 197.316C531.886 198.026 531.598 198.992 531.598 200.216V200.339C531.598 201.584 531.881 202.555 532.446 203.254C533.012 203.943 533.803 204.288 534.821 204.288C535.603 204.288 536.24 204.093 536.734 203.702C537.238 203.301 537.541 202.72 537.644 201.959H539.649C539.495 203.254 538.986 204.247 538.122 204.936C537.269 205.614 536.168 205.954 534.821 205.954ZM541.272 205.799V194H543.138V199.013C543.344 198.591 543.673 198.247 544.125 197.979C544.578 197.702 545.118 197.563 545.745 197.563C546.598 197.563 547.272 197.825 547.765 198.35C548.259 198.864 548.506 199.656 548.506 200.725V205.799H546.639V200.895C546.639 200.288 546.511 199.841 546.254 199.553C545.997 199.265 545.591 199.121 545.035 199.121C544.48 199.121 544.023 199.291 543.663 199.63C543.313 199.959 543.138 200.432 543.138 201.049V205.799H541.272ZM553.355 205.954C552.512 205.954 551.838 205.702 551.335 205.198C550.831 204.694 550.579 203.928 550.579 202.9V197.733H552.445V202.684C552.445 203.29 552.574 203.738 552.831 204.026C553.088 204.314 553.489 204.458 554.034 204.458C554.568 204.458 555.016 204.288 555.376 203.949C555.735 203.609 555.915 203.136 555.915 202.53V197.733H557.782V205.799H555.915V204.535C555.699 204.956 555.37 205.301 554.928 205.568C554.496 205.825 553.972 205.954 553.355 205.954ZM559.995 205.799V197.733H561.861V199.244C562.396 198.165 563.27 197.62 564.483 197.609V199.352C563.609 199.363 562.951 199.537 562.509 199.877C562.077 200.216 561.861 200.792 561.861 201.604V205.799H559.995ZM566.125 205.799V197.733H567.991V199.013C568.197 198.591 568.526 198.247 568.978 197.979C569.431 197.702 569.971 197.563 570.598 197.563C571.451 197.563 572.125 197.825 572.618 198.35C573.112 198.864 573.359 199.656 573.359 200.725V205.799H571.493V200.895C571.493 200.288 571.364 199.841 571.107 199.553C570.85 199.265 570.444 199.121 569.888 199.121C569.333 199.121 568.876 199.291 568.516 199.63C568.166 199.959 567.991 200.432 567.991 201.049V205.799H566.125Z" fill="#006291"/>
<path d="M233.713 125.246C232.196 125.246 231.017 124.798 230.176 123.903C229.344 123.007 228.928 121.796 228.928 120.269V120.16C228.928 118.697 229.376 117.5 230.272 116.568C231.177 115.626 232.314 115.155 233.685 115.155C234.855 115.155 235.82 115.448 236.578 116.033C237.346 116.618 237.785 117.468 237.894 118.583H236.044C235.833 117.267 235.052 116.609 233.699 116.609C232.831 116.609 232.136 116.929 231.615 117.568C231.103 118.199 230.847 119.058 230.847 120.146V120.256C230.847 121.362 231.099 122.225 231.602 122.847C232.104 123.459 232.808 123.765 233.713 123.765C234.408 123.765 234.974 123.592 235.413 123.244C235.861 122.888 236.13 122.372 236.222 121.695H238.004C237.867 122.847 237.415 123.729 236.647 124.341C235.888 124.944 234.91 125.246 233.713 125.246ZM238.629 125.109L241.906 115.306H244.291L247.527 125.109H245.635L244.853 122.682H241.11L240.343 125.109H238.629ZM242.989 116.801L241.535 121.352H244.428L242.989 116.801ZM252.765 125.246C251.248 125.246 250.069 124.798 249.228 123.903C248.396 123.007 247.98 121.796 247.98 120.269V120.16C247.98 118.697 248.428 117.5 249.324 116.568C250.229 115.626 251.367 115.155 252.738 115.155C253.908 115.155 254.872 115.448 255.631 116.033C256.398 116.618 256.837 117.468 256.947 118.583H255.096C254.886 117.267 254.104 116.609 252.752 116.609C251.883 116.609 251.189 116.929 250.668 117.568C250.156 118.199 249.9 119.058 249.9 120.146V120.256C249.9 121.362 250.151 122.225 250.654 122.847C251.157 123.459 251.86 123.765 252.765 123.765C253.46 123.765 254.027 123.592 254.465 123.244C254.913 122.888 255.183 122.372 255.274 121.695H257.057C256.919 122.847 256.467 123.729 255.699 124.341C254.941 124.944 253.963 125.246 252.765 125.246Z" fill="black"/>
<path d="M216.568 144.818V135.015H219.721C220.854 135.015 221.741 135.271 222.381 135.782C223.03 136.285 223.354 137.039 223.354 138.045V138.1C223.354 139.096 223.03 139.845 222.381 140.348C221.732 140.842 220.859 141.088 219.762 141.088H218.391V144.818H216.568ZM218.391 139.772H219.721C220.324 139.772 220.781 139.63 221.092 139.347C221.412 139.055 221.572 138.639 221.572 138.1V138.045C221.572 136.966 220.955 136.427 219.721 136.427H218.391V139.772ZM226.53 144.955C225.826 144.955 225.25 144.781 224.802 144.434C224.354 144.077 224.13 143.542 224.13 142.83C224.13 142.043 224.464 141.468 225.131 141.102C225.798 140.736 226.69 140.554 227.805 140.554H228.696V140.183C228.696 139.69 228.595 139.329 228.394 139.1C228.202 138.863 227.869 138.744 227.393 138.744C226.562 138.744 226.105 139.119 226.022 139.868H224.418C224.482 139.073 224.793 138.479 225.35 138.086C225.917 137.693 226.63 137.496 227.489 137.496C229.4 137.496 230.355 138.369 230.355 140.115V144.818H228.723V143.94C228.211 144.616 227.48 144.955 226.53 144.955ZM226.927 143.762C227.448 143.762 227.873 143.634 228.202 143.378C228.531 143.113 228.696 142.756 228.696 142.309V141.596H227.846C226.466 141.596 225.775 141.984 225.775 142.761C225.775 143.428 226.159 143.762 226.927 143.762ZM232.85 147.272L234.153 144.091L231.315 137.647H233.111L235.017 142.267L236.772 137.647H238.389L234.482 147.272H232.85ZM239.77 144.818V135.015H243.28C245.419 135.015 246.488 135.865 246.488 137.565V137.62C246.488 138.689 245.972 139.384 244.939 139.704C245.606 139.85 246.1 140.11 246.42 140.485C246.74 140.86 246.9 141.372 246.9 142.021V142.075C246.9 142.98 246.612 143.666 246.036 144.132C245.46 144.589 244.628 144.818 243.541 144.818H239.77ZM241.553 143.515H243.321C244.51 143.515 245.104 142.994 245.104 141.952V141.897C245.104 141.385 244.948 141.006 244.638 140.759C244.336 140.503 243.856 140.375 243.198 140.375H241.553V143.515ZM241.553 139.141H243.061C243.655 139.141 244.08 139.027 244.336 138.799C244.601 138.57 244.734 138.205 244.734 137.702V137.647C244.734 137.181 244.596 136.843 244.322 136.633C244.048 136.422 243.618 136.317 243.034 136.317H241.553V139.141ZM250.348 144.955C249.645 144.955 249.069 144.781 248.621 144.434C248.173 144.077 247.949 143.542 247.949 142.83C247.949 142.043 248.283 141.468 248.95 141.102C249.617 140.736 250.508 140.554 251.623 140.554H252.515V140.183C252.515 139.69 252.414 139.329 252.213 139.1C252.021 138.863 251.687 138.744 251.212 138.744C250.38 138.744 249.923 139.119 249.841 139.868H248.237C248.301 139.073 248.612 138.479 249.169 138.086C249.736 137.693 250.449 137.496 251.308 137.496C253.218 137.496 254.173 138.369 254.173 140.115V144.818H252.542V143.94C252.03 144.616 251.299 144.955 250.348 144.955ZM250.746 143.762C251.267 143.762 251.692 143.634 252.021 143.378C252.35 143.113 252.515 142.756 252.515 142.309V141.596H251.665C250.284 141.596 249.594 141.984 249.594 142.761C249.594 143.428 249.978 143.762 250.746 143.762ZM259.215 144.955C258.163 144.955 257.295 144.63 256.61 143.981C255.933 143.323 255.595 142.437 255.595 141.321V141.212C255.595 140.097 255.942 139.201 256.637 138.525C257.332 137.839 258.191 137.496 259.215 137.496C260.092 137.496 260.832 137.716 261.436 138.154C262.048 138.584 262.4 139.26 262.491 140.183H260.887C260.759 139.279 260.211 138.826 259.242 138.826C258.666 138.826 258.195 139.036 257.83 139.457C257.473 139.877 257.295 140.453 257.295 141.184V141.294C257.295 142.062 257.469 142.651 257.816 143.063C258.173 143.474 258.662 143.68 259.283 143.68C259.74 143.68 260.129 143.547 260.448 143.282C260.777 143.008 260.965 142.628 261.011 142.144H262.532C262.468 142.985 262.139 143.666 261.545 144.187C260.951 144.699 260.174 144.955 259.215 144.955ZM263.961 144.818V134.329H265.62V140.8L268.184 137.647H269.993L267.21 140.938L270.226 144.818H268.307L265.62 141.294V144.818H263.961Z" fill="black"/>
<circle cx="246.026" cy="174.148" r="2.68391" fill="#006290"/>
<circle cx="3.13122" cy="266.743" r="3.13122" fill="#006290"/>
</svg>
