<svg width="45" height="49" viewBox="0 0 45 49" fill="none" xmlns="http://www.w3.org/2000/svg">
<path d="M34.1004 48.375C34.5387 48.375 34.8934 48.0199 34.8934 47.582V44.4098H38.8586C39.2969 44.4098 39.6516 44.0548 39.6516 43.6168V40.4447H43.6168C44.0551 40.4447 44.4098 40.0896 44.4098 39.6516V6.34426C44.4098 6.134 44.3262 5.93226 44.1775 5.78356L38.6263 0.232335C38.4776 0.0836411 38.2762 0 38.0656 0H11.1025C10.6641 0 10.3094 0.35508 10.3094 0.793033V3.96516H6.34426C5.90593 3.96516 5.55123 4.32024 5.55123 4.7582V7.93033H0.793033C0.3547 7.93033 0 8.28541 0 8.72336V47.582C0 48.0199 0.3547 48.375 0.793033 48.375H34.1004ZM11.8955 1.58607H37.7372L41.7024 5.55123H38.8586V3.96516H37.2725V6.34426C37.2725 6.78221 37.6272 7.13729 38.0656 7.13729H42.8238V38.8586H39.6516V10.3094C39.6516 10.0992 39.568 9.89742 39.4193 9.74873L33.8681 4.1975C33.7194 4.04881 33.518 3.96516 33.3074 3.96516H11.8955V1.58607ZM7.13729 5.55123H11.1025H32.979L36.9442 9.51639H34.1004V7.93033H32.5143V10.3094C32.5143 10.7474 32.869 11.1025 33.3074 11.1025H38.0656V39.6516V42.8238H34.8934V14.2746C34.8934 14.0643 34.8098 13.8626 34.6611 13.7139L29.1099 8.16266C28.9612 8.01397 28.7598 7.93033 28.5492 7.93033H7.13729V5.55123ZM1.58607 9.51639H6.34426H28.2208L32.186 13.4816H29.3422V11.8955H27.7561V14.2746C27.7561 14.7125 28.1108 15.0676 28.5492 15.0676H33.3074V43.6168V46.7889H1.58607V9.51639Z" fill="#006290"/>
<path d="M3.17212 11.1024H4.75818V12.6885H3.17212V11.1024Z" fill="#006290"/>
<path d="M6.34424 11.1024H7.9303V12.6885H6.34424V11.1024Z" fill="#006290"/>
<path d="M9.51636 11.1024H11.1024V12.6885H9.51636V11.1024Z" fill="#006290"/>
<path d="M12.6886 20.6188H16.6537V22.9979H7.93037C7.49204 22.9979 7.13734 23.353 7.13734 23.7909V26.9631H4.75824C4.31991 26.9631 3.96521 27.3181 3.96521 27.7561V32.5143C3.96521 32.9522 4.31991 33.3073 4.75824 33.3073H11.1025C11.5408 33.3073 11.8955 32.9522 11.8955 32.5143V27.7561C11.8955 27.3181 11.5408 26.9631 11.1025 26.9631H8.72341V24.584H16.6537V26.9631H14.2746C13.8363 26.9631 13.4816 27.3181 13.4816 27.7561V32.5143C13.4816 32.9522 13.8363 33.3073 14.2746 33.3073H20.6189C21.0572 33.3073 21.4119 32.9522 21.4119 32.5143V27.7561C21.4119 27.3181 21.0572 26.9631 20.6189 26.9631H18.2398V24.584H26.1701V26.9631H23.791C23.3527 26.9631 22.998 27.3181 22.998 27.7561V32.5143C22.998 32.9522 23.3527 33.3073 23.791 33.3073H30.1353C30.5736 33.3073 30.9283 32.9522 30.9283 32.5143V27.7561C30.9283 27.3181 30.5736 26.9631 30.1353 26.9631H27.7562V23.7909C27.7562 23.353 27.4015 22.9979 26.9632 22.9979H18.2398V20.6188H22.205C22.6433 20.6188 22.998 20.2637 22.998 19.8258V15.0676C22.998 14.6296 22.6433 14.2745 22.205 14.2745H12.6886C12.2502 14.2745 11.8955 14.6296 11.8955 15.0676V19.8258C11.8955 20.2637 12.2502 20.6188 12.6886 20.6188ZM10.3095 31.7213H5.55128V28.5491H10.3095V31.7213ZM19.8259 31.7213H15.0677V28.5491H19.8259V31.7213ZM29.3423 31.7213H24.5841V28.5491H29.3423V31.7213ZM13.4816 15.8606H21.4119V19.0327H13.4816V15.8606Z" fill="#006290"/>
<path d="M31.3364 38.9717L27.3712 36.5926C27.2481 36.5186 27.1072 36.4795 26.9631 36.4795H6.34425C4.59478 36.4795 3.17212 37.9025 3.17212 39.6516C3.17212 41.4007 4.59478 42.8238 6.34425 42.8238H26.9631C27.1072 42.8238 27.2481 42.7846 27.3712 42.7107L31.3364 40.3316C31.5749 40.1883 31.7213 39.93 31.7213 39.6516C31.7213 39.3732 31.5749 39.1149 31.3364 38.9717ZM26.1701 41.2377H8.72335V38.0656H26.1701V41.2377ZM4.75818 39.6516C4.75818 38.7769 5.4699 38.0656 6.34425 38.0656H7.13728V41.2377H6.34425C5.4699 41.2377 4.75818 40.5264 4.75818 39.6516ZM27.7561 40.63V38.6732L29.3871 39.6516L27.7561 40.63Z" fill="#006290"/>
</svg>
