<svg width="411" height="399" viewBox="0 0 411 399" fill="none" xmlns="http://www.w3.org/2000/svg">
<g opacity="0.9">
<rect opacity="0.5" x="1" y="6.10352e-05" width="286" height="394" rx="22" fill="white"/>
<path fill-rule="evenodd" clip-rule="evenodd" d="M97.6374 222.19C97.5553 222.516 97.5201 222.837 97.8063 223.471C97.9213 223.738 98.2662 223.933 98.536 223.987C98.5899 224.064 98.7213 224.139 98.7659 224.123C98.801 224.123 98.8832 224.142 98.9981 224.123C98.9981 224.142 99.0146 224.179 99.0357 224.198C99.0896 224.278 99.1084 224.348 99.1858 224.414C99.2844 224.486 99.3243 224.585 99.5331 224.641C99.6527 224.684 99.7066 224.719 99.7465 224.737C99.7254 224.794 99.7066 224.85 99.7066 224.949C99.6855 225.427 99.9765 225.387 100.359 225.807C100.474 225.92 100.666 226.743 100.375 227.227C100.244 227.438 100.819 227.321 101.356 226.922C101.896 226.518 101.95 225.943 102.278 225.678C102.609 225.43 102.738 225.141 102.541 224.93C102.355 224.698 101.856 224.662 101.511 224.224C101.297 223.952 100.647 223.973 100.378 224.261C100.232 224.416 100.037 224.47 99.9248 224.569C99.8638 224.545 99.8099 224.51 99.7723 224.491C99.6738 224.437 99.214 224.51 99.4275 224.261C99.5588 224.106 99.3876 224.029 99.2351 224.015H99.2539C99.4275 223.825 99.16 223.703 99.0075 223.628C98.963 223.611 98.8926 223.703 98.7166 223.745C98.6228 223.686 98.4093 223.555 98.4867 223.248C98.5313 223.072 98.5617 222.748 98.7752 222.788C98.984 222.847 99.0427 222.668 99.3289 222.748C99.6199 222.821 99.6762 222.748 99.6363 222.999C99.5776 223.248 99.5213 223.478 99.6903 223.555C100.019 223.686 100.002 223.248 99.9812 223.072C99.9577 222.903 100.324 222.668 100.479 222.499C100.65 222.328 100.746 221.77 101.011 221.756C101.302 221.734 101.778 221.467 101.478 221.122C101.11 220.74 100.849 220.93 100.633 221.141C100.425 221.352 100.136 221.544 100.082 221.181C100.021 220.819 100.328 220.453 100.005 220.357C99.8146 220.301 99.1389 220.411 98.7565 220.604C98.5078 220.719 98.1629 220.93 97.7031 221.523C97.4615 221.781 97.6703 221.997 97.6374 222.19ZM103.174 223.527C103.383 223.792 103.573 223.855 103.65 224.257C103.726 224.658 103.765 225.038 103.765 225.038C103.765 225.038 103.995 224.12 103.92 223.698C103.864 223.281 103.695 222.115 103.383 222.492C103.057 222.856 102.958 223.257 103.174 223.527ZM100.3 219.848C102.52 219.848 104.324 221.65 104.324 223.874C104.324 226.096 102.522 227.898 100.3 227.898C98.0761 227.898 96.272 226.096 96.272 223.874C96.272 221.648 98.0761 219.848 100.3 219.848Z" fill="#90939B"/>
<path d="M0 22.2482C0 9.96095 9.9608 0.000152588 22.2481 0.000152588H264.752C277.039 0.000152588 287 9.96095 287 22.2482V41.7856H0V22.2482Z" fill="#E2EDFB"/>
<path d="M285.902 39.911H1.10107V77.5641H285.902V39.911Z" fill="white"/>
<path d="M22.3879 18.3308C20.3922 18.3308 18.7769 19.9424 18.7769 21.9304C18.7769 23.9209 20.3922 25.5325 22.3879 25.5325C24.3836 25.5325 26.0041 23.9209 26.0041 21.9304C26.0041 19.9424 24.3836 18.3308 22.3879 18.3308Z" fill="white"/>
<path d="M29.0439 14.7767H27.3145L26.115 13.1626C25.8817 12.8569 25.3187 12.6346 24.8217 12.6346H19.9579C19.4584 12.6346 18.8827 12.8569 18.6443 13.1626L17.4499 14.7767H15.7306C14.379 14.7767 13.2886 15.8679 13.2886 17.2118V26.7249C13.2886 28.0662 14.379 29.1574 15.7306 29.1574H29.0388C30.3854 29.1574 31.4809 28.0662 31.4809 26.7249V17.2118C31.4859 15.8679 30.3905 14.7767 29.0439 14.7767ZM22.3873 26.9219C19.6232 26.9219 17.3789 24.6863 17.3789 21.9304C17.3789 19.177 19.6232 16.9415 22.3873 16.9415C25.1564 16.9415 27.4007 19.177 27.4007 21.9304C27.4007 24.6863 25.1564 26.9219 22.3873 26.9219ZM28.415 18.8714C27.8013 18.8714 27.3043 18.3763 27.3043 17.765C27.3043 17.1537 27.7988 16.6586 28.415 16.6586C29.0236 16.6586 29.5257 17.1537 29.5257 17.765C29.5257 18.3763 29.0236 18.8714 28.415 18.8714Z" fill="white"/>
<path d="M59.3287 26.1618L56.0346 22.8779C56.7193 22.0191 57.1478 20.9455 57.1478 19.7684C57.1478 16.9998 54.8833 14.7491 52.1066 14.7491C49.3298 14.7491 47.0703 17.0023 47.0703 19.7684C47.0703 22.5344 49.3298 24.7876 52.1066 24.7876C53.2908 24.7876 54.3711 24.3607 55.2307 23.6787L58.5248 26.9625L59.3287 26.1618ZM48.2039 19.7684C48.2039 17.6212 49.9511 15.8783 52.1066 15.8783C54.2621 15.8783 56.0143 17.6212 56.0143 19.7684C56.0143 21.9155 54.2621 23.661 52.1066 23.661C49.9511 23.661 48.2039 21.913 48.2039 19.7684Z" fill="white"/>
<path d="M242.754 32.3833H44.3022V33.136H242.754V32.3833Z" fill="white"/>
<path d="M264.482 11.8592C259.232 11.8592 254.972 15.724 254.972 20.4982C254.972 23.2137 256.354 25.6362 258.512 27.2226V31.1834L261.989 28.8342C262.783 29.0287 263.619 29.1373 264.482 29.1373C269.736 29.1373 273.996 25.2674 273.996 20.4957C273.996 15.724 269.736 11.8592 264.482 11.8592ZM265.636 23.0218L263.105 20.3543L258.538 23.0218L263.333 17.7221L265.864 20.3871L270.431 17.7221L265.636 23.0218Z" fill="white"/>
<path d="M35.6724 73.7662H23.3988C21.7404 73.7662 20.3862 72.4224 20.3862 70.7678V58.8222C20.3862 57.1702 21.7378 55.8238 23.3988 55.8238H35.6724C37.3309 55.8238 38.685 57.1676 38.685 58.8222V70.7678C38.685 72.4199 37.3334 73.7662 35.6724 73.7662ZM23.4014 56.9529C22.3667 56.9529 21.5248 57.7916 21.5248 58.8197V70.7653C21.5248 71.7959 22.3667 72.6321 23.4014 72.6321H35.675C36.7096 72.6321 37.5515 71.7959 37.5515 70.7653V58.8222C37.5515 57.7941 36.7096 56.9555 35.675 56.9555H23.4014V56.9529Z" fill="#E2EDFB"/>
<path d="M38.1083 57.5153H20.9507V58.6444H38.1083V57.5153Z" fill="#E2EDFB"/>
<path d="M35.571 63.7778H28.6709V64.9069H35.571V63.7778Z" fill="#E2EDFB"/>
<path d="M35.571 66.2286H28.6709V67.3578H35.571V66.2286Z" fill="#E2EDFB"/>
<path d="M26.6194 65.5693C26.6194 66.5039 25.8561 67.2617 24.9204 67.2617C23.9796 67.2617 23.2163 66.5039 23.2163 65.5693C23.2163 64.6321 23.9796 63.8743 24.9204 63.8743C25.8561 63.8768 26.6194 64.6321 26.6194 65.5693Z" fill="#E2EDFB"/>
<path d="M143.734 74.0878C138.444 74.0878 134.146 69.8036 134.146 64.5343C134.146 59.265 138.444 54.9808 143.734 54.9808C149.024 54.9808 153.327 59.265 153.327 64.5343C153.327 69.8011 149.024 74.0878 143.734 74.0878ZM143.734 56.1074C139.073 56.1074 135.28 59.8864 135.28 64.5318C135.28 69.1772 139.073 72.9561 143.734 72.9561C148.4 72.9561 152.194 69.1772 152.194 64.5318C152.194 59.8889 148.4 56.1074 143.734 56.1074Z" fill="#E2EDFB"/>
<path d="M145.723 62.6915C145.723 63.9116 144.731 64.9018 143.504 64.9018C142.276 64.9018 141.28 63.9116 141.28 62.6915C141.28 61.4689 142.276 60.4787 143.504 60.4787C144.731 60.4787 145.723 61.4664 145.723 62.6915Z" fill="#E2EDFB"/>
<path d="M146.73 68.2204C146.73 69.4405 145.285 69.8447 143.502 69.8447C141.719 69.8447 140.271 69.443 140.271 68.2204C140.271 66.9978 141.717 65.419 143.502 65.419C145.285 65.419 146.73 66.9978 146.73 68.2204Z" fill="#E2EDFB"/>
<path d="M197.039 64.5373C194.691 64.5373 192.784 62.7438 192.784 60.5386C192.784 58.3333 194.691 56.5424 197.039 56.5424C199.387 56.5424 201.294 58.3333 201.294 60.5386C201.294 62.7438 199.387 64.5373 197.039 64.5373ZM197.039 57.674C195.32 57.674 193.92 58.9598 193.92 60.5411C193.92 62.1224 195.322 63.4107 197.039 63.4107C198.763 63.4107 200.158 62.1224 200.158 60.5411C200.161 58.9573 198.763 57.674 197.039 57.674Z" fill="#E2EDFB"/>
<path d="M197.032 73.2243C192.127 73.2243 191.103 71.5495 191.103 70.145C191.103 67.9246 193.748 65.2445 197.032 65.2445C200.321 65.2445 202.966 67.9272 202.966 70.145C202.966 71.5495 201.936 73.2243 197.032 73.2243ZM197.032 66.3736C194.293 66.3736 192.237 68.6597 192.237 70.145C192.237 71.84 195.244 72.0926 197.032 72.0926C198.825 72.0926 201.832 71.8375 201.832 70.145C201.832 68.6597 199.771 66.3736 197.032 66.3736Z" fill="#E2EDFB"/>
<path d="M205.563 64.7607C203.716 64.7607 202.22 63.3461 202.22 61.6082C202.22 59.8703 203.716 58.4582 205.563 58.4582C207.406 58.4582 208.905 59.8728 208.905 61.6082C208.905 63.3486 207.404 64.7607 205.563 64.7607ZM205.563 59.5873C204.345 59.5873 203.349 60.4917 203.349 61.6082C203.349 62.7221 204.345 63.6315 205.563 63.6315C206.78 63.6315 207.771 62.7247 207.771 61.6082C207.771 60.4942 206.78 59.5873 205.563 59.5873Z" fill="#E2EDFB"/>
<path d="M205.561 71.3034C204.032 71.3034 202.87 71.0912 202.105 70.6694L202.655 69.6817C203.238 70.0025 204.245 70.1718 205.561 70.1718C206.859 70.1718 209.032 70.0025 209.032 68.8456C209.032 67.7821 207.541 66.1452 205.561 66.1452C203.951 66.1452 202.548 67.2895 202.178 68.353L201.108 67.9792C201.613 66.5444 203.342 65.0161 205.561 65.0161C208.112 65.0161 210.166 67.1102 210.166 68.8481C210.166 69.9671 209.367 71.3034 205.561 71.3034Z" fill="#E2EDFB"/>
<path d="M139.169 64.4656C140.155 64.4656 140.951 63.6724 140.951 62.6872C140.951 61.7021 140.155 60.9089 139.169 60.9089C138.182 60.9089 137.381 61.7021 137.381 62.6872C137.381 63.6724 138.182 64.4656 139.169 64.4656Z" fill="#E2EDFB"/>
<path d="M147.834 64.8832C147.17 64.8832 146.571 65.1585 146.115 65.5501C146.868 66.2144 147.342 67.0834 147.342 67.8463C147.342 68.0584 147.296 68.2428 147.228 68.4171C147.421 68.4323 147.624 68.4424 147.832 68.4424C149.267 68.4424 150.431 68.1191 150.431 67.1339C150.433 66.1513 149.269 64.8832 147.834 64.8832Z" fill="#E2EDFB"/>
<path d="M147.842 64.465C148.829 64.465 149.63 63.6718 149.63 62.6867C149.63 61.7015 148.829 60.9084 147.842 60.9084C146.856 60.9084 146.06 61.7015 146.06 62.6867C146.06 63.6718 146.856 64.465 147.842 64.465Z" fill="#E2EDFB"/>
<path d="M139.655 67.8459C139.655 67.0831 140.131 66.2141 140.882 65.5498C140.426 65.1608 139.827 64.8829 139.163 64.8829C137.727 64.8829 136.563 66.151 136.563 67.1336C136.563 68.1188 137.727 68.4421 139.163 68.4421C139.371 68.4421 139.568 68.432 139.766 68.4168C139.7 68.2425 139.655 68.0581 139.655 67.8459Z" fill="#E2EDFB"/>
<path d="M265.964 57.6128H249.002V58.7419H265.964V57.6128Z" fill="#E2EDFB"/>
<path d="M265.964 64.3928H249.002V65.522H265.964V64.3928Z" fill="#E2EDFB"/>
<path d="M265.964 71.1661H249.002V72.2952H265.964V71.1661Z" fill="#E2EDFB"/>
<path d="M95.0655 65.8947C94.3326 64.8363 93.1991 64.2503 92.986 63.9648C92.773 63.6844 92.6006 63.1085 92.5651 62.8509C92.5651 62.8483 92.5397 62.8509 92.5296 62.8483C92.2177 60.292 90.3513 58.2257 87.889 57.6472C87.7799 56.3741 86.7554 55.3763 85.4925 55.3763C84.1561 55.3763 83.0708 56.4928 83.0708 57.8695C83.0708 58.0792 83.1012 58.2787 83.1494 58.4732C81.4808 59.5645 80.3701 61.4439 80.3701 63.5859C80.3701 64.129 80.4639 64.6443 80.5933 65.1445L80.573 65.1496C80.573 65.1496 80.5831 65.8922 80.0379 66.741C79.4978 67.5872 79.0236 68.3172 79.0921 69.2821C79.1656 70.2471 79.5688 71.8259 81.1714 71.6592C82.7817 71.495 92.7705 69.752 94.0486 69.4463C95.3292 69.1457 95.7983 66.9557 95.0655 65.8947ZM84.3235 57.872C84.3235 57.2077 84.8484 56.6722 85.4925 56.6722C86.0023 56.6722 86.4182 57.0132 86.5779 57.4805C86.5475 57.4805 86.5196 57.4704 86.4892 57.4704C85.7259 57.4704 85.0031 57.627 84.3286 57.8821C84.3286 57.8821 84.3235 57.8771 84.3235 57.872Z" fill="#E2EDFB"/>
<path d="M83.0703 72.6781C83.4279 73.59 84.4574 74.2518 85.6848 74.2518C87.2164 74.2518 88.4489 73.2364 88.4489 71.9809C88.4489 71.9127 88.4337 71.847 88.4235 71.7788C86.5013 72.1148 84.5005 72.4533 83.0703 72.6781Z" fill="#E2EDFB"/>
<path d="M36.295 231.69C44.1899 231.69 50.59 225.043 50.59 216.845C50.59 208.646 44.1899 202 36.295 202C28.4001 202 22 208.646 22 216.845C22 225.043 28.4001 231.69 36.295 231.69Z" fill="#E2EDFB"/>
<path d="M56.6132 148.53C67.706 143.966 72.9987 131.274 68.4346 120.181C63.8706 109.088 51.1782 103.795 40.0853 108.359C28.9925 112.923 23.6999 125.616 28.2639 136.709C32.828 147.802 45.5203 153.094 56.6132 148.53Z" fill="#E2EDFB"/>
<path d="M61.0322 158.217H35.6304V162.378H61.0322V158.217Z" fill="#E2EDFB"/>
<path d="M65.03 120.615C70.1029 120.615 74.2153 116.503 74.2153 111.43C74.2153 106.357 70.1029 102.245 65.03 102.245C59.9571 102.245 55.8447 106.357 55.8447 111.43C55.8447 116.503 59.9571 120.615 65.03 120.615Z" fill="#C6DBF8"/>
<path d="M65.867 114.729C65.867 115.184 65.4973 115.554 65.0426 115.554C64.588 115.554 64.2183 115.184 64.2183 114.729V108.128C64.2183 107.673 64.588 107.303 65.0426 107.303C65.4973 107.303 65.867 107.673 65.867 108.128V114.729Z" fill="white"/>
<path d="M61.7399 112.254C61.2853 112.254 60.9155 111.885 60.9155 111.43C60.9155 110.975 61.2853 110.606 61.7399 110.606H68.3418C68.7965 110.606 69.1662 110.975 69.1662 111.43C69.1662 111.885 68.7965 112.254 68.3418 112.254H61.7399Z" fill="white"/>
<path d="M120.645 148.53C131.738 143.966 137.031 131.273 132.467 120.18C127.903 109.087 115.21 103.795 104.118 108.359C93.0247 112.923 87.7321 125.615 92.2961 136.708C96.8602 147.801 109.553 153.094 120.645 148.53Z" fill="#E2EDFB"/>
<path d="M112.367 152.273C125.525 152.273 136.191 141.606 136.191 128.449C136.191 115.291 125.525 104.624 112.367 104.624C99.209 104.624 88.5425 115.291 88.5425 128.449C88.5425 141.606 99.209 152.273 112.367 152.273Z" stroke="#E2EDFB" stroke-width="0.556202" stroke-miterlimit="10"/>
<path d="M125.067 158.217H99.6626V162.378H125.067V158.217Z" fill="#E2EDFB"/>
<path d="M138.964 144.699C138.964 150.605 134.176 155.396 128.268 155.396C122.362 155.396 117.569 150.605 117.569 144.699C117.569 138.793 122.362 134.003 128.268 134.003C134.176 134.003 138.964 138.793 138.964 144.699Z" fill="white"/>
<path d="M137.338 144.7C137.338 149.71 133.278 153.77 128.268 153.77C123.257 153.77 119.195 149.708 119.195 144.7C119.195 139.689 123.259 135.629 128.268 135.629C133.276 135.629 137.338 139.689 137.338 144.7Z" fill="#E2EDFB"/>
<path d="M183.976 148.53C195.069 143.966 200.362 131.274 195.798 120.181C191.234 109.088 178.541 103.795 167.449 108.359C156.356 112.923 151.063 125.616 155.627 136.709C160.191 147.802 172.884 153.094 183.976 148.53Z" fill="#E2EDFB"/>
<path d="M175.698 152.274C188.856 152.274 199.522 141.608 199.522 128.45C199.522 115.292 188.856 104.626 175.698 104.626C162.54 104.626 151.874 115.292 151.874 128.45C151.874 141.608 162.54 152.274 175.698 152.274Z" stroke="#E2EDFB" stroke-width="0.556202" stroke-miterlimit="10"/>
<path d="M188.396 158.22H162.994V162.38H188.396V158.22Z" fill="#E2EDFB"/>
<path d="M202.295 144.701C202.295 150.607 197.507 155.397 191.599 155.397C185.693 155.397 180.9 150.607 180.9 144.701C180.9 138.795 185.693 134.005 191.599 134.005C197.507 134.005 202.295 138.795 202.295 144.701Z" fill="white"/>
<path d="M200.669 144.701C200.669 149.711 196.609 153.771 191.599 153.771C186.588 153.771 182.526 149.709 182.526 144.701C182.526 139.69 186.59 135.63 191.599 135.63C196.607 135.63 200.669 139.69 200.669 144.701Z" fill="#E2EDFB"/>
<path d="M247.346 148.509C258.428 143.918 263.691 131.213 259.1 120.131C254.51 109.049 241.805 103.787 230.723 108.377C219.641 112.967 214.378 125.672 218.968 136.754C223.559 147.837 236.264 153.099 247.346 148.509Z" fill="#E2EDFB"/>
<path d="M239.022 152.273C252.18 152.273 262.846 141.606 262.846 128.448C262.846 115.291 252.18 104.624 239.022 104.624C225.864 104.624 215.198 115.291 215.198 128.448C215.198 141.606 225.864 152.273 239.022 152.273Z" stroke="#E2EDFB" stroke-width="0.556202" stroke-miterlimit="10"/>
<path d="M251.719 158.217H226.317V162.378H251.719V158.217Z" fill="#E2EDFB"/>
<path d="M265.606 144.699C265.606 150.605 260.818 155.395 254.91 155.395C249.004 155.395 244.211 150.605 244.211 144.699C244.211 138.793 249.004 134.003 254.91 134.003C260.818 134.003 265.606 138.793 265.606 144.699Z" fill="white"/>
<path d="M263.993 144.699C263.993 149.71 259.931 153.77 254.922 153.77C249.912 153.77 245.85 149.708 245.85 144.699C245.85 139.689 249.914 135.629 254.922 135.629C259.931 135.629 263.993 139.689 263.993 144.699Z" fill="#E2EDFB"/>
<path d="M252.475 208.281C252.475 209.041 251.86 209.658 251.097 209.658C250.34 209.658 249.72 209.041 249.72 208.281C249.72 207.521 250.34 206.904 251.097 206.904C251.862 206.904 252.475 207.521 252.475 208.281Z" fill="#606770"/>
<path d="M256.937 208.281C256.937 209.041 256.323 209.658 255.56 209.658C254.802 209.658 254.183 209.041 254.183 208.281C254.183 207.521 254.802 206.904 255.56 206.904C256.323 206.904 256.937 207.521 256.937 208.281Z" fill="#606770"/>
<path d="M261.391 208.281C261.391 209.041 260.774 209.658 260.014 209.658C259.254 209.658 258.637 209.041 258.637 208.281C258.637 207.521 259.254 206.904 260.014 206.904C260.774 206.904 261.391 207.521 261.391 208.281Z" fill="#606770"/>
<path d="M123.157 204.529H57.1802V212.226H123.157V204.529Z" fill="#E2EDFB"/>
<path d="M250.712 246.314H21.9917V250.713H250.712V246.314Z" fill="#E2EDFB"/>
<path d="M126.455 260.609H21.9917V266.107H126.455V260.609Z" fill="#E2EDFB"/>
<path d="M92.3679 221.023H57.1802V225.422H92.3679V221.023Z" fill="#D2DDF2"/>
<path d="M266.107 274.904H21.9917V393.663H266.107V274.904Z" fill="#E2EDFB"/>
<path d="M0.556202 22.2482C0.556202 10.2681 10.268 0.556354 22.2481 0.556354H264.752C276.732 0.556354 286.444 10.2681 286.444 22.2482V394.206H0.556202V22.2482Z" stroke="#E2EDFB" stroke-width="1.1124"/>
</g>
<path d="M235.415 202.663C224.162 202.663 215 211.825 215 223.078V288.407C215 299.66 224.162 308.823 235.415 308.823H259.914C264.511 308.823 268.741 307.271 272.163 304.69V202.663H235.415Z" fill="#95B0D6"/>
<path d="M410.999 233.284C410.999 228.377 409.055 223.803 405.683 220.431C409.496 216.258 411.44 210.664 410.909 204.842C409.954 194.462 400.603 186.329 389.612 186.329H339.17C341.668 178.742 345.67 164.836 345.67 153.664C345.67 135.952 330.62 121 321.171 121C312.687 121 306.627 125.777 306.366 125.973C305.403 126.749 304.839 127.925 304.839 129.166V156.857L281.321 207.806L280.341 208.304V295.829C286.988 298.964 295.399 300.655 300.756 300.655H375.713C384.606 300.655 392.389 294.661 394.217 286.389C395.156 282.134 394.609 277.847 392.74 274.123C398.774 271.085 402.833 264.871 402.833 257.783C402.833 254.892 402.171 252.124 400.914 249.617C406.949 246.579 410.999 240.364 410.999 233.284Z" fill="#95B0D6"/>
</svg>
