<svg width="442" height="500" viewBox="0 0 442 500" fill="none" xmlns="http://www.w3.org/2000/svg">
<path d="M41.0722 212.318C41.0722 203.949 47.8571 197.164 56.2268 197.164H385.777C394.147 197.164 400.932 203.949 400.932 212.318V436.078H41.0722V212.318Z" stroke="#C6DBF8" stroke-width="0.777158"/>
<rect x="64.1581" y="220.253" width="313.681" height="145.457" rx="1.16574" stroke="#E2EDFB" stroke-width="0.777158"/>
<rect x="64.1581" y="388.477" width="84.984" height="1.42185" rx="0.710923" stroke="#E2EDFB" stroke-width="0.777158"/>
<rect x="87.244" y="281.825" width="47.601" height="1.42185" rx="0.710923" stroke="#E2EDFB" stroke-width="0.777158"/>
<rect x="87.1303" y="294.905" width="90.709" height="0.549751" rx="0.274876" stroke="#E2EDFB" stroke-width="0.549751"/>
<rect x="87.1303" y="304.801" width="62.1219" height="0.549751" rx="0.274876" stroke="#E2EDFB" stroke-width="0.549751"/>
<rect x="87.1303" y="316.373" width="42.3308" height="0.549751" rx="0.274876" stroke="#E2EDFB" stroke-width="0.549751"/>
<rect x="64.0444" y="399.359" width="313.908" height="0.549751" rx="0.274876" stroke="#E2EDFB" stroke-width="0.549751"/>
<rect x="64.0444" y="409.254" width="300.714" height="0.549751" rx="0.274876" stroke="#E2EDFB" stroke-width="0.549751"/>
<rect x="64.0444" y="419.149" width="150.082" height="0.549751" rx="0.274876" stroke="#E2EDFB" stroke-width="0.549751"/>
<path d="M441.606 435.756C441.4 443.256 435.256 449.272 427.706 449.272H14.2935C6.74397 449.272 0.599686 443.256 0.393904 435.756H441.606Z" stroke="#C6DBF8" stroke-width="0.777158"/>
<path d="M134.1 183.537C154.118 183.477 170.297 166.998 170.237 146.731C170.177 126.464 153.901 110.083 133.883 110.143C113.865 110.204 97.6853 126.682 97.7452 146.949C97.8051 167.217 114.082 183.597 134.1 183.537Z" fill="#95B0D6"/>
<path opacity="0.6" d="M134.1 183.537C154.118 183.477 170.297 166.998 170.237 146.731C170.177 126.464 153.901 110.083 133.883 110.143C113.865 110.204 97.6853 126.682 97.7452 146.949C97.8051 167.217 114.082 183.597 134.1 183.537Z" fill="#95B0D6"/>
<path d="M134.863 157.496L138.264 155.628L133.487 146.717L136.331 145.155L134.902 141.452L131.629 143.251L130.438 141.029C129.902 140.028 129.802 139.198 131.172 138.445L132.925 137.482L131.256 134.37C130.935 134.499 129.849 134.969 128.642 135.632C126.112 137.022 125.265 139.59 126.854 142.556L128.229 145.119L125.373 146.688L127.232 150.155L130.087 148.586L134.863 157.496Z" fill="white"/>
<path d="M138.056 161.292C136.254 161.506 134.455 161.978 132.664 161.909C128.182 161.762 124.955 159.23 122.55 155.679C119.401 150.999 118.34 145.813 119.809 140.255C121.067 135.443 123.924 132.083 128.97 130.959C130.705 130.57 132.432 129.99 134.205 129.827C138.085 129.473 141.282 131.154 143.787 133.948C148.529 139.243 150.079 145.478 147.967 152.414C146.662 156.723 143.809 159.61 139.328 160.686C138.884 160.786 138.471 160.921 138.032 161.041C138.034 161.126 138.055 161.207 138.056 161.292ZM142.741 144.05C141.844 140.795 140.602 138.256 138.595 136.142C136.406 133.821 133.832 132.313 130.591 132.255C126.64 132.177 123.205 134.879 121.578 139.019C119.079 145.374 121.329 154.037 126.834 158.329C131.803 162.21 138.178 161.108 141.298 155.572C143.424 151.789 143.583 147.75 142.741 144.05ZM144.41 151.068C145.048 150.893 145.451 150.719 145.885 150.664C146.938 150.526 147.38 149.933 147.328 148.916C147.254 147.089 147.311 145.269 147.093 143.46C146.83 141.234 146.649 141.197 144.513 141.847C143.84 142.052 143.704 142.347 143.823 143.045C144.115 144.812 144.343 146.576 144.511 148.356C144.596 149.17 144.471 149.999 144.41 151.068ZM140.016 135.453C141.663 138.31 142.713 138.731 144.515 137.293C143.457 134.725 142.09 134.155 140.016 135.453ZM140.84 133.38C139.259 131.751 135.671 130.693 134.453 131.262C135.305 131.824 136.373 132.391 137.243 133.184C138.427 134.277 139.549 134.077 140.84 133.38ZM146.248 139.911C145.737 139.428 145.425 138.891 145.155 138.921C144.321 138.999 143.531 139.323 142.733 139.542C142.7 139.658 142.666 139.775 142.633 139.891C142.956 140.146 143.297 140.633 143.592 140.617C144.376 140.51 145.132 140.217 146.248 139.911ZM143.682 153.995C145.944 153.741 146.54 153.406 146.404 152.155C144.524 152.154 143.844 152.576 143.682 153.995ZM144.852 155.522C142.464 155.295 142.088 157.202 141.154 158.446C142.693 157.96 143.81 156.924 144.852 155.522Z" fill="white"/>
<path d="M153.1 158.155C154.017 157.903 154.919 157.592 155.837 157.427C156.187 157.374 156.824 157.522 156.907 157.757C157.149 158.357 156.627 158.564 156.128 158.701C154.633 159.11 153.138 159.52 151.647 159.949C150.855 160.187 150.447 159.934 150.271 159.101C149.963 157.681 149.515 156.3 149.227 154.874C149.152 154.508 149.359 153.828 149.607 153.717C150.219 153.442 150.382 154.064 150.503 154.525C150.75 155.467 151.002 156.43 151.328 157.673C151.746 157.064 152.022 156.731 152.242 156.348C156.555 148.592 155.852 139.394 150.447 132.472C143.41 123.483 129.975 121.961 121.002 129.145C120.859 129.249 120.736 129.433 120.591 129.451C120.241 129.504 119.871 129.476 119.506 129.469C119.606 129.119 119.575 128.59 119.808 128.419C121.31 127.384 122.791 126.27 124.422 125.48C134.916 120.35 147.873 124.367 153.425 134.536C157.45 141.9 157.38 149.376 153.464 156.852C153.293 157.178 152.951 157.422 152.684 157.71C152.837 157.883 152.958 158.021 153.1 158.155Z" fill="white"/>
<path d="M114.881 133.879C113.605 134.228 112.619 134.541 111.626 134.749C111.322 134.81 110.948 134.526 110.611 134.382C110.832 134.085 110.992 133.633 111.285 133.531C112.785 133.056 114.326 132.656 115.861 132.235C116.539 132.05 116.913 132.334 117.081 132.976C117.486 134.52 117.925 136.032 118.27 137.593C118.329 137.899 117.989 138.314 117.824 138.66C117.545 138.414 117.153 138.221 117.029 137.911C116.702 136.99 116.509 136.012 116.257 135.049C116.142 135.016 116.031 135.004 115.916 134.971C115.389 136.06 114.748 137.117 114.362 138.254C111.428 146.707 112.762 154.401 118.966 160.782C124.937 166.926 132.356 168.569 140.547 165.983C142.599 165.335 144.453 164.011 146.406 162.982C146.595 162.887 146.727 162.658 146.912 162.629C147.261 162.576 147.637 162.623 148.008 162.651C147.887 163.006 147.863 163.486 147.636 163.677C144.922 165.881 141.849 167.281 138.461 167.972C133.063 169.063 127.921 168.365 123.115 165.684C118.082 162.872 114.598 158.712 112.772 153.216C110.685 146.889 111.342 140.757 114.499 134.865C114.591 134.646 114.673 134.387 114.881 133.879Z" fill="white"/>
<path d="M144.387 151.121C144.448 150.051 144.573 149.221 144.493 148.425C144.325 146.644 144.097 144.878 143.804 143.109C143.685 142.41 143.801 142.12 144.495 141.909C146.64 141.279 146.816 141.295 147.08 143.524C147.298 145.335 147.241 147.157 147.315 148.987C147.348 150.01 146.905 150.604 145.869 150.737C145.454 150.786 145.026 150.946 144.387 151.121Z" fill="white"/>
<path d="M139.963 135.466C142.05 134.143 143.397 134.719 144.459 137.305C142.658 138.743 141.589 138.327 139.963 135.466Z" fill="white"/>
<path d="M140.778 133.364C139.469 134.065 138.367 134.26 137.185 133.167C136.335 132.37 135.25 131.809 134.398 131.249C135.62 130.7 139.204 131.757 140.778 133.364Z" fill="white"/>
<path d="M146.202 139.939C145.088 140.243 144.314 140.541 143.527 140.628C143.238 140.664 142.892 140.159 142.57 139.905C142.603 139.789 142.637 139.673 142.67 139.556C143.485 139.334 144.28 139.031 145.087 138.938C145.381 138.922 145.712 139.452 146.202 139.939Z" fill="white"/>
<path d="M143.696 154.053C143.858 152.638 144.536 152.217 146.412 152.217C146.548 153.465 145.953 153.799 143.696 154.053Z" fill="white"/>
<path d="M144.871 155.586C143.831 156.984 142.716 158.017 141.18 158.502C142.113 157.261 142.488 155.36 144.871 155.586Z" fill="white"/>
<path opacity="0.2" d="M300.678 204.593H125.642C119.166 204.593 115.412 211.909 119.072 217.325L138.594 245.926C140.095 248.112 142.536 249.442 145.163 249.442H281.062C283.69 249.442 286.13 248.112 287.632 245.926L307.153 217.325C310.908 211.909 307.153 204.593 300.678 204.593Z" fill="#C6DBF8"/>
<path d="M302.264 233.032H125.352L182.883 358.554H244.732L302.264 233.032Z" fill="#C6DBF8"/>
<path d="M145.195 282.039L144.344 282.439L150.193 295.194L151.044 294.794L145.195 282.039Z" fill="#C6DBF8"/>
<path d="M152.843 298.579L151.992 298.979L154.719 304.925L155.57 304.525L152.843 298.579Z" fill="#C6DBF8"/>
<path opacity="0.3" d="M302.264 233.032H125.352L182.883 358.554H244.732L302.264 233.032Z" fill="#C6DBF8"/>
<path opacity="0.2" d="M176.97 233.032H143.465L194.239 358.554H205.032L176.97 233.032Z" fill="#C6DBF8"/>
<path d="M307.801 233.032H119.814C117.373 233.032 115.309 231.037 115.309 228.471V213.458C115.309 210.988 117.28 208.897 119.814 208.897H307.801C310.241 208.897 312.306 210.893 312.306 213.458V228.566C312.306 231.037 310.241 233.032 307.801 233.032Z" fill="#C6DBF8"/>
<path d="M235.628 404.069H191.987C188.702 404.069 186.074 401.503 185.792 398.273L182.883 358.554H244.732L241.822 398.273C241.635 401.598 238.913 404.069 235.628 404.069Z" fill="#C6DBF8"/>
<path opacity="0.2" d="M235.628 404.069H191.987C188.702 404.069 186.074 401.503 185.792 398.273L182.883 358.554H244.732L241.822 398.273C241.635 401.598 238.913 404.069 235.628 404.069Z" fill="#C6DBF8"/>
<path d="M206.695 189.11H216.083V167.791H223.933L225.119 159.497H216.083V154.182C216.083 151.787 216.82 150.152 220.601 150.152H225.439V142.705C224.606 142.617 221.754 142.384 218.422 142.384C211.437 142.384 206.695 146.268 206.695 153.364V159.497H198.812V167.791H206.695V189.11Z" fill="#C6DBF8"/>
<path d="M251.399 99.4758C269.413 81.2376 269.413 51.6676 251.399 33.4294C233.385 15.1912 204.178 15.1912 186.164 33.4294C168.15 51.6676 168.15 81.2376 186.164 99.4758C204.178 117.714 233.385 117.714 251.399 99.4758Z" fill="#C6DBF8"/>
<path d="M231.531 94.3835H236.117V80.7269H239.952L240.532 75.4139H236.117V72.0091C236.117 70.4751 236.477 69.4274 238.324 69.4274H240.688V64.657C240.281 64.6008 238.888 64.4512 237.26 64.4512C233.847 64.4512 231.531 66.9393 231.531 71.4853V75.4139H227.68V80.7269H231.531V94.3835Z" fill="white"/>
<path d="M216.002 94.0078H219.755V84.1752H222.893L223.367 80.3499H219.755V77.8984C219.755 76.7939 220.049 76.0396 221.561 76.0396H223.495V72.605C223.162 72.5645 222.022 72.4568 220.69 72.4568C217.898 72.4568 216.002 74.2482 216.002 77.5213V80.3499H212.852V84.1752H216.002V94.0078Z" fill="white"/>
<path d="M202.465 93.7947H205.8V85.0545H208.59L209.011 81.6542H205.8V79.4752C205.8 78.4934 206.062 77.823 207.406 77.823H209.125V74.7699C208.829 74.734 207.815 74.6382 206.631 74.6382C204.15 74.6382 202.465 76.2306 202.465 79.14V81.6542H199.664V85.0545H202.465V93.7947Z" fill="white"/>
<path d="M206.125 65.0533C198.499 65.8036 194.411 59.6561 193.837 53.557C193.407 48.8859 194.531 44.6504 197.973 41.3104C199.646 39.6888 201.631 38.7691 203.997 38.7691C204.786 38.7691 205.599 38.7933 206.388 38.7449C211.575 38.4303 214.97 41.02 216.93 45.6427C218.771 49.9508 218.747 54.3799 216.691 58.6396C214.539 63.1171 211.073 65.5374 206.125 65.0533ZM212.962 51.3062C212.986 48.2566 211.862 45.0619 209.28 42.5206C206.268 39.5436 201.894 39.6162 198.881 42.5932C194.435 46.9981 194.076 55.6869 198.14 60.4306C201.75 64.6661 207.057 64.4967 210.38 60.0434C212.197 57.6231 212.986 54.8882 212.962 51.3062ZM216.189 49.4426C216.213 46.514 214.994 44.7472 213.296 45.2555C213.583 46.2478 213.99 47.2159 214.133 48.2324C214.324 49.5152 214.97 49.8298 216.189 49.4426ZM213.559 57.9135C214.707 58.2766 215.448 57.9861 215.759 56.8002C215.926 56.1467 216.165 55.4933 216.261 54.8156C216.308 54.5251 215.974 53.9201 215.902 53.9201C215.376 53.9927 214.563 54.0895 214.444 54.4041C214.013 55.5175 213.846 56.7276 213.559 57.9135ZM214.037 60.237C213.918 60.0918 213.822 59.9224 213.703 59.7771C211.623 59.6077 211.551 61.9554 210.165 62.6573C210.26 62.8025 210.38 62.9235 210.475 63.0687C211.671 62.1006 212.842 61.1809 214.037 60.237ZM210.571 40.8506C211.719 43.174 212.149 43.4645 213.631 43.1014C212.46 42.2543 211.503 41.5525 210.571 40.8506Z" fill="white"/>
<path d="M239.05 43.0469C237.592 43.2164 236.23 43.41 234.843 43.5552C234.317 43.6036 233.576 43.7488 233.624 42.9017C233.648 42.6113 234.293 42.1757 234.7 42.103C236.66 41.74 238.62 41.4738 240.604 41.1833C242.086 40.9655 242.325 41.2075 242.23 42.6839C242.11 44.7411 241.967 46.7984 241.871 48.8314C241.847 49.4123 241.823 50.1383 241.035 49.9447C240.724 49.8721 240.365 49.1218 240.365 48.6862C240.341 47.4276 240.509 46.1691 240.58 44.9106C240.461 44.8864 240.365 44.8379 240.246 44.8137C239.983 45.1526 239.72 45.4672 239.481 45.8061C235.034 52.1956 230.014 58.0526 223.847 62.8206C217.392 67.8063 210.269 71.1221 202.069 71.3883C199.559 71.4609 197.025 70.8801 194.515 70.517C194.228 70.4686 193.989 69.8878 193.75 69.5489C194.132 69.3795 194.587 69.0165 194.921 69.0891C204.173 71.2915 212.396 68.6534 220.094 63.5951C227.887 58.4641 233.791 51.4937 238.955 43.7972C239.027 43.7004 239.074 43.5794 239.122 43.4826C239.098 43.41 239.074 43.3374 239.05 43.0469Z" fill="white"/>
<path d="M222.767 47.8933C222.6 47.7239 222.122 47.4577 222.098 47.1915C222.098 46.9011 222.528 46.4171 222.815 46.3445C224.273 46.054 225.779 45.8362 227.261 45.691C227.524 45.6668 227.859 46.054 228.146 46.2476C227.907 46.5623 227.715 47.0947 227.452 47.1673C225.994 47.4819 224.512 47.6513 222.767 47.8933Z" fill="white"/>
<path d="M220.542 44.7222C220.375 44.1897 220.04 43.6573 220.183 43.3669C220.733 42.181 221.379 41.0193 222.096 39.906C222.239 39.664 222.789 39.5672 223.1 39.6398C223.267 39.6882 223.53 40.2932 223.411 40.4869C222.789 41.7453 222.096 42.9554 221.379 44.1655C221.283 44.3591 220.996 44.4317 220.542 44.7222Z" fill="white"/>
<path d="M222.788 51.0398C224.222 51.5239 225.513 51.9354 226.78 52.4436C226.971 52.5163 227.21 53.0246 227.139 53.194C227.019 53.4602 226.589 53.7749 226.374 53.7265C225.059 53.4118 223.768 53.0003 222.501 52.5405C222.262 52.4679 221.999 51.9354 222.071 51.6933C222.166 51.4271 222.573 51.2334 222.788 51.0398Z" fill="white"/>
<path d="M212.964 51.306C212.987 54.8879 212.199 57.647 210.406 60.0431C207.083 64.4963 201.776 64.6657 198.166 60.4303C194.102 55.6624 194.461 46.9979 198.907 42.593C201.919 39.6161 206.294 39.5435 209.306 42.5204C211.864 45.0617 212.987 48.2564 212.964 51.306ZM205.983 50.0958C207.848 50.0716 209.067 49.7328 209.904 48.6437C210.191 48.2806 210.143 47.6756 210.262 47.1915C209.784 47.3125 209.21 47.3125 208.852 47.603C207.489 48.7405 206.342 48.8615 204.86 47.845C204.262 47.4336 203.688 46.9979 203.067 46.6591C201.369 45.7878 198.907 46.3928 198.071 47.9176C197.903 48.2564 198.071 48.7647 198.094 49.2003C198.453 49.1519 198.883 49.2245 199.122 49.0309C200.915 47.5062 201.728 47.482 203.64 48.8373C204.477 49.4182 205.457 49.8296 205.983 50.0958ZM201.202 53.3874C200.198 53.9682 199.17 54.4281 198.357 55.0815C198.047 55.3236 198.142 56.0981 198.047 56.6305C198.501 56.4611 199.075 56.4369 199.433 56.1465C200.628 55.0815 201.752 54.9605 203.091 55.9044C203.712 56.3401 204.31 56.7999 204.979 57.1388C206.748 58.0343 209.21 57.405 210.191 55.7834C210.382 55.493 210.262 54.9847 210.262 54.5733C209.88 54.5975 209.378 54.5007 209.139 54.6943C207.083 56.3885 206.366 56.3885 204.214 54.8637C203.378 54.2587 202.35 53.9198 201.202 53.3874ZM206.557 54.065C208.039 53.7746 209.21 53.3148 210.047 52.2257C210.286 51.911 210.191 51.3302 210.262 50.8703C209.832 50.9913 209.258 50.9671 208.971 51.2333C207.537 52.5403 206.27 52.6129 204.692 51.4996C203.88 50.9429 203.019 50.4105 202.087 50.0958C200.724 49.636 198.596 50.5315 198.047 51.7416C197.903 52.0562 198.094 52.5161 198.142 52.9275C198.501 52.8549 198.931 52.8791 199.194 52.6855C200.915 51.1849 201.632 51.1849 203.497 52.4435C204.429 53.0969 205.529 53.5326 206.557 54.065Z" fill="#E2EDFB"/>
<path d="M216.186 49.4426C214.966 49.8299 214.345 49.5152 214.13 48.2325C213.962 47.2159 213.58 46.2478 213.293 45.2555C214.966 44.7472 216.209 46.514 216.186 49.4426Z" fill="white"/>
<path d="M213.559 57.9133C213.845 56.7274 214.013 55.5174 214.443 54.4283C214.563 54.1137 215.399 54.0169 215.901 53.9443C215.973 53.9201 216.308 54.5493 216.26 54.8397C216.164 55.5174 215.925 56.1466 215.758 56.8242C215.447 57.9859 214.706 58.2521 213.559 57.9133Z" fill="white"/>
<path d="M214.037 60.2366C212.841 61.1805 211.67 62.1244 210.475 63.0684C210.379 62.9231 210.26 62.8021 210.164 62.6569C211.574 61.9792 211.622 59.6073 213.702 59.7767C213.822 59.9219 213.917 60.0671 214.037 60.2366Z" fill="white"/>
<path d="M210.57 40.8506C211.527 41.5525 212.483 42.2545 213.63 43.1017C212.124 43.4648 211.718 43.1501 210.57 40.8506Z" fill="white"/>
<path d="M205.987 50.0957C205.485 49.8295 204.481 49.4423 203.62 48.8372C201.731 47.5061 200.895 47.5061 199.102 49.0308C198.863 49.2245 198.433 49.1518 198.074 49.2002C198.05 48.7646 197.883 48.2322 198.05 47.9176C198.887 46.3929 201.349 45.7878 203.046 46.6591C203.692 46.9737 204.242 47.4335 204.839 47.845C206.321 48.8614 207.493 48.7404 208.831 47.603C209.166 47.3125 209.764 47.3367 210.242 47.1915C210.122 47.6756 210.17 48.2806 209.883 48.6436C209.07 49.7085 207.851 50.0715 205.987 50.0957Z" fill="white"/>
<path d="M201.198 53.3872C202.346 53.9439 203.374 54.2827 204.211 54.8635C206.338 56.3883 207.079 56.3883 209.135 54.6941C209.374 54.5005 209.876 54.5973 210.259 54.5731C210.235 54.9845 210.354 55.4686 210.187 55.7832C209.207 57.4048 206.768 58.034 204.976 57.1385C204.306 56.7997 203.709 56.3399 203.087 55.9042C201.748 54.9603 200.625 55.0814 199.429 56.1462C199.095 56.4367 198.521 56.4851 198.043 56.6303C198.139 56.0978 198.043 55.3234 198.354 55.0814C199.19 54.4037 200.194 53.9681 201.198 53.3872Z" fill="white"/>
<path d="M206.56 54.0649C205.532 53.5325 204.432 53.0969 203.452 52.4434C201.587 51.1849 200.87 51.1849 199.149 52.6854C198.91 52.9032 198.456 52.8548 198.097 52.9274C198.049 52.5402 197.858 52.0562 198.002 51.7415C198.551 50.5314 200.679 49.636 202.042 50.0958C202.974 50.4104 203.835 50.9187 204.647 51.4995C206.225 52.6128 207.492 52.5402 208.926 51.2333C209.237 50.9671 209.787 50.9671 210.217 50.8703C210.169 51.3301 210.241 51.911 210.002 52.2256C209.237 53.2905 208.066 53.7745 206.56 54.0649Z" fill="white"/>
<line x1="200.988" y1="66.4161" x2="238.548" y2="66.4161" stroke="white" stroke-width="0.988408"/>
<path d="M327.243 125.097C317.597 109.141 296.978 104.148 281.191 113.943C265.403 123.738 260.425 144.613 270.072 160.569C279.719 176.524 300.337 181.518 316.125 171.723C331.912 161.928 336.89 141.052 327.243 125.097Z" fill="#95B0D6"/>
<path d="M314.027 140.974L299.493 126.258C298.636 125.392 297.25 125.402 296.404 126.257C295.553 127.12 295.553 128.522 296.404 129.385L310.939 144.1C311.791 144.963 313.175 144.963 314.027 144.1C314.881 143.236 314.881 141.839 314.027 140.974Z" fill="white"/>
<path d="M295.321 131.419L295.211 131.975C294.441 135.877 292.568 139.584 290.035 142.589L297.943 150.594C300.91 148.031 304.521 146.084 308.376 145.303L308.925 145.192L295.321 131.419Z" fill="white"/>
<path d="M288.598 144.247L283.194 149.717C281.917 151.01 281.912 153.108 283.194 154.407L286.282 157.533C287.559 158.825 289.632 158.831 290.914 157.533L296.318 152.062L288.598 144.247ZM289.37 152.844C288.944 153.276 288.253 153.276 287.826 152.844C287.4 152.412 287.4 151.713 287.826 151.281L289.37 149.718C289.797 149.286 290.488 149.286 290.914 149.718C291.34 150.15 291.34 150.849 290.914 151.281L289.37 152.844Z" fill="white"/>
<path d="M300.874 158.121L302.359 156.618C303.642 155.32 303.638 153.221 302.36 151.929L301.256 150.812C300.647 151.226 300.065 151.677 299.498 152.157L300.816 153.493C301.241 153.922 301.244 154.619 300.816 155.055L299.306 156.583L297.088 154.407L294 157.533L298.953 162.393C299.799 163.251 301.186 163.256 302.04 162.392C302.891 161.529 302.891 160.127 302.04 159.265L300.874 158.121Z" fill="white"/>
<path d="M305.275 125.31C304.672 125.31 304.184 125.805 304.184 126.416V128.626C304.184 129.237 304.672 129.731 305.275 129.731C305.879 129.731 306.367 129.237 306.367 128.626V126.416C306.367 125.805 305.879 125.31 305.275 125.31Z" fill="#C6DBF8"/>
<path d="M314.017 134.153H311.834C311.23 134.153 310.742 134.647 310.742 135.258C310.742 135.869 311.23 136.363 311.834 136.363H314.017C314.621 136.363 315.109 135.869 315.109 135.258C315.109 134.647 314.621 134.153 314.017 134.153Z" fill="#C6DBF8"/>
<path d="M312.598 127.844C312.171 127.413 311.48 127.413 311.054 127.844L308.871 130.055C308.444 130.487 308.444 131.186 308.871 131.618C309.297 132.05 309.988 132.05 310.414 131.618L312.598 129.407C313.024 128.976 313.024 128.276 312.598 127.844Z" fill="#C6DBF8"/>
</svg>
