<svg width="287" height="399" viewBox="0 0 287 399" fill="none" xmlns="http://www.w3.org/2000/svg">
<path fill-rule="evenodd" clip-rule="evenodd" d="M97.6372 222.189C97.5551 222.515 97.5199 222.836 97.8061 223.47C97.9211 223.737 98.266 223.932 98.5358 223.986C98.5897 224.063 98.7211 224.138 98.7657 224.122C98.8009 224.122 98.883 224.141 98.9979 224.122C98.9979 224.141 99.0144 224.178 99.0355 224.197C99.0895 224.277 99.1082 224.347 99.1856 224.413C99.2842 224.486 99.3241 224.584 99.5329 224.64C99.6525 224.683 99.7065 224.718 99.7463 224.737C99.7252 224.793 99.7065 224.849 99.7065 224.948C99.6854 225.426 99.9763 225.386 100.359 225.806C100.474 225.919 100.666 226.742 100.375 227.226C100.244 227.437 100.819 227.32 101.356 226.921C101.895 226.517 101.949 225.942 102.278 225.677C102.609 225.429 102.738 225.14 102.541 224.929C102.355 224.697 101.855 224.661 101.511 224.223C101.297 223.951 100.647 223.972 100.377 224.26C100.232 224.415 100.037 224.469 99.9247 224.568C99.8637 224.544 99.8097 224.509 99.7722 224.49C99.6736 224.436 99.2138 224.509 99.4273 224.26C99.5587 224.105 99.3874 224.028 99.2349 224.014H99.2537C99.4273 223.824 99.1598 223.702 99.0074 223.627C98.9628 223.61 98.8924 223.702 98.7164 223.744C98.6226 223.686 98.4091 223.554 98.4865 223.247C98.5311 223.071 98.5616 222.747 98.7751 222.787C98.9839 222.846 99.0425 222.667 99.3288 222.747C99.6197 222.82 99.676 222.747 99.6361 222.998C99.5774 223.247 99.5212 223.477 99.6901 223.554C100.019 223.686 100.002 223.247 99.981 223.071C99.9575 222.902 100.324 222.667 100.478 222.498C100.65 222.327 100.746 221.769 101.011 221.755C101.302 221.734 101.778 221.466 101.478 221.121C101.109 220.739 100.849 220.929 100.633 221.14C100.424 221.351 100.136 221.544 100.082 221.18C100.021 220.819 100.328 220.453 100.004 220.356C99.8144 220.3 99.1387 220.41 98.7563 220.603C98.5076 220.718 98.1628 220.929 97.7029 221.522C97.4613 221.78 97.6701 221.996 97.6372 222.189ZM103.174 223.526C103.383 223.791 103.573 223.854 103.65 224.256C103.725 224.657 103.765 225.037 103.765 225.037C103.765 225.037 103.995 224.12 103.92 223.697C103.864 223.28 103.695 222.114 103.383 222.491C103.057 222.855 102.958 223.256 103.174 223.526ZM100.3 219.847C102.519 219.847 104.324 221.649 104.324 223.873C104.324 226.095 102.522 227.897 100.3 227.897C98.0759 227.897 96.2718 226.095 96.2718 223.873C96.2718 221.647 98.0759 219.847 100.3 219.847Z" fill="#90939B"/>
<path d="M0 22.2473C0 9.96007 9.9608 -0.000732422 22.2481 -0.000732422H264.752C277.039 -0.000732422 287 9.96006 287 22.2473V41.7847H0V22.2473Z" fill="#C6DBF8"/>
<path d="M285.902 39.9102H1.10107V77.5633H285.902V39.9102Z" fill="white"/>
<path d="M22.3879 18.33C20.3921 18.33 18.7768 19.9416 18.7768 21.9296C18.7768 23.9201 20.3921 25.5317 22.3879 25.5317C24.3836 25.5317 26.004 23.9201 26.004 21.9296C26.004 19.9416 24.3836 18.33 22.3879 18.33Z" fill="white"/>
<path d="M29.044 14.7759H27.3145L26.115 13.1617C25.8817 12.8561 25.3188 12.6338 24.8218 12.6338H19.958C19.4584 12.6338 18.8828 12.8561 18.6444 13.1617L17.45 14.7759H15.7307C14.3791 14.7759 13.2886 15.8671 13.2886 17.211V26.724C13.2886 28.0654 14.3791 29.1566 15.7307 29.1566H29.0389C30.3855 29.1566 31.4809 28.0654 31.4809 26.724V17.211C31.486 15.8671 30.3905 14.7759 29.044 14.7759ZM22.3873 26.9211C19.6232 26.9211 17.379 24.6855 17.379 21.9296C17.379 19.1762 19.6232 16.9407 22.3873 16.9407C25.1565 16.9407 27.4007 19.1762 27.4007 21.9296C27.4007 24.6855 25.1565 26.9211 22.3873 26.9211ZM28.4151 18.8706C27.8014 18.8706 27.3044 18.3755 27.3044 17.7642C27.3044 17.1529 27.7989 16.6578 28.4151 16.6578C29.0237 16.6578 29.5258 17.1529 29.5258 17.7642C29.5258 18.3755 29.0237 18.8706 28.4151 18.8706Z" fill="white"/>
<path d="M59.3286 26.1609L56.0346 22.8771C56.7192 22.0182 57.1478 20.9447 57.1478 19.7675C57.1478 16.999 54.8833 14.7483 52.1065 14.7483C49.3297 14.7483 47.0703 17.0015 47.0703 19.7675C47.0703 22.5335 49.3297 24.7868 52.1065 24.7868C53.2908 24.7868 54.371 24.3599 55.2307 23.6778L58.5248 26.9617L59.3286 26.1609ZM48.2038 19.7675C48.2038 17.6204 49.951 15.8774 52.1065 15.8774C54.262 15.8774 56.0143 17.6204 56.0143 19.7675C56.0143 21.9147 54.262 23.6602 52.1065 23.6602C49.951 23.6602 48.2038 21.9121 48.2038 19.7675Z" fill="white"/>
<path d="M242.754 32.3824H44.3023V33.1352H242.754V32.3824Z" fill="white"/>
<path d="M264.482 11.8584C259.233 11.8584 254.972 15.7232 254.972 20.4975C254.972 23.2129 256.354 25.6354 258.512 27.2218V31.1826L261.989 28.8334C262.783 29.0279 263.62 29.1365 264.482 29.1365C269.736 29.1365 273.996 25.2666 273.996 20.4949C273.996 15.7232 269.736 11.8584 264.482 11.8584ZM265.636 23.021L263.105 20.3535L258.538 23.021L263.333 17.7213L265.864 20.3863L270.431 17.7213L265.636 23.021Z" fill="white"/>
<path d="M35.6723 73.7655H23.3987C21.7402 73.7655 20.3861 72.4216 20.3861 70.767V58.8214C20.3861 57.1694 21.7377 55.823 23.3987 55.823H35.6723C37.3308 55.823 38.6849 57.1669 38.6849 58.8214V70.767C38.6849 72.4191 37.3333 73.7655 35.6723 73.7655ZM23.4012 56.9521C22.3666 56.9521 21.5247 57.7908 21.5247 58.8189V70.7645C21.5247 71.7951 22.3666 72.6313 23.4012 72.6313H35.6748C36.7095 72.6313 37.5514 71.7951 37.5514 70.7645V58.8214C37.5514 57.7933 36.7095 56.9547 35.6748 56.9547H23.4012V56.9521Z" fill="#E2EDFB"/>
<path d="M38.1082 57.5144H20.9505V58.6435H38.1082V57.5144Z" fill="#E2EDFB"/>
<path d="M35.5708 63.7769H28.6707V64.906H35.5708V63.7769Z" fill="#E2EDFB"/>
<path d="M35.5708 66.2278H28.6707V67.3569H35.5708V66.2278Z" fill="#E2EDFB"/>
<path d="M26.6194 65.5684C26.6194 66.503 25.8561 67.2608 24.9204 67.2608C23.9796 67.2608 23.2163 66.503 23.2163 65.5684C23.2163 64.6312 23.9796 63.8734 24.9204 63.8734C25.8561 63.8759 26.6194 64.6312 26.6194 65.5684Z" fill="#E2EDFB"/>
<path d="M143.734 74.0869C138.445 74.0869 134.146 69.8028 134.146 64.5335C134.146 59.2641 138.445 54.98 143.734 54.98C149.024 54.98 153.328 59.2641 153.328 64.5335C153.328 69.8003 149.024 74.0869 143.734 74.0869ZM143.734 56.1066C139.073 56.1066 135.28 59.8855 135.28 64.5309C135.28 69.1763 139.073 72.9553 143.734 72.9553C148.4 72.9553 152.194 69.1763 152.194 64.5309C152.194 59.8881 148.4 56.1066 143.734 56.1066Z" fill="#E2EDFB"/>
<path d="M145.723 62.6907C145.723 63.9108 144.732 64.901 143.504 64.901C142.277 64.901 141.28 63.9108 141.28 62.6907C141.28 61.4681 142.277 60.4779 143.504 60.4779C144.732 60.4779 145.723 61.4656 145.723 62.6907Z" fill="#E2EDFB"/>
<path d="M146.731 68.2196C146.731 69.4397 145.285 69.8438 143.502 69.8438C141.72 69.8438 140.272 69.4422 140.272 68.2196C140.272 66.997 141.717 65.4182 143.502 65.4182C145.285 65.4182 146.731 66.997 146.731 68.2196Z" fill="#E2EDFB"/>
<path d="M197.039 64.5364C194.69 64.5364 192.783 62.7429 192.783 60.5377C192.783 58.3325 194.69 56.5415 197.039 56.5415C199.387 56.5415 201.294 58.3325 201.294 60.5377C201.294 62.7429 199.387 64.5364 197.039 64.5364ZM197.039 57.6732C195.319 57.6732 193.919 58.9589 193.919 60.5402C193.919 62.1215 195.322 63.4098 197.039 63.4098C198.763 63.4098 200.158 62.1215 200.158 60.5402C200.16 58.9564 198.763 57.6732 197.039 57.6732Z" fill="#E2EDFB"/>
<path d="M197.032 73.2234C192.127 73.2234 191.103 71.5486 191.103 70.1442C191.103 67.9238 193.748 65.2437 197.032 65.2437C200.321 65.2437 202.966 67.9263 202.966 70.1442C202.966 71.5486 201.936 73.2234 197.032 73.2234ZM197.032 66.3728C194.293 66.3728 192.236 68.6589 192.236 70.1442C192.236 71.8391 195.244 72.0917 197.032 72.0917C198.824 72.0917 201.832 71.8366 201.832 70.1442C201.832 68.6589 199.77 66.3728 197.032 66.3728Z" fill="#E2EDFB"/>
<path d="M205.562 64.7599C203.716 64.7599 202.22 63.3453 202.22 61.6074C202.22 59.8695 203.716 58.4574 205.562 58.4574C207.406 58.4574 208.905 59.872 208.905 61.6074C208.905 63.3478 207.403 64.7599 205.562 64.7599ZM205.562 59.5865C204.345 59.5865 203.349 60.4909 203.349 61.6074C203.349 62.7214 204.345 63.6307 205.562 63.6307C206.78 63.6307 207.771 62.7239 207.771 61.6074C207.771 60.4934 206.78 59.5865 205.562 59.5865Z" fill="#E2EDFB"/>
<path d="M205.561 71.3026C204.032 71.3026 202.87 71.0904 202.104 70.6685L202.655 69.6809C203.238 70.0017 204.245 70.1709 205.561 70.1709C206.859 70.1709 209.032 70.0017 209.032 68.8447C209.032 67.7813 207.541 66.1444 205.561 66.1444C203.95 66.1444 202.548 67.2887 202.178 68.3522L201.108 67.9783C201.612 66.5435 203.342 65.0153 205.561 65.0153C208.112 65.0153 210.166 67.1093 210.166 68.8473C210.166 69.9663 209.367 71.3026 205.561 71.3026Z" fill="#E2EDFB"/>
<path d="M139.169 64.4646C140.155 64.4646 140.951 63.6714 140.951 62.6863C140.951 61.7011 140.155 60.908 139.169 60.908C138.182 60.908 137.381 61.7011 137.381 62.6863C137.381 63.6714 138.182 64.4646 139.169 64.4646Z" fill="#E2EDFB"/>
<path d="M147.834 64.8823C147.17 64.8823 146.571 65.1577 146.115 65.5492C146.868 66.2135 147.342 67.0825 147.342 67.8454C147.342 68.0576 147.296 68.242 147.228 68.4163C147.421 68.4314 147.624 68.4415 147.832 68.4415C149.267 68.4415 150.431 68.1182 150.431 67.133C150.433 66.1504 149.269 64.8823 147.834 64.8823Z" fill="#E2EDFB"/>
<path d="M147.842 64.4641C148.829 64.4641 149.63 63.671 149.63 62.6858C149.63 61.7006 148.829 60.9075 147.842 60.9075C146.856 60.9075 146.06 61.7006 146.06 62.6858C146.06 63.671 146.856 64.4641 147.842 64.4641Z" fill="#E2EDFB"/>
<path d="M139.655 67.8451C139.655 67.0823 140.131 66.2133 140.882 65.549C140.426 65.1599 139.827 64.8821 139.163 64.8821C137.727 64.8821 136.563 66.1502 136.563 67.1328C136.563 68.1179 137.727 68.4413 139.163 68.4413C139.371 68.4413 139.568 68.4312 139.766 68.416C139.7 68.2417 139.655 68.0573 139.655 67.8451Z" fill="#E2EDFB"/>
<path d="M265.964 57.6119H249.002V58.7411H265.964V57.6119Z" fill="#E2EDFB"/>
<path d="M265.964 64.392H249.002V65.5211H265.964V64.392Z" fill="#E2EDFB"/>
<path d="M265.964 71.1653H249.002V72.2944H265.964V71.1653Z" fill="#E2EDFB"/>
<path d="M95.0656 65.8939C94.3327 64.8355 93.1992 64.2495 92.9862 63.964C92.7732 63.6836 92.6007 63.1077 92.5652 62.85C92.5652 62.8475 92.5399 62.85 92.5297 62.8475C92.2178 60.2912 90.3514 58.2249 87.8891 57.6464C87.78 56.3733 86.7555 55.3755 85.4927 55.3755C84.1563 55.3755 83.071 56.492 83.071 57.8687C83.071 58.0783 83.1014 58.2779 83.1495 58.4724C81.4809 59.5637 80.3702 61.443 80.3702 63.5851C80.3702 64.1282 80.4641 64.6435 80.5934 65.1437L80.5731 65.1487C80.5731 65.1487 80.5833 65.8914 80.0381 66.7401C79.4979 67.5864 79.0237 68.3164 79.0922 69.2813C79.1657 70.2463 79.5689 71.8251 81.1716 71.6583C82.7818 71.4941 92.7706 69.7512 94.0487 69.4455C95.3293 69.1449 95.7985 66.9548 95.0656 65.8939ZM84.3236 57.8712C84.3236 57.2069 84.8486 56.6713 85.4927 56.6713C86.0024 56.6713 86.4183 57.0124 86.578 57.4797C86.5476 57.4797 86.5197 57.4696 86.4893 57.4696C85.726 57.4696 85.0032 57.6262 84.3287 57.8813C84.3287 57.8813 84.3236 57.8763 84.3236 57.8712Z" fill="#E2EDFB"/>
<path d="M83.0702 72.6772C83.4278 73.5891 84.4573 74.2509 85.6847 74.2509C87.2163 74.2509 88.4488 73.2355 88.4488 71.98C88.4488 71.9118 88.4336 71.8462 88.4234 71.778C86.5012 72.1139 84.5005 72.4524 83.0702 72.6772Z" fill="#E2EDFB"/>
<path d="M36.2867 232.018C44.1816 232.018 50.5817 225.372 50.5817 217.173C50.5817 208.975 44.1816 202.329 36.2867 202.329C28.3918 202.329 21.9917 208.975 21.9917 217.173C21.9917 225.372 28.3918 232.018 36.2867 232.018Z" fill="#C1CEEB"/>
<path d="M56.6132 148.529C67.706 143.965 72.9987 131.273 68.4346 120.18C63.8706 109.087 51.1782 103.794 40.0853 108.359C28.9925 112.923 23.6999 125.615 28.2639 136.708C32.828 147.801 45.5203 153.093 56.6132 148.529Z" fill="#C6DBF8"/>
<path d="M61.032 158.216H35.6301V162.377H61.032V158.216Z" fill="#C6DBF8"/>
<path d="M65.0299 120.614C70.1027 120.614 74.2151 116.502 74.2151 111.429C74.2151 106.356 70.1027 102.244 65.0299 102.244C59.957 102.244 55.8446 106.356 55.8446 111.429C55.8446 116.502 59.957 120.614 65.0299 120.614Z" fill="#3578E5"/>
<path d="M65.8668 114.729C65.8668 115.183 65.4971 115.553 65.0424 115.553C64.5877 115.553 64.218 115.183 64.218 114.729V108.127C64.218 107.672 64.5877 107.302 65.0424 107.302C65.4971 107.302 65.8668 107.672 65.8668 108.127V114.729Z" fill="white"/>
<path d="M61.74 112.253C61.2853 112.253 60.9156 111.884 60.9156 111.429C60.9156 110.974 61.2853 110.605 61.74 110.605H68.3419C68.7966 110.605 69.1663 110.974 69.1663 111.429C69.1663 111.884 68.7966 112.253 68.3419 112.253H61.74Z" fill="white"/>
<path d="M120.645 148.529C131.738 143.965 137.031 131.272 132.467 120.179C127.903 109.086 115.21 103.794 104.118 108.358C93.0247 112.922 87.7321 125.614 92.2961 136.707C96.8602 147.8 109.553 153.093 120.645 148.529Z" fill="#C6DBF8"/>
<path d="M112.367 152.272C125.525 152.272 136.191 141.605 136.191 128.448C136.191 115.29 125.525 104.623 112.367 104.623C99.2091 104.623 88.5426 115.29 88.5426 128.448C88.5426 141.605 99.2091 152.272 112.367 152.272Z" stroke="#3578E5" stroke-width="0.556202" stroke-miterlimit="10"/>
<path d="M125.066 158.216H99.6623V162.377H125.066V158.216Z" fill="#C6DBF8"/>
<path d="M138.964 144.698C138.964 150.604 134.176 155.395 128.268 155.395C122.362 155.395 117.569 150.604 117.569 144.698C117.569 138.792 122.362 134.002 128.268 134.002C134.176 134.002 138.964 138.792 138.964 144.698Z" fill="white"/>
<path d="M137.338 144.699C137.338 149.709 133.278 153.769 128.267 153.769C123.257 153.769 119.195 149.707 119.195 144.699C119.195 139.688 123.259 135.628 128.267 135.628C133.276 135.628 137.338 139.688 137.338 144.699Z" fill="#C6DBF8"/>
<path d="M183.977 148.529C195.069 143.965 200.362 131.273 195.798 120.18C191.234 109.087 178.542 103.794 167.449 108.359C156.356 112.923 151.063 125.615 155.627 136.708C160.191 147.801 172.884 153.093 183.977 148.529Z" fill="#C6DBF8"/>
<path d="M175.698 152.273C188.856 152.273 199.522 141.607 199.522 128.449C199.522 115.291 188.856 104.625 175.698 104.625C162.54 104.625 151.874 115.291 151.874 128.449C151.874 141.607 162.54 152.273 175.698 152.273Z" stroke="#3578E5" stroke-width="0.556202" stroke-miterlimit="10"/>
<path d="M188.395 158.219H162.994V162.38H188.395V158.219Z" fill="#C6DBF8"/>
<path d="M202.295 144.7C202.295 150.606 197.508 155.397 191.599 155.397C185.693 155.397 180.901 150.606 180.901 144.7C180.901 138.794 185.693 134.004 191.599 134.004C197.508 134.004 202.295 138.794 202.295 144.7Z" fill="white"/>
<path d="M200.669 144.7C200.669 149.71 196.609 153.77 191.599 153.77C186.588 153.77 182.526 149.708 182.526 144.7C182.526 139.689 186.59 135.629 191.599 135.629C196.607 135.629 200.669 139.689 200.669 144.7Z" fill="#C6DBF8"/>
<path d="M247.346 148.508C258.428 143.917 263.691 131.212 259.1 120.13C254.51 109.048 241.805 103.786 230.723 108.376C219.641 112.966 214.378 125.672 218.969 136.754C223.559 147.836 236.264 153.098 247.346 148.508Z" fill="#C6DBF8"/>
<path d="M239.022 152.272C252.18 152.272 262.846 141.605 262.846 128.447C262.846 115.29 252.18 104.623 239.022 104.623C225.864 104.623 215.198 115.29 215.198 128.447C215.198 141.605 225.864 152.272 239.022 152.272Z" stroke="#3578E5" stroke-width="0.556202" stroke-miterlimit="10"/>
<path d="M251.719 158.216H226.317V162.377H251.719V158.216Z" fill="#C6DBF8"/>
<path d="M265.606 144.698C265.606 150.604 260.818 155.394 254.91 155.394C249.004 155.394 244.211 150.604 244.211 144.698C244.211 138.792 249.004 134.002 254.91 134.002C260.818 134.002 265.606 138.792 265.606 144.698Z" fill="white"/>
<path d="M263.993 144.698C263.993 149.709 259.931 153.769 254.922 153.769C249.912 153.769 245.85 149.707 245.85 144.698C245.85 139.688 249.914 135.628 254.922 135.628C259.931 135.628 263.993 139.688 263.993 144.698Z" fill="#C6DBF8"/>
<path d="M252.475 208.28C252.475 209.04 251.86 209.657 251.097 209.657C250.34 209.657 249.72 209.04 249.72 208.28C249.72 207.52 250.34 206.903 251.097 206.903C251.862 206.903 252.475 207.52 252.475 208.28Z" fill="#606770"/>
<path d="M256.937 208.28C256.937 209.04 256.323 209.657 255.56 209.657C254.802 209.657 254.183 209.04 254.183 208.28C254.183 207.52 254.802 206.903 255.56 206.903C256.323 206.903 256.937 207.52 256.937 208.28Z" fill="#606770"/>
<path d="M261.391 208.28C261.391 209.04 260.774 209.657 260.014 209.657C259.254 209.657 258.637 209.04 258.637 208.28C258.637 207.52 259.254 206.903 260.014 206.903C260.774 206.903 261.391 207.52 261.391 208.28Z" fill="#606770"/>
<path d="M123.157 204.528H57.1801V212.225H123.157V204.528Z" fill="#E2EDFB"/>
<path d="M250.712 246.313H21.9917V250.712H250.712V246.313Z" fill="#E2EDFB"/>
<path d="M126.455 260.608H21.9917V266.106H126.455V260.608Z" fill="#E2EDFB"/>
<path d="M92.3679 221.022H57.1801V225.421H92.3679V221.022Z" fill="#D2DDF2"/>
<path d="M266.107 274.903H21.9917V393.662H266.107V274.903Z" fill="#C6DBF8"/>
<path d="M0.556202 22.2473C0.556202 10.2672 10.268 0.555469 22.2481 0.555469H264.752C276.732 0.555469 286.444 10.2672 286.444 22.2473V394.206H0.556202V22.2473Z" stroke="#C6DBF8" stroke-width="1.1124"/>
</svg>
