<svg width="50" height="40" viewBox="0 0 50 40" fill="none" xmlns="http://www.w3.org/2000/svg">
<path d="M11.1134 14.1421C10.8579 14.1421 10.6027 14.2418 10.4111 14.44C10.0363 14.8278 10.0468 15.4461 10.4347 15.8209C11.7117 17.0551 13.7896 17.0551 15.0666 15.8209C15.4545 15.4461 15.4651 14.8278 15.0903 14.44C14.7154 14.0522 14.0972 14.0417 13.7094 14.4165C13.1807 14.9273 12.3206 14.9273 11.7919 14.4165C11.6025 14.2332 11.3578 14.1421 11.1134 14.1421Z" fill="#006290"/>
<path d="M49.9712 19.4544C50.0939 18.9589 49.8144 18.4523 49.3296 18.2923C47.0163 17.528 44.2587 15.8051 44.2587 11.9363V9.88789C44.2587 6.72881 43.5351 4.25654 42.1078 2.53994C40.7266 0.878614 38.7186 0.000488281 36.3009 0.000488281C33.9847 0.000488281 32.0137 0.875195 30.6008 2.53018C29.1238 4.26025 28.3431 6.80449 28.3431 9.88789V11.9363C28.3431 14.0789 27.5015 15.7813 25.8405 17.0027C25.4444 16.9235 25.0352 16.8812 24.6161 16.8812C21.9452 16.8812 19.6601 18.5658 18.7685 20.9281C18.5077 20.8549 17.1415 20.4867 16.7382 20.3686V19.7188C19.3475 18.2998 21.1225 15.5332 21.1225 12.3599V8.48154C21.1225 3.86455 17.3676 0.1083 12.7521 0.1083C8.13525 0.1083 4.3791 3.86455 4.3791 8.48154V12.3599C4.3791 15.5327 6.1541 18.2988 8.76357 19.7181V20.3685C8.36025 20.4866 7.94131 20.5999 7.50771 20.7171C4.2002 21.6088 0.0830078 22.7182 0 27.766V36.3246C0 36.8637 0.4375 37.3012 0.976562 37.3012H14.1815V38.6897C14.1815 38.6921 14.1812 38.6944 14.1812 38.6969C14.1812 39.2362 14.6184 39.6734 15.1577 39.6734H20.2262C20.7655 39.6734 21.2027 39.2362 21.2027 38.6969C21.2027 38.1575 20.7655 37.7203 20.2262 37.7203H16.1346V37.1353C16.1463 36.4204 16.241 35.8345 16.4109 35.3481C17.0252 33.5884 18.615 33.1196 20.7801 32.481C20.8816 32.4511 20.9844 32.4208 21.0875 32.3901C21.6017 33.7986 22.9547 34.8068 24.5389 34.8068C26.2546 34.8068 27.6377 33.829 28.1498 32.3924C28.2505 32.4222 28.3507 32.4518 28.45 32.4809C31.2137 33.2963 33.0398 33.8344 33.0955 37.1352V37.7202H28.9957C28.4563 37.7202 28.0191 38.1574 28.0191 38.6968C28.0191 39.2361 28.4563 39.6733 28.9957 39.6733H34.0725C34.6118 39.6733 35.049 39.2361 35.049 38.6968C35.049 38.6943 35.0486 38.6919 35.0486 38.6895V37.301H48.0765C48.6158 37.301 49.053 36.8638 49.053 36.3244V27.7816C49.053 27.7763 49.053 27.7709 49.0529 27.7655C49.0192 25.7203 48.3233 24.3218 47.2874 23.3223C48.6933 22.6633 49.4676 21.4864 49.9712 19.4544ZM36.3009 1.95352C38.1452 1.95352 39.5937 2.5709 40.606 3.78848C41.6217 5.01025 42.1849 6.79805 42.287 9.10674C40.4783 9.42041 38.3493 9.16699 37.1723 6.83945C36.8181 6.14043 35.7832 6.13955 35.4293 6.83945C34.2527 9.16611 32.1249 9.42021 30.3166 9.10713C30.5426 4.61123 32.7426 1.95352 36.3009 1.95352ZM30.2962 11.0797C30.7117 11.1376 31.1161 11.1668 31.5079 11.1668C33.4769 11.1668 35.1287 10.4402 36.3009 9.0499C37.4729 10.4403 39.1247 11.1668 41.0939 11.1668C41.4856 11.1668 41.89 11.1376 42.3057 11.0797V11.9364C42.3057 15.2476 39.612 17.9413 36.301 17.9413C32.9899 17.9413 30.2963 15.2476 30.2963 11.9364V11.0797H30.2962ZM38.336 19.6293V21.0881C38.336 22.2088 37.423 23.1206 36.3009 23.1206C35.1802 23.1206 34.2685 22.2088 34.2685 21.0881V19.6301C34.9175 19.8019 35.5984 19.8944 36.3009 19.8944C37.0043 19.8943 37.6861 19.8016 38.336 19.6293ZM29.3772 15.852C30.0759 17.0826 31.0931 18.1093 32.3153 18.8203V20.3685C31.9093 20.4875 31.4884 20.601 31.052 20.7186C30.8512 20.7727 30.6473 20.8279 30.4426 20.8841C29.947 19.6061 29.0457 18.5301 27.897 17.8168C28.5026 17.2303 28.9979 16.5731 29.3772 15.852ZM20.6356 21.515C21.2753 19.9447 22.8183 18.8344 24.6161 18.8344C26.7048 18.8344 28.4483 20.3371 28.8331 22.3221C27.5314 21.6991 26.0835 21.3662 24.6154 21.3662C23.1468 21.3662 21.6985 21.6995 20.3971 22.3229C20.4507 22.0432 20.5308 21.7728 20.6356 21.515ZM6.33232 8.48154C6.33232 4.9415 9.2123 2.06143 12.7522 2.06143C16.2907 2.06143 19.1694 4.9415 19.1694 8.48154V9.49199C16.6022 9.57773 13.367 9.27256 10.9814 7.63975C10.5521 7.3459 9.96777 7.44023 9.65273 7.8541C8.82695 8.93916 7.78994 9.2083 6.33242 9.38154V8.48154H6.33232ZM6.33232 12.3599V11.3473C7.90303 11.1717 9.38242 10.8848 10.6107 9.70791C13.283 11.2209 16.5474 11.5262 19.1693 11.4462V12.3599C19.1693 15.8984 16.2906 18.7772 12.7521 18.7772C9.21231 18.7772 6.33232 15.8984 6.33232 12.3599ZM14.7851 20.4794V21.0793C14.7851 21.0822 14.7846 21.0851 14.7846 21.088C14.7846 22.2087 13.8729 23.1205 12.7521 23.1205C11.63 23.1205 10.717 22.2087 10.717 21.088C10.717 21.0859 10.7167 21.0839 10.7167 21.0818V20.4789C11.3687 20.6423 12.0503 20.7303 12.7521 20.7303C13.4532 20.7304 14.134 20.6426 14.7851 20.4794ZM20.8661 30.4173C20.6522 30.4827 20.4384 30.5462 20.2274 30.6077C17.8173 31.3187 15.1298 32.1106 14.3827 35.3479H7.17939V31.3969C7.17939 30.8575 6.74219 30.4203 6.20283 30.4203C5.66348 30.4203 5.22627 30.8575 5.22627 31.3969V35.3479H1.95312V27.7903C2.01172 24.4603 4.2832 23.6087 8.01562 22.6028C8.32998 22.5179 8.64941 22.4313 8.96719 22.3416C9.49424 23.9268 10.9913 25.0736 12.7522 25.0736C14.512 25.0736 16.008 23.9268 16.5347 22.3415C16.8526 22.4312 18.0888 22.7669 18.3739 22.8479C18.369 22.9417 18.3671 23.0364 18.3671 23.1312V24.512C18.3671 26.552 19.3495 28.3675 20.8661 29.5081V30.4173ZM26.411 31.1305C26.411 31.1316 26.4108 31.1327 26.4108 31.1339C26.4108 32.3154 25.4405 32.8536 24.539 32.8536C23.5908 32.8536 22.8193 32.0821 22.8193 31.1339C22.8193 31.133 22.8192 31.1321 22.8192 31.1312V30.4983C23.0565 30.5696 23.2997 30.6282 23.5487 30.6702C23.8954 30.7308 24.2519 30.762 24.6161 30.762C24.9169 30.762 25.2128 30.7405 25.5019 30.6985C25.8124 30.6556 26.1161 30.5882 26.411 30.4993V31.1305ZM26.9306 28.1312C25.618 29.0062 23.6477 29.05 22.3358 28.1517C21.1511 27.4067 20.356 26.0995 20.3233 24.6069C22.8805 22.9032 26.3506 22.9033 28.9099 24.6073C28.8773 26.0853 28.0969 27.3827 26.9306 28.1312ZM47.1 35.3478H43.8269V31.3969C43.8269 30.8575 43.3896 30.4203 42.8503 30.4203C42.3109 30.4203 41.8737 30.8575 41.8737 31.3969V35.3478H34.8474C34.0996 32.1106 31.4126 31.3185 29.0028 30.6077C28.7919 30.5462 28.578 30.4827 28.3642 30.4173V29.511C29.8827 28.3694 30.8661 26.553 30.8661 24.512V23.1478C30.8661 23.0297 30.8622 22.9125 30.8557 22.7959C31.0915 22.7308 31.3276 22.667 31.5601 22.6044C31.8767 22.519 32.1982 22.4321 32.5185 22.3418C33.0452 23.9269 34.5411 25.0737 36.3008 25.0737C38.0616 25.0737 39.5586 23.927 40.0857 22.3419C40.4035 22.4315 40.7229 22.518 41.0373 22.6027C44.7699 23.6088 47.0415 24.4604 47.0999 27.79V35.3478H47.1ZM45.1764 21.9241C44.0099 21.3812 42.7263 21.0351 41.5456 20.7168C41.1115 20.5998 40.6927 20.4869 40.2892 20.3686V18.8188C41.5074 18.1094 42.5217 17.0864 43.2196 15.8604C44.3297 17.9645 46.2502 19.1587 47.8347 19.8182C47.3671 21.1778 46.7086 21.6658 45.1764 21.9241Z" fill="#006290"/>
<path d="M24.6123 37.7202C24.0729 37.7202 23.6357 38.1574 23.6357 38.6968C23.6357 39.2361 24.0729 39.6733 24.6123 39.6733H24.6179C25.1572 39.6733 25.5917 39.2361 25.5917 38.6968C25.5917 38.1574 25.1517 37.7202 24.6123 37.7202Z" fill="#006290"/>
</svg>
