<svg width="39" height="50" viewBox="0 0 39 50" fill="none" xmlns="http://www.w3.org/2000/svg">
<path d="M38.4035 16.4647C38.0634 15.8263 37.403 15.4297 36.6796 15.4297H31.1318C30.6686 12.8247 28.3889 10.8398 25.6529 10.8398C22.9168 10.8398 20.6372 12.8247 20.174 15.4297H14.5534C14.9942 14.7551 15.2516 13.9502 15.2516 13.0859C15.2516 10.7166 13.3241 8.78906 10.9547 8.78906C8.5854 8.78906 6.65786 10.7166 6.65786 13.0859C6.65786 13.9502 6.91528 14.7551 7.3561 15.4297H2.77348C2.05014 15.4297 1.3897 15.8263 1.04966 16.4647C0.709715 17.1031 0.749168 17.8726 1.15278 18.4728L14.2579 37.9606V49.0234C14.2579 49.3527 14.4238 49.6599 14.6993 49.8402C14.8607 49.946 15.0471 50 15.2345 50C15.3667 50 15.4995 49.9731 15.6244 49.9188L24.6087 46.0063C24.965 45.8512 25.1954 45.4996 25.1954 45.111V37.9605L38.3003 18.4727C38.704 17.8726 38.7435 17.1031 38.4035 16.4647ZM25.6529 12.793C27.3069 12.793 28.7038 13.9104 29.131 15.4297H22.1749C22.602 13.9104 23.999 12.793 25.6529 12.793ZM10.9548 10.7422C12.2471 10.7422 13.2986 11.7937 13.2986 13.0859C13.2986 14.3782 12.2471 15.4297 10.9548 15.4297C9.66255 15.4297 8.61108 14.3782 8.61108 13.0859C8.61108 11.7937 9.66255 10.7422 10.9548 10.7422ZM23.4083 37.1178C23.3 37.2788 23.2421 37.4686 23.2421 37.6627V44.4712L16.2109 47.533V38.6393H19.7389C20.2783 38.6393 20.7155 38.202 20.7155 37.6627C20.7155 37.1233 20.2783 36.6861 19.7389 36.6861H15.7544L5.92602 22.0703H25.6529C26.1922 22.0703 26.6294 21.6331 26.6294 21.0938C26.6294 20.5544 26.1922 20.1172 25.6529 20.1172H4.61264L2.77387 17.3828H36.6795L23.4083 37.1178Z" fill="#006290"/>
<path d="M23.0594 0C20.6901 0 18.7626 1.92754 18.7626 4.29688C18.7626 6.66621 20.6902 8.59375 23.0594 8.59375C25.4288 8.59375 27.3563 6.66621 27.3563 4.29688C27.3563 1.92754 25.4288 0 23.0594 0ZM23.0594 6.64062C21.7672 6.64062 20.7157 5.58916 20.7157 4.29688C20.7157 3.00459 21.7672 1.95312 23.0594 1.95312C24.3517 1.95312 25.4032 3.00459 25.4032 4.29688C25.4032 5.58916 24.3517 6.64062 23.0594 6.64062Z" fill="#006290"/>
<path d="M33.4961 4.72021C32.9567 4.72021 32.5195 5.15742 32.5195 5.69678V11.247C32.5195 11.7864 32.9567 12.2236 33.4961 12.2236C34.0354 12.2236 34.4727 11.7864 34.4727 11.2471V5.69678C34.4727 5.15742 34.0354 4.72021 33.4961 4.72021Z" fill="#006290"/>
<path d="M34.1865 1.7998C34.0049 1.61816 33.7529 1.51367 33.4961 1.51367C33.2393 1.51367 32.9873 1.61816 32.8057 1.7998C32.624 1.98145 32.5195 2.2334 32.5195 2.49023C32.5195 2.74707 32.624 2.99902 32.8057 3.18066C32.9873 3.3623 33.2393 3.4668 33.4961 3.4668C33.7529 3.4668 34.0049 3.3623 34.1865 3.18066C34.3682 2.99902 34.4727 2.74707 34.4727 2.49023C34.4727 2.2334 34.3682 1.98145 34.1865 1.7998Z" fill="#006290"/>
<path d="M14.2773 1.24561C13.738 1.24561 13.3008 1.68281 13.3008 2.22217V6.22607C13.3008 6.76543 13.738 7.20264 14.2773 7.20264C14.8167 7.20264 15.2539 6.76543 15.2539 6.22607V2.22217C15.2539 1.68281 14.8167 1.24561 14.2773 1.24561Z" fill="#006290"/>
<path d="M0.976562 0C0.437207 0 0 0.437207 0 0.976562V7.34062C0 7.87998 0.437207 8.31719 0.976562 8.31719C1.51592 8.31719 1.95312 7.87998 1.95312 7.34062V0.976562C1.95312 0.437207 1.51592 0 0.976562 0Z" fill="#006290"/>
<path d="M1.66699 10.3125C1.48535 10.1299 1.2334 10.0264 0.976562 10.0264C0.719727 10.0264 0.467773 10.1299 0.286133 10.3125C0.104492 10.4941 0 10.7451 0 11.0029C0 11.2598 0.104492 11.5117 0.286133 11.6934C0.467773 11.875 0.719727 11.9795 0.976562 11.9795C1.2334 11.9795 1.48535 11.875 1.66699 11.6934C1.84863 11.5117 1.95312 11.2598 1.95312 11.0029C1.95312 10.7451 1.84863 10.4941 1.66699 10.3125Z" fill="#006290"/>
<path d="M30.6831 20.4033C30.5015 20.2217 30.2495 20.1172 29.9927 20.1172C29.7349 20.1172 29.4829 20.2217 29.3022 20.4033C29.1196 20.585 29.0161 20.8369 29.0161 21.0938C29.0161 21.3506 29.1196 21.6025 29.3022 21.7842C29.4839 21.9658 29.7349 22.0703 29.9927 22.0703C30.2495 22.0703 30.5005 21.9658 30.6831 21.7842C30.8647 21.6025 30.9692 21.3506 30.9692 21.0938C30.9692 20.8369 30.8647 20.585 30.6831 20.4033Z" fill="#006290"/>
</svg>
