<svg width="40" height="40" viewBox="0 0 40 40" fill="none" xmlns="http://www.w3.org/2000/svg">
<g clip-path="url(#clip0)">
<path d="M36 0.000976562C33.794 0.000976562 32 1.79498 32 4.00098C32 5.97898 33.4447 7.62164 35.3333 7.94098V9.33431H27.3333C26.9653 9.33431 26.6667 9.63298 26.6667 10.001V12.001H20.6667V7.94098C22.5553 7.62231 24 5.97964 24 4.00098C24 1.79498 22.206 0.000976562 20 0.000976562C17.794 0.000976562 16 1.79498 16 4.00098C16 5.97898 17.4447 7.62164 19.3333 7.94098V12.001H13.3333V10.001C13.3333 9.63298 13.0347 9.33431 12.6667 9.33431H4.66667V7.94098C6.55533 7.62231 8 5.97964 8 4.00098C8 1.79498 6.206 0.000976562 4 0.000976562C1.794 0.000976562 0 1.79498 0 4.00098C0 5.97898 1.44467 7.62164 3.33333 7.94098V10.001C3.33333 10.369 3.632 10.6676 4 10.6676H12V12.001H8.66667C8.29867 12.001 8 12.2996 8 12.6676V16.6676C8 16.9076 8.12867 17.129 8.33733 17.2476L17.3333 22.359V26.6676C17.3333 26.9136 17.4687 27.1396 17.6853 27.2556C17.784 27.3083 17.892 27.3343 18 27.3343C18.1293 27.3343 18.258 27.2963 18.37 27.2223L22.37 24.5556C22.5553 24.4316 22.6667 24.2236 22.6667 24.001V22.359L31.6627 17.2476C31.8713 17.129 32 16.9076 32 16.6676V12.6676C32 12.2996 31.7013 12.001 31.3333 12.001H28V10.6676H36C36.368 10.6676 36.6667 10.369 36.6667 10.001V7.94098C38.5553 7.62231 40 5.97964 40 4.00098C40 1.79498 38.206 0.000976562 36 0.000976562ZM1.33333 4.00098C1.33333 2.53031 2.52933 1.33431 4 1.33431C5.47067 1.33431 6.66667 2.53031 6.66667 4.00098C6.66667 5.47164 5.47067 6.66764 4 6.66764C2.52933 6.66764 1.33333 5.47164 1.33333 4.00098ZM17.3333 4.00098C17.3333 2.53031 18.5293 1.33431 20 1.33431C21.4707 1.33431 22.6667 2.53031 22.6667 4.00098C22.6667 5.47164 21.4707 6.66764 20 6.66764C18.5293 6.66764 17.3333 5.47164 17.3333 4.00098ZM30.6667 13.3343V16.2796L21.6707 21.391C21.462 21.5096 21.3333 21.731 21.3333 21.971V23.6443L18.6667 25.4223V21.971C18.6667 21.731 18.538 21.5096 18.3293 21.391L9.33333 16.2796V13.3343H30.6667ZM36 6.66764C34.5293 6.66764 33.3333 5.47164 33.3333 4.00098C33.3333 2.53031 34.5293 1.33431 36 1.33431C37.4707 1.33431 38.6667 2.53031 38.6667 4.00098C38.6667 5.47164 37.4707 6.66764 36 6.66764Z" fill="black"/>
<path d="M20 28.001C16.692 28.001 14 30.693 14 34.001C14 37.309 16.692 40.001 20 40.001C23.308 40.001 26 37.309 26 34.001C26 30.693 23.308 28.001 20 28.001ZM19.3333 36.001C18.966 36.001 18.6667 35.7016 18.6667 35.3343H17.3333C17.3333 36.437 18.2307 37.3343 19.3333 37.3343V38.6143C17.0753 38.289 15.3333 36.347 15.3333 34.001C15.3333 31.655 17.0753 29.713 19.3333 29.3876V30.6676C18.2307 30.6676 17.3333 31.565 17.3333 32.6676C17.3333 33.7703 18.2307 34.6676 19.3333 34.6676H20.6667C21.034 34.6676 21.3333 34.967 21.3333 35.3343C21.3333 35.7016 21.034 36.001 20.6667 36.001H19.3333ZM20.6667 38.6143V37.3343C21.7693 37.3343 22.6667 36.437 22.6667 35.3343C22.6667 34.2316 21.7693 33.3343 20.6667 33.3343H19.3333C18.966 33.3343 18.6667 33.035 18.6667 32.6676C18.6667 32.3003 18.966 32.001 19.3333 32.001H20.6667C21.034 32.001 21.3333 32.3003 21.3333 32.6676H22.6667C22.6667 31.565 21.7693 30.6676 20.6667 30.6676V29.3876C22.9247 29.713 24.6667 31.655 24.6667 34.001C24.6667 36.347 22.9247 38.289 20.6667 38.6143Z" fill="black"/>
</g>
<defs>
<clipPath id="clip0">
<rect width="40" height="40" fill="white" transform="translate(0 0.000976562)"/>
</clipPath>
</defs>
</svg>
