<svg width="402" height="413" viewBox="0 0 402 413" fill="none" xmlns="http://www.w3.org/2000/svg">
<path d="M37.5 157.475C37.5 146.705 46.2304 137.975 57 137.975H345C355.77 137.975 364.5 146.705 364.5 157.475V354.975H37.5V157.475Z" stroke="#C6DBF8"/>
<rect x="58.5" y="158.975" width="285" height="132" rx="1.5" stroke="#E2EDFB"/>
<rect x="58.5" y="311.975" width="77" height="1" rx="0.5" stroke="#E2EDFB"/>
<rect x="79.5" y="214.975" width="43" height="1" rx="0.5" stroke="#E2EDFB"/>
<rect x="79.25" y="226.725" width="82.5" height="0.5" rx="0.25" stroke="#E2EDFB" stroke-width="0.5"/>
<rect x="79.25" y="235.725" width="56.5" height="0.5" rx="0.25" stroke="#E2EDFB" stroke-width="0.5"/>
<rect x="79.25" y="246.249" width="38.5" height="0.5" rx="0.25" stroke="#E2EDFB" stroke-width="0.5"/>
<rect x="58.25" y="321.725" width="285.5" height="0.5" rx="0.25" stroke="#E2EDFB" stroke-width="0.5"/>
<rect x="58.25" y="330.725" width="273.5" height="0.5" rx="0.25" stroke="#E2EDFB" stroke-width="0.5"/>
<rect x="58.25" y="339.725" width="136.5" height="0.5" rx="0.25" stroke="#E2EDFB" stroke-width="0.5"/>
<path d="M401.49 354.975C401.228 361.647 395.736 366.975 389 366.975H13C6.2639 366.975 0.772269 361.647 0.509817 354.975H401.49Z" stroke="#C6DBF8"/>
<path d="M178.605 27.0811C177.59 23.9493 175.416 21.4004 172.484 19.9036C169.552 18.4067 166.212 18.1414 163.081 19.1566C161.294 19.7359 159.705 20.6841 158.358 21.9755C157.691 22.6138 157.669 23.6711 158.307 24.3373C158.946 25.0033 160.003 25.0258 160.669 24.3876C161.65 23.4477 162.808 22.7573 164.111 22.3347C166.394 21.5951 168.828 21.7882 170.965 22.8791C173.103 23.97 174.687 25.8283 175.427 28.111C176.954 32.8233 174.363 37.8996 169.651 39.4273C167.368 40.1672 164.934 39.9739 162.796 38.8829C160.659 37.792 159.074 35.9338 158.335 33.651C157.838 32.1188 157.762 30.4815 158.115 28.9158C158.318 28.0157 157.753 27.1217 156.853 26.9188C155.953 26.7165 155.059 27.2809 154.856 28.181C154.371 30.3312 154.475 32.5788 155.156 34.6811C156.171 37.8129 158.345 40.3619 161.277 41.8586C163.038 42.7575 164.946 43.2124 166.868 43.2124C168.146 43.2124 169.43 43.0112 170.681 42.6056C177.145 40.5102 180.7 33.5459 178.605 27.0811Z" fill="#006291"/>
<path d="M173.739 46.6313C173.455 45.7538 172.512 45.2725 171.635 45.5571C167.715 46.8278 163.534 46.4955 159.864 44.6221C156.194 42.7487 153.472 39.5579 152.202 35.6374C151.917 34.7598 150.975 34.2785 150.098 34.5634C149.22 34.8478 148.739 35.79 149.024 36.6675C150.57 41.4366 153.88 45.3184 158.345 47.5978C161.027 48.9667 163.932 49.6591 166.858 49.6591C168.805 49.6591 170.76 49.3527 172.665 48.7355C173.543 48.4511 174.024 47.5089 173.739 46.6313Z" fill="#006291"/>
<path d="M184.732 25.0945C181.541 15.2496 170.936 9.8359 161.091 13.0265C160.213 13.3109 159.732 14.2531 160.017 15.1306C160.301 16.0082 161.242 16.4895 162.121 16.2049C170.213 13.5822 178.931 18.0322 181.554 26.1246C181.783 26.8311 182.438 27.2804 183.142 27.2804C183.313 27.2804 183.487 27.2541 183.658 27.1986C184.535 26.9142 185.016 25.972 184.732 25.0945Z" fill="#006291"/>
<path d="M236.888 78.3423C236.235 77.6898 235.178 77.6897 234.525 78.3419L232.786 80.0819L228.505 75.8012C227.971 75.2673 227.145 75.1582 226.491 75.5344C224.493 76.6835 222.354 77.5695 220.133 78.1675C219.404 78.3642 218.897 79.0255 218.897 79.7805V85.8343H207.359V79.7805C207.359 79.0252 206.853 78.3642 206.123 78.1675C203.903 77.5693 201.764 76.6835 199.766 75.5344C199.111 75.1584 198.286 75.2673 197.752 75.8012L193.471 80.0819L185.313 71.9233L189.594 67.6424C190.128 67.1087 190.237 66.2828 189.861 65.6285C188.711 63.6308 187.826 61.4919 187.227 59.2711C187.031 58.5421 186.37 58.0351 185.614 58.0351H179.561V57.8672C179.561 57.8576 179.561 57.8483 179.561 57.8387V46.497H185.614C186.37 46.497 187.031 45.9903 187.227 45.2611C187.826 43.0403 188.712 40.9014 189.861 38.9037C190.237 38.2493 190.128 37.4235 189.594 36.8898L185.313 32.6089L193.472 24.4505L197.752 28.7312C198.286 29.2648 199.112 29.3749 199.766 28.998C201.764 27.8492 203.903 26.9629 206.124 26.3649C206.853 26.1682 207.36 25.5069 207.36 24.7519V18.6981H210.742C211.665 18.6981 212.412 17.9504 212.412 17.0276C212.412 16.1048 211.665 15.3571 210.742 15.3571H207.236C205.462 15.3571 204.019 16.8004 204.019 18.5745V23.5004C202.37 24.0218 200.767 24.6857 199.23 25.484L196.587 22.8404L194.623 16.7781C194.379 16.0302 193.859 15.4215 193.159 15.0642C192.457 14.7065 191.658 14.6431 190.911 14.8867L187.249 16.0732C186.483 15.0195 185.638 14.0272 184.72 13.1078L186.47 9.6784C186.828 8.97724 186.892 8.17853 186.649 7.42949C186.406 6.68089 185.886 6.0715 185.185 5.7138L176.527 1.29461C175.08 0.555588 173.302 1.13224 172.563 2.57998L170.813 6.00958C169.527 5.80534 168.228 5.70177 166.928 5.69976L165.74 2.04053C165.242 0.495227 163.579 -0.357162 162.029 0.141977L152.779 3.14082C151.234 3.64419 150.386 5.30999 150.888 6.85195L152.074 10.5139C151.021 11.2785 150.03 12.1242 149.109 13.0427L145.68 11.2932C144.978 10.9348 144.18 10.8709 143.431 11.1143C142.682 11.3571 142.073 11.877 141.715 12.5781L137.295 21.2354C136.556 22.6823 137.132 24.4606 138.58 25.2002L142.008 26.9505C141.805 28.2365 141.702 29.5359 141.7 30.8349L138.036 32.022C136.494 32.5241 135.644 34.1879 136.142 35.7336L139.14 44.9787C139.381 45.7282 139.901 46.3382 140.603 46.6968C141.305 47.0559 142.105 47.1191 142.852 46.8752L146.515 45.6888C147.281 46.7425 148.126 47.7347 149.044 48.6542L147.294 52.0836C146.936 52.7847 146.872 53.5834 147.115 54.3325C147.358 55.0808 147.877 55.6905 148.579 56.0484L157.236 60.4676C157.938 60.8257 158.738 60.889 159.487 60.6451C160.236 60.4012 160.845 59.8802 161.198 59.1829L162.95 55.7528C164.236 55.9566 165.535 56.0602 166.836 56.0622L168.023 59.7266C168.428 60.9703 169.586 61.7625 170.827 61.7625C171.127 61.7625 171.433 61.716 171.734 61.6182L176.788 59.9814C177.369 60.8228 178.339 61.3761 179.437 61.3761H184.363C184.884 63.0252 185.548 64.6282 186.346 66.1648L182.863 69.6481C182.255 70.2559 181.921 71.0635 181.921 71.9233C181.921 72.7823 182.255 73.5904 182.863 74.1984L191.196 82.5315C192.451 83.7859 194.491 83.7857 195.746 82.5315L199.229 79.048C200.766 79.8462 202.369 80.5102 204.018 81.0316V85.9575C204.018 87.7315 205.461 89.1748 207.235 89.1748H219.02C220.794 89.1748 222.238 87.7315 222.238 85.9575V81.0323C223.887 80.5108 225.49 79.8469 227.026 79.0486L230.51 82.5323C231.765 83.7861 233.806 83.7863 235.06 82.5321L236.887 80.7051C237.541 80.0522 237.541 78.9947 236.888 78.3423ZM176.22 46.3739V56.654L171.079 58.3189L169.63 53.848C169.397 53.1293 168.709 52.6546 167.957 52.6945C166.088 52.7883 164.21 52.6386 162.376 52.2499C161.637 52.0934 160.885 52.452 160.542 53.1242L158.403 57.3124L150.448 53.2524L152.586 49.064C152.929 48.3911 152.778 47.5719 152.218 47.0654C150.832 45.8124 149.609 44.3789 148.584 42.8048C148.173 42.1723 147.388 41.8943 146.67 42.1271L142.197 43.5762L139.442 35.079L143.915 33.6299C144.634 33.3972 145.106 32.7114 145.069 31.957C144.975 30.0896 145.124 28.2113 145.511 26.374C145.667 25.6359 145.308 24.8844 144.636 24.5414L140.45 22.4043L144.511 14.4484L148.699 16.5857C149.372 16.9294 150.192 16.7779 150.698 16.218C151.954 14.8286 153.387 13.6062 154.957 12.585C155.59 12.1732 155.869 11.3881 155.636 10.6695L154.187 6.1969L162.682 3.44284L164.134 7.91571C164.367 8.63379 165.053 9.1062 165.806 9.06856C167.676 8.97568 169.553 9.12446 171.387 9.51335C172.126 9.67015 172.878 9.31134 173.222 8.63847L175.359 4.4498L183.315 8.51062L181.178 12.6991C180.834 13.3719 180.985 14.1914 181.546 14.6978C182.932 15.9505 184.154 17.3837 185.179 18.958C185.591 19.5908 186.376 19.8687 187.094 19.6358L191.566 18.1867L192.542 21.1973C192.049 21.3452 191.585 21.6127 191.196 22.0012L182.863 30.3344C182.256 30.9422 181.921 31.7501 181.921 32.6094C181.921 33.4689 182.256 34.2767 182.864 34.8843L186.347 38.3678C185.549 39.9044 184.885 41.5074 184.364 43.1565H179.437C177.663 43.1563 176.22 44.5996 176.22 46.3739Z" fill="#006291"/>
<path d="M246.818 43.156H241.892C241.37 41.5067 240.706 39.9039 239.908 38.3673L243.391 34.8842C243.999 34.2764 244.334 33.4686 244.334 32.6088C244.334 31.7495 243.999 30.9417 243.392 30.3338L235.059 22.0004C233.804 20.7466 231.763 20.7462 230.508 22.0008L227.025 25.4841C225.488 24.6859 223.885 24.0219 222.236 23.5007V18.5746C222.236 16.8005 220.793 15.3572 219.019 15.3572H216.944C216.021 15.3572 215.273 16.1049 215.273 17.0277C215.273 17.9505 216.021 18.6982 216.944 18.6982H218.896V24.7522C218.896 25.5075 219.402 26.1688 220.132 26.3652C222.352 26.9633 224.491 27.8491 226.489 28.9981C227.143 29.3745 227.969 29.2656 228.503 28.7313L232.784 24.4506L240.942 32.609L236.661 36.8899C236.128 37.4236 236.018 38.2495 236.395 38.9038C237.543 40.9013 238.429 43.0399 239.028 45.2612C239.224 45.9902 239.886 46.4972 240.641 46.4972H246.695V58.0353H240.641C239.885 58.0353 239.224 58.542 239.028 59.2712C238.429 61.4925 237.543 63.6311 236.395 65.6286C236.018 66.2829 236.128 67.1088 236.661 67.6425L240.942 71.9234L238.91 73.9551C238.258 74.6077 238.258 75.6652 238.91 76.3176C239.236 76.6437 239.664 76.8067 240.091 76.8067C240.519 76.8067 240.947 76.6437 241.273 76.3176L243.392 74.1983C244 73.5905 244.334 72.7827 244.334 71.9231C244.334 71.0636 244 70.2556 243.392 69.6482L239.909 66.1647C240.707 64.6281 241.371 63.0251 241.892 61.376H246.818C248.592 61.376 250.036 59.9327 250.036 58.1584V46.3738C250.035 44.5995 248.592 43.156 246.818 43.156Z" fill="#006291"/>
<path d="M223.443 41.9509C217.755 36.2634 208.501 36.2634 202.813 41.9509C197.125 47.6385 197.125 56.8932 202.813 62.5808C205.657 65.4251 209.392 66.8468 213.128 66.8465C216.863 66.8461 220.599 65.4242 223.443 62.581C226.198 59.8259 227.715 56.1626 227.715 52.2659C227.715 48.3693 226.198 44.7063 223.443 41.9509ZM221.08 60.2183C216.695 64.6034 209.56 64.6034 205.175 60.2183C200.79 55.8336 200.79 48.6985 205.175 44.3136C207.368 42.121 210.248 41.0248 213.127 41.0248C216.007 41.0248 218.887 42.121 221.08 44.3136C221.08 44.3136 221.08 44.3136 221.08 44.3136C223.204 46.4375 224.374 49.262 224.374 52.2659C224.374 55.2697 223.204 58.0941 221.08 60.2183Z" fill="#006291"/>
<path d="M228.969 65.7429C228.316 65.0907 227.259 65.0907 226.606 65.7429C219.176 73.1738 207.084 73.1738 199.654 65.7429C199.001 65.091 197.943 65.091 197.291 65.7429C196.639 66.3955 196.639 67.453 197.291 68.1054C201.522 72.3359 207.147 74.6659 213.13 74.6659C219.113 74.6659 224.738 72.3359 228.969 68.1054C229.621 67.4528 229.621 66.3953 228.969 65.7429Z" fill="#006291"/>
<path d="M228.969 36.4271C224.738 32.1966 219.113 29.8664 213.13 29.8664C207.147 29.8664 201.522 32.1966 197.291 36.4271C196.639 37.0797 196.639 38.1373 197.291 38.7896C197.944 39.4418 199.001 39.442 199.654 38.7894C203.253 35.1899 208.039 33.2071 213.13 33.2071C218.221 33.2071 223.007 35.1896 226.607 38.7894C226.933 39.1157 227.36 39.2788 227.788 39.2788C228.215 39.2788 228.643 39.1157 228.969 38.7896C229.622 38.1373 229.622 37.0797 228.969 36.4271Z" fill="#006291"/>
<path d="M90 116.487C91.3325 124.586 94.9699 132.127 100.477 138.211L150.417 192.7C162.786 206.212 169.631 223.878 169.598 242.198V294.578H216.405V242.198C216.371 223.891 223.219 206.245 235.586 192.753L285.503 138.211C291.016 132.13 294.662 124.589 296 116.487H90Z" fill="#C6DBF8"/>
<path d="M193.372 361.243C209.152 361.243 221.946 348.449 221.946 332.669C221.946 316.888 209.152 304.094 193.372 304.094C177.591 304.094 164.798 316.888 164.798 332.669C164.816 348.441 177.598 361.224 193.372 361.243ZM193.372 334.886C188.169 334.885 183.789 330.994 183.176 325.827C182.563 320.66 185.911 315.853 190.97 314.635V312.289C190.97 310.963 192.046 309.887 193.372 309.887C194.698 309.887 195.774 310.963 195.774 312.289V314.635C200.384 315.75 203.634 319.873 203.64 324.617C203.64 325.944 202.564 327.019 201.238 327.019C199.912 327.019 198.836 325.944 198.836 324.617C198.836 321.6 196.388 319.153 193.372 319.153C190.354 319.153 187.908 321.6 187.908 324.618C187.908 327.635 190.354 330.082 193.372 330.082C198.653 330.082 203.074 334.089 203.591 339.345C204.107 344.601 200.553 349.392 195.373 350.421V353.123C195.373 354.45 194.298 355.526 192.971 355.526C191.645 355.526 190.569 354.45 190.569 353.123V350.227C186.156 348.968 183.11 344.938 183.104 340.35C183.104 339.022 184.178 337.948 185.506 337.948C186.832 337.948 187.908 339.022 187.908 340.35C187.908 343.368 190.354 345.814 193.372 345.814C196.39 345.814 198.836 343.368 198.836 340.35C198.836 337.332 196.39 334.886 193.372 334.886Z" fill="#95B0D6"/>
<path d="M298.732 263.059C305.382 263.059 310.792 257.649 310.792 251C310.792 244.35 305.382 238.94 298.732 238.94C292.082 238.94 286.672 244.35 286.672 251C286.672 257.649 292.082 263.059 298.732 263.059ZM298.732 240.58C304.477 240.58 309.151 245.254 309.151 251C309.151 256.745 304.477 261.419 298.732 261.419C292.987 261.419 288.313 256.745 288.313 251C288.313 245.254 292.987 240.58 298.732 240.58Z" fill="#95B0D6"/>
<path d="M295.92 255.4C296.653 255.879 297.187 256.065 297.855 256.127V256.609C297.855 257.063 298.222 257.43 298.675 257.43C299.129 257.43 299.496 257.063 299.496 256.609V256.05C300.827 255.706 301.68 254.566 301.869 253.442C302.113 251.989 301.325 250.677 299.907 250.176C299.772 250.128 299.634 250.078 299.496 250.027V247.446C300 247.553 300.346 247.757 300.361 247.765C300.743 248.003 301.247 247.888 301.488 247.506C301.73 247.123 301.615 246.617 301.232 246.375C301.188 246.347 300.493 245.917 299.496 245.781V245.39C299.496 244.936 299.129 244.569 298.675 244.569C298.222 244.569 297.855 244.936 297.855 245.39V245.875C297.81 245.887 297.765 245.899 297.719 245.912C296.762 246.201 296.048 247.017 295.855 248.043C295.677 248.985 295.983 249.898 296.654 250.424C296.967 250.669 297.348 250.894 297.855 251.127V254.478C297.506 254.425 297.239 254.303 296.818 254.027C296.439 253.779 295.931 253.885 295.683 254.265C295.434 254.644 295.541 255.152 295.92 255.4ZM300.251 253.17C300.181 253.59 299.924 254.031 299.496 254.289V251.778C300.323 252.142 300.303 252.865 300.251 253.17ZM297.667 249.133C297.483 248.988 297.404 248.68 297.467 248.347C297.511 248.115 297.634 247.849 297.855 247.665V249.267C297.788 249.223 297.724 249.178 297.667 249.133Z" fill="#95B0D6"/>
<path d="M317.046 233.209C316.763 232.856 316.247 232.798 315.893 233.081C315.539 233.363 315.481 233.879 315.764 234.233L316.587 235.263H311.37C310.917 235.263 310.55 235.63 310.55 236.084C310.55 236.537 310.917 236.904 311.37 236.904H316.587L315.764 237.934C315.481 238.288 315.539 238.804 315.893 239.087C316.249 239.371 316.765 239.309 317.046 238.958L318.933 236.595C319.172 236.296 319.172 235.871 318.933 235.571L317.046 233.209Z" fill="#95B0D6"/>
<path d="M280.956 268.789C281.238 269.142 281.754 269.202 282.109 268.918C282.463 268.636 282.521 268.119 282.238 267.765L281.415 266.736H286.632C287.085 266.736 287.452 266.368 287.452 265.915C287.452 265.462 287.085 265.095 286.632 265.095H281.415L282.238 264.065C282.521 263.711 282.463 263.195 282.109 262.912C281.755 262.629 281.239 262.687 280.956 263.041L279.069 265.403C278.83 265.703 278.83 266.128 279.069 266.427L280.956 268.789Z" fill="#95B0D6"/>
<path d="M277.503 271.438H294.589C295.042 271.438 295.409 271.071 295.409 270.618C295.409 270.164 295.042 269.797 294.589 269.797H277.782V267.786C277.782 267.453 277.581 267.154 277.273 267.027C276.965 266.901 276.612 266.973 276.378 267.209L271.237 272.406C270.921 272.725 270.921 273.24 271.237 273.56L276.378 278.756C276.611 278.991 276.964 279.065 277.273 278.938C277.581 278.811 277.782 278.512 277.782 278.179V276.168H294.589C295.042 276.168 295.409 275.801 295.409 275.348C295.409 274.894 295.042 274.527 294.589 274.527H277.503C276.752 274.527 276.141 275.138 276.141 275.889V276.183L272.974 272.982L276.141 269.781V270.076C276.141 270.827 276.752 271.438 277.503 271.438Z" fill="#95B0D6"/>
<path d="M298.73 234.921C289.865 234.921 282.652 242.134 282.652 250.999C282.652 254.234 283.609 257.353 285.42 260.02C285.674 260.395 286.184 260.492 286.559 260.238C286.934 259.983 287.031 259.473 286.777 259.098C285.152 256.705 284.293 253.904 284.293 250.999C284.293 243.038 290.769 236.562 298.73 236.562C306.691 236.562 313.168 243.038 313.168 250.999C313.168 258.96 306.691 265.437 298.73 265.437C295.016 265.437 291.487 264.029 288.793 261.473C288.464 261.161 287.945 261.174 287.633 261.503C287.321 261.831 287.335 262.351 287.664 262.663C290.663 265.51 294.593 267.078 298.73 267.078C307.596 267.078 314.809 259.865 314.809 250.999C314.809 242.134 307.596 234.921 298.73 234.921Z" fill="#95B0D6"/>
<path d="M326.764 228.439L321.623 223.243C321.39 223.006 321.036 222.934 320.728 223.061C320.421 223.188 320.22 223.487 320.22 223.82V225.831H316.437C315.984 225.831 315.617 226.198 315.617 226.651C315.617 227.104 315.984 227.472 316.437 227.472H320.499C321.25 227.472 321.861 226.861 321.861 226.11V225.815L325.027 229.016L321.861 232.217V231.923C321.861 231.172 321.25 230.561 320.499 230.561H303.413C302.959 230.561 302.592 230.928 302.592 231.381C302.592 231.835 302.959 232.202 303.413 232.202H320.22V234.213C320.22 234.546 320.421 234.845 320.728 234.972C321.038 235.099 321.391 235.025 321.623 234.79L326.764 229.594C327.081 229.274 327.081 228.759 326.764 228.439Z" fill="#95B0D6"/>
<path d="M303.413 227.472H313.157C313.61 227.472 313.977 227.105 313.977 226.651C313.977 226.198 313.61 225.831 313.157 225.831H303.413C302.959 225.831 302.592 226.198 302.592 226.651C302.592 227.105 302.96 227.472 303.413 227.472Z" fill="#95B0D6"/>
</svg>
