<svg width="50" height="50" viewBox="0 0 50 50" fill="none" xmlns="http://www.w3.org/2000/svg">
<g clip-path="url(#clip0)">
<path d="M5.99927 6.34751H6.00842C6.54744 6.34751 6.98003 5.91034 6.98003 5.37094C6.98003 4.83154 6.53828 4.39438 5.99927 4.39438C5.45987 4.39438 5.02271 4.83154 5.02271 5.37094C5.02271 5.91034 5.45987 6.34751 5.99927 6.34751Z" fill="#006290"/>
<path d="M10.4423 6.34751H10.4514C10.9908 6.34751 11.4234 5.91034 11.4234 5.37094C11.4234 4.83154 10.9817 4.39438 10.4423 4.39438C9.90286 4.39438 9.4657 4.83154 9.4657 5.37094C9.4657 5.91034 9.90286 6.34751 10.4423 6.34751Z" fill="#006290"/>
<path d="M14.8862 6.34751H14.8954C15.4344 6.34751 15.8674 5.91034 15.8674 5.37094C15.8674 4.83154 15.4253 4.39438 14.8862 4.39438C14.3468 4.39438 13.9097 4.83154 13.9097 5.37094C13.9097 5.91034 14.3468 6.34751 14.8862 6.34751Z" fill="#006290"/>
<path d="M22.5313 6.34728H36.1288C36.6682 6.34728 37.1053 5.91011 37.1053 5.37071C37.1053 4.8317 36.6682 4.39453 36.1288 4.39453H22.5313C21.9922 4.39453 21.5547 4.8317 21.5547 5.37071C21.5547 5.91011 21.9919 6.34728 22.5313 6.34728Z" fill="#006290"/>
<path d="M41.3076 26.2688C41.0509 26.2688 40.7987 26.3729 40.6172 26.5549C40.4356 26.7365 40.3311 26.9883 40.3311 27.245C40.3311 27.5021 40.4356 27.7539 40.6172 27.9354C40.7987 28.117 41.0509 28.2215 41.3076 28.2215C41.5643 28.2215 41.8161 28.117 41.9977 27.9354C42.1793 27.7539 42.2842 27.5021 42.2842 27.245C42.2842 26.9883 42.1797 26.7365 41.9977 26.5549C41.8161 26.3729 41.5643 26.2688 41.3076 26.2688Z" fill="#006290"/>
<path d="M20.8654 17.2844H19.6493C19.1099 17.2844 18.6727 17.7215 18.6727 18.2609V25.2918C18.6727 25.8312 19.1099 26.2684 19.6493 26.2684H20.8654C23.3419 26.2684 25.3572 24.2534 25.3572 21.7765C25.3572 19.2997 23.3423 17.2844 20.8654 17.2844ZM20.8654 24.3152H20.6259V19.2375H20.8654C22.2654 19.2375 23.4041 20.3766 23.4041 21.7765C23.4041 23.1765 22.2654 24.3152 20.8654 24.3152Z" fill="#006290"/>
<path d="M14.2603 17.9495C14.1267 17.552 13.7541 17.2842 13.3348 17.2842C12.9156 17.2842 12.5429 17.552 12.4094 17.9495L10.0435 24.9803C9.87145 25.4915 10.1461 26.0454 10.6573 26.2174C11.1688 26.3895 11.7223 26.1145 11.8944 25.6033L11.9665 25.3893H14.7032L14.7749 25.6033C14.9122 26.0111 15.2925 26.2686 15.7003 26.2686C15.8037 26.2686 15.9086 26.2522 16.012 26.2174C16.5231 26.0454 16.7982 25.4915 16.6258 24.9803L14.2603 17.9495ZM12.6234 23.4365L13.3348 21.3228L14.0459 23.4365H12.6234Z" fill="#006290"/>
<path d="M49.6163 41.8152L42.9764 35.1753L45.3167 32.8354C45.5609 32.5909 45.6581 32.2354 45.5715 31.9008C45.4853 31.5663 45.2286 31.3019 44.8963 31.2065L30.7606 27.1355V14.3547C30.7606 13.8157 30.3234 13.3785 29.784 13.3785H5.56603C5.02701 13.3785 4.58985 13.8157 4.58985 14.3547V29.1981C4.58985 29.7375 5.02701 30.1747 5.56603 30.1747H26.7174L28.405 36.0337H2.83203C2.2934 36.0337 1.85547 35.5957 1.85547 35.0571V10.6442H40.3305V23.3391C40.3305 23.8781 40.7677 24.3153 41.3071 24.3153C41.8461 24.3153 42.2837 23.8781 42.2837 23.3391V3.02735C42.2837 1.41182 40.9695 0.0976562 39.354 0.0976562H2.83203C1.21651 0.0976562 -0.0976562 1.41182 -0.0976562 3.02735V35.0571C-0.0976562 36.6726 1.21651 37.9868 2.83203 37.9868H28.9673L31.0127 45.0898C31.1085 45.422 31.3725 45.6787 31.707 45.765C32.0412 45.8512 32.3971 45.7547 32.6416 45.5101L34.9816 43.1702L41.6214 49.8101C41.8045 49.9932 42.0529 50.0958 42.3119 50.0958C42.5709 50.0958 42.8192 49.9932 43.0023 49.8101L49.6163 43.1961C49.9977 42.8147 49.9977 42.1963 49.6163 41.8152ZM2.83203 2.05078H39.354C39.8922 2.05078 40.3305 2.48871 40.3305 3.02735V8.69103H1.85547V3.02735C1.85547 2.48871 2.2934 2.05078 2.83203 2.05078ZM6.54259 28.2215V15.3313H28.8075V26.5728L27.0951 26.0796C26.7533 25.9815 26.3855 26.0761 26.1341 26.3275C25.8827 26.5789 25.7881 26.947 25.8862 27.2885L26.1551 28.2215H6.54259ZM42.3119 47.7383L35.6724 41.0984C35.4817 40.9077 35.2318 40.8123 34.9819 40.8123C34.7317 40.8123 34.4818 40.9077 34.2911 41.0984L32.4314 42.9585L28.2517 28.4455L42.7647 32.6248L40.905 34.4849C40.7219 34.6676 40.6189 34.9163 40.6189 35.1753C40.6189 35.434 40.7219 35.6827 40.905 35.8658L47.5449 42.5053L42.3119 47.7383Z" fill="#006290"/>
<path d="M12.3802 34.0806C12.9196 34.0806 13.3568 33.6435 13.3568 33.1044C13.3568 32.565 12.9196 32.1279 12.3802 32.1279H5.70642C5.16702 32.1279 4.72986 32.565 4.72986 33.1044C4.72986 33.6435 5.16702 34.0806 5.70642 34.0806H12.3802Z" fill="#006290"/>
<path d="M16.9274 33.7949C17.109 33.6133 17.2135 33.3612 17.2135 33.1044C17.2135 32.8477 17.1093 32.5956 16.9274 32.414C16.7458 32.2324 16.494 32.1279 16.2369 32.1279C15.9802 32.1279 15.7284 32.2324 15.5468 32.414C15.3653 32.5956 15.2607 32.8477 15.2607 33.1044C15.2607 33.3612 15.3649 33.6133 15.5468 33.7949C15.7284 33.9765 15.9802 34.081 16.2369 34.081C16.494 34.081 16.7458 33.9765 16.9274 33.7949Z" fill="#006290"/>
</g>
<defs>
<clipPath id="clip0">
<rect width="50" height="50" fill="white"/>
</clipPath>
</defs>
</svg>
