<svg width="40" height="40" viewBox="0 0 40 40" fill="none" xmlns="http://www.w3.org/2000/svg">
<g clip-path="url(#clip0)">
<path d="M29.6772 0.646545V1.93788H31.9921L18.7087 15.2214L12.2598 8.76466L4.06299 16.9615L4.9685 17.8749L12.2598 10.5914L18.7087 17.0402L32.9055 2.85127V5.15836H34.1968V0.646545H29.6772Z" fill="black"/>
<path d="M38.7087 38.064V9.67816H32.2598V38.064H30.9685V13.5522H24.5197V38.0719H23.2283V22.5837H16.7717V38.064H15.4803V18.7097H9.0315V38.064H7.74016V29.0325H1.29134V38.064H0V39.3553H40V38.064H38.7087ZM6.45669 38.064H2.58268V30.3238H6.45669V38.064ZM14.1969 38.064H10.3228V20.001H14.1969V38.064ZM21.937 38.0719H18.063V23.875H21.937V38.0719ZM29.6772 38.0719H25.8032V14.8435H29.6772V38.0719ZM37.4252 38.064H33.5512V10.9695H37.4252V38.064Z" fill="black"/>
</g>
<defs>
<clipPath id="clip0">
<rect width="40" height="40" fill="white" transform="translate(0 0.000976562)"/>
</clipPath>
</defs>
</svg>
