<svg width="41" height="41" viewBox="0 0 41 41" fill="none" xmlns="http://www.w3.org/2000/svg">
<path d="M39.1103 39.3984H37.3539V13.8964C37.3539 12.7094 36.3882 11.7437 35.2013 11.7437H31.2755C30.0885 11.7437 29.1229 12.7095 29.1229 13.8964V39.3984H24.6632V25.4508C24.6632 24.2638 23.6975 23.2981 22.5105 23.2981H18.5847C17.3977 23.2981 16.4321 24.2638 16.4321 25.4508V39.3984H11.9724V32.175C11.9724 30.988 11.0066 30.0223 9.81971 30.0223H5.89388C4.70689 30.0223 3.74122 30.9881 3.74122 32.175V39.3984H1.89014C1.44787 39.3984 1.08936 39.7569 1.08936 40.1991C1.08936 40.6414 1.44787 40.9999 1.89014 40.9999H39.1103C39.5526 40.9999 39.9111 40.6414 39.9111 40.1991C39.9111 39.7569 39.5526 39.3984 39.1103 39.3984ZM10.3707 39.3984H5.34271V32.175C5.34271 31.8711 5.58991 31.6239 5.8938 31.6239H9.81955C10.1235 31.6239 10.3707 31.8711 10.3707 32.175V39.3984ZM23.0615 39.3984H18.0336V25.4508C18.0336 25.1469 18.2808 24.8997 18.5847 24.8997H22.5104C22.8142 24.8997 23.0615 25.1469 23.0615 25.4508V39.3984ZM35.7524 39.3984H30.7244V13.8964C30.7244 13.5925 30.9716 13.3453 31.2755 13.3453H35.2013C35.5052 13.3453 35.7524 13.5925 35.7524 13.8964V39.3984Z" fill="#006291"/>
<path d="M37.3514 0.842102C37.3626 0.623568 37.2858 0.401352 37.1189 0.234469C36.952 0.0675859 36.7298 -0.00936914 36.5112 0.00192188C36.4983 0.00136133 36.4856 0 36.4725 0H31.6278C31.1855 0 30.827 0.35851 30.827 0.800781C30.827 1.24305 31.1855 1.60156 31.6278 1.60156H34.6192L26.703 9.51793L23.7176 6.53261C23.5675 6.38247 23.3638 6.29806 23.1514 6.29806C22.939 6.29806 22.7353 6.38247 22.5852 6.53261L8.18961 20.9283C7.8769 21.241 7.8769 21.748 8.18961 22.0608C8.346 22.217 8.55092 22.2952 8.75584 22.2952C8.96076 22.2952 9.16576 22.217 9.32207 22.0606L23.1514 8.23123L26.1367 11.2165C26.4494 11.5292 26.9565 11.5292 27.2693 11.2165L35.7518 2.73411V5.44155C35.7518 5.88382 36.1103 6.24233 36.5526 6.24233C36.9948 6.24233 37.3533 5.88382 37.3533 5.44155V0.880859C37.3533 0.867807 37.352 0.855074 37.3514 0.842102Z" fill="#006291"/>
<path d="M6.05713 25.0893C6.49939 25.0893 6.85791 24.7308 6.85791 24.2886C6.85791 23.8463 6.49939 23.4878 6.05713 23.4878C5.61487 23.4878 5.25635 23.8463 5.25635 24.2886C5.25635 24.7308 5.61487 25.0893 6.05713 25.0893Z" fill="#006291"/>
</svg>
