<svg width="47" height="47" viewBox="0 0 47 47" fill="none" xmlns="http://www.w3.org/2000/svg">
<path d="M43.0831 0H7.04975C6.01099 0 5.01477 0.412648 4.28025 1.14717C3.54573 1.88168 3.13309 2.8779 3.13309 3.91667V7.83333H45.4331V43.0833C45.4312 43.706 45.183 44.3027 44.7427 44.743C44.3024 45.1833 43.7058 45.4315 43.0831 45.4333H7.04975C6.42707 45.4315 5.83042 45.1833 5.39011 44.743C4.9498 44.3027 4.70161 43.706 4.69975 43.0833V21.9333H3.13309V43.0833C3.13309 44.1221 3.54573 45.1183 4.28025 45.8528C5.01477 46.5874 6.01099 47 7.04975 47H43.0831C44.1219 47 45.1181 46.5874 45.8526 45.8528C46.5871 45.1183 46.9998 44.1221 46.9998 43.0833V3.91667C46.9998 2.8779 46.5871 1.88168 45.8526 1.14717C45.1181 0.412648 44.1219 0 43.0831 0ZM45.4331 6.26667H4.69975V3.91667C4.70161 3.29398 4.9498 2.69733 5.39011 2.25702C5.83042 1.81671 6.42707 1.56853 7.04975 1.56667H43.0831C43.7058 1.56853 44.3024 1.81671 44.7427 2.25702C45.183 2.69733 45.4312 3.29398 45.4331 3.91667V6.26667Z" fill="#006290"/>
<path d="M7.83365 3.1333H9.40032V4.69997H7.83365V3.1333Z" fill="#006290"/>
<path d="M10.9667 3.1333H12.5334V4.69997H10.9667V3.1333Z" fill="#006290"/>
<path d="M14.0998 3.1333H15.6665V4.69997H14.0998V3.1333Z" fill="#006290"/>
<path d="M6.26709 27.4167V41.5166C6.26709 42.1399 6.51468 42.7376 6.95539 43.1783C7.3961 43.6191 7.99383 43.8666 8.61709 43.8666H41.5171C42.1403 43.8666 42.7381 43.6191 43.1788 43.1783C43.6195 42.7376 43.8671 42.1399 43.8671 41.5166V27.4167C43.8671 26.7934 43.6195 26.1957 43.1788 25.755C42.7381 25.3142 42.1403 25.0667 41.5171 25.0667H8.61709C7.99383 25.0667 7.3961 25.3142 6.95539 25.755C6.51468 26.1957 6.26709 26.7934 6.26709 27.4167ZM42.3004 27.4167V41.5166C42.3004 41.7244 42.2179 41.9236 42.071 42.0706C41.9241 42.2175 41.7248 42.3 41.5171 42.3H8.61709C8.40934 42.3 8.21009 42.2175 8.06319 42.0706C7.91629 41.9236 7.83376 41.7244 7.83376 41.5166V27.4167C7.83376 27.2089 7.91629 27.0097 8.06319 26.8627C8.21009 26.7158 8.40934 26.6333 8.61709 26.6333H41.5171C41.7248 26.6333 41.9241 26.7158 42.071 26.8627C42.2179 27.0097 42.3004 27.2089 42.3004 27.4167Z" fill="#006290"/>
<path d="M11.7501 40.7333H39.1667V39.1666H12.5334V34.6444L15.9566 37.4245C16.0384 37.4909 16.1327 37.5401 16.234 37.5692C16.3353 37.5983 16.4414 37.6067 16.546 37.5938C16.6506 37.5809 16.7515 37.5471 16.8427 37.4943C16.9339 37.4415 17.0135 37.3709 17.0767 37.2866L18.9129 34.8387L21.4783 36.6709C21.5706 36.7368 21.6761 36.7819 21.7876 36.8029C21.899 36.824 22.0137 36.8207 22.1238 36.7931L28.3904 35.2265C28.4538 35.2109 28.5149 35.1872 28.5722 35.156L30.7459 33.9857L33.0426 37.2655C33.16 37.4332 33.3383 37.5484 33.5394 37.5863C33.7406 37.6242 33.9486 37.5819 34.1189 37.4684L38.8189 34.335L37.9494 33.0316L33.8871 35.7395L32.1355 33.2376L38.7555 29.6726L38.0129 28.294L31.2308 31.9451L28.8424 28.5344C28.781 28.4467 28.7023 28.3724 28.6111 28.3163C28.5199 28.2601 28.4181 28.2233 28.3121 28.208C28.2061 28.1927 28.0981 28.1994 27.9948 28.2275C27.8914 28.2556 27.7949 28.3046 27.7113 28.3715L24.1863 31.1915L21.5002 29.8449C21.3357 29.7634 21.1477 29.7423 20.9692 29.7852C20.7906 29.8282 20.6329 29.9325 20.5234 30.08L18.5776 32.6736L16.9052 31.479L15.995 32.7543L17.64 33.9293L16.3146 35.6965L12.5334 32.6266V28.2H10.9667V39.95C10.9667 40.1577 11.0493 40.3569 11.1962 40.5039C11.3431 40.6508 11.5423 40.7333 11.7501 40.7333ZM21.3851 31.5432L23.9333 32.8216C24.0671 32.8885 24.2174 32.9156 24.3662 32.8998C24.515 32.884 24.6562 32.8259 24.773 32.7323L28.0371 30.1207L29.8388 32.6971L27.9149 33.7303L22.0948 35.1857L19.8529 33.5846L21.3851 31.5432Z" fill="#006290"/>
<path d="M3.13309 12.5334H14.0998V14.1001H3.13309V12.5334Z" fill="#006290"/>
<path d="M3.13309 15.6667H14.0998V17.2334H3.13309V15.6667Z" fill="#006290"/>
<path d="M12.8271 23.3284C12.9423 23.4206 13.0813 23.4784 13.2279 23.4952C13.3746 23.5119 13.523 23.4868 13.656 23.4229C13.789 23.3589 13.9013 23.2587 13.9798 23.1338C14.0584 23.0088 14.1001 22.8642 14.1 22.7166V20.3666H15.6667C16.0822 20.3666 16.4807 20.2015 16.7745 19.9077C17.0683 19.6139 17.2333 19.2154 17.2333 18.7999V10.9666C17.2333 10.5511 17.0683 10.1526 16.7745 9.85877C16.4807 9.56496 16.0822 9.3999 15.6667 9.3999H1.56667C1.15116 9.3999 0.752673 9.56496 0.458866 9.85877C0.165059 10.1526 0 10.5511 0 10.9666V18.7999C0 19.2154 0.165059 19.6139 0.458866 19.9077C0.752673 20.2015 1.15116 20.3666 1.56667 20.3666H9.12505L12.8271 23.3284ZM1.56667 10.9666H15.6667V18.7999H13.3167C13.1089 18.7999 12.9097 18.8824 12.7628 19.0293C12.6159 19.1762 12.5333 19.3755 12.5333 19.5832V21.0865L9.88958 18.9715C9.75061 18.8603 9.57794 18.7998 9.4 18.7999H1.56667V10.9666Z" fill="#006290"/>
<path d="M20.3669 9.3999H29.7669V10.9666H20.3669V9.3999Z" fill="#006290"/>
<path d="M20.3669 12.5334H29.7669V14.1001H20.3669V12.5334Z" fill="#006290"/>
<path d="M20.3669 15.6667H29.7669V17.2334H20.3669V15.6667Z" fill="#006290"/>
<path d="M20.3669 18.8H29.7669V20.3667H20.3669V18.8Z" fill="#006290"/>
<path d="M32.1169 9.3999H41.5169V10.9666H32.1169V9.3999Z" fill="#006290"/>
<path d="M32.1169 12.5334H41.5169V14.1001H32.1169V12.5334Z" fill="#006290"/>
<path d="M32.1169 15.6667H41.5169V17.2334H32.1169V15.6667Z" fill="#006290"/>
<path d="M32.1169 18.8H41.5169V20.3667H32.1169V18.8Z" fill="#006290"/>
</svg>
