<svg width="567" height="350" viewBox="0 0 567 350" fill="none" xmlns="http://www.w3.org/2000/svg">
<rect x="0.734375" y="0.340332" width="565.267" height="349.538" fill="#E2EDFB"/>
<line opacity="0.73" x1="50.2227" y1="59.1729" x2="500.246" y2="59.1729" stroke="#006290" stroke-width="2"/>
<line opacity="0.73" x1="49.3516" y1="141.939" x2="499.375" y2="141.939" stroke="#006290" stroke-width="2"/>
<line opacity="0.73" x1="50.2227" y1="225.47" x2="500.246" y2="225.47" stroke="#006290" stroke-width="2"/>
<path opacity="0.64" d="M65.0234 119.76L72.3395 110.822L104.532 130.485L140.383 119.76L167.454 110.822L174.771 105.459L207.695 130.485L244.277 105.459L277.201 88.4767L315.979 119.76L351.098 83.1138L384.022 96.5207L416.946 83.1138L476.21 156.406" stroke="#20A1FF" stroke-width="3"/>
<path opacity="0.64" d="M65.0234 198.841L97.8431 183.144H186.642L230.077 198.841H249.382L290.887 183.144L316.948 191.596L356.522 183.144L384.513 191.596L423.122 172.277L455.94 96.2099L499.375 78.0986" stroke="#FF003D" stroke-width="3"/>
<rect x="51.3555" y="237.251" width="12.3993" height="12.3993" rx="2" fill="#95B0D6"/>
<rect x="50.2227" y="300.345" width="13.1015" height="4.78205" rx="2" fill="#66BDFE"/>
<rect x="166.43" y="300.345" width="13.1015" height="4.78205" rx="2" fill="#F55682"/>
<rect x="90.6836" y="237.251" width="12.3993" height="12.3993" rx="2" fill="#95B0D6"/>
<rect x="171.961" y="237.251" width="12.3993" height="12.3993" rx="2" fill="#95B0D6"/>
<rect x="243.523" y="237.251" width="12.3993" height="12.3993" rx="2" fill="#95B0D6"/>
<rect x="359.945" y="237.251" width="12.3993" height="12.3993" rx="2" fill="#95B0D6"/>
<rect x="402.234" y="237.251" width="12.3993" height="12.3993" rx="2" fill="#95B0D6"/>
<rect x="441.562" y="237.251" width="12.3993" height="12.3993" rx="2" fill="#95B0D6"/>
<rect x="480.891" y="237.251" width="12.3993" height="12.3993" rx="2" fill="#95B0D6"/>
<path d="M512.798 62.1729V55.5129L511.058 56.6529V54.9969L513.038 53.5929H514.742V62.1729H512.798ZM520.162 60.7809C521.338 60.7809 521.926 59.8729 521.926 58.0569V57.6729C521.926 56.8009 521.774 56.1329 521.47 55.6689C521.174 55.2049 520.73 54.9729 520.138 54.9729C518.93 54.9729 518.326 55.8729 518.326 57.6729V58.0809C518.326 59.8809 518.938 60.7809 520.162 60.7809ZM520.114 62.3049C518.97 62.3049 518.062 61.9289 517.39 61.1769C516.718 60.4249 516.382 59.3969 516.382 58.0929V57.6849C516.382 56.3809 516.726 55.3529 517.414 54.6009C518.102 53.8489 519.006 53.4729 520.126 53.4729C521.254 53.4729 522.158 53.8409 522.838 54.5769C523.518 55.3129 523.858 56.3369 523.858 57.6489V58.0449C523.858 59.3569 523.522 60.3969 522.85 61.1649C522.186 61.9249 521.274 62.3049 520.114 62.3049ZM528.716 60.7809C529.892 60.7809 530.48 59.8729 530.48 58.0569V57.6729C530.48 56.8009 530.328 56.1329 530.024 55.6689C529.728 55.2049 529.284 54.9729 528.692 54.9729C527.484 54.9729 526.88 55.8729 526.88 57.6729V58.0809C526.88 59.8809 527.492 60.7809 528.716 60.7809ZM528.668 62.3049C527.524 62.3049 526.616 61.9289 525.944 61.1769C525.272 60.4249 524.936 59.3969 524.936 58.0929V57.6849C524.936 56.3809 525.28 55.3529 525.968 54.6009C526.656 53.8489 527.56 53.4729 528.68 53.4729C529.808 53.4729 530.712 53.8409 531.392 54.5769C532.072 55.3129 532.412 56.3369 532.412 57.6489V58.0449C532.412 59.3569 532.076 60.3969 531.404 61.1649C530.74 61.9249 529.828 62.3049 528.668 62.3049Z" fill="#006291"/>
<path d="M75.7587 306.368C74.3827 306.368 73.3187 305.976 72.5667 305.192C71.8227 304.408 71.4507 303.344 71.4507 302V301.904C71.4507 300.616 71.8507 299.564 72.6507 298.748C73.4587 297.932 74.4787 297.524 75.7107 297.524C76.7827 297.524 77.6587 297.788 78.3387 298.316C79.0267 298.844 79.4187 299.62 79.5147 300.644H77.5227C77.3787 299.588 76.7787 299.06 75.7227 299.06C75.0427 299.06 74.5027 299.312 74.1027 299.816C73.7027 300.32 73.5027 301.012 73.5027 301.892V301.988C73.5027 302.876 73.6987 303.568 74.0907 304.064C74.4827 304.552 75.0307 304.796 75.7347 304.796C76.2787 304.796 76.7227 304.66 77.0667 304.388C77.4107 304.108 77.6227 303.696 77.7027 303.152H79.6107C79.5067 304.192 79.1067 304.988 78.4107 305.54C77.7227 306.092 76.8387 306.368 75.7587 306.368ZM82.5033 304.544C82.7753 304.88 83.1553 305.048 83.6433 305.048C84.1313 305.048 84.5073 304.88 84.7713 304.544C85.0433 304.208 85.1793 303.74 85.1793 303.14V303.056C85.1793 302.456 85.0433 301.988 84.7713 301.652C84.5073 301.308 84.1313 301.136 83.6433 301.136C83.1633 301.136 82.7873 301.304 82.5153 301.64C82.2433 301.968 82.1073 302.432 82.1073 303.032V303.128C82.1073 303.728 82.2393 304.2 82.5033 304.544ZM83.6313 306.368C82.6793 306.368 81.8913 306.076 81.2673 305.492C80.6433 304.9 80.3313 304.124 80.3313 303.164V303.068C80.3313 302.1 80.6433 301.316 81.2673 300.716C81.8913 300.116 82.6833 299.816 83.6433 299.816C84.6033 299.816 85.3913 300.112 86.0073 300.704C86.6313 301.288 86.9433 302.064 86.9433 303.032V303.128C86.9433 304.104 86.6313 304.888 86.0073 305.48C85.3833 306.072 84.5913 306.368 83.6313 306.368ZM90.3898 306.368C89.5418 306.368 88.8818 306.188 88.4098 305.828C87.9378 305.468 87.6858 304.948 87.6538 304.268H89.2738C89.3138 304.564 89.4178 304.788 89.5858 304.94C89.7538 305.084 90.0178 305.156 90.3778 305.156C91.0338 305.156 91.3618 304.928 91.3618 304.472C91.3618 304.264 91.2658 304.104 91.0738 303.992C90.8818 303.88 90.5538 303.792 90.0898 303.728C89.2418 303.6 88.6418 303.392 88.2898 303.104C87.9458 302.816 87.7738 302.372 87.7738 301.772C87.7738 301.148 88.0138 300.668 88.4938 300.332C88.9818 299.988 89.5698 299.816 90.2578 299.816C91.8418 299.816 92.7058 300.464 92.8498 301.76H91.2538C91.1578 301.256 90.8298 301.004 90.2698 301.004C89.9898 301.004 89.7698 301.064 89.6098 301.184C89.4578 301.304 89.3818 301.46 89.3818 301.652C89.3818 301.852 89.4658 302 89.6338 302.096C89.8098 302.192 90.1298 302.272 90.5938 302.336C91.4418 302.456 92.0578 302.656 92.4418 302.936C92.8338 303.216 93.0298 303.672 93.0298 304.304C93.0298 304.976 92.7978 305.488 92.3338 305.84C91.8778 306.192 91.2298 306.368 90.3898 306.368ZM96.4252 306.356C95.7612 306.356 95.2572 306.188 94.9132 305.852C94.5692 305.516 94.3972 305.024 94.3972 304.376V301.196H93.5932V299.96H94.3972V298.604H96.1252V299.96H97.4452V301.196H96.1252V304.22C96.1252 304.716 96.3572 304.964 96.8212 304.964C97.0692 304.964 97.2892 304.924 97.4812 304.844V306.188C97.1612 306.3 96.8092 306.356 96.4252 306.356ZM100.393 308.012L104.077 296.924H105.505L101.809 308.012H100.393ZM113.071 306.368C111.695 306.368 110.631 305.976 109.879 305.192C109.135 304.408 108.763 303.344 108.763 302V301.904C108.763 300.616 109.163 299.564 109.963 298.748C110.771 297.932 111.791 297.524 113.023 297.524C114.095 297.524 114.971 297.788 115.651 298.316C116.339 298.844 116.731 299.62 116.827 300.644H114.835C114.691 299.588 114.091 299.06 113.035 299.06C112.355 299.06 111.815 299.312 111.415 299.816C111.015 300.32 110.815 301.012 110.815 301.892V301.988C110.815 302.876 111.011 303.568 111.403 304.064C111.795 304.552 112.343 304.796 113.047 304.796C113.591 304.796 114.035 304.66 114.379 304.388C114.723 304.108 114.935 303.696 115.015 303.152H116.923C116.819 304.192 116.419 304.988 115.723 305.54C115.035 306.092 114.151 306.368 113.071 306.368ZM119.816 304.544C120.088 304.88 120.468 305.048 120.956 305.048C121.444 305.048 121.82 304.88 122.084 304.544C122.356 304.208 122.492 303.74 122.492 303.14V303.056C122.492 302.456 122.356 301.988 122.084 301.652C121.82 301.308 121.444 301.136 120.956 301.136C120.476 301.136 120.1 301.304 119.828 301.64C119.556 301.968 119.42 302.432 119.42 303.032V303.128C119.42 303.728 119.552 304.2 119.816 304.544ZM120.944 306.368C119.992 306.368 119.204 306.076 118.58 305.492C117.956 304.9 117.644 304.124 117.644 303.164V303.068C117.644 302.1 117.956 301.316 118.58 300.716C119.204 300.116 119.996 299.816 120.956 299.816C121.916 299.816 122.704 300.112 123.32 300.704C123.944 301.288 124.256 302.064 124.256 303.032V303.128C124.256 304.104 123.944 304.888 123.32 305.48C122.696 306.072 121.904 306.368 120.944 306.368ZM125.422 306.236V299.96H127.162V300.956C127.33 300.62 127.586 300.348 127.93 300.14C128.282 299.924 128.706 299.816 129.202 299.816C129.85 299.816 130.362 300.02 130.738 300.428C131.122 300.828 131.314 301.432 131.314 302.24V306.236H129.574V302.492C129.574 302.06 129.486 301.744 129.31 301.544C129.134 301.336 128.854 301.232 128.47 301.232C128.078 301.232 127.762 301.352 127.522 301.592C127.282 301.824 127.162 302.164 127.162 302.612V306.236H125.422ZM134.38 306.236L132.088 299.96H133.948L135.448 304.448L136.936 299.96H138.616L136.336 306.236H134.38Z" fill="#006291"/>
<path d="M190.198 306.368C188.822 306.368 187.758 305.976 187.006 305.192C186.262 304.408 185.89 303.344 185.89 302V301.904C185.89 300.616 186.29 299.564 187.09 298.748C187.898 297.932 188.918 297.524 190.15 297.524C191.222 297.524 192.098 297.788 192.778 298.316C193.466 298.844 193.858 299.62 193.954 300.644H191.962C191.818 299.588 191.218 299.06 190.162 299.06C189.482 299.06 188.942 299.312 188.542 299.816C188.142 300.32 187.942 301.012 187.942 301.892V301.988C187.942 302.876 188.138 303.568 188.53 304.064C188.922 304.552 189.47 304.796 190.174 304.796C190.718 304.796 191.162 304.66 191.506 304.388C191.85 304.108 192.062 303.696 192.142 303.152H194.05C193.946 304.192 193.546 304.988 192.85 305.54C192.162 306.092 191.278 306.368 190.198 306.368ZM196.943 304.544C197.215 304.88 197.595 305.048 198.083 305.048C198.571 305.048 198.947 304.88 199.211 304.544C199.483 304.208 199.619 303.74 199.619 303.14V303.056C199.619 302.456 199.483 301.988 199.211 301.652C198.947 301.308 198.571 301.136 198.083 301.136C197.603 301.136 197.227 301.304 196.955 301.64C196.683 301.968 196.547 302.432 196.547 303.032V303.128C196.547 303.728 196.679 304.2 196.943 304.544ZM198.071 306.368C197.119 306.368 196.331 306.076 195.707 305.492C195.083 304.9 194.771 304.124 194.771 303.164V303.068C194.771 302.1 195.083 301.316 195.707 300.716C196.331 300.116 197.123 299.816 198.083 299.816C199.043 299.816 199.831 300.112 200.447 300.704C201.071 301.288 201.383 302.064 201.383 303.032V303.128C201.383 304.104 201.071 304.888 200.447 305.48C199.823 306.072 199.031 306.368 198.071 306.368ZM202.549 306.236V299.96H204.289V300.956C204.457 300.62 204.713 300.348 205.057 300.14C205.409 299.924 205.833 299.816 206.329 299.816C206.977 299.816 207.489 300.02 207.865 300.428C208.249 300.828 208.441 301.432 208.441 302.24V306.236H206.701V302.492C206.701 302.06 206.613 301.744 206.437 301.544C206.261 301.336 205.981 301.232 205.597 301.232C205.205 301.232 204.889 301.352 204.649 301.592C204.409 301.824 204.289 302.164 204.289 302.612V306.236H202.549ZM211.507 306.236L209.215 299.96H211.075L212.575 304.448L214.063 299.96H215.743L213.463 306.236H211.507ZM219.269 306.368C218.301 306.368 217.513 306.084 216.905 305.516C216.297 304.94 215.993 304.16 215.993 303.176V303.08C215.993 302.104 216.297 301.316 216.905 300.716C217.521 300.116 218.293 299.816 219.221 299.816C220.101 299.816 220.829 300.084 221.405 300.62C221.989 301.156 222.281 301.952 222.281 303.008V303.488H217.757C217.781 304.008 217.929 304.412 218.201 304.7C218.473 304.988 218.845 305.132 219.317 305.132C220.069 305.132 220.505 304.84 220.625 304.256H222.269C222.165 304.936 221.853 305.46 221.333 305.828C220.813 306.188 220.125 306.368 219.269 306.368ZM217.781 302.42H220.589C220.533 301.484 220.077 301.016 219.221 301.016C218.829 301.016 218.505 301.14 218.249 301.388C218.001 301.628 217.845 301.972 217.781 302.42ZM223.42 306.236V299.96H225.16V301.16C225.56 300.304 226.236 299.872 227.188 299.864V301.484C226.516 301.476 226.008 301.6 225.664 301.856C225.328 302.104 225.16 302.516 225.16 303.092V306.236H223.42ZM230.611 306.368C229.763 306.368 229.103 306.188 228.631 305.828C228.159 305.468 227.907 304.948 227.875 304.268H229.495C229.535 304.564 229.639 304.788 229.807 304.94C229.975 305.084 230.239 305.156 230.599 305.156C231.255 305.156 231.583 304.928 231.583 304.472C231.583 304.264 231.487 304.104 231.295 303.992C231.103 303.88 230.775 303.792 230.311 303.728C229.463 303.6 228.863 303.392 228.511 303.104C228.167 302.816 227.995 302.372 227.995 301.772C227.995 301.148 228.235 300.668 228.715 300.332C229.203 299.988 229.791 299.816 230.479 299.816C232.063 299.816 232.927 300.464 233.071 301.76H231.475C231.379 301.256 231.051 301.004 230.491 301.004C230.211 301.004 229.991 301.064 229.831 301.184C229.679 301.304 229.603 301.46 229.603 301.652C229.603 301.852 229.687 302 229.855 302.096C230.031 302.192 230.351 302.272 230.815 302.336C231.663 302.456 232.279 302.656 232.663 302.936C233.055 303.216 233.251 303.672 233.251 304.304C233.251 304.976 233.019 305.488 232.555 305.84C232.099 306.192 231.451 306.368 230.611 306.368ZM234.402 306.236V299.96H236.13V306.236H234.402ZM235.962 298.844C235.77 299.02 235.534 299.108 235.254 299.108C234.974 299.108 234.738 299.02 234.546 298.844C234.362 298.66 234.27 298.432 234.27 298.16C234.27 297.888 234.362 297.664 234.546 297.488C234.738 297.304 234.974 297.212 235.254 297.212C235.534 297.212 235.77 297.304 235.962 297.488C236.154 297.664 236.25 297.888 236.25 298.16C236.25 298.432 236.154 298.66 235.962 298.844ZM239.517 304.544C239.789 304.88 240.169 305.048 240.657 305.048C241.145 305.048 241.521 304.88 241.785 304.544C242.057 304.208 242.193 303.74 242.193 303.14V303.056C242.193 302.456 242.057 301.988 241.785 301.652C241.521 301.308 241.145 301.136 240.657 301.136C240.177 301.136 239.801 301.304 239.529 301.64C239.257 301.968 239.121 302.432 239.121 303.032V303.128C239.121 303.728 239.253 304.2 239.517 304.544ZM240.645 306.368C239.693 306.368 238.905 306.076 238.281 305.492C237.657 304.9 237.345 304.124 237.345 303.164V303.068C237.345 302.1 237.657 301.316 238.281 300.716C238.905 300.116 239.697 299.816 240.657 299.816C241.617 299.816 242.405 300.112 243.021 300.704C243.645 301.288 243.957 302.064 243.957 303.032V303.128C243.957 304.104 243.645 304.888 243.021 305.48C242.397 306.072 241.605 306.368 240.645 306.368ZM245.123 306.236V299.96H246.863V300.956C247.031 300.62 247.287 300.348 247.631 300.14C247.983 299.924 248.407 299.816 248.903 299.816C249.551 299.816 250.063 300.02 250.439 300.428C250.823 300.828 251.015 301.432 251.015 302.24V306.236H249.275V302.492C249.275 302.06 249.187 301.744 249.011 301.544C248.835 301.336 248.555 301.232 248.171 301.232C247.779 301.232 247.463 301.352 247.223 301.592C246.983 301.824 246.863 302.164 246.863 302.612V306.236H245.123ZM254.786 306.368C253.938 306.368 253.278 306.188 252.806 305.828C252.334 305.468 252.082 304.948 252.05 304.268H253.67C253.71 304.564 253.814 304.788 253.982 304.94C254.15 305.084 254.414 305.156 254.774 305.156C255.43 305.156 255.758 304.928 255.758 304.472C255.758 304.264 255.662 304.104 255.47 303.992C255.278 303.88 254.95 303.792 254.486 303.728C253.638 303.6 253.038 303.392 252.686 303.104C252.342 302.816 252.17 302.372 252.17 301.772C252.17 301.148 252.41 300.668 252.89 300.332C253.378 299.988 253.966 299.816 254.654 299.816C256.238 299.816 257.102 300.464 257.246 301.76H255.65C255.554 301.256 255.226 301.004 254.666 301.004C254.386 301.004 254.166 301.064 254.006 301.184C253.854 301.304 253.778 301.46 253.778 301.652C253.778 301.852 253.862 302 254.03 302.096C254.206 302.192 254.526 302.272 254.99 302.336C255.838 302.456 256.454 302.656 256.838 302.936C257.23 303.216 257.426 303.672 257.426 304.304C257.426 304.976 257.194 305.488 256.73 305.84C256.274 306.192 255.626 306.368 254.786 306.368Z" fill="#006291"/>
<path d="M516.937 145.102C515.929 145.102 515.157 144.858 514.621 144.37C514.093 143.874 513.805 143.222 513.757 142.414H515.545C515.601 142.814 515.729 143.114 515.929 143.314C516.129 143.514 516.461 143.614 516.925 143.614C517.357 143.614 517.689 143.478 517.921 143.206C518.153 142.926 518.269 142.554 518.269 142.09C518.269 141.626 518.145 141.262 517.897 140.998C517.649 140.726 517.309 140.59 516.877 140.59C516.181 140.59 515.633 140.818 515.233 141.274H514.153L514.273 136.39H519.709V137.866H515.725L515.689 140.014C516.121 139.486 516.757 139.222 517.597 139.222C518.389 139.222 519.025 139.482 519.505 140.002C519.985 140.514 520.225 141.218 520.225 142.114C520.225 143.026 519.925 143.754 519.325 144.298C518.725 144.834 517.929 145.102 516.937 145.102ZM525.017 143.578C526.193 143.578 526.781 142.67 526.781 140.854V140.47C526.781 139.598 526.629 138.93 526.325 138.466C526.029 138.002 525.585 137.77 524.993 137.77C523.785 137.77 523.181 138.67 523.181 140.47V140.878C523.181 142.678 523.793 143.578 525.017 143.578ZM524.969 145.102C523.825 145.102 522.917 144.726 522.245 143.974C521.573 143.222 521.237 142.194 521.237 140.89V140.482C521.237 139.178 521.581 138.15 522.269 137.398C522.957 136.646 523.861 136.27 524.981 136.27C526.109 136.27 527.013 136.638 527.693 137.374C528.373 138.11 528.713 139.134 528.713 140.446V140.842C528.713 142.154 528.377 143.194 527.705 143.962C527.041 144.722 526.129 145.102 524.969 145.102Z" fill="#006291"/>
<path d="M511.64 227.078C512.816 227.078 513.404 226.17 513.404 224.354V223.97C513.404 223.098 513.252 222.43 512.948 221.966C512.652 221.502 512.208 221.27 511.616 221.27C510.408 221.27 509.804 222.17 509.804 223.97V224.378C509.804 226.178 510.416 227.078 511.64 227.078ZM511.592 228.602C510.448 228.602 509.54 228.226 508.868 227.474C508.196 226.722 507.86 225.694 507.86 224.39V223.982C507.86 222.678 508.204 221.65 508.892 220.898C509.58 220.146 510.484 219.77 511.604 219.77C512.732 219.77 513.636 220.138 514.316 220.874C514.996 221.61 515.336 222.634 515.336 223.946V224.342C515.336 225.654 515 226.694 514.328 227.462C513.664 228.222 512.752 228.602 511.592 228.602ZM517.029 228.578C516.733 228.578 516.481 228.478 516.273 228.278C516.065 228.07 515.961 227.818 515.961 227.522C515.961 227.234 516.065 226.99 516.273 226.79C516.481 226.582 516.733 226.478 517.029 226.478C517.333 226.478 517.589 226.582 517.797 226.79C518.005 226.99 518.109 227.234 518.109 227.522C518.109 227.818 518.005 228.07 517.797 228.278C517.589 228.478 517.333 228.578 517.029 228.578ZM522.515 227.078C523.691 227.078 524.279 226.17 524.279 224.354V223.97C524.279 223.098 524.127 222.43 523.823 221.966C523.527 221.502 523.083 221.27 522.491 221.27C521.283 221.27 520.679 222.17 520.679 223.97V224.378C520.679 226.178 521.291 227.078 522.515 227.078ZM522.467 228.602C521.323 228.602 520.415 228.226 519.743 227.474C519.071 226.722 518.735 225.694 518.735 224.39V223.982C518.735 222.678 519.079 221.65 519.767 220.898C520.455 220.146 521.359 219.77 522.479 219.77C523.607 219.77 524.511 220.138 525.191 220.874C525.871 221.61 526.211 222.634 526.211 223.946V224.342C526.211 225.654 525.875 226.694 525.203 227.462C524.539 228.222 523.627 228.602 522.467 228.602ZM531.07 227.078C532.246 227.078 532.834 226.17 532.834 224.354V223.97C532.834 223.098 532.682 222.43 532.378 221.966C532.082 221.502 531.638 221.27 531.046 221.27C529.838 221.27 529.234 222.17 529.234 223.97V224.378C529.234 226.178 529.846 227.078 531.07 227.078ZM531.022 228.602C529.878 228.602 528.97 228.226 528.298 227.474C527.626 226.722 527.29 225.694 527.29 224.39V223.982C527.29 222.678 527.634 221.65 528.322 220.898C529.01 220.146 529.914 219.77 531.034 219.77C532.162 219.77 533.066 220.138 533.746 220.874C534.426 221.61 534.766 222.634 534.766 223.946V224.342C534.766 225.654 534.43 226.694 533.758 227.462C533.094 228.222 532.182 228.602 531.022 228.602Z" fill="#006291"/>
</svg>
