<svg width="50" height="44" viewBox="0 0 50 44" fill="none" xmlns="http://www.w3.org/2000/svg">
<path d="M24.9995 6.92773C25.5388 6.92773 25.9761 6.49042 25.9761 5.95117V0.976562C25.9761 0.437304 25.5389 0 24.9995 0C24.4602 0 24.0229 0.437207 24.0229 0.976562V5.95117C24.023 6.49042 24.4603 6.92773 24.9995 6.92773Z" fill="#006290"/>
<path d="M17.6587 8.53158C17.8443 8.82621 18.1614 8.98753 18.4857 8.98753C18.6637 8.98753 18.8438 8.9389 19.0055 8.83705C19.4617 8.54955 19.5984 7.94652 19.3109 7.49017L16.709 3.36176C16.4214 2.90551 15.8184 2.76869 15.3622 3.05629C14.906 3.34379 14.7692 3.94682 15.0567 4.40316L17.6587 8.53158Z" fill="#006290"/>
<path d="M30.9993 8.83775C31.161 8.93941 31.3409 8.98795 31.5187 8.98795C31.8431 8.98795 32.1604 8.82642 32.346 8.5316L34.9452 4.40318C35.2325 3.94674 35.0955 3.34391 34.6391 3.05641C34.1824 2.7692 33.5798 2.90631 33.2924 3.36256L30.6932 7.49097C30.4059 7.94752 30.543 8.55035 30.9993 8.83775Z" fill="#006290"/>
<path d="M49.6852 22.9903L47.9884 19.9928C47.7226 19.5233 47.1267 19.3582 46.6576 19.624C46.1882 19.8898 46.0231 20.4856 46.2889 20.9548L47.9849 23.9511C48.0698 24.1017 48.0478 24.2469 48.0271 24.32C48.0071 24.3904 47.9523 24.5204 47.8087 24.5997L45.1937 26.0483C44.9613 26.1766 44.6581 26.0955 44.5315 25.8721L43.8671 24.6969C43.8644 24.6916 43.8612 24.6867 43.8584 24.6816L36.9902 12.5337C36.9054 12.3842 36.9269 12.2408 36.9472 12.1687C36.9668 12.0988 37.0213 11.9698 37.1649 11.8905L39.783 10.4416C40.0183 10.3114 40.3141 10.3905 40.4427 10.6184L41.9734 13.3228C42.2391 13.7922 42.8351 13.9571 43.3042 13.6916C43.7736 13.426 43.9387 12.8301 43.6731 12.3608L42.1431 9.65754C41.4905 8.50071 40.0079 8.08577 38.8378 8.73254L36.2197 10.1814C35.6532 10.4945 35.244 11.0119 35.0674 11.6388C34.9008 12.2298 34.9604 12.8468 35.2331 13.3883L33.7909 13.8063C33.1766 13.984 32.8037 14.0804 32.5968 14.0804C32.5959 14.0804 32.5951 14.0804 32.5944 14.0804C32.4519 14.0799 32.2965 14.0255 31.853 13.8575C31.6519 13.7814 31.4014 13.6864 31.0935 13.579L28.5383 12.6858C27.1251 12.1922 26.4877 12.2188 25.5643 12.303L21.2073 12.693C19.221 12.869 17.9547 13.317 17.2557 14.0941L14.7727 13.3746C15.0399 12.8355 15.0972 12.2244 14.9322 11.6388C14.7556 11.0123 14.3466 10.4949 13.7807 10.1819L11.1641 8.73235C9.99301 8.08499 8.50951 8.50012 7.85687 9.65666L0.317429 22.989C-0.00532469 23.5572 -0.0852074 24.2182 0.0927221 24.8501C0.26948 25.4776 0.678659 25.9956 1.24409 26.3083L3.86069 27.7576C4.23481 27.9645 4.64125 28.0627 5.04233 28.0627C5.89438 28.0627 6.7227 27.6194 7.16791 26.8334L7.44438 26.3443C8.19887 26.6765 8.83236 27.159 9.2641 27.7303C8.84242 28.2231 8.5768 28.8312 8.50229 29.4926C8.40385 30.3673 8.65092 31.2255 9.19799 31.9096C9.74037 32.5878 10.516 33.0157 11.3832 33.1165C11.2914 33.9838 11.5395 34.8336 12.0824 35.5101C12.6435 36.2116 13.4366 36.6209 14.2661 36.7175C14.1747 37.5835 14.4219 38.4325 14.9631 39.1094C15.5052 39.7891 16.281 40.2179 17.1492 40.3186C17.0573 41.1866 17.3053 42.0369 17.8482 42.7135C18.4952 43.5225 19.4505 43.9436 20.4149 43.9435C21.1348 43.9435 21.8598 43.7088 22.4651 43.2254L24.5098 41.5893C24.6722 41.4597 24.8197 41.3164 24.9525 41.1621L26.1204 42.0951C26.7244 42.5771 27.4478 42.8113 28.1667 42.8112C29.1316 42.8111 30.0884 42.3894 30.7363 41.5797C31.0779 41.1527 31.2941 40.6654 31.3917 40.1624C31.7332 40.2806 32.0938 40.3416 32.4613 40.3415C32.5846 40.3415 32.7086 40.3347 32.833 40.3209C33.708 40.2237 34.4904 39.7935 35.0341 39.1116C35.5779 38.4341 35.826 37.5844 35.7343 36.7172C36.5633 36.6204 37.3568 36.2112 37.9195 35.51C38.4801 34.8091 38.7051 33.9462 38.617 33.1163C39.4838 33.0153 40.259 32.5875 40.8001 31.9108C41.3476 31.2286 41.5957 30.3717 41.4987 29.4977C41.4251 28.8342 41.1593 28.224 40.7368 27.7299C41.1673 27.1588 41.7995 26.6757 42.5545 26.3438L42.8316 26.8338C43.2765 27.6195 44.1044 28.0626 44.9566 28.0626C45.3579 28.0625 45.7648 27.9643 46.1393 27.7572L48.7544 26.3086C49.3196 25.9961 49.7286 25.4789 49.9061 24.8525C50.085 24.2211 50.0067 23.5602 49.6852 22.9903ZM5.46811 25.8716C5.34116 26.0958 5.03774 26.1767 4.80639 26.0486L2.18989 24.5994C2.04702 24.5203 1.99252 24.3908 1.9726 24.3206C1.95219 24.2479 1.93042 24.1034 2.01655 23.9521L9.55717 10.6171C9.64349 10.4641 9.80619 10.3783 9.97513 10.3783C10.0574 10.3783 10.141 10.3986 10.2181 10.4412L12.8339 11.8903C12.8342 11.8905 12.8345 11.8906 12.8348 11.8907C12.978 11.9699 13.0324 12.0989 13.0521 12.1688C13.0724 12.2409 13.0939 12.3843 13.008 12.5355L5.46811 25.8716ZM12.5945 30.897C12.3191 31.1176 11.9713 31.2173 11.616 31.1777C11.2604 31.1383 10.9435 30.965 10.7234 30.6898C10.5028 30.414 10.4034 30.0663 10.4433 29.711C10.483 29.3572 10.6564 29.0419 10.9331 28.8217L14.5892 25.8992C15.163 25.4411 16.003 25.5354 16.4616 26.1081C16.6821 26.3838 16.7816 26.7309 16.7417 27.0851C16.7021 27.4381 16.5286 27.7531 16.2534 27.9721C16.2474 27.9769 16.2422 27.9822 16.2364 27.9872L12.5953 30.8963C12.5951 30.8965 12.5948 30.8968 12.5945 30.897ZM13.6066 34.289C13.3862 34.0143 13.2866 33.6681 13.3259 33.3142C13.3653 32.96 13.5388 32.6432 13.8144 32.4222L13.8147 32.422C13.8149 32.4219 13.8151 32.4217 13.8153 32.4216C13.8154 32.4216 13.8154 32.4215 13.8155 32.4214L19.0817 28.214C19.6554 27.7558 20.4955 27.8493 20.954 28.4229C21.1742 28.6982 21.2738 29.0448 21.2344 29.3989C21.1949 29.7534 21.0209 30.0702 20.7447 30.2909L15.4798 34.4968C14.9054 34.9552 14.0656 34.8627 13.6066 34.289ZM17.3818 38.3798C17.0263 38.3403 16.7097 38.1669 16.4893 37.8905C16.2691 37.6152 16.1696 37.2686 16.2089 36.9145C16.2484 36.5603 16.4221 36.2437 16.698 36.023C16.6982 36.0229 16.6985 36.0227 16.6987 36.0225L20.343 33.1111C20.3473 33.1078 20.352 33.105 20.3563 33.1016C20.9285 32.6435 21.7684 32.7367 22.2274 33.3088C22.448 33.5846 22.5475 33.9322 22.5075 34.2875C22.4677 34.6413 22.2944 34.9566 22.0177 35.1769L18.3617 38.0992C18.0855 38.3198 17.7373 38.419 17.3818 38.3798ZM23.78 39.1726C23.7405 39.5268 23.5669 39.8429 23.2906 40.0636L21.2457 41.7C20.6712 42.1585 19.8314 42.0662 19.3726 41.4924C19.1522 41.2179 19.0525 40.8714 19.0918 40.5168C19.1312 40.1622 19.3045 39.8459 19.5796 39.6262C19.5799 39.626 19.5803 39.6257 19.5806 39.6255L21.6249 37.9913C21.626 37.9904 21.6272 37.9897 21.6283 37.989C22.2022 37.531 23.0421 37.6248 23.5007 38.1978C23.7203 38.4727 23.8197 38.8186 23.78 39.1726ZM39.2759 30.6897C39.0558 30.9649 38.7388 31.1383 38.3833 31.1777C38.0281 31.2177 37.6802 31.1177 37.4048 30.897C37.4047 30.8969 37.4045 30.8968 37.4043 30.8967C37.4042 30.8966 37.404 30.8965 37.4039 30.8964L34.7908 28.8086C34.3694 28.4719 33.7549 28.5406 33.4184 28.9619C33.0818 29.3832 33.1504 29.9978 33.5717 30.3344L36.1839 32.4215C36.757 32.8804 36.8514 33.7187 36.3953 34.2889C35.9352 34.8623 35.0952 34.9556 34.5218 34.4963L31.6873 32.2344C31.2658 31.8981 30.6514 31.9671 30.315 32.3886C29.9786 32.8101 30.0476 33.4245 30.4692 33.7609L33.3023 36.0218C33.5783 36.2429 33.7521 36.5599 33.7915 36.9145C33.8309 37.2684 33.7313 37.6146 33.509 37.8915C33.2894 38.1669 32.9728 38.3402 32.6174 38.3798C32.2616 38.4189 31.9135 38.3196 31.6383 38.1L30.2279 36.9721C30.2255 36.9701 30.2234 36.9681 30.2209 36.9661L29.0293 36.0135L28.8066 35.8354C28.3852 35.4984 27.7707 35.5669 27.434 35.988C27.3919 36.0407 27.3561 36.0964 27.3266 36.1542C27.1852 36.4306 27.1875 36.7547 27.3202 37.0265C27.3817 37.1523 27.4701 37.2673 27.5867 37.3605L29.0048 38.4946C29.574 38.9543 29.6671 39.7897 29.2113 40.3596C28.7527 40.9329 27.9126 41.0266 27.3391 40.569L25.7302 39.2837C25.7972 38.4478 25.5495 37.6327 25.0257 36.9777C24.7001 36.5708 24.2963 36.2626 23.8529 36.0559C24.1779 35.605 24.3842 35.0753 24.4483 34.5058C24.5467 33.6312 24.2996 32.773 23.7516 32.0877C23.4259 31.6818 23.0226 31.3743 22.58 31.1681C22.9056 30.7158 23.1119 30.1851 23.1754 29.6147C23.2726 28.7421 23.0253 27.8856 22.4792 27.2026C21.5396 26.0278 19.9505 25.6707 18.628 26.232C18.5221 25.7459 18.3058 25.2873 17.9865 24.888C16.8558 23.4751 14.7853 23.244 13.3702 24.3731L10.7553 26.4632C10.164 25.7086 9.36019 25.0828 8.4098 24.6365L13.7886 15.1228L16.6525 15.9526C16.6656 16.1058 16.6904 16.2669 16.7319 16.4376C17.4251 19.288 20.0495 20.6161 23.5811 19.9045C26.5567 19.3058 27.7817 20.1977 30.2214 21.9743C30.4745 22.1586 30.7375 22.3501 31.0128 22.5473C32.7674 23.8061 34.6424 25.2857 35.8995 26.2885L39.0694 28.8219C39.3448 29.0416 39.5182 29.358 39.5575 29.7129C39.5969 30.0675 39.4973 30.414 39.2759 30.6897ZM39.2455 26.4626L37.1183 24.7625C35.8438 23.7458 33.9423 22.2455 32.1508 20.9602C31.8793 20.7657 31.6204 20.5772 31.3712 20.3957C28.8413 18.5534 27.0129 17.2224 23.1957 17.9901C22.0274 18.2255 19.2438 18.5008 18.6298 15.9766C18.5433 15.6202 18.6312 15.4978 18.6686 15.4455C18.7992 15.2635 19.3245 14.8204 21.3801 14.6384L25.7417 14.2481C26.4525 14.1832 26.809 14.1506 27.8938 14.5295L30.4492 15.4229C30.7333 15.5221 30.9605 15.608 31.161 15.684C32.3914 16.1501 32.7175 16.15 34.334 15.6821L36.218 15.1362L41.5896 24.6371C40.6389 25.0831 39.8358 25.7084 39.2455 26.4626Z" fill="#006290"/>
<path d="M44.9775 17.6357C45.5168 17.6357 45.9541 17.1971 45.9541 16.6577C45.9541 16.1184 45.5168 15.6812 44.9775 15.6812C44.4383 15.6812 44.001 16.1185 44.001 16.6577V16.6604C44.001 17.1998 44.4383 17.6357 44.9775 17.6357Z" fill="#006290"/>
</svg>
