<svg width="44" height="44" viewBox="0 0 44 44" fill="none" xmlns="http://www.w3.org/2000/svg">
<path d="M30.6457 31.8822L35.3379 27.4307C35.6817 27.1041 35.6989 26.5713 35.3723 26.2275C35.0457 25.8838 34.5129 25.8666 34.1692 26.1932L30.0786 30.0604L28.4114 28.3244C28.0848 27.9807 27.552 27.9807 27.2082 28.3072C26.8645 28.6338 26.8645 29.1666 27.1911 29.5104L29.4426 31.8479C29.6145 32.0197 29.8379 32.1057 30.0614 32.1057C30.2676 32.1057 30.4739 32.0369 30.6457 31.8822Z" fill="#006291"/>
<path d="M39.7541 27.4142C39.6854 27.0017 39.6166 26.7095 39.5307 26.5033C38.3448 22.997 35.0963 20.6252 31.3666 20.608H31.1088C27.4307 20.6423 24.1822 23.0142 23.0135 26.5033C22.9276 26.7267 22.8588 27.0189 22.7901 27.4314C22.5322 28.9095 22.7041 30.3877 23.2713 31.6939C23.2713 31.7111 23.2885 31.7455 23.3057 31.7627C23.3229 31.797 23.3229 31.8142 23.3401 31.8486C23.7869 32.8111 24.4229 33.9283 25.0416 35.0111C25.4197 35.6642 25.7979 36.3173 26.1244 36.9361C26.3479 37.3486 26.8635 37.5033 27.276 37.2798C27.6885 37.0564 27.8432 36.5408 27.6197 36.1283C27.276 35.4923 26.8979 34.822 26.5026 34.1517C25.9182 33.1205 25.2994 32.0548 24.8869 31.1611C24.8697 31.1267 24.8526 31.0923 24.8354 31.0408C24.3885 30.0095 24.2682 28.858 24.4572 27.7236C24.4744 27.6033 24.5432 27.2595 24.6119 27.0361C25.5572 24.2173 28.1697 22.3267 31.1604 22.2923H31.401C34.3401 22.3095 36.9526 24.2173 37.9151 27.0533C37.9838 27.2595 38.0526 27.6033 38.0698 27.7064C38.276 28.858 38.1385 29.9923 37.6916 31.058C37.6744 31.0923 37.6573 31.1267 37.6573 31.1611C37.2448 32.0548 36.626 33.1205 36.0416 34.1517C35.6463 34.822 35.2682 35.4923 34.9244 36.1283C34.701 36.5408 34.8557 37.0564 35.2682 37.2798C35.3885 37.3486 35.526 37.383 35.6635 37.383C35.9729 37.383 36.2651 37.2111 36.4198 36.9361C36.7463 36.3173 37.1244 35.6642 37.5026 35.0111C38.1213 33.9283 38.7573 32.8283 39.2041 31.8486C39.2041 31.8314 39.2213 31.797 39.2385 31.7798L39.2729 31.7111C39.8573 30.3877 40.0119 28.8923 39.7541 27.4142Z" fill="#006291"/>
<path d="M34.4612 38.3452H28.0846C27.7409 38.3452 27.4315 38.4998 27.2081 38.7577C26.9846 39.0155 26.8987 39.3592 26.9674 39.6858L27.2768 41.3014C27.3799 41.8342 27.844 42.2295 28.394 42.2295H28.6862C29.3221 43.003 30.2674 43.467 31.2815 43.467C32.2956 43.467 33.2409 43.003 33.8768 42.2295H34.169C34.719 42.2295 35.1831 41.8342 35.2862 41.3014L35.5956 39.6858C35.6643 39.3592 35.5784 39.0155 35.3549 38.7577C35.1143 38.4998 34.8049 38.3452 34.4612 38.3452ZM33.6878 40.528H33.4299C33.1206 40.528 32.8456 40.6827 32.6909 40.9405C32.3987 41.4389 31.8487 41.7483 31.2643 41.7483C30.6799 41.7483 30.1299 41.4389 29.8378 40.9405C29.6831 40.6827 29.4081 40.528 29.0987 40.528H28.8753L28.7893 40.0467H33.7909L33.6878 40.528Z" fill="#006291"/>
<path d="M12.6334 10.6389C15.4178 10.6389 17.6866 8.37015 17.6866 5.58578C17.6866 2.8014 15.4178 0.532654 12.6334 0.532654C9.84907 0.532654 7.58032 2.8014 7.58032 5.58578C7.58032 8.37015 9.84907 10.6389 12.6334 10.6389ZM12.6334 2.23422C14.4725 2.23422 15.985 3.74672 15.985 5.58578C15.985 7.42484 14.4725 8.93734 12.6334 8.93734C10.7944 8.93734 9.28189 7.42484 9.28189 5.58578C9.28189 3.74672 10.7944 2.23422 12.6334 2.23422Z" fill="#006291"/>
<path d="M18.7344 17.5653C18.2703 17.5309 17.8578 17.8919 17.8234 18.3559L17.05 29.7341C17.05 29.7684 17.0328 29.8028 17.0328 29.82L16.3109 40.8888C16.2766 41.37 15.8641 41.7653 15.3828 41.7653H9.88281C9.38437 41.7653 8.98906 41.3872 8.95469 40.8888L8.23281 29.82C8.21562 29.4763 7.975 29.1669 7.63125 29.0638C6.56563 28.7372 6.56562 28.7372 6.49687 27.5856L5.84375 15.8466V15.7263C6.80625 15.4341 8.49062 14.9013 9.29844 14.6435L12.0656 17.2216C12.3922 17.5309 12.9078 17.5309 13.2344 17.2216L16.0187 14.6091L24.1828 16.4481C24.3031 16.4825 24.4234 16.4825 24.5437 16.4481L32.2094 14.8841C32.6734 14.7981 32.9656 14.3341 32.8797 13.8872C32.7937 13.4403 32.3297 13.131 31.8828 13.2169L24.3891 14.7466L15.9672 12.8388C15.6922 12.77 15.4 12.856 15.1937 13.045L12.6328 15.4341L10.0891 13.045C9.86562 12.8388 9.53906 12.77 9.24687 12.856C9.24687 12.856 6.65156 13.681 5.32812 14.0763C4.55469 14.3169 4.125 14.9013 4.125 15.6919C4.125 15.7606 4.125 15.8981 4.125 15.8981L4.77812 27.4825L4.79531 27.6716C4.91562 29.4247 5.20781 29.9747 6.56562 30.4731L7.25312 40.9747C7.33906 42.3497 8.49062 43.4325 9.88281 43.4325H15.3828C16.7578 43.4325 17.9094 42.3497 18.0125 40.9747L18.7344 29.9919C18.7344 29.9575 18.7344 29.9403 18.7516 29.9059L19.5422 18.4419C19.5594 17.995 19.2156 17.5825 18.7344 17.5653Z" fill="#006291"/>
</svg>
