<svg width="50" height="50" viewBox="0 0 50 50" fill="none" xmlns="http://www.w3.org/2000/svg">
<path d="M20.6965 2.38328L18.6416 15.0786C18.556 15.6071 18.9121 16.106 19.4396 16.1969L29.6587 17.9589L25.9066 29.5831C25.893 29.628 25.7654 30.0759 26.0638 30.4692C26.3504 30.8471 26.7909 30.8592 26.843 30.8596H47.0678C48.6832 30.8596 49.9975 29.5454 49.9975 27.93V4.49246C49.9977 2.87712 48.6835 1.56287 47.0681 1.56287H21.6604C21.5699 1.56716 21.3058 1.59158 21.0589 1.7908C20.7862 2.01091 20.7143 2.29919 20.6965 2.38328ZM34.0638 7.42224C36.4059 9.78386 37.6931 12.8947 37.6931 16.2113C37.6931 19.4793 36.3734 22.6677 34.0649 25.0004H31.08C33.9121 23.0317 35.6911 19.7569 35.6911 16.2113C35.6911 12.5735 33.8647 9.35476 31.0812 7.42224H34.0638ZM36.656 7.42224H40.3302C40.7195 9.3325 42.2281 10.841 44.1384 11.2304V21.1923C42.2281 21.5816 40.7196 23.0902 40.3302 25.0005H36.65C38.5721 22.4898 39.6463 19.3835 39.6463 16.2114C39.6463 12.9887 38.5963 9.93494 36.656 7.42224ZM25.4126 15.245L24.7759 14.6083C24.6529 14.4853 24.5851 14.3219 24.5851 14.1479C24.5851 13.974 24.6528 13.8105 24.7759 13.6876C25.0297 13.4337 25.4428 13.4338 25.6966 13.6876C26.0779 14.0689 26.6963 14.0689 27.0777 13.6876C27.4592 13.3062 27.4591 12.6879 27.0777 12.3064C26.7651 11.9938 26.387 11.771 25.9744 11.6497V11.3285C25.9744 10.7891 25.5372 10.3519 24.9978 10.3519C24.4585 10.3519 24.0213 10.7891 24.0213 11.3285V11.8434C23.7933 11.9639 23.5823 12.119 23.3948 12.3065C22.9029 12.7984 22.632 13.4524 22.632 14.148C22.632 14.3636 22.6581 14.575 22.7087 14.7789L20.724 14.4367L21.7501 8.09753C22.7786 7.68699 23.8924 7.47117 24.9978 7.47117C29.8173 7.47117 33.7381 11.392 33.7381 16.2114C33.7381 19.1162 32.277 21.7988 29.9526 23.4065L31.863 17.4879C31.9499 17.2185 31.9157 16.9247 31.7693 16.6825C31.6228 16.4403 31.3785 16.2735 31.0996 16.2255L25.4126 15.245ZM48.0446 27.9301C48.0446 28.4685 47.6065 28.9066 47.0681 28.9066H28.1773L28.8078 26.9535H41.2088C41.7481 26.9535 42.1853 26.5163 42.1853 25.9769C42.1853 24.3615 43.4996 23.0472 45.115 23.0472C45.6544 23.0472 46.0916 22.61 46.0916 22.0707V10.3519C46.0916 9.81257 45.6544 9.37537 45.115 9.37537C43.4996 9.37537 42.1853 8.06111 42.1853 6.44568C42.1853 5.90632 41.7481 5.46912 41.2088 5.46912H22.1756L22.4917 3.51599H47.0682C47.6066 3.51599 48.0447 3.95408 48.0447 4.49255L48.0446 27.9301Z" fill="#006290"/>
<path d="M31.1018 33.8041L20.7262 32.0151L22.6267 20.274C22.6724 19.9914 22.5919 19.703 22.4063 19.485C22.2208 19.267 21.9489 19.1414 21.6627 19.1414H2.92969C1.31426 19.1414 0 20.4556 0 22.071V45.5085C0 47.124 1.31426 48.4382 2.92969 48.4382H26.8381C27.2618 48.4382 27.6373 48.1649 27.7675 47.7617L31.8652 35.0664C31.9521 34.797 31.918 34.5032 31.7716 34.261C31.625 34.0189 31.3807 33.8521 31.1018 33.8041ZM15.9349 42.5789C14.6 41.231 13.5766 39.5878 12.9694 37.8101C12.7951 37.2997 12.24 37.0274 11.7297 37.2016C11.2192 37.3759 10.9468 37.931 11.1212 38.4414C11.628 39.9252 12.3848 41.3278 13.3462 42.5789H9.66758C9.27822 40.6686 7.76973 39.1601 5.85938 38.7707V28.8089C7.76963 28.4196 9.27812 26.911 9.66758 25.0007H13.3462C12.3848 26.2518 11.6279 27.6544 11.1211 29.1383C10.9468 29.6488 11.2192 30.2038 11.7296 30.3781C11.8342 30.4138 11.9406 30.4308 12.0453 30.4308C12.4515 30.4308 12.8308 30.1753 12.9693 29.7696C13.5765 27.9919 14.6 26.3488 15.9349 25.0007H18.912C16.0518 26.9845 14.3065 30.2761 14.3065 33.7898C14.3065 37.4276 16.1329 40.6463 18.9164 42.5789H15.9349ZM2.92969 46.4851C2.39121 46.4851 1.95312 46.047 1.95312 45.5085V22.071C1.95312 21.5326 2.39121 21.0945 2.92969 21.0945H20.5153L20.1992 23.0476H8.78906C8.24971 23.0476 7.8125 23.4848 7.8125 24.0242C7.8125 25.6396 6.49824 26.9539 4.88281 26.9539C4.34346 26.9539 3.90625 27.3911 3.90625 27.9304V39.6492C3.90625 40.1885 4.34346 40.6257 4.88281 40.6257C6.49824 40.6257 7.8125 41.94 7.8125 43.5554C7.8125 44.0948 8.24971 44.532 8.78906 44.532H26.7575L26.127 46.4851H2.92969ZM27.524 42.1577C26.7053 42.4048 25.858 42.53 25.0001 42.53C20.1807 42.53 16.2599 38.6092 16.2599 33.7898C16.2599 31.1095 17.5023 28.5875 19.5685 26.9447L18.6438 32.6573C18.5582 33.1858 18.9143 33.6847 19.4418 33.7756L24.4721 34.6429L25.222 35.3929C25.3449 35.5159 25.4127 35.6793 25.4127 35.8533C25.4127 36.0272 25.345 36.1907 25.222 36.3136C24.9682 36.5674 24.5551 36.5674 24.3013 36.3136C23.9199 35.9323 23.3016 35.9323 22.9202 36.3136C22.5389 36.695 22.5389 37.3133 22.9202 37.6947C23.2386 38.0129 23.6193 38.2314 24.0234 38.3501V38.6727C24.0234 39.2121 24.4606 39.6493 25 39.6493C25.5394 39.6493 25.9766 39.2121 25.9766 38.6727V38.1569C26.2021 38.0381 26.4137 37.8841 26.603 37.6948C27.0949 37.2029 27.3658 36.5489 27.3658 35.8533C27.3658 35.6029 27.3302 35.3581 27.2623 35.1241L29.6608 35.5376L27.524 42.1577Z" fill="#006290"/>
<path d="M11.328 32.8132H11.3272C10.7879 32.8132 10.3511 33.2504 10.3511 33.7898C10.3511 34.3292 10.7887 34.7664 11.328 34.7664C11.8674 34.7664 12.3046 34.3292 12.3046 33.7898C12.3046 33.2504 11.8674 32.8132 11.328 32.8132Z" fill="#006290"/>
</svg>
