<svg width="538" height="322" viewBox="0 0 538 322" fill="none" xmlns="http://www.w3.org/2000/svg">
<path d="M472.096 53.803H490.993L450.057 0.874756L409.121 53.803H428.018V87.0406H472.096V53.803Z" fill="#95B0D6"/>
<path d="M64.7954 268.411H45.8984L86.8345 321.339L127.771 268.411H108.874V229.936H64.7954V268.411Z" fill="#95B0D6"/>
<path d="M144.737 252.256H132.699L144.737 267.836V268.411H145.179L157.681 284.544L170.161 268.411H170.604V267.836L182.641 252.256H170.604V229.936H144.737V252.256Z" fill="#95B0D6"/>
<path d="M386.084 67.3498H398.121L386.084 51.7918V51.2172H385.641L373.161 35.0625L360.659 51.2172H360.216V51.7918L348.179 67.3498H360.216V87.0405H386.084V67.3498Z" fill="#95B0D6"/>
<path d="M206.077 223.682V218.952H126.373C124.648 218.952 123.253 217.56 123.253 215.836V212.72H26.4674H18.4793H6.26489V217.803C6.26489 221.052 8.9202 223.704 12.173 223.704H206.077V223.682Z" fill="white"/>
<path d="M131.347 156.853L126.125 142.996H119.797L125.019 156.853C125.882 159.195 128.117 160.588 130.462 160.588C131.215 160.588 131.967 160.477 132.498 160.278C132.919 160.123 133.295 159.925 133.649 159.704C132.609 159.041 131.79 158.09 131.347 156.853Z" fill="white"/>
<path d="M109.93 116.72L115.417 131.262H121.724L113.094 108.322L109.93 116.72Z" fill="white"/>
<path d="M206.076 206.466V158.996H193.839C192.113 158.996 190.719 157.604 190.719 155.88C190.719 154.156 192.113 152.764 193.839 152.764H206.076V142.311H193.839C192.113 142.311 190.719 140.919 190.719 139.195C190.719 137.471 192.113 136.079 193.839 136.079H206.076V125.626H193.839C192.113 125.626 190.719 124.234 190.719 122.51C190.719 120.786 192.113 119.394 193.839 119.394H206.076V108.941H193.839C192.113 108.941 190.719 107.549 190.719 105.825C190.719 104.101 192.113 102.709 193.839 102.709H206.076V101.869C206.076 93.6923 212.736 87.0403 220.923 87.0403H316.802V28.4546H29.5859V206.488H206.076V206.466ZM55.6522 150.93V95.9243C55.6522 83.3718 65.8531 73.1839 78.4215 73.1839H136.219C148.787 73.1839 158.988 83.3718 158.988 95.9243V150.93C158.988 163.482 148.787 173.67 136.219 173.67H78.4215C65.8531 173.67 55.6522 163.482 55.6522 150.93Z" fill="white"/>
<path d="M77.4899 152.588C76.4278 155.681 77.9103 159.085 81.0082 160.256C81.6499 160.477 82.2916 160.565 83.0439 160.565C84.1724 160.565 85.2567 160.256 86.2082 159.659C83.9069 158.157 82.9112 155.239 83.8184 152.565L107.429 89.7366C107.937 88.4769 108.845 87.4825 109.951 86.8195C109 86.2449 107.915 85.9576 106.765 86.0018C104.419 85.8913 102.074 87.3941 101.1 89.7366L77.4899 152.588Z" fill="white"/>
<path d="M510.572 285.406H413.853V288.522C413.853 290.245 412.458 291.638 410.732 291.638H317.089C315.363 291.638 313.969 290.245 313.969 288.522V285.406H217.271H209.217H196.98V290.488C196.98 293.737 199.635 296.389 202.888 296.389H525.398C528.65 296.389 531.306 293.737 531.306 290.488V285.406H519.069H510.572Z" fill="white"/>
<path d="M534.404 279.174H522.167V101.869C522.167 93.6926 515.506 87.0407 507.319 87.0407H472.07H428.014H386.082H360.215H331.449V29.1621C331.449 20.9853 324.789 14.3334 316.602 14.3334H30.2042C22.017 14.3334 15.3565 20.9853 15.3565 29.1621V206.466H3.11999C1.39404 206.466 0 207.859 0 209.582V217.781C0 224.477 5.44339 229.914 12.148 229.914H64.7896H108.868H144.759H170.604H206.074V279.151H193.838C192.112 279.151 190.718 280.544 190.718 282.267V290.466C190.718 297.163 196.161 302.599 202.866 302.599H525.375C532.08 302.599 537.523 297.163 537.523 290.466V282.267C537.523 280.566 536.129 279.174 534.404 279.174ZM531.283 290.511C531.283 293.759 528.628 296.411 525.375 296.411H202.866C199.613 296.411 196.958 293.759 196.958 290.511V285.428H209.194H217.249H313.968V288.544C313.968 290.267 315.362 291.66 317.088 291.66H410.732C412.458 291.66 413.852 290.267 413.852 288.544V285.428H510.572H519.047H531.283V290.511ZM6.26211 217.803V212.72H18.4987H26.4867H123.251V215.836C123.251 217.56 124.645 218.952 126.371 218.952H206.074V223.682H12.148C8.89529 223.682 6.26211 221.052 6.26211 217.803ZM220.391 279.174V101.781H507.452V279.174H220.391ZM29.5846 28.4549H316.801V87.0407H220.922C212.735 87.0407 206.074 93.6926 206.074 101.869V102.687H193.838C192.112 102.687 190.718 104.079 190.718 105.803C190.718 107.527 192.112 108.919 193.838 108.919H206.074V119.372H193.838C192.112 119.372 190.718 120.764 190.718 122.488C190.718 124.212 192.112 125.604 193.838 125.604H206.074V136.057H193.838C192.112 136.057 190.718 137.45 190.718 139.173C190.718 140.897 192.112 142.289 193.838 142.289H206.074V152.742H193.838C192.112 152.742 190.718 154.135 190.718 155.858C190.718 157.582 192.112 158.974 193.838 158.974H206.074V206.444H29.5846V28.4549Z" fill="#C6DBF8"/>
<path d="M292.966 233.847C292.745 233.847 292.745 233.958 292.656 233.958H293.077C292.966 233.958 292.966 233.847 292.966 233.847Z" fill="white"/>
<path d="M286.774 228.079V165.162C286.774 161.847 289.452 159.306 292.638 159.306H287.659C287.549 159.306 287.549 159.306 287.549 159.306C287.327 159.306 287.327 159.306 287.239 159.306C284.03 159.306 281.375 161.869 281.375 165.162V228.079C281.375 231.284 284.052 233.936 287.239 233.936C287.349 233.936 287.349 233.825 287.549 233.825C287.549 233.825 287.549 233.936 287.659 233.936H292.638C289.452 233.958 286.774 231.284 286.774 228.079Z" fill="white"/>
<path d="M507.456 101.781H220.395V279.173H507.456V101.781ZM443.905 159.947H451.429C453.155 159.947 454.549 161.339 454.549 163.063C454.549 164.786 453.155 166.179 451.429 166.179H443.905C442.179 166.179 440.785 164.786 440.785 163.063C440.785 161.339 442.179 159.947 443.905 159.947ZM424.212 159.947H431.735C433.461 159.947 434.855 161.339 434.855 163.063C434.855 164.786 433.461 166.179 431.735 166.179H424.212C422.486 166.179 421.092 164.786 421.092 163.063C421.092 161.339 422.486 159.947 424.212 159.947ZM403.921 159.947H411.444C413.17 159.947 414.564 161.339 414.564 163.063C414.564 164.786 413.17 166.179 411.444 166.179H403.921C402.195 166.179 400.801 164.786 400.801 163.063C400.801 161.339 402.195 159.947 403.921 159.947ZM387.104 180.764H468.954C470.68 180.764 472.074 182.157 472.074 183.88C472.074 185.604 470.68 186.996 468.954 186.996H387.104C385.378 186.996 383.984 185.604 383.984 183.88C383.984 182.157 385.378 180.764 387.104 180.764ZM387.104 197.449H468.954C470.68 197.449 472.074 198.842 472.074 200.565C472.074 202.289 470.68 203.681 468.954 203.681H387.104C385.378 203.681 383.984 202.289 383.984 200.565C383.984 198.842 385.378 197.449 387.104 197.449ZM354.709 223.637C354.709 236.19 344.508 246.378 331.94 246.378H274.142C261.574 246.378 251.373 236.19 251.373 223.637V168.632C251.373 156.079 261.574 145.891 274.142 145.891H331.94C344.508 145.891 354.709 156.079 354.709 168.632V223.637ZM468.954 237.074H387.104C385.378 237.074 383.984 235.682 383.984 233.958C383.984 232.234 385.378 230.842 387.104 230.842H468.954C470.68 230.842 472.074 232.234 472.074 233.958C472.074 235.682 470.68 237.074 468.954 237.074ZM468.954 220.389H387.104C385.378 220.389 383.984 218.996 383.984 217.273C383.984 215.549 385.378 214.157 387.104 214.157H468.954C470.68 214.157 472.074 215.549 472.074 217.273C472.074 218.974 470.68 220.389 468.954 220.389Z" fill="white"/>
<path d="M310.853 179.549C310.853 184.234 307.113 188.19 302.422 188.19H307.843C312.534 188.19 316.274 184.234 316.274 179.549C316.274 174.864 312.534 171.129 307.843 171.129H302.422C307.113 171.129 310.853 174.864 310.853 179.549Z" fill="white"/>
<path d="M317.579 211.019C317.579 217.207 312.667 222.002 306.582 222.113H312.003C318.088 222.002 323.001 217.207 323.001 211.019C323.001 204.941 318.088 200.146 312.003 200.035H306.582C312.667 200.146 317.579 204.941 317.579 211.019Z" fill="white"/>
<path d="M302.395 188.19C307.086 188.19 310.826 184.234 310.826 179.549C310.826 174.864 307.086 171.129 302.395 171.129H298.634V188.19H302.395Z" fill="#C6DBF8"/>
<path d="M317.575 211.019C317.575 204.941 312.662 200.146 306.577 200.035H298.634V222.113H306.577C312.662 222.002 317.575 217.207 317.575 211.019Z" fill="#C6DBF8"/>
<path d="M331.937 145.892H274.14C261.572 145.892 251.371 156.079 251.371 168.632V223.638C251.371 236.19 261.572 246.378 274.14 246.378H331.937C344.506 246.378 354.707 236.19 354.707 223.638V168.632C354.707 156.057 344.506 145.892 331.937 145.892ZM306.579 233.958H293.081H292.661H287.66C287.549 233.958 287.549 233.847 287.549 233.847C287.328 233.847 287.328 233.958 287.24 233.958C284.031 233.958 281.376 231.284 281.376 228.102V165.162C281.376 161.847 284.053 159.306 287.24 159.306C287.35 159.306 287.35 159.306 287.549 159.306C287.549 159.306 287.549 159.306 287.66 159.306H292.639H292.949H293.059H302.375H307.796C319.015 159.306 328.087 168.367 328.087 179.571C328.087 184.168 326.583 188.323 324.038 191.726C330.455 195.77 334.814 202.93 334.814 211.041C334.814 223.726 324.569 233.98 311.956 233.98H306.579V233.958Z" fill="#C6DBF8"/>
<path d="M104.445 131.262H115.421L109.933 116.72L104.445 131.262Z" fill="#C6DBF8"/>
<path d="M78.4177 173.671H136.215C148.783 173.671 158.984 163.483 158.984 150.93V95.9247C158.984 83.3722 148.783 73.1843 136.215 73.1843H78.4177C65.8493 73.1843 55.6484 83.3722 55.6484 95.9247V150.93C55.6484 163.483 65.8493 173.671 78.4177 173.671ZM106.763 86.0462C107.914 86.002 108.998 86.2893 109.95 86.8639C110.901 86.2893 112.007 86.002 113.092 86.0462C115.548 85.9357 117.783 87.4385 118.756 89.781L142.366 152.61C143.429 155.704 141.946 159.107 138.848 160.278C138.317 160.499 137.565 160.588 136.812 160.588C135.684 160.588 134.6 160.278 133.67 159.682C133.316 159.903 132.94 160.102 132.52 160.256C131.989 160.477 131.236 160.566 130.484 160.566C128.138 160.566 125.881 159.173 125.041 156.831L119.818 142.974H100.191L94.9249 156.853C93.9734 159.196 91.7164 160.588 89.3709 160.588C88.6185 160.588 87.9769 160.477 87.3351 160.278C86.9147 160.124 86.5386 159.925 86.1845 159.704C85.233 160.278 84.1488 160.61 83.0203 160.61C82.2679 160.61 81.6262 160.499 80.9845 160.3C77.8867 159.129 76.382 155.704 77.4662 152.632L101.076 89.8031C102.05 87.4164 104.396 85.9357 106.763 86.0462Z" fill="#C6DBF8"/>
<path d="M387.1 186.996H468.95C470.676 186.996 472.07 185.604 472.07 183.88C472.07 182.157 470.676 180.764 468.95 180.764H387.1C385.374 180.764 383.98 182.157 383.98 183.88C383.98 185.604 385.374 186.996 387.1 186.996Z" fill="#006290"/>
<path d="M387.1 203.682H468.95C470.676 203.682 472.07 202.289 472.07 200.566C472.07 198.842 470.676 197.45 468.95 197.45H387.1C385.374 197.45 383.98 198.842 383.98 200.566C383.98 202.289 385.374 203.682 387.1 203.682Z" fill="#006290"/>
<path d="M468.95 214.135H387.1C385.374 214.135 383.98 215.527 383.98 217.251C383.98 218.974 385.374 220.367 387.1 220.367H468.95C470.676 220.367 472.07 218.974 472.07 217.251C472.07 215.527 470.676 214.135 468.95 214.135Z" fill="#006290"/>
<path d="M468.95 230.82H387.1C385.374 230.82 383.98 232.212 383.98 233.936C383.98 235.66 385.374 237.052 387.1 237.052H468.95C470.676 237.052 472.07 235.66 472.07 233.936C472.07 232.234 470.676 230.82 468.95 230.82Z" fill="#006290"/>
<path d="M424.21 166.201H431.733C433.459 166.201 434.853 164.809 434.853 163.085C434.853 161.361 433.459 159.969 431.733 159.969H424.21C422.484 159.969 421.09 161.361 421.09 163.085C421.09 164.809 422.484 166.201 424.21 166.201Z" fill="#006290"/>
<path d="M443.902 166.201H451.426C453.152 166.201 454.546 164.809 454.546 163.085C454.546 161.361 453.152 159.969 451.426 159.969H443.902C442.176 159.969 440.782 161.361 440.782 163.085C440.782 164.809 442.176 166.201 443.902 166.201Z" fill="#006290"/>
<path d="M403.913 166.201H411.436C413.162 166.201 414.556 164.809 414.556 163.085C414.556 161.361 413.162 159.969 411.436 159.969H403.913C402.187 159.969 400.793 161.361 400.793 163.085C400.793 164.809 402.187 166.201 403.913 166.201Z" fill="#006290"/>
<path d="M334.832 211.018C334.832 202.908 330.451 195.77 324.056 191.703C326.623 188.3 328.106 184.123 328.106 179.549C328.106 168.344 319.033 159.283 307.815 159.283H302.393H293.078H292.967H292.657C289.449 159.283 286.793 161.847 286.793 165.14V228.057C286.793 231.261 289.471 233.913 292.657 233.913C292.768 233.913 292.768 233.803 292.967 233.803C292.967 233.803 292.967 233.913 293.078 233.913H306.576H311.997C324.587 233.958 334.832 223.703 334.832 211.018ZM298.632 200.035H306.576H311.997C318.082 200.145 322.994 204.941 322.994 211.018C322.994 217.206 318.082 222.002 311.997 222.112H306.576H298.632V200.035ZM302.393 171.129H307.815C312.506 171.129 316.245 174.864 316.245 179.549C316.245 184.234 312.506 188.19 307.815 188.19H302.393H298.632V171.129H302.393Z" fill="#006290"/>
<path d="M107.428 89.7588L83.8183 152.588C82.8889 155.262 83.8847 158.201 86.2081 159.682C86.5621 159.903 86.9383 160.101 87.3587 160.256C88.0004 160.477 88.6421 160.566 89.3945 160.566C91.74 160.566 93.997 159.173 94.9485 156.831L100.171 142.974H119.798H126.126L131.348 156.831C131.791 158.068 132.632 159.019 133.65 159.659C134.579 160.234 135.685 160.566 136.792 160.566C137.544 160.566 138.296 160.455 138.828 160.256C141.925 159.085 143.43 155.659 142.346 152.588L118.736 89.7588C117.784 87.4163 115.527 85.9135 113.071 86.024C111.987 85.9798 110.88 86.2671 109.929 86.8417C108.845 87.5047 107.937 88.5213 107.428 89.7588ZM115.417 131.262H104.441L109.929 116.72L113.093 108.322L121.723 131.262H115.417Z" fill="#006290"/>
</svg>
