<svg width="52" height="53" viewBox="0 0 52 53" fill="none" xmlns="http://www.w3.org/2000/svg">
<g clip-path="url(#clip0)">
<path fill-rule="evenodd" clip-rule="evenodd" d="M33.9479 6.55273H32.5479C31.9869 6.55273 31.5322 7.00778 31.5322 7.56836C31.5322 8.12933 31.9869 8.58398 32.5479 8.58398H33.9479C34.5089 8.58398 34.9635 8.12933 34.9635 7.56836C34.9635 7.00778 34.5089 6.55273 33.9479 6.55273Z" fill="#006291"/>
<path fill-rule="evenodd" clip-rule="evenodd" d="M42.321 6.55273H40.9209C40.3599 6.55273 39.9053 7.00778 39.9053 7.56836C39.9053 8.12933 40.3599 8.58398 40.9209 8.58398H42.321C42.8819 8.58398 43.3366 8.12933 43.3366 7.56836C43.3366 7.00778 42.8819 6.55273 42.321 6.55273Z" fill="#006291"/>
<path fill-rule="evenodd" clip-rule="evenodd" d="M38.1348 6.55273H36.7344C36.1734 6.55273 35.7188 7.00778 35.7188 7.56836C35.7188 8.12933 36.1734 8.58398 36.7344 8.58398H38.1348C38.6958 8.58398 39.1505 8.12933 39.1505 7.56836C39.1505 7.00778 38.6958 6.55273 38.1348 6.55273Z" fill="#006291"/>
<path fill-rule="evenodd" clip-rule="evenodd" d="M25.41 24.4817C25.5239 27.1263 27.7102 29.2428 30.3822 29.2428H37.0453C39.7898 29.2428 42.023 27.01 42.023 24.2655V22.6671C42.023 19.9225 39.7898 17.6897 37.0453 17.6897H30.3822C27.7102 17.6897 25.5239 19.8062 25.41 22.4504H21.1234C21.0099 19.8062 18.8235 17.6897 16.1516 17.6897H9.4881C6.74393 17.6897 4.51074 19.9225 4.51074 22.6671V24.2655C4.51074 27.01 6.74353 29.2428 9.4881 29.2428H16.1516C18.8235 29.2428 21.0099 27.1263 21.1234 24.4817H25.41ZM30.3822 19.7209H37.0457C38.6703 19.7209 39.9918 21.0424 39.9918 22.6671V24.2655C39.9918 25.8901 38.6703 27.2116 37.0457 27.2116H30.3822C28.8306 27.2116 27.5559 26.0055 27.4448 24.4817H30.5603C31.1213 24.4817 31.576 24.027 31.576 23.4661C31.576 22.9055 31.1213 22.4504 30.5603 22.4504H27.4448C27.5559 20.927 28.8306 19.7209 30.3822 19.7209ZM16.1516 27.2116H9.4881C7.86349 27.2116 6.54199 25.8901 6.54199 24.2655V22.6671C6.54199 21.0424 7.86349 19.7209 9.4881 19.7209H16.1516C17.7032 19.7209 18.9778 20.9266 19.0889 22.4504H15.9734C15.4124 22.4504 14.9578 22.9055 14.9578 23.4661C14.9578 24.027 15.4124 24.4817 15.9734 24.4817H19.0889C18.9778 26.0055 17.7032 27.2116 16.1516 27.2116Z" fill="#006291"/>
<path fill-rule="evenodd" clip-rule="evenodd" d="M46.8018 33.3403V4.14624C46.8018 3.58527 46.3472 3.13062 45.7862 3.13062H1.0166C0.455627 3.13062 0.000976562 3.58527 0.000976562 4.14624V10.991V10.993V44.726C0.000976562 45.287 0.455627 45.7416 1.0166 45.7416H13.9745C14.5355 45.7416 14.9902 45.287 14.9902 44.726C14.9902 44.1654 14.5355 43.7104 13.9745 43.7104H2.03223V12.0066H44.7706V32.623C44.1136 32.4746 43.4301 32.3961 42.7286 32.3961C37.616 32.3961 33.4567 36.5554 33.4567 41.6684C33.4567 42.3698 33.5352 43.053 33.6836 43.7104H22.0995C21.5386 43.7104 21.0839 44.165 21.0839 44.726C21.0839 45.287 21.5386 45.7416 22.0995 45.7416H34.4005C35.9113 48.8179 39.0764 50.9404 42.7286 50.9404C47.8413 50.9404 52.001 46.7811 52.001 41.668C52.001 38.0161 49.8781 34.8506 46.8018 33.3403ZM2.03223 9.97537V5.16187H44.7706V9.97537H2.03223ZM42.7286 48.9091C38.736 48.9091 35.4875 45.6611 35.4875 41.6684C35.4875 37.6758 38.736 34.4273 42.7286 34.4273C46.7213 34.4273 49.9697 37.6758 49.9697 41.6684C49.9697 45.6611 46.7213 48.9091 42.7286 48.9091Z" fill="#006291"/>
<path fill-rule="evenodd" clip-rule="evenodd" d="M46.1013 38.8693L41.3643 43.6062L39.3549 41.5972C38.9582 41.2004 38.3151 41.2004 37.9183 41.5972C37.522 41.9935 37.522 42.6366 37.9183 43.0333L40.6458 45.7608C40.8442 45.9592 41.1041 46.0584 41.3639 46.0584C41.6242 46.0584 41.884 45.9592 42.0824 45.7608L47.5374 40.3058C47.9338 39.9091 47.9338 39.266 47.5374 38.8693C47.1407 38.4729 46.4976 38.4729 46.1013 38.8693Z" fill="#006291"/>
<path fill-rule="evenodd" clip-rule="evenodd" d="M18.0371 43.7104C17.4777 43.7104 17.0215 44.1667 17.0215 44.7261C17.0215 45.2855 17.4777 45.7417 18.0371 45.7417C18.5965 45.7417 19.0527 45.2855 19.0527 44.7261C19.0527 44.1667 18.5965 43.7104 18.0371 43.7104Z" fill="#006291"/>
</g>
<defs>
<clipPath id="clip0">
<rect width="52" height="52" fill="white" transform="translate(0.000976562 0.997803)"/>
</clipPath>
</defs>
</svg>
