<svg width="44" height="44" viewBox="0 0 44 44" fill="none" xmlns="http://www.w3.org/2000/svg">
<path d="M14.9566 0.872925L0.880127 2.74996V43.3857L14.9672 39.629L28.99 43.1349L43.1201 41.25V0.755005L29.0366 2.63292L14.9566 0.872925ZM15.8401 2.757L28.1601 4.297V41.1127L15.8401 38.0327V2.757ZM2.64013 4.28996L14.0801 2.76492V38.0441L2.64013 41.0942V4.28996ZM41.3601 39.71L29.9201 41.235V4.28996L41.3601 2.76492V39.71Z" fill="#006291"/>
<path d="M33.4399 12.3199H31.6799V14.0799H33.4399V12.3199Z" fill="#006291"/>
<path d="M36.9602 14.96H35.2002V16.72H36.9602V14.96Z" fill="#006291"/>
<path d="M36.9602 19.36H35.2002V21.12H36.9602V19.36Z" fill="#006291"/>
<path d="M36.9602 23.7599H35.2002V25.5199H36.9602V23.7599Z" fill="#006291"/>
<path d="M33.4399 26.4H31.6799V28.16H33.4399V26.4Z" fill="#006291"/>
<path d="M25.5203 27.2799H23.7603V29.0399H25.5203V27.2799Z" fill="#006291"/>
<path d="M21.1201 28.1599H19.3601V29.9199H21.1201V28.1599Z" fill="#006291"/>
<path d="M12.3201 31.6799H10.5601V33.4399H12.3201V31.6799Z" fill="#006291"/>
<path d="M8.17808 24.8978L6.60024 26.4757L5.0224 24.8978L3.77808 26.1421L5.35592 27.72L3.77808 29.2978L5.0224 30.5422L6.60024 28.9643L8.17808 30.5422L9.4224 29.2978L7.84456 27.72L9.4224 26.1421L8.17808 24.8978Z" fill="#006291"/>
<path d="M24.3824 11.6977L22.8045 10.1199L24.3824 8.54205L23.138 7.29773L21.5602 8.87557L19.9824 7.29773L18.738 8.54205L20.3159 10.1199L18.738 11.6977L19.9824 12.942L21.5602 11.3642L23.138 12.942L24.3824 11.6977Z" fill="#006291"/>
</svg>
