<svg width="54" height="57" viewBox="0 0 54 57" fill="none" xmlns="http://www.w3.org/2000/svg">
<g filter="url(#filter0_d)">
<path d="M27.6292 24.179C27.6292 19.4587 23.9489 15.6184 19.4253 15.6184C17.871 15.6184 16.3561 16.0763 15.0444 16.9426C14.6251 17.2196 14.5004 17.7987 14.7657 18.2362C15.0311 18.6737 15.5862 18.8038 16.0054 18.527C16.765 18.0253 17.6349 17.6848 18.5269 17.5593V23.7907L14.3057 28.1954C13.5892 27.2008 13.1462 25.9994 13.0441 24.759C13.0016 24.2432 12.5669 23.8607 12.072 23.9053C11.5776 23.9496 11.2113 24.4037 11.2538 24.9195C11.2744 25.1698 11.3056 25.4182 11.3471 25.6642C11.6165 27.2628 12.32 28.7563 13.3741 29.9579C13.4553 30.0504 13.5385 30.1412 13.6238 30.2303C13.6243 30.2308 13.6247 30.231 13.6251 30.2315C15.174 31.8489 17.2338 32.7396 19.4254 32.7396C23.9489 32.7395 27.6292 28.8993 27.6292 24.179ZM20.0606 24.8419C20.2291 24.6661 20.3237 24.4276 20.3237 24.179V17.5605C23.4326 18.0179 25.8323 20.8108 25.8323 24.179C25.8323 27.8654 22.9581 30.8646 19.4253 30.8646C18.0172 30.8646 16.6793 30.3929 15.5753 29.5223L20.0606 24.8419Z" fill="#006291"/>
<path d="M24.6159 35.4505C24.3477 35.0229 23.7752 34.9113 23.3707 35.1917C22.9628 35.4745 22.852 36.0669 23.1227 36.4911C23.7652 37.4979 25.259 36.4561 24.6159 35.4505Z" fill="#006291"/>
<path d="M28.3434 39.6007C28.1552 39.1292 27.6228 38.898 27.17 39.0935C26.7174 39.2889 26.4968 39.8459 26.6839 40.3179C27.127 41.4353 28.789 40.7168 28.3434 39.6007Z" fill="#006291"/>
<path d="M26.9324 35.3081L23.1103 39.2965C22.7595 39.6625 22.7595 40.2562 23.1103 40.6223C23.2858 40.8054 23.5157 40.8969 23.7456 40.8969C23.9755 40.8969 24.2055 40.8053 24.3809 40.6223L28.203 36.6339C28.5538 36.2678 28.5538 35.6741 28.203 35.3081C27.8521 34.9419 27.2834 34.942 26.9324 35.3081Z" fill="#006291"/>
<path d="M45.5494 0.76001H32.3405C30.3249 0.76001 28.6851 2.47104 28.6851 4.57432V9.1977L28.6084 9.27982H9.51991C7.51945 9.27982 5.89202 10.9781 5.89202 13.0655V14.6267H4.89844C4.40223 14.6267 4 15.0464 4 15.5642C4 16.0819 4.40223 16.5017 4.89844 16.5017H5.89202V20.3224H4.89844C4.40223 20.3224 4 20.7421 4 21.2599C4 21.7776 4.40223 22.1974 4.89844 22.1974H5.89202V26.018H4.89844C4.40223 26.018 4 26.4378 4 26.9555C4 27.4733 4.40223 27.893 4.89844 27.893H5.89202V31.7138H4.89844C4.40223 31.7138 4 32.1335 4 32.6513C4 33.1691 4.40223 33.5888 4.89844 33.5888H5.89202V37.4095H4.89844C4.40223 37.4095 4 37.8292 4 38.347C4 38.8648 4.40223 39.2845 4.89844 39.2845H5.89202V40.9694C5.89202 43.0568 7.51954 44.755 9.51991 44.755H10.5027V45.2581C10.5027 47.189 12.0078 48.76 13.8577 48.76H35.1039C35.6 48.76 36.0023 48.3403 36.0023 47.8225V38.2964C36.0023 37.7786 35.6 37.3589 35.1039 37.3589C34.6078 37.3589 34.2055 37.7786 34.2055 38.2964V46.885H13.8577C12.9986 46.885 12.2996 46.1552 12.2996 45.2581V44.755H31.3397C31.8358 44.755 32.2382 44.3353 32.2382 43.8175V22.1956C32.2623 22.1962 32.2866 22.1964 32.3107 22.1966C32.3207 22.1967 32.3305 22.1974 32.3406 22.1974H34.2056V30.0276C34.2056 30.5454 34.6079 30.9651 35.104 30.9651C35.6001 30.9651 36.0024 30.5454 36.0024 30.0276V22.1974H45.5495C47.5651 22.1974 49.2049 20.4863 49.2049 18.383V4.57432C49.2047 2.47104 47.565 0.76001 45.5494 0.76001V0.76001ZM30.4413 42.8801H9.51991C8.51025 42.8801 7.68889 42.0229 7.68889 40.9695V39.2847H8.68293C9.17913 39.2847 9.58136 38.865 9.58136 38.3472C9.58136 37.8294 9.17913 37.4097 8.68293 37.4097H7.68889V33.589H8.68293C9.17913 33.589 9.58136 33.1693 9.58136 32.6515C9.58136 32.1337 9.17913 31.714 8.68293 31.714H7.68889V27.8931H8.68293C9.17913 27.8931 9.58136 27.4734 9.58136 26.9556C9.58136 26.4379 9.17913 26.0181 8.68293 26.0181H7.68889V22.1974H8.68293C9.17913 22.1974 9.58136 21.7777 9.58136 21.2599C9.58136 20.7422 9.17913 20.3224 8.68293 20.3224H7.68889V16.5018H8.68293C9.17913 16.5018 9.58136 16.082 9.58136 15.5643C9.58136 15.0465 9.17913 14.6268 8.68293 14.6268H7.68889V13.0656C7.68889 12.0121 8.51033 11.1549 9.51991 11.1549H26.8572L24.7006 13.4637C24.1569 14.0459 24.5668 15.0556 25.3443 15.0556H28.6852V18.3832C28.6852 19.7048 29.3562 20.9604 30.4413 21.644V42.8801ZM47.4078 18.3831C47.4078 19.4524 46.5742 20.3224 45.5493 20.3224L32.3401 20.3221C31.331 20.3221 30.4821 19.4379 30.4821 18.3832V14.118C30.4821 13.6002 30.0798 13.1805 29.5836 13.1805H27.4744L30.2269 10.2333C30.3904 10.0581 30.482 9.82339 30.482 9.57898V4.57432C30.482 3.50501 31.3156 2.63501 32.3405 2.63501H45.5494C46.5742 2.63501 47.4079 3.50492 47.4079 4.57432V18.3831H47.4078Z" fill="#006291"/>
<path d="M35.9335 33.8031C35.7452 33.3314 35.2131 33.1005 34.7601 33.2959C34.3079 33.491 34.0872 34.049 34.2741 34.5203C34.4613 34.9925 34.9952 35.2227 35.4475 35.0275C35.9013 34.8317 36.1192 34.2758 35.9335 33.8031Z" fill="#006291"/>
<path d="M38.9003 6.17065C33.8363 6.17065 31.5525 10.2544 31.4578 10.4283C31.3012 10.7157 31.3012 11.0679 31.4578 11.3552C31.5525 11.529 33.8363 15.6129 38.9003 15.6129C43.9643 15.6129 46.248 11.529 46.3427 11.3552C46.4993 11.0679 46.4993 10.7157 46.3427 10.4283C46.248 10.2545 43.9643 6.17065 38.9003 6.17065ZM38.9003 12.5256C37.9698 12.5256 37.2128 11.7357 37.2128 10.7647C37.2128 9.79372 37.9698 9.00378 38.9003 9.00378C39.8308 9.00378 40.5878 9.79372 40.5878 10.7647C40.5878 11.7357 39.8308 12.5256 38.9003 12.5256ZM33.3272 10.8937C33.76 10.3092 34.6579 9.30153 36.0653 8.65475C35.6572 9.25025 35.4159 9.9784 35.4159 10.7647C35.4159 11.7336 35.7817 12.6145 36.3758 13.2669C34.7841 12.6361 33.7905 11.5238 33.3272 10.8937ZM41.4248 13.2668C42.0189 12.6144 42.3847 11.7335 42.3847 10.7647C42.3847 9.97522 42.1415 9.24425 41.7303 8.64753C43.1456 9.29272 44.0423 10.3032 44.4746 10.8915C44.0108 11.5227 43.0171 12.6358 41.4248 13.2668Z" fill="#006291"/>
<path d="M12.0399 21.1722C12.2225 21.6296 12.7462 21.8639 13.1899 21.6877C13.6547 21.5032 13.8866 20.9276 13.6962 20.4506C13.5155 19.9974 12.9976 19.7662 12.5575 19.9357C12.0914 20.1151 11.8484 20.6927 12.0399 21.1722Z" fill="#006291"/>
</g>
<defs>
<filter id="filter0_d" x="0" y="0.76001" width="53.2049" height="56" filterUnits="userSpaceOnUse" color-interpolation-filters="sRGB">
<feFlood flood-opacity="0" result="BackgroundImageFix"/>
<feColorMatrix in="SourceAlpha" type="matrix" values="0 0 0 0 0 0 0 0 0 0 0 0 0 0 0 0 0 0 127 0"/>
<feOffset dy="4"/>
<feGaussianBlur stdDeviation="2"/>
<feColorMatrix type="matrix" values="0 0 0 0 0 0 0 0 0 0 0 0 0 0 0 0 0 0 0.25 0"/>
<feBlend mode="normal" in2="BackgroundImageFix" result="effect1_dropShadow"/>
<feBlend mode="normal" in="SourceGraphic" in2="effect1_dropShadow" result="shape"/>
</filter>
</defs>
</svg>
