<svg width="540" height="548" viewBox="0 0 540 548" fill="none" xmlns="http://www.w3.org/2000/svg">
<path d="M153.5 87L148.06 85.066L149.105 90.7441L153.5 87ZM92.4019 130.297C96.8632 124.271 104.906 115.184 114.922 106.894C124.943 98.5997 136.899 91.1359 149.187 88.3017L148.962 87.3273C136.459 90.2113 124.361 97.783 114.285 106.123C104.203 114.468 96.1047 123.615 91.5981 129.703L92.4019 130.297Z" fill="black"/>
<path d="M366.926 499.279L372.366 501.213L371.321 495.535L366.926 499.279ZM428.024 455.982C423.563 462.009 415.519 471.095 405.504 479.386C395.483 487.68 383.527 495.143 371.239 497.978L371.464 498.952C383.967 496.068 396.064 488.496 406.141 480.156C416.223 471.811 424.321 462.665 428.828 456.577L428.024 455.982Z" fill="black"/>
<path d="M428.427 131.396L428.642 125.626L423.538 128.324L428.427 131.396ZM368.812 86.0771C375.899 88.5278 386.978 93.4789 397.888 100.551C408.804 107.626 419.507 116.796 425.892 127.671L426.755 127.164C420.257 116.099 409.409 106.826 398.432 99.7115C387.45 92.5933 376.297 87.6076 369.139 85.1321L368.812 86.0771Z" fill="black"/>
<path d="M91.9992 454.883L91.7839 460.653L96.8881 457.955L91.9992 454.883ZM151.614 500.202C144.527 497.751 133.448 492.8 122.538 485.728C111.622 478.653 100.919 469.483 94.5334 458.608L93.6711 459.115C100.169 470.18 111.017 479.453 121.994 486.568C132.976 493.686 144.128 498.671 151.287 501.147L151.614 500.202Z" fill="black"/>
<path d="M480 299.5L484.377 295.735L478.928 293.827L480 299.5ZM479.513 250.614C480.636 255.406 481.965 263.064 482.533 271.268C483.101 279.48 482.904 288.194 481.004 295.122L481.969 295.387C483.913 288.298 484.102 279.452 483.53 271.199C482.958 262.938 481.621 255.227 480.487 250.386L479.513 250.614Z" fill="black"/>
<path d="M46.3125 250.5L41.9356 254.265L47.3847 256.173L46.3125 250.5ZM46.7993 299.386C45.6762 294.594 44.3478 286.936 43.7798 278.732C43.2112 270.52 43.408 261.806 45.3082 254.878L44.3439 254.613C42.3996 261.702 42.2108 270.548 42.7822 278.801C43.3541 287.062 44.6911 294.773 45.8257 299.614L46.7993 299.386Z" fill="black"/>
<path d="M1.312 207V195.56H3.44V200.424H8.576V195.56H10.72V207H8.576V202.136H3.44V207H1.312ZM16.0796 207V202.04L12.2876 195.56H14.6396L17.2156 200.296L19.7276 195.56H21.8076L18.2236 202.056V207H16.0796ZM23.3901 207V195.56H27.0701C28.3928 195.56 29.4275 195.859 30.1741 196.456C30.9315 197.043 31.3101 197.923 31.3101 199.096V199.16C31.3101 200.323 30.9315 201.197 30.1741 201.784C29.4168 202.36 28.3981 202.648 27.1181 202.648H25.5181V207H23.3901ZM25.5181 201.112H27.0701C27.7741 201.112 28.3075 200.947 28.6701 200.616C29.0435 200.275 29.2301 199.789 29.2301 199.16V199.096C29.2301 197.837 28.5101 197.208 27.0701 197.208H25.5181V201.112ZM38.4663 205.448C39.5436 205.448 40.3969 205.075 41.0263 204.328C41.6663 203.571 41.9863 202.568 41.9863 201.32V201.192C41.9863 199.987 41.6663 199.005 41.0263 198.248C40.3969 197.48 39.5329 197.096 38.4343 197.096C37.3249 197.096 36.4503 197.469 35.8103 198.216C35.1809 198.963 34.8663 199.96 34.8663 201.208V201.336C34.8663 202.573 35.2023 203.571 35.8743 204.328C36.5463 205.075 37.4103 205.448 38.4663 205.448ZM38.4343 207.16C36.7063 207.16 35.3089 206.611 34.2423 205.512C33.1756 204.413 32.6423 203.027 32.6423 201.352V201.224C32.6423 199.549 33.1863 198.163 34.2743 197.064C35.3623 195.955 36.7489 195.4 38.4343 195.4C40.1303 195.4 41.5116 195.944 42.5783 197.032C43.6556 198.109 44.1943 199.491 44.1943 201.176V201.304C44.1943 203 43.6609 204.403 42.5943 205.512C41.5383 206.611 40.1516 207.16 38.4343 207.16ZM48.0531 207V197.24H44.8691V195.56H53.3811V197.24H50.1971V207H48.0531ZM55.0933 207V195.56H57.2213V200.424H62.3573V195.56H64.5013V207H62.3573V202.136H57.2213V207H55.0933ZM67.1089 207V195.56H74.2609V197.24H69.2369V200.376H73.2689V201.976H69.2369V205.32H74.5329V207H67.1089ZM80.3406 207.16C78.8473 207.16 77.7273 206.829 76.9806 206.168C76.2446 205.507 75.834 204.6 75.7486 203.448H77.7966C77.882 204.12 78.106 204.643 78.4686 205.016C78.8313 205.379 79.4553 205.56 80.3406 205.56C80.9806 205.56 81.498 205.4 81.8926 205.08C82.298 204.749 82.5006 204.323 82.5006 203.8C82.5006 203.267 82.3353 202.877 82.0046 202.632C81.674 202.387 81.0446 202.189 80.1166 202.04C78.698 201.848 77.6686 201.507 77.0286 201.016C76.3993 200.515 76.0846 199.741 76.0846 198.696C76.0846 197.747 76.4526 196.963 77.1886 196.344C77.9246 195.725 78.8846 195.416 80.0686 195.416C81.306 195.416 82.282 195.699 82.9966 196.264C83.7113 196.819 84.122 197.64 84.2286 198.728H82.2766C82.17 198.131 81.9406 197.699 81.5886 197.432C81.2366 197.155 80.73 197.016 80.0686 197.016C79.4393 197.016 78.954 197.155 78.6126 197.432C78.2713 197.699 78.1006 198.061 78.1006 198.52C78.1006 199.011 78.2553 199.379 78.5646 199.624C78.8846 199.869 79.5193 200.061 80.4686 200.2C81.8873 200.392 82.922 200.739 83.5726 201.24C84.2233 201.731 84.5486 202.525 84.5486 203.624C84.5486 204.637 84.1593 205.48 83.3806 206.152C82.602 206.824 81.5886 207.16 80.3406 207.16ZM86.6729 207V195.56H88.8169V207H86.6729ZM90.5551 207V206.712L96.3951 197.24H91.1471V195.56H99.4031V195.832L93.6911 205.288H99.2431V207H90.5551ZM101.25 207V195.56H108.402V197.24H103.378V200.376H107.41V201.976H103.378V205.32H108.674V207H101.25Z" fill="black"/>
<path d="M221.312 84V72.56H224.992C226.315 72.56 227.349 72.8587 228.096 73.456C228.853 74.0427 229.232 74.9227 229.232 76.096V76.16C229.232 77.3227 228.853 78.1973 228.096 78.784C227.339 79.36 226.32 79.648 225.04 79.648H223.44V84H221.312ZM223.44 78.112H224.992C225.696 78.112 226.229 77.9467 226.592 77.616C226.965 77.2747 227.152 76.7893 227.152 76.16V76.096C227.152 74.8373 226.432 74.208 224.992 74.208H223.44V78.112ZM231.062 84V72.56H234.902C236.214 72.56 237.254 72.8373 238.022 73.392C238.79 73.9467 239.174 74.7893 239.174 75.92V75.984C239.174 77.5947 238.326 78.6187 236.63 79.056L239.846 84H237.542L234.55 79.376H233.19V84H231.062ZM233.19 77.856H234.902C236.353 77.856 237.078 77.248 237.078 76.032V75.968C237.078 75.3387 236.891 74.8907 236.518 74.624C236.155 74.3467 235.617 74.208 234.902 74.208H233.19V77.856ZM241.61 84V72.56H243.754V84H241.61ZM251.701 82.448C252.778 82.448 253.631 82.0747 254.261 81.328C254.901 80.5707 255.221 79.568 255.221 78.32V78.192C255.221 76.9867 254.901 76.0053 254.261 75.248C253.631 74.48 252.767 74.096 251.669 74.096C250.559 74.096 249.685 74.4693 249.045 75.216C248.415 75.9627 248.101 76.96 248.101 78.208V78.336C248.101 79.5733 248.437 80.5707 249.109 81.328C249.781 82.0747 250.645 82.448 251.701 82.448ZM251.669 84.16C249.941 84.16 248.543 83.6107 247.477 82.512C246.41 81.4133 245.877 80.0267 245.877 78.352V78.224C245.877 76.5493 246.421 75.1627 247.509 74.064C248.597 72.9547 249.983 72.4 251.669 72.4C253.365 72.4 254.746 72.944 255.813 74.032C256.89 75.1093 257.429 76.4907 257.429 78.176V78.304C257.429 80 256.895 81.4027 255.829 82.512C254.773 83.6107 253.386 84.16 251.669 84.16ZM259.484 84V72.56H263.324C264.636 72.56 265.676 72.8373 266.444 73.392C267.212 73.9467 267.596 74.7893 267.596 75.92V75.984C267.596 77.5947 266.748 78.6187 265.052 79.056L268.268 84H265.964L262.972 79.376H261.612V84H259.484ZM261.612 77.856H263.324C264.775 77.856 265.5 77.248 265.5 76.032V75.968C265.5 75.3387 265.313 74.8907 264.94 74.624C264.577 74.3467 264.039 74.208 263.324 74.208H261.612V77.856ZM270.032 84V72.56H272.176V84H270.032ZM277.163 84V74.24H273.979V72.56H282.491V74.24H279.307V84H277.163ZM284.267 84V72.56H286.411V84H284.267ZM288.149 84V83.712L293.989 74.24H288.741V72.56H296.997V72.832L291.285 82.288H296.837V84H288.149ZM298.843 84V72.56H305.995V74.24H300.971V77.376H305.003V78.976H300.971V82.32H306.267V84H298.843Z" fill="black"/>
<path d="M441.44 200.32H442.688C443.947 200.32 444.891 199.979 445.52 199.296C446.16 198.603 446.48 197.611 446.48 196.32V196.192C446.48 193.557 445.211 192.24 442.672 192.24H441.44V200.32ZM439.312 202V190.56H442.784C444.725 190.56 446.197 191.067 447.2 192.08C448.203 193.083 448.704 194.443 448.704 196.16V196.304C448.704 198.032 448.197 199.413 447.184 200.448C446.171 201.483 444.693 202 442.752 202H439.312ZM450.734 202V190.56H457.886V192.24H452.862V195.376H456.894V196.976H452.862V200.32H458.158V202H450.734ZM463.966 202.16C462.472 202.16 461.352 201.829 460.606 201.168C459.87 200.507 459.459 199.6 459.374 198.448H461.422C461.507 199.12 461.731 199.643 462.094 200.016C462.456 200.379 463.08 200.56 463.966 200.56C464.606 200.56 465.123 200.4 465.518 200.08C465.923 199.749 466.126 199.323 466.126 198.8C466.126 198.267 465.96 197.877 465.63 197.632C465.299 197.387 464.67 197.189 463.742 197.04C462.323 196.848 461.294 196.507 460.654 196.016C460.024 195.515 459.71 194.741 459.71 193.696C459.71 192.747 460.078 191.963 460.814 191.344C461.55 190.725 462.51 190.416 463.694 190.416C464.931 190.416 465.907 190.699 466.622 191.264C467.336 191.819 467.747 192.64 467.854 193.728H465.902C465.795 193.131 465.566 192.699 465.214 192.432C464.862 192.155 464.355 192.016 463.694 192.016C463.064 192.016 462.579 192.155 462.238 192.432C461.896 192.699 461.726 193.061 461.726 193.52C461.726 194.011 461.88 194.379 462.19 194.624C462.51 194.869 463.144 195.061 464.094 195.2C465.512 195.392 466.547 195.739 467.198 196.24C467.848 196.731 468.174 197.525 468.174 198.624C468.174 199.637 467.784 200.48 467.006 201.152C466.227 201.824 465.214 202.16 463.966 202.16ZM470.298 202V190.56H472.442V202H470.298ZM480.276 202.16C478.484 202.16 477.081 201.627 476.068 200.56C475.065 199.483 474.564 198.08 474.564 196.352V196.224C474.564 194.517 475.097 193.12 476.164 192.032C477.231 190.933 478.601 190.384 480.276 190.384C481.599 190.384 482.713 190.704 483.62 191.344C484.537 191.984 485.065 192.949 485.204 194.24H483.076C482.831 192.789 481.908 192.064 480.308 192.064C479.199 192.064 478.329 192.443 477.7 193.2C477.081 193.957 476.772 194.971 476.772 196.24V196.368C476.772 197.637 477.071 198.645 477.668 199.392C478.265 200.128 479.145 200.496 480.308 200.496C481.321 200.496 482.079 200.229 482.58 199.696C483.092 199.163 483.364 198.469 483.396 197.616H480.516V196.016H485.492V197.072C485.492 198.651 485.028 199.893 484.1 200.8C483.172 201.707 481.897 202.16 480.276 202.16ZM487.546 202V190.56H490.09L494.906 198.832V190.56H496.842V202H494.634L489.482 193.232V202H487.546Z" fill="black"/>
<path d="M387.312 422V410.56H394.464V412.24H389.44V415.376H393.472V416.976H389.44V420.32H394.736V422H387.312ZM395.92 422L399.6 416.128L396.176 410.56H398.576L401.008 414.624L403.424 410.56H405.616L402.24 416.08L405.904 422H403.472L400.784 417.536L398.096 422H395.92ZM407.781 422V410.56H411.461C412.783 410.56 413.818 410.859 414.565 411.456C415.322 412.043 415.701 412.923 415.701 414.096V414.16C415.701 415.323 415.322 416.197 414.565 416.784C413.807 417.36 412.789 417.648 411.509 417.648H409.909V422H407.781ZM409.909 416.112H411.461C412.165 416.112 412.698 415.947 413.061 415.616C413.434 415.275 413.621 414.789 413.621 414.16V414.096C413.621 412.837 412.901 412.208 411.461 412.208H409.909V416.112ZM417.531 422V410.56H424.683V412.24H419.659V415.376H423.691V416.976H419.659V420.32H424.955V422H417.531ZM426.875 422V410.56H430.715C432.027 410.56 433.067 410.837 433.835 411.392C434.603 411.947 434.987 412.789 434.987 413.92V413.984C434.987 415.595 434.139 416.619 432.443 417.056L435.659 422H433.355L430.363 417.376H429.003V422H426.875ZM429.003 415.856H430.715C432.165 415.856 432.891 415.248 432.891 414.032V413.968C432.891 413.339 432.704 412.891 432.331 412.624C431.968 412.347 431.429 412.208 430.715 412.208H429.003V415.856ZM437.423 422V410.56H439.567V422H437.423ZM442.265 422V410.56H445.113L448.121 418.368L451.065 410.56H453.881V422H451.753V413.36L448.345 422H447.657L444.185 413.36V422H442.265ZM456.5 422V410.56H463.652V412.24H458.628V415.376H462.66V416.976H458.628V420.32H463.924V422H456.5ZM465.843 422V410.56H468.387L473.203 418.832V410.56H475.139V422H472.931L467.779 413.232V422H465.843ZM480.053 422V412.24H476.869V410.56H485.381V412.24H482.197V422H480.053ZM494.794 422.16C493.3 422.16 492.18 421.829 491.434 421.168C490.698 420.507 490.287 419.6 490.202 418.448H492.25C492.335 419.12 492.559 419.643 492.922 420.016C493.284 420.379 493.908 420.56 494.794 420.56C495.434 420.56 495.951 420.4 496.346 420.08C496.751 419.749 496.954 419.323 496.954 418.8C496.954 418.267 496.788 417.877 496.458 417.632C496.127 417.387 495.498 417.189 494.57 417.04C493.151 416.848 492.122 416.507 491.482 416.016C490.852 415.515 490.538 414.741 490.538 413.696C490.538 412.747 490.906 411.963 491.642 411.344C492.378 410.725 493.338 410.416 494.522 410.416C495.759 410.416 496.735 410.699 497.45 411.264C498.164 411.819 498.575 412.64 498.682 413.728H496.73C496.623 413.131 496.394 412.699 496.042 412.432C495.69 412.155 495.183 412.016 494.522 412.016C493.892 412.016 493.407 412.155 493.066 412.432C492.724 412.699 492.554 413.061 492.554 413.52C492.554 414.011 492.708 414.379 493.018 414.624C493.338 414.869 493.972 415.061 494.922 415.2C496.34 415.392 497.375 415.739 498.026 416.24C498.676 416.731 499.002 417.525 499.002 418.624C499.002 419.637 498.612 420.48 497.834 421.152C497.055 421.824 496.042 422.16 494.794 422.16ZM501.062 422V410.56H508.214V412.24H503.19V415.376H507.222V416.976H503.19V420.32H508.486V422H501.062ZM512.694 422V412.24H509.51V410.56H518.022V412.24H514.838V422H512.694ZM524.134 422.16C522.694 422.16 521.585 421.776 520.806 421.008C520.027 420.229 519.638 419.109 519.638 417.648V410.56H521.782V417.488C521.782 418.544 521.963 419.301 522.326 419.76C522.699 420.219 523.307 420.448 524.15 420.448C525.003 420.448 525.627 420.219 526.022 419.76C526.427 419.291 526.63 418.485 526.63 417.344V410.56H528.774V417.52C528.774 419.024 528.374 420.176 527.574 420.976C526.785 421.765 525.638 422.16 524.134 422.16ZM531.296 422V410.56H534.976C536.299 410.56 537.334 410.859 538.08 411.456C538.838 412.043 539.216 412.923 539.216 414.096V414.16C539.216 415.323 538.838 416.197 538.08 416.784C537.323 417.36 536.304 417.648 535.024 417.648H533.424V422H531.296ZM533.424 416.112H534.976C535.68 416.112 536.214 415.947 536.576 415.616C536.95 415.275 537.136 414.789 537.136 414.16V414.096C537.136 412.837 536.416 412.208 534.976 412.208H533.424V416.112Z" fill="black"/>
<path d="M204.312 545V533.56H207.16L210.168 541.368L213.112 533.56H215.928V545H213.8V536.36L210.392 545H209.704L206.232 536.36V545H204.312ZM218.546 545V533.56H225.698V535.24H220.674V538.376H224.706V539.976H220.674V543.32H225.97V545H218.546ZM227.01 545L230.834 533.56H233.618L237.394 545H235.186L234.274 542.168H229.906L229.01 545H227.01ZM232.098 535.304L230.402 540.616H233.778L232.098 535.304ZM242.794 545.16C241.3 545.16 240.18 544.829 239.434 544.168C238.698 543.507 238.287 542.6 238.202 541.448H240.25C240.335 542.12 240.559 542.643 240.922 543.016C241.284 543.379 241.908 543.56 242.794 543.56C243.434 543.56 243.951 543.4 244.346 543.08C244.751 542.749 244.954 542.323 244.954 541.8C244.954 541.267 244.788 540.877 244.458 540.632C244.127 540.387 243.498 540.189 242.57 540.04C241.151 539.848 240.122 539.507 239.482 539.016C238.852 538.515 238.538 537.741 238.538 536.696C238.538 535.747 238.906 534.963 239.642 534.344C240.378 533.725 241.338 533.416 242.522 533.416C243.759 533.416 244.735 533.699 245.45 534.264C246.164 534.819 246.575 535.64 246.682 536.728H244.73C244.623 536.131 244.394 535.699 244.042 535.432C243.69 535.155 243.183 535.016 242.522 535.016C241.892 535.016 241.407 535.155 241.066 535.432C240.724 535.699 240.554 536.061 240.554 536.52C240.554 537.011 240.708 537.379 241.018 537.624C241.338 537.869 241.972 538.061 242.922 538.2C244.34 538.392 245.375 538.739 246.026 539.24C246.676 539.731 247.002 540.525 247.002 541.624C247.002 542.637 246.612 543.48 245.834 544.152C245.055 544.824 244.042 545.16 242.794 545.16ZM253.384 545.16C251.944 545.16 250.835 544.776 250.056 544.008C249.277 543.229 248.888 542.109 248.888 540.648V533.56H251.032V540.488C251.032 541.544 251.213 542.301 251.576 542.76C251.949 543.219 252.557 543.448 253.4 543.448C254.253 543.448 254.877 543.219 255.272 542.76C255.677 542.291 255.88 541.485 255.88 540.344V533.56H258.024V540.52C258.024 542.024 257.624 543.176 256.824 543.976C256.035 544.765 254.888 545.16 253.384 545.16ZM260.546 545V533.56H264.386C265.698 533.56 266.738 533.837 267.506 534.392C268.274 534.947 268.658 535.789 268.658 536.92V536.984C268.658 538.595 267.81 539.619 266.114 540.056L269.33 545H267.026L264.034 540.376H262.674V545H260.546ZM262.674 538.856H264.386C265.837 538.856 266.562 538.248 266.562 537.032V536.968C266.562 536.339 266.376 535.891 266.002 535.624C265.64 535.347 265.101 535.208 264.386 535.208H262.674V538.856ZM271.031 545V533.56H278.183V535.24H273.159V538.376H277.191V539.976H273.159V543.32H278.455V545H271.031ZM280.375 545V533.56H283.223L286.231 541.368L289.175 533.56H291.991V545H289.863V536.36L286.455 545H285.767L282.295 536.36V545H280.375ZM294.609 545V533.56H301.761V535.24H296.737V538.376H300.769V539.976H296.737V543.32H302.033V545H294.609ZM303.953 545V533.56H306.497L311.313 541.832V533.56H313.249V545H311.041L305.889 536.232V545H303.953ZM318.163 545V535.24H314.979V533.56H323.491V535.24H320.307V545H318.163Z" fill="black"/>
<path d="M18.312 422V410.56H22.152C23.464 410.56 24.504 410.837 25.272 411.392C26.04 411.947 26.424 412.789 26.424 413.92V413.984C26.424 415.595 25.576 416.619 23.88 417.056L27.096 422H24.792L21.8 417.376H20.44V422H18.312ZM20.44 415.856H22.152C23.6027 415.856 24.328 415.248 24.328 414.032V413.968C24.328 413.339 24.1413 412.891 23.768 412.624C23.4053 412.347 22.8667 412.208 22.152 412.208H20.44V415.856ZM28.7964 422V410.56H35.9484V412.24H30.9244V415.376H34.9564V416.976H30.9244V420.32H36.2204V422H28.7964ZM42.0281 422.16C40.5348 422.16 39.4148 421.829 38.6681 421.168C37.9321 420.507 37.5215 419.6 37.4361 418.448H39.4841C39.5695 419.12 39.7935 419.643 40.1561 420.016C40.5188 420.379 41.1428 420.56 42.0281 420.56C42.6681 420.56 43.1855 420.4 43.5801 420.08C43.9855 419.749 44.1881 419.323 44.1881 418.8C44.1881 418.267 44.0228 417.877 43.6921 417.632C43.3615 417.387 42.7321 417.189 41.8041 417.04C40.3855 416.848 39.3561 416.507 38.7161 416.016C38.0868 415.515 37.7721 414.741 37.7721 413.696C37.7721 412.747 38.1401 411.963 38.8761 411.344C39.6121 410.725 40.5721 410.416 41.7561 410.416C42.9935 410.416 43.9695 410.699 44.6841 411.264C45.3988 411.819 45.8095 412.64 45.9161 413.728H43.9641C43.8575 413.131 43.6281 412.699 43.2761 412.432C42.9241 412.155 42.4175 412.016 41.7561 412.016C41.1268 412.016 40.6415 412.155 40.3001 412.432C39.9588 412.699 39.7881 413.061 39.7881 413.52C39.7881 414.011 39.9428 414.379 40.2521 414.624C40.5721 414.869 41.2068 415.061 42.1561 415.2C43.5748 415.392 44.6095 415.739 45.2601 416.24C45.9108 416.731 46.2361 417.525 46.2361 418.624C46.2361 419.637 45.8468 420.48 45.0681 421.152C44.2895 421.824 43.2761 422.16 42.0281 422.16ZM52.6183 422.16C51.1783 422.16 50.0689 421.776 49.2903 421.008C48.5116 420.229 48.1223 419.109 48.1223 417.648V410.56H50.2663V417.488C50.2663 418.544 50.4476 419.301 50.8103 419.76C51.1836 420.219 51.7916 420.448 52.6343 420.448C53.4876 420.448 54.1116 420.219 54.5063 419.76C54.9116 419.291 55.1143 418.485 55.1143 417.344V410.56H57.2583V417.52C57.2583 419.024 56.8583 420.176 56.0583 420.976C55.2689 421.765 54.1223 422.16 52.6183 422.16ZM59.7808 422V410.56H61.9088V420.304H66.7888V422H59.7808ZM69.6 422V412.24H66.416V410.56H74.928V412.24H71.744V422H69.6ZM80.3719 422.16C78.8785 422.16 77.7585 421.829 77.0119 421.168C76.2759 420.507 75.8652 419.6 75.7799 418.448H77.8279C77.9132 419.12 78.1372 419.643 78.4999 420.016C78.8625 420.379 79.4865 420.56 80.3719 420.56C81.0119 420.56 81.5292 420.4 81.9239 420.08C82.3292 419.749 82.5319 419.323 82.5319 418.8C82.5319 418.267 82.3665 417.877 82.0359 417.632C81.7052 417.387 81.0759 417.189 80.1479 417.04C78.7292 416.848 77.6999 416.507 77.0599 416.016C76.4305 415.515 76.1159 414.741 76.1159 413.696C76.1159 412.747 76.4839 411.963 77.2199 411.344C77.9559 410.725 78.9159 410.416 80.0999 410.416C81.3372 410.416 82.3132 410.699 83.0279 411.264C83.7425 411.819 84.1532 412.64 84.2599 413.728H82.3079C82.2012 413.131 81.9719 412.699 81.6199 412.432C81.2679 412.155 80.7612 412.016 80.0999 412.016C79.4705 412.016 78.9852 412.155 78.6439 412.432C78.3025 412.699 78.1319 413.061 78.1319 413.52C78.1319 414.011 78.2865 414.379 78.5959 414.624C78.9159 414.869 79.5505 415.061 80.4999 415.2C81.9185 415.392 82.9532 415.739 83.6039 416.24C84.2545 416.731 84.5799 417.525 84.5799 418.624C84.5799 419.637 84.1905 420.48 83.4119 421.152C82.6332 421.824 81.6199 422.16 80.3719 422.16ZM89.5726 422L93.3966 410.56H96.1806L99.9566 422H97.7486L96.8366 419.168H92.4686L91.5726 422H89.5726ZM94.6606 412.304L92.9646 417.616H96.3406L94.6606 412.304ZM101.703 422V410.56H104.247L109.063 418.832V410.56H110.999V422H108.791L103.639 413.232V422H101.703ZM112.745 422L116.569 410.56H119.353L123.129 422H120.921L120.009 419.168H115.641L114.745 422H112.745ZM117.833 412.304L116.137 417.616H119.513L117.833 412.304ZM124.875 422V410.56H127.003V420.304H131.883V422H124.875ZM135.08 422V417.04L131.288 410.56H133.64L136.216 415.296L138.728 410.56H140.808L137.224 417.056V422H135.08ZM145.794 422.16C144.3 422.16 143.18 421.829 142.434 421.168C141.698 420.507 141.287 419.6 141.202 418.448H143.25C143.335 419.12 143.559 419.643 143.922 420.016C144.284 420.379 144.908 420.56 145.794 420.56C146.434 420.56 146.951 420.4 147.346 420.08C147.751 419.749 147.954 419.323 147.954 418.8C147.954 418.267 147.788 417.877 147.458 417.632C147.127 417.387 146.498 417.189 145.57 417.04C144.151 416.848 143.122 416.507 142.482 416.016C141.852 415.515 141.538 414.741 141.538 413.696C141.538 412.747 141.906 411.963 142.642 411.344C143.378 410.725 144.338 410.416 145.522 410.416C146.759 410.416 147.735 410.699 148.45 411.264C149.164 411.819 149.575 412.64 149.682 413.728H147.73C147.623 413.131 147.394 412.699 147.042 412.432C146.69 412.155 146.183 412.016 145.522 412.016C144.892 412.016 144.407 412.155 144.066 412.432C143.724 412.699 143.554 413.061 143.554 413.52C143.554 414.011 143.708 414.379 144.018 414.624C144.338 414.869 144.972 415.061 145.922 415.2C147.34 415.392 148.375 415.739 149.026 416.24C149.676 416.731 150.002 417.525 150.002 418.624C150.002 419.637 149.612 420.48 148.834 421.152C148.055 421.824 147.042 422.16 145.794 422.16ZM152.126 422V410.56H154.27V422H152.126ZM160.856 422.16C159.363 422.16 158.243 421.829 157.496 421.168C156.76 420.507 156.35 419.6 156.264 418.448H158.312C158.398 419.12 158.622 419.643 158.984 420.016C159.347 420.379 159.971 420.56 160.856 420.56C161.496 420.56 162.014 420.4 162.408 420.08C162.814 419.749 163.016 419.323 163.016 418.8C163.016 418.267 162.851 417.877 162.52 417.632C162.19 417.387 161.56 417.189 160.632 417.04C159.214 416.848 158.184 416.507 157.544 416.016C156.915 415.515 156.6 414.741 156.6 413.696C156.6 412.747 156.968 411.963 157.704 411.344C158.44 410.725 159.4 410.416 160.584 410.416C161.822 410.416 162.798 410.699 163.512 411.264C164.227 411.819 164.638 412.64 164.744 413.728H162.792C162.686 413.131 162.456 412.699 162.104 412.432C161.752 412.155 161.246 412.016 160.584 412.016C159.955 412.016 159.47 412.155 159.128 412.432C158.787 412.699 158.616 413.061 158.616 413.52C158.616 414.011 158.771 414.379 159.08 414.624C159.4 414.869 160.035 415.061 160.984 415.2C162.403 415.392 163.438 415.739 164.088 416.24C164.739 416.731 165.064 417.525 165.064 418.624C165.064 419.637 164.675 420.48 163.896 421.152C163.118 421.824 162.104 422.16 160.856 422.16Z" fill="black"/>
<path d="M79.1335 341.067C79.6122 341.067 80.0002 340.679 80.0002 340.2C80.0002 339.721 79.6122 339.333 79.1335 339.333C78.6549 339.333 78.2668 339.721 78.2668 340.2C78.2668 340.679 78.6549 341.067 79.1335 341.067Z" fill="#191B1D"/>
<path d="M73.9339 353.133H70.4673C70.2374 353.133 70.017 353.225 69.8544 353.387C69.6919 353.55 69.6006 353.77 69.6006 354V357.467C69.6006 357.696 69.6919 357.917 69.8544 358.079C70.017 358.242 70.2374 358.333 70.4673 358.333H73.9339C74.1638 358.333 74.3842 358.242 74.5467 358.079C74.7093 357.917 74.8006 357.696 74.8006 357.467V354C74.8006 353.77 74.7093 353.55 74.5467 353.387C74.3842 353.225 74.1638 353.133 73.9339 353.133ZM73.0673 356.6H71.3339V354.867H73.0673V356.6Z" fill="#191B1D"/>
<path d="M89.5327 356.6H77.3994V358.333H89.5327V356.6Z" fill="#191B1D"/>
<path d="M73.9339 360.067H70.4673C70.2374 360.067 70.017 360.158 69.8544 360.32C69.6919 360.483 69.6006 360.703 69.6006 360.933V364.4C69.6006 364.63 69.6919 364.85 69.8544 365.013C70.017 365.175 70.2374 365.267 70.4673 365.267H73.9339C74.1638 365.267 74.3842 365.175 74.5467 365.013C74.7093 364.85 74.8006 364.63 74.8006 364.4V360.933C74.8006 360.703 74.7093 360.483 74.5467 360.32C74.3842 360.158 74.1638 360.067 73.9339 360.067ZM73.0673 363.533H71.3339V361.8H73.0673V363.533Z" fill="#191B1D"/>
<path d="M89.5327 363.533H77.3994V365.267H89.5327V363.533Z" fill="#191B1D"/>
<path d="M73.9339 367H70.4673C70.2374 367 70.017 367.091 69.8544 367.254C69.6919 367.416 69.6006 367.637 69.6006 367.867V371.333C69.6006 371.563 69.6919 371.784 69.8544 371.946C70.017 372.109 70.2374 372.2 70.4673 372.2H73.9339C74.1638 372.2 74.3842 372.109 74.5467 371.946C74.7093 371.784 74.8006 371.563 74.8006 371.333V367.867C74.8006 367.637 74.7093 367.416 74.5467 367.254C74.3842 367.091 74.1638 367 73.9339 367ZM73.0673 370.467H71.3339V368.733H73.0673V370.467Z" fill="#191B1D"/>
<path d="M87.7994 370.467H77.3994V372.2H87.7994V370.467Z" fill="#191B1D"/>
<path d="M99.0669 370.583V341.933C99.0669 341.703 98.9756 341.483 98.813 341.321C98.6505 341.158 98.4301 341.067 98.2002 341.067H95.6002V340.2C95.6002 339.97 95.5089 339.75 95.3464 339.587C95.1838 339.425 94.9634 339.333 94.7335 339.333H85.1135C84.9124 338.355 84.3802 337.476 83.6066 336.845C82.8331 336.213 81.8654 335.868 80.8669 335.867H77.4002C76.4016 335.868 75.434 336.213 74.6604 336.845C73.8869 337.476 73.3547 338.355 73.1535 339.333H63.5335C63.3037 339.333 63.0832 339.425 62.9207 339.587C62.7582 339.75 62.6669 339.97 62.6669 340.2V341.067H60.0669C59.837 341.067 59.6166 341.158 59.454 341.321C59.2915 341.483 59.2002 341.703 59.2002 341.933V385.267C59.2002 385.497 59.2915 385.717 59.454 385.879C59.6166 386.042 59.837 386.133 60.0669 386.133H98.2002C100.192 386.131 102.108 385.367 103.554 383.997C105.001 382.627 105.868 380.756 105.979 378.767C106.09 376.778 105.436 374.822 104.151 373.301C102.865 371.779 101.046 370.806 99.0669 370.583ZM97.3335 342.8V370.583C96.7424 370.648 96.1608 370.782 95.6002 370.981V342.8H97.3335ZM73.9335 341.067C74.1634 341.067 74.3838 340.975 74.5464 340.813C74.7089 340.65 74.8002 340.43 74.8002 340.2C74.801 339.511 75.0752 338.85 75.5626 338.362C76.05 337.875 76.7109 337.601 77.4002 337.6H80.8669C81.5562 337.601 82.217 337.875 82.7045 338.362C83.1919 338.85 83.4661 339.511 83.4669 340.2C83.4669 340.43 83.5582 340.65 83.7207 340.813C83.8832 340.975 84.1037 341.067 84.3335 341.067H86.9335V344.533H71.3335V341.067H73.9335ZM64.4002 341.067H69.6002V345.4C69.6002 345.63 69.6915 345.85 69.854 346.013C70.0166 346.175 70.237 346.267 70.4669 346.267H87.8002C88.0301 346.267 88.2505 346.175 88.413 346.013C88.5756 345.85 88.6669 345.63 88.6669 345.4V341.067H93.8669V371.851C92.4249 372.814 91.345 374.229 90.7981 375.874C90.2512 377.519 90.2685 379.299 90.8474 380.933H64.4002V341.067ZM60.9335 384.4V342.8H62.6669V381.8C62.6669 382.03 62.7582 382.25 62.9207 382.413C63.0832 382.575 63.3037 382.667 63.5335 382.667H91.7183C92.1574 383.321 92.6923 383.905 93.3052 384.4H60.9335ZM98.2002 384.4C97.0003 384.4 95.8274 384.044 94.8297 383.378C93.8321 382.711 93.0545 381.763 92.5953 380.655C92.1362 379.546 92.016 378.327 92.2501 377.15C92.4842 375.973 93.062 374.892 93.9104 374.044C94.7589 373.195 95.8398 372.617 97.0167 372.383C98.1935 372.149 99.4133 372.269 100.522 372.728C101.63 373.188 102.578 373.965 103.244 374.963C103.911 375.961 104.267 377.133 104.267 378.333C104.265 379.942 103.625 381.484 102.488 382.621C101.351 383.758 99.8086 384.398 98.2002 384.4Z" fill="#191B1D"/>
<path d="M97.9038 378.949L95.1214 377.558L94.3462 379.108L97.8129 380.842C98.0018 380.936 98.2187 380.958 98.4229 380.904C98.627 380.85 98.8044 380.723 98.9215 380.547L102.388 375.347L100.946 374.386L97.9038 378.949Z" fill="#191B1D"/>
<path d="M66.735 123.874L64.95 123.5V123.228C64.95 122.552 64.6813 121.903 64.2031 121.425C63.7249 120.947 63.0763 120.678 62.4 120.678H52.863L43.5725 118.519C43.2442 118.441 42.9037 118.429 42.5708 118.484C42.2378 118.538 41.919 118.658 41.6328 118.837C41.3466 119.016 41.0987 119.249 40.9035 119.524C40.7082 119.8 40.5696 120.111 40.4955 120.44L40.4445 120.669H38.6C37.9237 120.669 37.2751 120.938 36.7968 121.416C36.3186 121.895 36.05 122.543 36.05 123.219V139.701L32.344 155.8C32.2673 156.128 32.2562 156.467 32.3114 156.799C32.3665 157.131 32.4869 157.449 32.6655 157.734C32.844 158.019 33.0773 158.267 33.3518 158.461C33.6264 158.656 33.9367 158.794 34.265 158.868L36.05 159.285V159.514C36.05 160.191 36.3186 160.839 36.7968 161.318C37.2751 161.796 37.9237 162.064 38.6 162.064H48.222L48.3155 162.107L57.4275 164.215C57.7557 164.293 58.0962 164.305 58.4292 164.25C58.7621 164.196 59.0809 164.076 59.3671 163.897C59.6533 163.718 59.9012 163.485 60.0965 163.209C60.2917 162.934 60.4304 162.623 60.5045 162.294L60.5555 162.064H62.4C63.0763 162.064 63.7249 161.796 64.2031 161.318C64.6813 160.839 64.95 160.191 64.95 159.514V142.999L68.656 126.942C68.7327 126.615 68.7437 126.275 68.6886 125.943C68.6334 125.611 68.513 125.293 68.3345 125.008C68.1559 124.723 67.9226 124.476 67.6481 124.281C67.3736 124.087 67.0632 123.948 66.735 123.874ZM36.05 157.5L34.6475 157.168C34.5369 157.144 34.4323 157.099 34.3397 157.034C34.2472 156.969 34.1685 156.886 34.1083 156.79C34.0481 156.694 34.0077 156.587 33.9894 156.476C33.971 156.364 33.9751 156.25 34.0015 156.14L36.05 147.3V157.5ZM43.19 120.176L45.3065 120.669H42.221C42.2994 120.487 42.4393 120.338 42.6163 120.248C42.7933 120.158 42.9963 120.132 43.19 120.176ZM57.81 162.523L55.702 162.03H58.779C58.7005 162.213 58.5606 162.362 58.3836 162.452C58.2066 162.542 58.0036 162.567 57.81 162.523ZM63.25 159.472C63.25 159.697 63.1604 159.914 63.001 160.073C62.8416 160.232 62.6254 160.322 62.4 160.322H38.6C38.3745 160.322 38.1583 160.232 37.9989 160.073C37.8395 159.914 37.75 159.697 37.75 159.472V123.228C37.75 123.003 37.8395 122.786 37.9989 122.627C38.1583 122.468 38.3745 122.378 38.6 122.378H62.4C62.6254 122.378 62.8416 122.468 63.001 122.627C63.1604 122.786 63.25 123.003 63.25 123.228V159.472ZM66.9985 126.56L64.95 135.442V125.2L66.3525 125.523C66.4639 125.547 66.5694 125.593 66.6626 125.659C66.7559 125.724 66.835 125.808 66.8953 125.905C66.9555 126.001 66.9957 126.109 67.0135 126.222C67.0312 126.334 67.0261 126.449 66.9985 126.56Z" fill="#191B1D"/>
<path d="M58.9999 155.656H42.8499V148.745C42.8499 148.52 42.7603 148.303 42.6009 148.144C42.4415 147.985 42.2253 147.895 41.9999 147.895C41.7745 147.895 41.5583 147.985 41.3989 148.144C41.2395 148.303 41.1499 148.52 41.1499 148.745V156.506C41.1499 156.731 41.2395 156.947 41.3989 157.107C41.5583 157.266 41.7745 157.356 41.9999 157.356H58.9999C59.2253 157.356 59.4415 157.266 59.6009 157.107C59.7603 156.947 59.8499 156.731 59.8499 156.506C59.8499 156.28 59.7603 156.064 59.6009 155.904C59.4415 155.745 59.2253 155.656 58.9999 155.656Z" fill="#191B1D"/>
<path d="M44.8305 133.887C45.8074 133.887 46.7444 133.499 47.436 132.809C48.1276 132.12 48.5172 131.183 48.5195 130.206C48.5143 129.523 48.317 128.854 47.95 128.277L49.497 126.738C49.657 126.578 49.747 126.361 49.747 126.135C49.747 125.909 49.657 125.692 49.497 125.531C49.3369 125.371 49.1198 125.281 48.8935 125.281C48.6671 125.281 48.45 125.371 48.29 125.531L44.822 128.999L42.8925 127.07C42.7332 126.912 42.5178 126.823 42.2932 126.823C42.0687 126.823 41.8532 126.912 41.694 127.07C41.5357 127.229 41.4468 127.445 41.4468 127.669C41.4468 127.894 41.5357 128.109 41.694 128.268C41.334 128.85 41.1454 129.522 41.15 130.206C41.15 131.183 41.5377 132.119 42.228 132.809C42.9182 133.499 43.8544 133.887 44.8305 133.887ZM42.969 129.543L44.2355 130.81C44.3938 130.967 44.6075 131.056 44.8305 131.056C45.0446 131.049 45.248 130.961 45.4 130.81L46.6665 129.543C46.7403 129.757 46.7805 129.981 46.7855 130.206C46.7525 130.71 46.529 131.183 46.1604 131.528C45.7919 131.873 45.3058 132.066 44.8007 132.066C44.2957 132.066 43.8096 131.873 43.441 131.528C43.0724 131.183 42.849 130.71 42.816 130.206C42.8277 129.978 42.8795 129.754 42.969 129.543Z" fill="#191B1D"/>
<path d="M44.8304 143.203C45.5604 143.205 46.2744 142.99 46.8822 142.585C47.49 142.181 47.9641 141.606 48.2446 140.932C48.5252 140.258 48.5994 139.516 48.4581 138.8C48.3167 138.083 47.966 137.425 47.4504 136.909C46.9348 136.392 46.2775 136.04 45.5617 135.897C44.8459 135.753 44.1037 135.826 43.4292 136.105C42.7546 136.384 42.1779 136.857 41.7722 137.464C41.3665 138.07 41.1499 138.784 41.1499 139.514C41.1521 140.49 41.5404 141.426 42.2299 142.117C42.9194 142.808 43.8542 143.199 44.8304 143.203ZM44.8304 137.534C45.2245 137.532 45.6102 137.647 45.9386 137.865C46.267 138.083 46.5233 138.394 46.6749 138.757C46.8264 139.121 46.8666 139.522 46.7901 139.908C46.7136 140.295 46.524 140.65 46.2453 140.929C45.9666 141.208 45.6115 141.397 45.2248 141.474C44.8382 141.55 44.4376 141.51 44.0738 141.358C43.71 141.207 43.3995 140.951 43.1816 140.622C42.9637 140.294 42.8482 139.908 42.8499 139.514C42.8521 138.989 43.0615 138.487 43.4324 138.116C43.8034 137.745 44.3058 137.536 44.8304 137.534Z" fill="#191B1D"/>
<path d="M58.9999 145.073H55.6679C55.4425 145.073 55.2263 145.163 55.0669 145.322C54.9075 145.481 54.8179 145.698 54.8179 145.923C54.8179 146.148 54.9075 146.365 55.0669 146.524C55.2263 146.683 55.4425 146.773 55.6679 146.773H56.9514L52.1999 151.55L48.8594 148.15C48.7002 147.992 48.4847 147.903 48.2602 147.903C48.0356 147.903 47.8202 147.992 47.6609 148.15L44.6179 151.201C44.5289 151.278 44.4567 151.371 44.4056 151.477C44.3546 151.582 44.326 151.697 44.3214 151.814C44.3169 151.931 44.3366 152.048 44.3794 152.157C44.4221 152.266 44.4869 152.365 44.5698 152.448C44.6526 152.531 44.7517 152.596 44.8607 152.639C44.9698 152.681 45.0865 152.701 45.2036 152.696C45.3207 152.692 45.4355 152.663 45.541 152.612C45.6464 152.561 45.7402 152.489 45.8164 152.4L48.2644 149.952L51.5964 153.292C51.6754 153.372 51.7694 153.435 51.873 153.479C51.9766 153.522 52.0877 153.544 52.1999 153.544C52.3121 153.544 52.4232 153.522 52.5268 153.479C52.6304 153.435 52.7244 153.372 52.8034 153.292L58.1499 147.98V149.255C58.1499 149.48 58.2395 149.697 58.3989 149.856C58.5583 150.015 58.7745 150.105 58.9999 150.105C59.2253 150.105 59.4415 150.015 59.601 149.856C59.7604 149.697 59.8499 149.48 59.8499 149.255V145.923C59.8499 145.698 59.7604 145.481 59.601 145.322C59.4415 145.163 59.2253 145.073 58.9999 145.073Z" fill="#191B1D"/>
<path d="M51.6305 138.664H55.277C55.5025 138.664 55.7187 138.574 55.8781 138.415C56.0375 138.256 56.127 138.039 56.127 137.814C56.127 137.589 56.0375 137.372 55.8781 137.213C55.7187 137.054 55.5025 136.964 55.277 136.964H51.6305C51.4051 136.964 51.1889 137.054 51.0295 137.213C50.8701 137.372 50.7805 137.589 50.7805 137.814C50.7805 138.039 50.8701 138.256 51.0295 138.415C51.1889 138.574 51.4051 138.664 51.6305 138.664Z" fill="#191B1D"/>
<path d="M51.6305 142.072H58.626C58.8515 142.072 59.0677 141.983 59.2271 141.824C59.3865 141.664 59.476 141.448 59.476 141.222C59.476 140.997 59.3865 140.781 59.2271 140.621C59.0677 140.462 58.8515 140.372 58.626 140.372H51.6305C51.4051 140.372 51.1889 140.462 51.0295 140.621C50.8701 140.781 50.7805 140.997 50.7805 141.222C50.7805 141.448 50.8701 141.664 51.0295 141.824C51.1889 141.983 51.4051 142.072 51.6305 142.072Z" fill="#191B1D"/>
<path d="M51.6305 129.356H55.277C55.5025 129.356 55.7187 129.267 55.8781 129.108C56.0375 128.948 56.127 128.732 56.127 128.506C56.127 128.281 56.0375 128.065 55.8781 127.905C55.7187 127.746 55.5025 127.656 55.277 127.656H51.6305C51.4051 127.656 51.1889 127.746 51.0295 127.905C50.8701 128.065 50.7805 128.281 50.7805 128.506C50.7805 128.732 50.8701 128.948 51.0295 129.108C51.1889 129.267 51.4051 129.356 51.6305 129.356Z" fill="#191B1D"/>
<path d="M51.6305 132.757H58.626C58.8515 132.757 59.0677 132.667 59.2271 132.508C59.3865 132.348 59.476 132.132 59.476 131.907C59.476 131.681 59.3865 131.465 59.2271 131.305C59.0677 131.146 58.8515 131.057 58.626 131.057H51.6305C51.4051 131.057 51.1889 131.146 51.0295 131.305C50.8701 131.465 50.7805 131.681 50.7805 131.907C50.7805 132.132 50.8701 132.348 51.0295 132.508C51.1889 132.667 51.4051 132.757 51.6305 132.757Z" fill="#191B1D"/>
<path d="M282.677 1H244.323C243.592 1 243 1.59214 243 2.32258V40.6774C243 41.4079 243.592 42 244.323 42H282.677C283.408 42 284 41.4079 284 40.6774V2.32258C284 1.59214 283.408 1 282.677 1Z" stroke="#191B1D" stroke-width="1.5" stroke-linejoin="round"/>
<path d="M243 6.29034H284" stroke="#191B1D" stroke-width="1.5" stroke-linejoin="round"/>
<path d="M244.984 3.64514H246.306" stroke="#191B1D" stroke-width="1.5" stroke-linejoin="round"/>
<path d="M247.629 3.64514H248.952" stroke="#191B1D" stroke-width="1.5" stroke-linejoin="round"/>
<path d="M280.694 3.64514H282.016" stroke="#191B1D" stroke-width="1.5" stroke-linejoin="round"/>
<path d="M268.79 8.93549H258.21C257.844 8.93549 257.548 9.23156 257.548 9.59678V14.8871C257.548 15.2523 257.844 15.5484 258.21 15.5484H268.79C269.155 15.5484 269.452 15.2523 269.452 14.8871V9.59678C269.452 9.23156 269.155 8.93549 268.79 8.93549Z" stroke="#191B1D" stroke-width="1.5" stroke-linejoin="round"/>
<path d="M268.79 18.8549H258.21C257.844 18.8549 257.548 19.1509 257.548 19.5161V24.8065C257.548 25.1717 257.844 25.4678 258.21 25.4678H268.79C269.155 25.4678 269.452 25.1717 269.452 24.8065V19.5161C269.452 19.1509 269.155 18.8549 268.79 18.8549Z" stroke="#191B1D" stroke-width="1.5" stroke-linejoin="round"/>
<path d="M266.145 32.7419H260.855C260.49 32.7419 260.194 33.038 260.194 33.4032V38.6936C260.194 39.0588 260.49 39.3548 260.855 39.3548H266.145C266.51 39.3548 266.807 39.0588 266.807 38.6936V33.4032C266.807 33.038 266.51 32.7419 266.145 32.7419Z" stroke="#191B1D" stroke-width="1.5" stroke-linejoin="round"/>
<path d="M276.726 32.7419H271.435C271.07 32.7419 270.774 33.038 270.774 33.4032V38.6936C270.774 39.0588 271.07 39.3548 271.435 39.3548H276.726C277.091 39.3548 277.387 39.0588 277.387 38.6936V33.4032C277.387 33.038 277.091 32.7419 276.726 32.7419Z" stroke="#191B1D" stroke-width="1.5" stroke-linejoin="round"/>
<path d="M255.564 32.7419H250.274C249.909 32.7419 249.613 33.038 249.613 33.4032V38.6936C249.613 39.0588 249.909 39.3548 250.274 39.3548H255.564C255.93 39.3548 256.226 39.0588 256.226 38.6936V33.4032C256.226 33.038 255.93 32.7419 255.564 32.7419Z" stroke="#191B1D" stroke-width="1.5" stroke-linejoin="round"/>
<path d="M252.919 32.7419V28.1129H274.081V32.7419" stroke="#191B1D" stroke-width="1.5" stroke-linejoin="round"/>
<path d="M263.5 15.5484V18.8549" stroke="#191B1D" stroke-width="1.5" stroke-linejoin="round"/>
<path d="M263.5 25.4677V32.7419" stroke="#191B1D" stroke-width="1.5" stroke-linejoin="round"/>
<path d="M250.274 38.6935L255.564 33.4032" stroke="#191B1D" stroke-width="1.5" stroke-linejoin="round"/>
<path d="M260.855 38.6935L266.145 33.4032" stroke="#191B1D" stroke-width="1.5" stroke-linejoin="round"/>
<path d="M271.436 38.6935L276.726 33.4032" stroke="#191B1D" stroke-width="1.5" stroke-linejoin="round"/>
<path d="M259.532 12.2419H264.823" stroke="#191B1D" stroke-width="1.5" stroke-linejoin="round"/>
<path d="M266.145 12.2419H267.468" stroke="#191B1D" stroke-width="1.5" stroke-linejoin="round"/>
<path d="M259.532 22.1613H264.823" stroke="#191B1D" stroke-width="1.5" stroke-linejoin="round"/>
<path d="M266.145 22.1613H267.468" stroke="#191B1D" stroke-width="1.5" stroke-linejoin="round"/>
<path d="M248.29 8.93549H245.645V11.5806" stroke="#191B1D" stroke-width="1.5" stroke-linejoin="round"/>
<path d="M281.355 11.5806V8.93549H278.71" stroke="#191B1D" stroke-width="1.5" stroke-linejoin="round"/>
<path d="M452.887 143.34L454.307 144.76C454.445 144.898 454.627 144.968 454.808 144.968C454.99 144.968 455.172 144.898 455.31 144.76L458.859 141.211C459.136 140.934 459.136 140.485 458.859 140.208C458.581 139.93 458.133 139.93 457.855 140.208L454.808 143.254L453.891 142.337C453.613 142.059 453.165 142.059 452.887 142.337C452.61 142.614 452.61 143.063 452.887 143.34Z" fill="#191B1D"/>
<path d="M457.855 147.305L454.808 150.352L453.891 149.434C453.613 149.156 453.165 149.156 452.887 149.434C452.61 149.711 452.61 150.16 452.887 150.437L454.307 151.857C454.445 151.995 454.627 152.065 454.808 152.065C454.99 152.065 455.172 151.995 455.31 151.857L458.859 148.308C459.136 148.031 459.136 147.582 458.859 147.305C458.581 147.027 458.133 147.027 457.855 147.305Z" fill="#191B1D"/>
<path d="M461.193 142.129H466.161C466.553 142.129 466.871 141.811 466.871 141.42C466.871 141.028 466.553 140.71 466.161 140.71H461.193C460.802 140.71 460.484 141.028 460.484 141.42C460.484 141.811 460.802 142.129 461.193 142.129Z" fill="#191B1D"/>
<path d="M461.193 144.968H466.161C466.553 144.968 466.871 144.65 466.871 144.258C466.871 143.867 466.553 143.549 466.161 143.549H461.193C460.802 143.549 460.484 143.867 460.484 144.258C460.484 144.65 460.802 144.968 461.193 144.968Z" fill="#191B1D"/>
<path d="M461.193 149.226H466.161C466.553 149.226 466.871 148.908 466.871 148.516C466.871 148.124 466.553 147.806 466.161 147.806H461.193C460.802 147.806 460.484 148.124 460.484 148.516C460.484 148.908 460.802 149.226 461.193 149.226Z" fill="#191B1D"/>
<path d="M461.193 152.064H466.161C466.553 152.064 466.871 151.746 466.871 151.355C466.871 150.963 466.553 150.645 466.161 150.645H461.193C460.802 150.645 460.484 150.963 460.484 151.355C460.484 151.746 460.802 152.064 461.193 152.064Z" fill="#191B1D"/>
<path d="M490.29 143.548C490.682 143.548 491 143.23 491 142.839V118.71C491 118.318 490.682 118 490.29 118H456.935C456.544 118 456.226 118.318 456.226 118.71V129.355C456.226 129.383 456.239 129.406 456.241 129.432C455.859 129.822 455.53 130.267 455.29 130.774H453.387C452.995 130.774 452.677 131.092 452.677 131.484V132.194H450.548C448.592 132.194 447 133.785 447 135.742V158.452C447 160.408 448.592 162 450.548 162H469C470.957 162 472.548 160.408 472.548 158.452V156.323H488.161C489.727 156.323 491 155.049 491 153.484V153.033C491 150.151 488.656 147.806 485.774 147.806C484.378 147.806 483.066 148.35 482.079 149.337L481.15 150.265C480.906 150.51 480.58 150.645 480.233 150.645C479.517 150.645 478.935 150.063 478.935 149.347V148.516C478.935 148.124 478.618 147.806 478.226 147.806C477.834 147.806 477.516 148.124 477.516 148.516V149.347C477.516 149.82 477.648 150.258 477.861 150.645H472.548V143.548H490.29ZM489.581 142.129H472.548V135.742C472.548 134.029 471.327 132.595 469.71 132.265V119.419H476.097V122.968C476.097 123.359 476.415 123.677 476.806 123.677H485.323C485.714 123.677 486.032 123.359 486.032 122.968V119.419H489.581V142.129ZM481.774 152.065V154.903H473.968V152.065H481.774ZM472.548 154.841L469.383 153.484L472.548 152.127V154.841ZM453.387 137.871H466.161C466.553 137.871 466.871 137.553 466.871 137.161V136.452H468.29V152.408L467.301 152.832C467.04 152.943 466.871 153.2 466.871 153.484C466.871 153.768 467.04 154.025 467.301 154.136L468.29 154.56V157.742H451.258V136.452H452.677V137.161C452.677 137.553 452.995 137.871 453.387 137.871ZM469.71 151.799V135.742C469.71 135.35 469.392 135.032 469 135.032H466.871V133.613H469C470.174 133.613 471.129 134.568 471.129 135.742V151.191L469.71 151.799ZM482.484 120.129C482.092 120.129 481.774 120.447 481.774 120.839V122.258H480.355V120.839C480.355 120.447 480.037 120.129 479.645 120.129C479.253 120.129 478.935 120.447 478.935 120.839V122.258H477.516V119.419H484.613V122.258H483.194V120.839C483.194 120.447 482.876 120.129 482.484 120.129ZM457.645 119.419H468.29V132.194H466.871V131.484C466.871 131.092 466.553 130.774 466.161 130.774H464.259C463.443 129.057 461.7 127.935 459.774 127.935C459.021 127.935 458.298 128.112 457.645 128.424V119.419ZM454.097 132.194H455.764C456.065 132.194 456.332 132.004 456.433 131.721C456.934 130.306 458.277 129.355 459.774 129.355C461.272 129.355 462.614 130.306 463.115 131.721C463.216 132.004 463.484 132.194 463.785 132.194H465.452V136.452H454.097V132.194ZM469 160.581H450.548C449.375 160.581 448.419 159.625 448.419 158.452V135.742C448.419 134.568 449.375 133.613 450.548 133.613H452.677V135.032H450.548C450.157 135.032 449.839 135.35 449.839 135.742V158.452C449.839 158.843 450.157 159.161 450.548 159.161H469C469.392 159.161 469.71 158.843 469.71 158.452V155.169L471.129 155.777V158.452C471.129 159.625 470.174 160.581 469 160.581ZM488.161 154.903H483.194V152.065H488.161C488.944 152.065 489.581 152.701 489.581 153.484C489.581 154.267 488.944 154.903 488.161 154.903ZM485.774 149.226C486.997 149.226 488.075 149.816 488.772 150.715C488.575 150.671 488.371 150.645 488.161 150.645H482.778L483.082 150.341C483.801 149.622 484.757 149.226 485.774 149.226Z" fill="#191B1D"/>
<path d="M480.354 135.032C479.962 135.032 479.644 135.35 479.644 135.742C479.644 136.134 479.962 136.452 480.354 136.452H487.45C487.842 136.452 488.16 136.134 488.16 135.742C488.16 135.35 487.842 135.032 487.45 135.032H480.354Z" fill="#191B1D"/>
<path d="M484.612 137.871H480.354C479.962 137.871 479.644 138.189 479.644 138.581C479.644 138.972 479.962 139.29 480.354 139.29H484.612C485.004 139.29 485.321 138.972 485.321 138.581C485.321 138.189 485.004 137.871 484.612 137.871Z" fill="#191B1D"/>
<path d="M487.452 139.29C487.844 139.29 488.161 138.973 488.161 138.581C488.161 138.189 487.844 137.871 487.452 137.871C487.06 137.871 486.742 138.189 486.742 138.581C486.742 138.973 487.06 139.29 487.452 139.29Z" fill="#191B1D"/>
<g clip-path="url(#clip0)">
<path d="M483.431 344.773L480.496 344.038C480.384 343.713 480.253 343.394 480.104 343.083L481.658 340.491C481.744 340.348 481.78 340.18 481.76 340.014C481.739 339.848 481.664 339.694 481.546 339.576L479.425 337.454C479.307 337.336 479.152 337.261 478.986 337.24C478.821 337.22 478.653 337.256 478.509 337.342L475.917 338.9C475.606 338.751 475.287 338.62 474.961 338.508L474.228 335.568C474.187 335.406 474.093 335.262 473.961 335.159C473.83 335.056 473.667 335 473.5 335H470.5C470.333 335 470.17 335.056 470.039 335.159C469.907 335.262 469.813 335.406 469.772 335.568L469.039 338.504C468.713 338.616 468.394 338.747 468.083 338.896L465.491 337.342C465.348 337.256 465.18 337.22 465.014 337.24C464.848 337.261 464.694 337.336 464.576 337.454L462.454 339.575C462.336 339.693 462.261 339.848 462.24 340.014C462.22 340.179 462.256 340.347 462.342 340.491L463.9 343.083C463.751 343.394 463.62 343.713 463.508 344.038L460.572 344.773C460.409 344.812 460.264 344.906 460.161 345.037C460.057 345.169 460 345.332 460 345.5V348.5C460 348.699 460.079 348.89 460.22 349.03C460.36 349.171 460.551 349.25 460.75 349.25C460.949 349.25 461.14 349.171 461.28 349.03C461.421 348.89 461.5 348.699 461.5 348.5V346.086L464.275 345.393C464.402 345.361 464.518 345.297 464.613 345.206C464.707 345.116 464.776 345.002 464.813 344.877C464.961 344.369 465.162 343.879 465.413 343.413C465.475 343.299 465.507 343.17 465.504 343.039C465.501 342.908 465.464 342.781 465.397 342.669L463.928 340.221L465.222 338.928L467.669 340.4C467.781 340.467 467.909 340.504 468.039 340.506C468.17 340.509 468.299 340.478 468.413 340.415C468.879 340.164 469.37 339.963 469.877 339.815C470.003 339.778 470.116 339.709 470.206 339.615C470.296 339.521 470.36 339.405 470.392 339.278L471.086 336.5H472.914L473.608 339.275C473.64 339.402 473.704 339.518 473.794 339.612C473.884 339.706 473.997 339.775 474.123 339.812C474.63 339.96 475.121 340.161 475.587 340.412C475.701 340.475 475.83 340.506 475.961 340.503C476.091 340.501 476.219 340.464 476.331 340.397L478.778 338.928L480.072 340.221L478.604 342.669C478.536 342.781 478.5 342.908 478.497 343.039C478.494 343.17 478.526 343.299 478.588 343.413C478.839 343.879 479.04 344.369 479.188 344.877C479.225 345.002 479.294 345.116 479.388 345.206C479.483 345.297 479.599 345.361 479.726 345.393L482.501 346.086V347.914L479.726 348.607C479.599 348.639 479.483 348.703 479.388 348.794C479.294 348.884 479.225 348.998 479.188 349.123C479.04 349.631 478.839 350.121 478.588 350.587C478.526 350.701 478.494 350.83 478.497 350.961C478.5 351.092 478.536 351.219 478.604 351.331L480.072 353.778L478.778 355.071L476.331 353.6C476.219 353.533 476.091 353.496 475.961 353.494C475.83 353.491 475.701 353.522 475.587 353.585C475.121 353.836 474.63 354.037 474.123 354.185C473.997 354.222 473.884 354.291 473.794 354.385C473.704 354.479 473.64 354.595 473.608 354.722L472.914 357.5H470.5C470.301 357.5 470.11 357.579 469.97 357.72C469.829 357.86 469.75 358.051 469.75 358.25C469.75 358.449 469.829 358.64 469.97 358.78C470.11 358.921 470.301 359 470.5 359H473.5C473.667 359 473.83 358.944 473.961 358.841C474.093 358.738 474.187 358.594 474.228 358.432L474.961 355.496C475.287 355.384 475.606 355.253 475.917 355.104L478.509 356.659C478.652 356.744 478.82 356.78 478.986 356.76C479.152 356.739 479.306 356.664 479.424 356.546L481.546 354.425C481.664 354.307 481.739 354.152 481.76 353.986C481.78 353.821 481.744 353.653 481.658 353.509L480.104 350.917C480.253 350.607 480.384 350.288 480.496 349.963L483.431 349.228C483.594 349.188 483.738 349.094 483.841 348.962C483.944 348.83 484 348.667 484 348.5V345.5C484 345.333 483.944 345.17 483.841 345.038C483.738 344.907 483.594 344.813 483.431 344.773Z" fill="#191B1D"/>
<path d="M472 353C473.187 353 474.347 352.648 475.333 351.989C476.32 351.33 477.089 350.392 477.543 349.296C477.997 348.2 478.116 346.993 477.885 345.829C477.653 344.666 477.082 343.596 476.243 342.757C475.404 341.918 474.334 341.347 473.171 341.115C472.007 340.884 470.8 341.003 469.704 341.457C468.608 341.911 467.67 342.68 467.011 343.667C466.352 344.653 466 345.813 466 347C466 347.199 466.079 347.39 466.22 347.53C466.36 347.671 466.551 347.75 466.75 347.75C466.949 347.75 467.14 347.671 467.28 347.53C467.421 347.39 467.5 347.199 467.5 347C467.5 346.11 467.764 345.24 468.258 344.5C468.753 343.76 469.456 343.183 470.278 342.843C471.1 342.502 472.005 342.413 472.878 342.586C473.751 342.76 474.553 343.189 475.182 343.818C475.811 344.447 476.24 345.249 476.414 346.122C476.587 346.995 476.498 347.9 476.157 348.722C475.817 349.544 475.24 350.247 474.5 350.742C473.76 351.236 472.89 351.5 472 351.5C471.801 351.5 471.61 351.579 471.47 351.72C471.329 351.86 471.25 352.051 471.25 352.25C471.25 352.449 471.329 352.64 471.47 352.78C471.61 352.921 471.801 353 472 353Z" fill="#191B1D"/>
<path d="M475 347C475 346.407 474.824 345.827 474.494 345.333C474.165 344.84 473.696 344.455 473.148 344.228C472.6 344.001 471.997 343.942 471.415 344.058C470.833 344.173 470.298 344.459 469.879 344.879C469.459 345.298 469.173 345.833 469.058 346.415C468.942 346.997 469.001 347.6 469.228 348.148C469.455 348.696 469.84 349.165 470.333 349.494C470.827 349.824 471.407 350 472 350C472.796 350 473.559 349.684 474.121 349.121C474.684 348.559 475 347.796 475 347ZM470.5 347C470.5 346.703 470.588 346.413 470.753 346.167C470.918 345.92 471.152 345.728 471.426 345.614C471.7 345.501 472.002 345.471 472.293 345.529C472.584 345.587 472.851 345.73 473.061 345.939C473.27 346.149 473.413 346.416 473.471 346.707C473.529 346.998 473.499 347.3 473.386 347.574C473.272 347.848 473.08 348.082 472.833 348.247C472.587 348.412 472.297 348.5 472 348.5C471.602 348.5 471.221 348.342 470.939 348.061C470.658 347.779 470.5 347.398 470.5 347Z" fill="#191B1D"/>
<path d="M472.812 359.75L468.131 359.36C467.994 358.989 467.838 358.616 467.665 358.246L470.703 354.656C470.824 354.512 470.887 354.328 470.879 354.14C470.871 353.952 470.793 353.774 470.66 353.641L465.357 348.338C465.224 348.205 465.046 348.127 464.858 348.119C464.67 348.111 464.486 348.174 464.343 348.296L460.75 351.336C460.38 351.163 460.009 351.007 459.636 350.869L459.25 346.188C459.234 346 459.148 345.825 459.009 345.697C458.87 345.57 458.689 345.499 458.5 345.5H451C450.811 345.499 450.63 345.57 450.491 345.697C450.352 345.825 450.266 346 450.25 346.188L449.859 350.869C449.487 351.006 449.115 351.162 448.745 351.336L445.155 348.298C445.011 348.177 444.827 348.114 444.639 348.121C444.451 348.129 444.273 348.207 444.14 348.34L438.837 353.644C438.704 353.776 438.626 353.955 438.618 354.143C438.61 354.331 438.673 354.515 438.795 354.658L441.835 358.25C441.662 358.621 441.507 358.993 441.369 359.365L436.688 359.75C436.5 359.766 436.325 359.852 436.197 359.991C436.07 360.13 435.999 360.311 436 360.5V368C435.999 368.189 436.07 368.37 436.197 368.509C436.325 368.648 436.5 368.734 436.688 368.75L441.369 369.14C441.507 369.511 441.662 369.884 441.835 370.255L438.798 373.842C438.676 373.985 438.613 374.17 438.621 374.357C438.629 374.545 438.707 374.724 438.84 374.857L444.143 380.16C444.276 380.293 444.454 380.371 444.642 380.379C444.83 380.386 445.014 380.323 445.158 380.202L448.75 377.164C449.12 377.337 449.491 377.493 449.865 377.631L450.25 382.312C450.266 382.5 450.352 382.675 450.491 382.803C450.63 382.93 450.811 383.001 451 383H458.5C458.689 383.001 458.87 382.93 459.009 382.803C459.148 382.675 459.234 382.5 459.25 382.312L459.641 377.631C460.014 377.494 460.385 377.338 460.755 377.164L464.346 380.202C464.489 380.323 464.673 380.386 464.861 380.379C465.049 380.371 465.227 380.293 465.36 380.16L470.663 374.857C470.796 374.724 470.874 374.545 470.882 374.357C470.89 374.17 470.827 373.985 470.706 373.842L467.665 370.25C467.838 369.88 467.994 369.507 468.131 369.136L472.812 368.75C473 368.734 473.175 368.648 473.303 368.509C473.43 368.37 473.501 368.189 473.5 368V360.5C473.501 360.311 473.43 360.13 473.303 359.991C473.175 359.852 473 359.766 472.812 359.75ZM472 367.31L467.52 367.685C467.372 367.697 467.232 367.753 467.116 367.844C467 367.936 466.914 368.06 466.869 368.2C466.663 368.827 466.409 369.438 466.108 370.025C466.041 370.157 466.014 370.305 466.031 370.452C466.048 370.599 466.108 370.737 466.203 370.85L469.111 374.287L464.784 378.614L461.35 375.703C461.237 375.608 461.099 375.548 460.952 375.531C460.805 375.514 460.657 375.541 460.525 375.608C459.938 375.908 459.328 376.163 458.702 376.369C458.561 376.415 458.437 376.501 458.346 376.617C458.254 376.733 458.199 376.873 458.187 377.02L457.81 381.5H451.69L451.315 377.02C451.303 376.873 451.247 376.733 451.156 376.617C451.064 376.501 450.94 376.415 450.8 376.369C450.173 376.163 449.563 375.909 448.975 375.608C448.843 375.541 448.695 375.514 448.548 375.531C448.401 375.548 448.263 375.608 448.15 375.703L444.713 378.611L440.386 374.284L443.297 370.85C443.392 370.737 443.452 370.599 443.469 370.452C443.486 370.305 443.459 370.157 443.392 370.025C443.091 369.438 442.837 368.828 442.632 368.202C442.586 368.061 442.5 367.937 442.384 367.846C442.268 367.754 442.128 367.699 441.981 367.687L437.5 367.31V361.19L441.981 360.815C442.128 360.803 442.268 360.747 442.384 360.656C442.5 360.564 442.586 360.44 442.632 360.3C442.837 359.673 443.091 359.063 443.392 358.475C443.459 358.343 443.486 358.195 443.469 358.048C443.452 357.901 443.392 357.763 443.297 357.65L440.389 354.217L444.716 349.889L448.15 352.797C448.263 352.892 448.401 352.952 448.548 352.969C448.695 352.986 448.843 352.959 448.975 352.892C449.562 352.592 450.172 352.337 450.798 352.131C450.939 352.085 451.063 351.999 451.154 351.883C451.246 351.767 451.301 351.627 451.314 351.48L451.69 347H457.81L458.185 351.48C458.197 351.627 458.253 351.767 458.344 351.883C458.436 351.999 458.56 352.085 458.7 352.131C459.327 352.337 459.937 352.591 460.525 352.892C460.656 352.96 460.805 352.987 460.952 352.97C461.099 352.953 461.238 352.893 461.35 352.797L464.787 349.889L469.114 354.217L466.203 357.65C466.108 357.763 466.048 357.901 466.031 358.048C466.014 358.195 466.041 358.343 466.108 358.475C466.409 359.062 466.663 359.672 466.869 360.298C466.914 360.439 467 360.563 467.116 360.654C467.232 360.746 467.372 360.801 467.52 360.814L472 361.189V367.31Z" fill="#191B1D"/>
<path d="M454.75 353C452.525 353 450.35 353.66 448.5 354.896C446.65 356.132 445.208 357.889 444.356 359.945C443.505 362 443.282 364.262 443.716 366.445C444.15 368.627 445.222 370.632 446.795 372.205C448.368 373.778 450.373 374.85 452.555 375.284C454.738 375.718 457 375.495 459.055 374.644C461.111 373.792 462.868 372.35 464.104 370.5C465.34 368.65 466 366.475 466 364.25C465.997 361.267 464.81 358.408 462.701 356.299C460.592 354.19 457.733 353.003 454.75 353ZM454.75 374C452.822 374 450.937 373.428 449.333 372.357C447.73 371.285 446.48 369.763 445.742 367.981C445.004 366.2 444.811 364.239 445.187 362.348C445.564 360.457 446.492 358.719 447.856 357.356C449.219 355.992 450.957 355.064 452.848 354.687C454.739 354.311 456.7 354.504 458.481 355.242C460.263 355.98 461.785 357.23 462.857 358.833C463.928 360.437 464.5 362.322 464.5 364.25C464.497 366.835 463.469 369.313 461.641 371.141C459.813 372.969 457.335 373.997 454.75 374Z" fill="#191B1D"/>
<path d="M454.75 357.5C453.415 357.5 452.11 357.896 451 358.638C449.89 359.379 449.025 360.433 448.514 361.667C448.003 362.9 447.869 364.257 448.13 365.567C448.39 366.876 449.033 368.079 449.977 369.023C450.921 369.967 452.124 370.61 453.433 370.87C454.743 371.131 456.1 370.997 457.333 370.486C458.567 369.975 459.621 369.11 460.362 368C461.104 366.89 461.5 365.585 461.5 364.25C461.498 362.46 460.786 360.745 459.521 359.479C458.255 358.214 456.54 357.502 454.75 357.5ZM454.75 369.5C453.712 369.5 452.697 369.192 451.833 368.615C450.97 368.038 450.297 367.218 449.9 366.259C449.502 365.3 449.398 364.244 449.601 363.226C449.803 362.207 450.303 361.272 451.038 360.538C451.772 359.803 452.707 359.303 453.726 359.101C454.744 358.898 455.8 359.002 456.759 359.4C457.718 359.797 458.538 360.47 459.115 361.333C459.692 362.197 460 363.212 460 364.25C459.998 365.642 459.445 366.976 458.461 367.961C457.476 368.945 456.142 369.498 454.75 369.5Z" fill="#191B1D"/>
</g>
<path d="M254.358 497.603C254.311 497.603 254.263 497.597 254.216 497.588C254.171 497.579 254.125 497.565 254.081 497.547C254.037 497.529 253.995 497.506 253.957 497.48C253.916 497.454 253.879 497.424 253.846 497.39C253.711 497.256 253.634 497.068 253.634 496.878C253.634 496.83 253.639 496.783 253.648 496.736C253.657 496.691 253.671 496.645 253.689 496.601C253.707 496.557 253.73 496.515 253.756 496.475C253.783 496.436 253.813 496.399 253.846 496.366C253.879 496.332 253.916 496.301 253.955 496.276C253.995 496.25 254.037 496.227 254.081 496.209C254.124 496.191 254.171 496.177 254.216 496.168C254.31 496.149 254.407 496.149 254.5 496.168C254.547 496.177 254.592 496.191 254.636 496.209C254.679 496.227 254.721 496.25 254.761 496.276C254.8 496.301 254.837 496.332 254.871 496.366C254.904 496.399 254.935 496.436 254.961 496.475C254.986 496.515 255.009 496.557 255.027 496.601C255.045 496.645 255.059 496.691 255.068 496.736C255.078 496.783 255.083 496.83 255.083 496.878C255.083 497.068 255.005 497.256 254.871 497.39C254.837 497.424 254.8 497.454 254.761 497.48C254.721 497.506 254.679 497.529 254.636 497.547C254.592 497.565 254.547 497.579 254.5 497.588C254.453 497.597 254.406 497.603 254.358 497.603Z" fill="#191B1D"/>
<path d="M284.133 466.162H281.838C281.437 466.162 281.113 465.838 281.113 465.437C281.113 465.036 281.437 464.712 281.838 464.712H284.133C284.533 464.712 284.857 465.036 284.857 465.437C284.857 465.838 284.533 466.162 284.133 466.162Z" fill="#191B1D"/>
<path d="M284.133 471.467H281.838C281.437 471.467 281.113 471.143 281.113 470.742C281.113 470.342 281.437 470.018 281.838 470.018H284.133C284.533 470.018 284.857 470.342 284.857 470.742C284.857 471.143 284.533 471.467 284.133 471.467Z" fill="#191B1D"/>
<path d="M284.133 476.772H281.838C281.437 476.772 281.113 476.448 281.113 476.047C281.113 475.647 281.437 475.323 281.838 475.323H284.133C284.533 475.323 284.857 475.647 284.857 476.047C284.857 476.448 284.533 476.772 284.133 476.772Z" fill="#191B1D"/>
<path d="M284.133 482.076H281.838C281.437 482.076 281.113 481.752 281.113 481.352C281.113 480.951 281.437 480.627 281.838 480.627H284.133C284.533 480.627 284.857 480.951 284.857 481.352C284.857 481.752 284.533 482.076 284.133 482.076Z" fill="#191B1D"/>
<path d="M284.133 487.381H281.838C281.437 487.381 281.113 487.057 281.113 486.657C281.113 486.256 281.437 485.932 281.838 485.932H284.133C284.533 485.932 284.857 486.256 284.857 486.657C284.857 487.057 284.533 487.381 284.133 487.381Z" fill="#191B1D"/>
<path d="M284.133 492.687H281.838C281.437 492.687 281.113 492.363 281.113 491.962C281.113 491.561 281.437 491.237 281.838 491.237H284.133C284.533 491.237 284.857 491.561 284.857 491.962C284.857 492.363 284.533 492.687 284.133 492.687Z" fill="#191B1D"/>
<path d="M276.241 489.712C275.841 489.712 275.517 489.388 275.517 488.987V477.572L264.828 488.262H272.555C272.956 488.262 273.28 488.586 273.28 488.987C273.28 489.388 272.956 489.712 272.555 489.712H263.078C262.785 489.712 262.521 489.535 262.408 489.264C262.297 488.993 262.359 488.682 262.566 488.475L275.729 475.312C275.936 475.105 276.247 475.042 276.519 475.154C276.79 475.266 276.966 475.531 276.966 475.824V488.987C276.966 489.387 276.642 489.712 276.241 489.712Z" fill="#191B1D"/>
<path d="M284.132 497.603H256.723C256.323 497.603 255.999 497.279 255.999 496.878C255.999 496.477 256.323 496.153 256.723 496.153H283.408V458.521L245.777 496.153H251.874C252.274 496.153 252.598 496.477 252.598 496.878C252.598 497.279 252.274 497.603 251.874 497.603H244.027C243.734 497.603 243.47 497.426 243.357 497.155C243.246 496.884 243.308 496.573 243.515 496.366L283.62 456.261C283.827 456.053 284.138 455.991 284.41 456.103C284.681 456.215 284.857 456.48 284.857 456.773V496.878C284.857 497.279 284.533 497.603 284.132 497.603Z" fill="#191B1D"/>
<path d="M276.546 457.347C276.392 457.347 276.237 457.299 276.106 457.198C275.833 456.989 275.746 456.619 275.891 456.312C275.98 456.097 276.168 455.936 276.395 455.884C276.64 455.827 276.896 455.899 277.073 456.077L277.083 456.087C277.365 456.369 277.365 456.829 277.083 457.111L277.059 457.135C276.918 457.276 276.733 457.347 276.546 457.347Z" fill="#191B1D"/>
<path d="M247.471 485.477C246.701 485.477 245.931 485.184 245.346 484.598L243.087 482.339C241.915 481.167 241.915 479.261 243.087 478.089L245.099 476.076C245.382 475.794 245.841 475.794 246.124 476.076C246.407 476.359 246.407 476.819 246.124 477.101L244.112 479.114C243.505 479.72 243.505 480.708 244.112 481.314L246.37 483.573C246.977 484.18 247.965 484.18 248.571 483.573L274.308 457.836C273.929 457.706 273.575 457.489 273.276 457.191C272.75 456.665 272.464 455.939 272.489 455.195C271.747 455.221 271.021 454.934 270.494 454.409C270.194 454.109 269.978 453.755 269.848 453.377L248.159 475.066C247.877 475.349 247.417 475.349 247.134 475.066C246.852 474.784 246.852 474.324 247.134 474.041L270.203 450.973C270.463 450.713 270.875 450.689 271.162 450.916C271.451 451.143 271.525 451.549 271.333 451.862C271.035 452.352 271.112 452.978 271.518 453.385C271.767 453.633 272.097 453.764 272.448 453.748C272.846 453.732 273.235 453.884 273.517 454.166C273.801 454.449 273.954 454.839 273.938 455.238C273.923 455.59 274.051 455.919 274.301 456.168C274.707 456.574 275.332 456.651 275.822 456.355C276.135 456.165 276.541 456.24 276.767 456.528C276.992 456.816 276.968 457.227 276.709 457.487L249.596 484.598C249.01 485.184 248.241 485.477 247.471 485.477Z" fill="#191B1D"/>
<path d="M248.354 480.056C248.168 480.056 247.983 479.985 247.841 479.843C247.559 479.561 247.559 479.101 247.841 478.819L268.461 458.198C268.744 457.916 269.204 457.916 269.486 458.198C269.769 458.481 269.769 458.94 269.486 459.223L248.866 479.843C248.725 479.984 248.54 480.056 248.354 480.056Z" fill="#191B1D"/>
<path d="M270.698 457.711C270.652 457.711 270.604 457.706 270.557 457.696C270.511 457.687 270.465 457.673 270.422 457.655C270.377 457.637 270.336 457.614 270.297 457.589C270.256 457.562 270.22 457.532 270.186 457.498C270.051 457.363 269.974 457.177 269.974 456.986C269.974 456.938 269.979 456.891 269.988 456.844C269.997 456.798 270.012 456.752 270.03 456.709C270.047 456.665 270.07 456.623 270.096 456.583C270.123 456.544 270.153 456.507 270.186 456.474C270.22 456.441 270.256 456.409 270.297 456.384C270.336 456.358 270.377 456.335 270.422 456.317C270.465 456.299 270.511 456.285 270.557 456.276C270.792 456.228 271.043 456.305 271.211 456.474C271.245 456.507 271.275 456.544 271.301 456.583C271.328 456.623 271.349 456.665 271.368 456.709C271.386 456.752 271.4 456.798 271.409 456.844C271.419 456.891 271.423 456.938 271.423 456.986C271.423 457.177 271.346 457.363 271.211 457.498C271.076 457.633 270.89 457.711 270.698 457.711Z" fill="#191B1D"/>
<path d="M247.471 485.54C246.74 485.54 246.009 485.261 245.452 484.705L242.979 482.232C241.867 481.12 241.867 479.309 242.979 478.196L245.099 476.076C245.382 475.794 245.842 475.794 246.124 476.076L251.608 481.561C251.891 481.843 251.891 482.303 251.608 482.585L249.488 484.705C248.933 485.261 248.202 485.54 247.471 485.54ZM246.477 483.68C247.025 484.227 247.916 484.227 248.464 483.68L250.071 482.072L245.612 477.613L244.004 479.22C243.457 479.768 243.457 480.659 244.004 481.207L246.477 483.68Z" fill="#191B1D"/>
<path d="M275.179 457.981C274.483 457.981 273.797 457.711 273.277 457.191C272.751 456.665 272.464 455.939 272.49 455.195C271.747 455.22 271.021 454.934 270.495 454.409C269.614 453.528 269.45 452.171 270.096 451.107C270.133 451.046 270.172 450.99 270.211 450.935C270.347 450.745 270.528 450.593 270.737 450.489C270.766 450.475 270.796 450.462 270.826 450.45C270.908 450.416 270.992 450.389 271.081 450.371L279.319 447.44C279.582 447.346 279.877 447.412 280.075 447.611C280.273 447.809 280.339 448.102 280.246 448.366L277.312 456.607C277.294 456.692 277.269 456.775 277.237 456.854C277.223 456.889 277.209 456.923 277.191 456.955C277.09 457.159 276.94 457.337 276.759 457.47C276.699 457.512 276.642 457.55 276.579 457.59C276.142 457.853 275.659 457.981 275.179 457.981ZM272.508 453.746C272.884 453.746 273.25 453.897 273.518 454.165C273.802 454.448 273.955 454.838 273.938 455.237C273.924 455.589 274.052 455.918 274.302 456.167C274.708 456.573 275.333 456.65 275.822 456.354C275.843 456.34 275.869 456.324 275.896 456.306C275.903 456.261 275.914 456.217 275.929 456.175L278.37 449.318L271.512 451.759C271.47 451.774 271.426 451.784 271.382 451.792C271.365 451.815 271.349 451.84 271.333 451.866C271.037 452.353 271.113 452.979 271.519 453.386C271.768 453.634 272.099 453.764 272.449 453.749C272.469 453.746 272.488 453.746 272.508 453.746Z" fill="#191B1D"/>
<path d="M278.057 453.075C277.872 453.075 277.687 453.005 277.545 452.863L274.821 450.14C274.539 449.857 274.539 449.397 274.821 449.115C275.104 448.832 275.564 448.832 275.846 449.115L278.57 451.838C278.852 452.121 278.852 452.58 278.57 452.863C278.428 453.005 278.243 453.075 278.057 453.075Z" fill="#191B1D"/>
<defs>
<clipPath id="clip0">
<rect width="48" height="48" fill="white" transform="translate(436 335)"/>
</clipPath>
</defs>
</svg>
