<svg width="48" height="50" viewBox="0 0 48 50" fill="none" xmlns="http://www.w3.org/2000/svg">
<g clip-path="url(#clip0)">
<path d="M41.9998 0.781738H11.5998C9.8325 0.781738 8.3998 2.24429 8.3998 4.0484V31.8151H7.5998C7.158 31.8151 6.7998 32.1807 6.7998 32.6317V33.4484H2.7998V35.0817H6.7998V46.5151H2.7998V48.1484H6.7998V48.9651C6.7998 49.4161 7.158 49.7817 7.5998 49.7817H15.5998C16.0416 49.7817 16.3998 49.4161 16.3998 48.9651V48.1484H18.6134C20.7849 49.2205 23.1653 49.7788 25.5774 49.7817H34.3998C35.4775 49.7776 36.4571 49.1424 36.919 48.1484H41.9998C43.7671 48.1484 45.1998 46.6859 45.1998 44.8817V4.0484C45.1998 2.24429 43.7671 0.781738 41.9998 0.781738ZM14.7998 48.1484H8.3998V33.4484H14.7998V48.1484ZM34.3998 37.5317C35.0625 37.5317 35.5998 38.0802 35.5998 38.7567C35.5998 39.4332 35.0625 39.9817 34.3998 39.9817H32.3998V41.6151H34.3998C35.0625 41.6151 35.5998 42.1636 35.5998 42.8401C35.5998 43.5166 35.0625 44.0651 34.3998 44.0651H32.3998V45.6984H34.3998C35.0625 45.6984 35.5998 46.2469 35.5998 46.9234C35.5998 47.5999 35.0625 48.1484 34.3998 48.1484H25.5774C23.3487 48.1446 21.1512 47.6135 19.1574 46.5967C19.046 46.5416 18.9236 46.5136 18.7998 46.5151H16.3998V35.0817H18.7998C18.9938 35.0817 19.1811 35.0098 19.327 34.8792L20.7622 33.5979C23.7717 30.9237 25.2152 26.8528 24.5798 22.8317H24.7398C26.0547 22.8278 27.2023 23.7407 27.5198 25.0433C28.073 27.2836 27.9162 29.6453 27.0718 31.7889L27.0582 31.8151H25.1998V33.4484H34.3998C35.0625 33.4484 35.5998 33.9969 35.5998 34.6734C35.5998 35.3499 35.0625 35.8984 34.3998 35.8984H32.3998V37.5317H34.3998ZM43.5998 44.8817C43.5998 45.7838 42.8835 46.5151 41.9998 46.5151H37.159C37.0741 45.8949 36.7909 45.3207 36.3534 44.8817C37.458 43.7879 37.4848 41.9872 36.4133 40.8596C36.3936 40.8388 36.3737 40.8185 36.3534 40.7984C37.458 39.7046 37.4848 37.9038 36.4133 36.7762C36.3936 36.7555 36.3737 36.7352 36.3534 36.7151C37.4602 35.6158 37.4845 33.8088 36.4076 32.6789C35.8803 32.1256 35.1559 31.8139 34.3998 31.8151H28.7566C29.5427 29.5079 29.6511 27.0164 29.0686 24.6472C28.5749 22.6188 26.7896 21.1956 24.7422 21.1984H23.5998C23.158 21.1984 22.7998 21.5641 22.7998 22.0151C22.7998 22.0819 22.8079 22.1486 22.8238 22.2135C23.7427 25.9275 22.5381 29.8535 19.7078 32.3688L18.499 33.4484H16.3998V32.6317C16.3998 32.1807 16.0416 31.8151 15.5998 31.8151H9.9998V8.94841H43.5998V44.8817ZM43.5998 7.31507H9.9998V4.0484C9.9998 3.14629 10.7161 2.41507 11.5998 2.41507H41.9998C42.8835 2.41507 43.5998 3.14629 43.5998 4.0484V7.31507Z" fill="#006291"/>
<path d="M12.3998 45.7151V45.6817C12.3998 45.2399 12.0416 44.8817 11.5998 44.8817C11.158 44.8817 10.7998 45.2399 10.7998 45.6817V45.7151C10.7998 46.1569 11.158 46.5151 11.5998 46.5151C12.0416 46.5151 12.3998 46.1569 12.3998 45.7151Z" fill="#006291"/>
<path d="M13.1996 4.88173V4.8484C13.1996 4.40657 12.8414 4.0484 12.3996 4.0484C11.9578 4.0484 11.5996 4.40657 11.5996 4.8484V4.88173C11.5996 5.32356 11.9578 5.68173 12.3996 5.68173C12.8414 5.68173 13.1996 5.32356 13.1996 4.88173Z" fill="#006291"/>
<path d="M16.3998 4.88173V4.8484C16.3998 4.40657 16.0416 4.0484 15.5998 4.0484C15.158 4.0484 14.7998 4.40657 14.7998 4.8484V4.88173C14.7998 5.32356 15.158 5.68173 15.5998 5.68173C16.0416 5.68173 16.3998 5.32356 16.3998 4.88173Z" fill="#006291"/>
<path d="M19.6 4.88173V4.8484C19.6 4.40657 19.2418 4.0484 18.8 4.0484C18.3582 4.0484 18 4.40657 18 4.8484V4.88173C18 5.32356 18.3582 5.68173 18.8 5.68173C19.2418 5.68173 19.6 5.32356 19.6 4.88173Z" fill="#006291"/>
<path d="M28.3837 14.6651H13.2171C12.766 14.6651 12.4004 15.0307 12.4004 15.4817C12.4004 15.9328 12.766 16.2984 13.2171 16.2984H28.3837C28.8348 16.2984 29.2004 15.9328 29.2004 15.4817C29.2004 15.0307 28.8348 14.6651 28.3837 14.6651Z" fill="#006291"/>
<path d="M28.3837 17.9317H13.2171C12.766 17.9317 12.4004 18.2974 12.4004 18.7484C12.4004 19.1994 12.766 19.5651 13.2171 19.5651H28.3837C28.8348 19.5651 29.2004 19.1994 29.2004 18.7484C29.2004 18.2974 28.8348 17.9317 28.3837 17.9317Z" fill="#006291"/>
<path d="M28.3831 11.3984H19.6165C19.1654 11.3984 18.7998 11.764 18.7998 12.2151C18.7998 12.6661 19.1654 13.0317 19.6165 13.0317H28.3831C28.8342 13.0317 29.1998 12.6661 29.1998 12.2151C29.1998 11.764 28.8342 11.3984 28.3831 11.3984Z" fill="#006291"/>
<path d="M17.1996 12.2317V12.1984C17.1996 11.7566 16.8414 11.3984 16.3996 11.3984C15.9578 11.3984 15.5996 11.7566 15.5996 12.1984V12.2317C15.5996 12.6736 15.9578 13.0317 16.3996 13.0317C16.8414 13.0317 17.1996 12.6736 17.1996 12.2317Z" fill="#006291"/>
<path d="M40.3996 21.1984H32.3996C31.9578 21.1984 31.5996 21.5641 31.5996 22.0151V28.5484C31.5996 28.9994 31.9578 29.3651 32.3996 29.3651H40.3996C40.8414 29.3651 41.1996 28.9994 41.1996 28.5484V22.0151C41.1996 21.5641 40.8414 21.1984 40.3996 21.1984ZM39.5996 27.7317H33.1996V22.8317H39.5996V27.7317Z" fill="#006291"/>
<path d="M40.3996 11.3984H32.3996C31.9578 11.3984 31.5996 11.7641 31.5996 12.2151V18.7484C31.5996 19.1994 31.9578 19.5651 32.3996 19.5651H40.3996C40.8414 19.5651 41.1996 19.1994 41.1996 18.7484V12.2151C41.1996 11.7641 40.8414 11.3984 40.3996 11.3984ZM39.5996 17.9317H33.1996V13.0317H39.5996V17.9317Z" fill="#006291"/>
<path d="M18.8004 21.1984H13.2004C12.7586 21.1984 12.4004 21.5641 12.4004 22.0151V28.5484C12.4004 28.9994 12.7586 29.3651 13.2004 29.3651H18.8004C19.2422 29.3651 19.6004 28.9994 19.6004 28.5484V22.0151C19.6004 21.5641 19.2422 21.1984 18.8004 21.1984ZM18.0004 27.7317H14.0004V22.8317H18.0004V27.7317Z" fill="#006291"/>
</g>
<defs>
<clipPath id="clip0">
<rect width="48" height="49" fill="white" transform="translate(0 0.781738)"/>
</clipPath>
</defs>
</svg>
