<svg width="50" height="50" viewBox="0 0 50 50" fill="none" xmlns="http://www.w3.org/2000/svg">
<g clip-path="url(#clip0)">
<path d="M25.0014 13.371C19.5076 13.371 15.0382 17.8404 15.0382 23.3341C15.0382 28.8279 19.5076 33.2973 25.0014 33.2973C30.4951 33.2973 34.9645 28.8279 34.9645 23.3341C34.9645 17.8404 30.495 13.371 25.0014 13.371ZM31.8469 19.1799H29.2908C29.1004 18.2419 28.8449 17.3726 28.5287 16.607C28.4445 16.4031 28.3563 16.2084 28.2648 16.0225C29.754 16.6897 31.0045 17.7967 31.8469 19.1799ZM23.2794 17.3527C23.7884 16.1207 24.4644 15.3245 25.0014 15.3245C25.5384 15.3245 26.2144 16.1206 26.7232 17.3527C26.9498 17.9014 27.1403 18.5168 27.2935 19.1798H22.7091C22.8624 18.5168 23.0527 17.9016 23.2794 17.3527ZM17.3017 25.535C17.1013 24.8352 16.9917 24.0975 16.9917 23.3341C16.9917 22.5709 17.1013 21.8332 17.3017 21.1333H20.4206C20.3499 21.8474 20.3128 22.5844 20.3128 23.3341C20.3128 24.0839 20.35 24.8209 20.4206 25.535H17.3017ZM18.1558 27.4886H20.7118C20.9023 28.4266 21.1577 29.2959 21.4739 30.0615C21.5581 30.2654 21.6462 30.4601 21.7378 30.6459C20.2486 29.9787 18.9982 28.8716 18.1558 27.4886ZM21.4738 16.607C21.1576 17.3726 20.9023 18.2419 20.7117 19.1799H18.1557C18.9981 17.7968 20.2486 16.6897 21.7376 16.0225C21.6462 16.2084 21.5581 16.403 21.4738 16.607ZM26.7233 29.3156C26.2144 30.5477 25.5384 31.3438 25.0014 31.3438C24.4644 31.3438 23.7884 30.5477 23.2795 29.3156C23.0529 28.7669 22.8624 28.1515 22.7093 27.4886H27.2937C27.1403 28.1516 26.9499 28.7669 26.7233 29.3156ZM27.6188 25.535H22.3837C22.3068 24.8273 22.2664 24.0894 22.2664 23.3341C22.2664 22.5789 22.3069 21.841 22.3837 21.1333H27.6189C27.6958 21.841 27.7362 22.5788 27.7362 23.3341C27.7362 24.0894 27.6957 24.8274 27.6188 25.535ZM28.2649 30.6459C28.3564 30.46 28.4445 30.2653 28.5288 30.0615C28.845 29.2959 29.1004 28.4266 29.2909 27.4886H31.8469C31.0044 28.8716 29.754 29.9787 28.2649 30.6459ZM29.5819 25.5351C29.6526 24.821 29.6897 24.0839 29.6897 23.3342C29.6898 22.5845 29.6526 21.8475 29.5819 21.1334H32.7009C32.9012 21.8332 33.0108 22.5709 33.0108 23.3342C33.0108 24.0976 32.9013 24.8352 32.7009 25.5351H29.5819Z" fill="#006290"/>
<path d="M35.0658 35.9646C34.8843 35.7829 34.6322 35.6782 34.3753 35.6782C34.1184 35.6782 33.8664 35.7827 33.6847 35.9646C33.503 36.1472 33.3984 36.3981 33.3984 36.6562C33.3984 36.9131 33.5028 37.165 33.6847 37.3458C33.8663 37.5283 34.1184 37.633 34.3753 37.633C34.6322 37.633 34.8842 37.5285 35.0658 37.3458C35.2475 37.1643 35.3521 36.9131 35.3521 36.6562C35.3521 36.3981 35.2475 36.1472 35.0658 35.9646Z" fill="#006290"/>
<path d="M30.1793 35.6787H15.6252C15.0858 35.6787 14.6484 36.1161 14.6484 36.6555C14.6484 37.1948 15.0858 37.6322 15.6252 37.6322H30.1793C30.7186 37.6322 31.156 37.1948 31.156 36.6555C31.156 36.1161 30.7186 35.6787 30.1793 35.6787Z" fill="#006290"/>
<path d="M28.7636 39.9395H21.2424C20.703 39.9395 20.2656 40.3769 20.2656 40.9162C20.2656 41.4556 20.703 41.893 21.2424 41.893H28.7636C29.3029 41.893 29.7403 41.4556 29.7403 40.9162C29.7403 40.3769 29.303 39.9395 28.7636 39.9395Z" fill="#006290"/>
<path d="M41.0193 22.893C41.5587 22.893 41.9961 22.4557 41.9961 21.9163V10.1477C41.9961 8.16229 40.8046 6.45097 39.0996 5.68827V3.68212C39.0996 2.57412 38.608 1.53613 37.7507 0.834179C36.8935 0.132228 35.7791 -0.144823 34.6928 0.073341L8.78821 5.283C8.78811 5.283 8.78801 5.283 8.78791 5.2831C8.78293 5.28407 8.77815 5.28544 8.77317 5.28652C8.75393 5.29071 8.73645 5.29521 8.72043 5.30009C8.30764 5.41415 8.00403 5.79149 8.00403 6.24061V49.0236C8.00403 49.563 8.44143 50.0004 8.98078 50.0004H37.1121C39.805 50.0004 41.996 47.8095 41.996 45.1165V30.9587C41.996 30.4194 41.5586 29.982 41.0192 29.982C40.4798 29.982 40.0424 30.4194 40.0424 30.9587V45.1165C40.0424 46.7323 38.7279 48.0469 37.1121 48.0469H9.95764V7.21737H37.1122C38.728 7.21737 40.0425 8.53192 40.0425 10.1477V21.9163C40.0424 22.4557 40.4798 22.893 41.0193 22.893ZM37.146 5.26464C37.1346 5.26454 37.1235 5.26376 37.1121 5.26376H18.7921L35.0781 1.98857C35.5879 1.88623 36.1108 2.01611 36.513 2.3456C36.9152 2.67509 37.1459 3.1621 37.1459 3.68212V5.26464H37.146Z" fill="#006290"/>
<path d="M41.7103 25.8209C41.5288 25.6394 41.2768 25.5356 41.0198 25.5356C40.7629 25.5356 40.5109 25.6393 40.3292 25.8209C40.1476 26.0035 40.043 26.2546 40.043 26.5125C40.043 26.7694 40.1474 27.0214 40.3292 27.2031C40.5109 27.3848 40.7629 27.4893 41.0198 27.4893C41.2768 27.4893 41.5287 27.385 41.7103 27.2031C41.892 27.0215 41.9967 26.7694 41.9967 26.5125C41.9967 26.2546 41.8922 26.0025 41.7103 25.8209Z" fill="#006290"/>
</g>
<defs>
<clipPath id="clip0">
<rect width="50" height="50" fill="white" transform="translate(0 0.000488281)"/>
</clipPath>
</defs>
</svg>
