<svg width="50" height="50" viewBox="0 0 50 50" fill="none" xmlns="http://www.w3.org/2000/svg">
<path d="M40.8325 5.66738C37.1373 2.0127 32.2443 0 27.055 0C21.8656 0 16.9726 2.0127 13.2774 5.66738C9.57939 9.325 7.54277 14.1697 7.54277 19.3092C7.54277 20.5489 6.50019 22.7126 4.68251 25.2451C3.08398 27.4725 3.30517 29.0247 3.77207 29.9347C4.27539 30.9153 5.54326 32.0676 8.70107 32.2643V37.4258C8.70107 40.7189 11.405 43.398 14.7287 43.398C17.8213 43.398 19.4241 43.5113 20.1688 44.1549C20.8995 44.7863 21.1256 46.3112 21.3075 49.0871C21.3412 49.6006 21.7675 49.9998 22.282 49.9998H38.6861C38.9562 49.9998 39.2143 49.8879 39.3989 49.6908C39.5836 49.4938 39.6782 49.2289 39.6606 48.9594C39.4903 46.3612 39.4352 44.5564 39.4763 42.925C39.4898 42.3858 39.0637 41.9378 38.5246 41.9241C38.5162 41.9239 38.5079 41.9238 38.4995 41.9238C37.9717 41.9238 37.5371 42.345 37.5237 42.8758C37.4869 44.3395 37.5239 45.9258 37.6472 48.0467H23.1922C22.9975 45.5173 22.6817 43.7452 21.4458 42.6772C20.116 41.5279 18.021 41.445 14.7286 41.445C12.4819 41.445 10.6541 39.642 10.6541 37.4259V35.7103C10.7086 35.7197 10.7643 35.7256 10.8215 35.7256H14.2534C14.7927 35.7256 15.23 35.2883 15.23 34.749C15.23 34.2098 14.7927 33.7725 14.2534 33.7725H10.8215C10.7643 33.7725 10.7086 33.7784 10.6541 33.7878V31.3169C10.6541 30.7776 10.2168 30.3403 9.67753 30.3403C7.48476 30.3403 5.92666 29.8553 5.50966 29.0429C5.20078 28.441 5.4706 27.4967 6.26914 26.3839C7.74111 24.333 9.4958 21.4408 9.4958 19.3091C9.4958 18.3195 9.58124 17.3495 9.74296 16.4048C14.2053 16.676 17.982 19.1837 22.3198 22.0662C27.4342 25.4647 33.1875 29.2877 41.1846 29.7664C40.3647 31.2135 39.7071 32.5908 39.1891 33.9433C38.9962 34.4469 39.248 35.0115 39.7519 35.2045C40.2555 35.3973 40.8202 35.1455 41.0131 34.6417C41.6555 32.9643 42.5344 31.2348 43.6999 29.3546C45.5756 26.3291 46.567 22.8553 46.567 19.309C46.5671 14.1698 44.5306 9.325 40.8325 5.66738ZM24.4577 13.5899C23.9966 13.3051 23.5384 13.0221 23.0833 12.7423C25.0702 12.6058 26.9583 12.5964 28.7029 12.6273C28.2231 13.3979 27.7194 14.4287 27.5879 15.5076C26.5293 14.8683 25.4814 14.2225 24.4577 13.5899ZM29.5074 16.036C29.5074 14.3943 31.36 12.1463 32.1065 11.6646C32.8532 12.1463 34.7056 14.3943 34.7056 16.036C34.7056 16.7226 34.4176 17.4032 33.9154 17.9034C33.421 18.3961 32.7777 18.666 32.1027 18.6635C32.0995 18.6635 32.0965 18.6635 32.0932 18.6635C31.4271 18.6635 30.7896 18.3937 30.2974 17.9034C29.7954 17.4032 29.5074 16.7226 29.5074 16.036ZM44.3071 16.0755C42.2333 16.5204 39.5576 16.7487 36.6026 16.7336C36.6394 16.5032 36.6588 16.27 36.6588 16.036C36.6588 14.8457 36.136 13.6716 35.6099 12.791C38.0962 12.7885 40.609 12.61 42.8908 11.8145C43.54 13.1494 44.0206 14.5789 44.3071 16.0755ZM35.2938 19.2871C35.4837 19.098 35.6547 18.8928 35.8077 18.6762C36.1627 18.6828 36.5156 18.6874 36.8641 18.6874C39.7789 18.6874 42.4425 18.4559 44.5653 18.017C44.5973 18.4438 44.614 18.8746 44.614 19.3093C44.614 20.3223 44.5229 21.3286 44.3456 22.3177C41.6429 22.171 38.6184 21.2852 34.9824 19.5702C35.0895 19.481 35.1936 19.3869 35.2938 19.2871ZM41.9204 10.0823C39.7762 10.7622 37.2764 10.8835 34.1011 10.8213C33.5166 10.2248 32.782 9.65547 32.1065 9.65547C31.5305 9.65547 30.9115 10.0696 30.3792 10.5614C29.4047 9.50889 27.8869 8.21113 26.1564 6.94502C27.4628 6.92432 28.6996 6.95977 29.9112 6.99502C33.0738 7.08701 35.8317 7.16709 38.4764 6.1377C39.814 7.27246 40.9769 8.60244 41.9204 10.0823ZM36.5326 4.70449C34.5978 5.17676 32.4878 5.11572 29.968 5.04268C28.0408 4.98652 25.8666 4.92422 23.4625 5.11729C22.4904 4.5085 21.3362 3.84199 20.2096 3.32656C22.3142 2.44258 24.6278 1.95312 27.055 1.95312C30.5432 1.95312 33.797 2.96396 36.5326 4.70449ZM17.8676 4.52451C20.3237 5.19102 24.922 8.21543 27.6792 10.6616C25.4067 10.6461 22.918 10.7203 20.2837 11.0517C18.0032 9.71016 15.8448 8.55752 13.8917 7.83613C15.0418 6.54834 16.3814 5.43008 17.8676 4.52451ZM10.1885 14.4793C10.7208 12.6658 11.5453 10.9743 12.6076 9.45693C15.6355 10.4356 19.429 12.779 23.4311 15.2516C24.9241 16.1737 26.466 17.1249 28.0302 18.0463C28.2548 18.5016 28.5536 18.923 28.919 19.287C29.7802 20.1448 30.9067 20.6165 32.0856 20.6165H32.12C32.2892 20.6165 32.4569 20.6059 32.623 20.5869C37.0146 22.822 40.6339 24.0005 43.8817 24.2443C43.5029 25.4978 42.9812 26.7098 42.3202 27.8557C34.3213 27.6928 28.7708 24.0079 23.401 20.4396C19.1082 17.5871 15.0357 14.8829 10.1885 14.4793Z" fill="#006290"/>
<path d="M13.3985 20.9512C12.8593 20.9512 12.4224 21.3885 12.4224 21.9277C12.4224 22.467 12.8601 22.9043 13.3994 22.9043C13.9388 22.9043 14.376 22.467 14.376 21.9277C14.376 21.3885 13.9387 20.9512 13.3994 20.9512H13.3985Z" fill="#006290"/>
<path d="M38.9182 37.5493H38.9175C38.3782 37.5493 37.9413 37.9866 37.9413 38.5259C37.9413 39.0651 38.3789 39.5024 38.9182 39.5024C39.4576 39.5024 39.8948 39.0651 39.8948 38.5259C39.8948 37.9866 39.4576 37.5493 38.9182 37.5493Z" fill="#006290"/>
</svg>
