<svg width="42" height="41" viewBox="0 0 42 41" fill="none" xmlns="http://www.w3.org/2000/svg">
<g clip-path="url(#clip0)">
<path d="M32.376 0H2.62598C1.17624 0 0.000976562 1.14728 0.000976562 2.5625V23.0625C0.000976562 24.4777 1.17624 25.625 2.62598 25.625H14.001V23.9167H2.62598C2.14273 23.9167 1.75095 23.5342 1.75095 23.0625V2.5625C1.75095 2.09076 2.14273 1.70831 2.62598 1.70831H32.376C32.8592 1.70831 33.251 2.09076 33.251 2.5625V17.9375H35.001V2.5625C35.001 1.14728 33.8257 0 32.376 0Z" fill="#006291"/>
<path d="M12.25 24.7708H10.5V29.8958H12.25V24.7708Z" fill="#006291"/>
<path d="M6.125 20.5C5.64175 20.5 5.24997 20.1175 5.24997 19.6458V18.8125C5.24997 18.3292 4.85823 17.9375 4.37499 17.9375C3.89174 17.9375 3.5 18.3292 3.5 18.8125V19.6458C3.5 21.061 4.67526 22.2083 6.125 22.2083H7.02082C7.49255 22.2083 7.87497 21.8259 7.87497 21.3542C7.87497 20.8824 7.49255 20.5 7.02082 20.5H6.125Z" fill="#006291"/>
<path d="M4.39582 14.5208H4.35415C3.88242 14.5208 3.5 14.9032 3.5 15.3749C3.5 15.8466 3.88242 16.2291 4.35415 16.2291H4.39582C4.86756 16.2291 5.24997 15.8466 5.24997 15.3749C5.24997 14.9032 4.86756 14.5208 4.39582 14.5208Z" fill="#006291"/>
<path d="M31.9789 18.0928C30.1959 16.3519 27.7774 15.3739 25.2555 15.374C20.0051 15.3743 15.7489 19.5294 15.749 24.6549C15.7493 29.7804 20.0058 33.9353 25.2563 33.9351C27.7773 33.935 30.1949 32.9575 31.9777 31.2175C35.6907 27.5935 35.6912 21.7175 31.9789 18.0928ZM25.251 32.2276C20.967 32.2262 17.4953 28.8348 17.4968 24.6528C17.4983 20.4708 20.9723 17.0818 25.2563 17.0832C27.3154 17.0778 29.2909 17.8776 30.7416 19.304C32.1951 20.7244 33.0112 22.6502 33.0105 24.658C33.0091 28.84 29.535 32.229 25.251 32.2276Z" fill="#006291"/>
<path d="M41.7434 37.1563L36.251 31.7964C36.087 31.6362 35.8644 31.5461 35.6324 31.5461C35.4004 31.5462 35.1779 31.6362 35.0138 31.7964L32.5726 34.1795C32.231 34.513 32.231 35.0537 32.5726 35.3873L38.065 40.7498C38.2291 40.91 38.4516 41 38.6836 41C38.916 40.9993 39.1386 40.9083 39.3022 40.7472L41.7434 38.3641C42.085 38.0305 42.085 37.4898 41.7434 37.1563ZM38.6835 38.9381L34.4284 34.7834L35.6324 33.6081L39.8875 37.7628L38.6835 38.9381Z" fill="#006291"/>
<path d="M31.9786 30.0089L30.7412 31.2168L33.7927 34.1956L35.0301 32.9877L31.9786 30.0089Z" fill="#006291"/>
<path d="M26.2278 18.8501C25.7601 18.7861 25.375 19.1748 25.375 19.6469C25.375 20.1182 25.7604 20.4919 26.2232 20.5812C27.9442 20.913 29.3029 22.2288 29.6586 23.9032C29.759 24.3755 30.1411 24.7709 30.6239 24.7709C31.1076 24.7709 31.5063 24.3761 31.4342 23.8979C31.0396 21.2827 28.9126 19.2179 26.2278 18.8501Z" fill="#006291"/>
<path d="M14.8958 29.0417H9.60415C9.13242 29.0417 8.75 29.4242 8.75 29.8959C8.75 30.3676 9.13242 30.7501 9.60415 30.7501H14.8958C15.3676 30.7501 15.75 30.3676 15.75 29.8959C15.75 29.4242 15.3676 29.0417 14.8958 29.0417Z" fill="#006291"/>
<path d="M13.125 3.41675C11.6753 3.41675 10.5 4.56403 10.5 5.97925C10.5 7.39447 11.6753 8.54175 13.125 8.54175C14.5747 8.54175 15.75 7.39447 15.75 5.97925C15.75 4.56403 14.5747 3.41675 13.125 3.41675ZM13.125 6.83336C12.6418 6.83336 12.25 6.45091 12.25 5.97917C12.25 5.50743 12.6418 5.12497 13.125 5.12497C13.6082 5.12497 14 5.50743 14 5.97917C14 6.45099 13.6082 6.83336 13.125 6.83336Z" fill="#006291"/>
<path d="M19.25 9.39575C17.8003 9.39575 16.625 10.543 16.625 11.9582C16.625 13.3735 17.8003 14.5207 19.25 14.5207C20.6997 14.5207 21.875 13.3735 21.875 11.9582C21.875 10.543 20.6997 9.39575 19.25 9.39575ZM19.25 12.8124C18.7668 12.8124 18.375 12.43 18.375 11.9582C18.375 11.4865 18.7668 11.1041 19.25 11.1041C19.7332 11.1041 20.125 11.4865 20.125 11.9582C20.1249 12.43 19.7332 12.8124 19.25 12.8124Z" fill="#006291"/>
<path d="M11.013 6.83371L7.87554 9.89652C7.53384 10.2301 7.53384 10.7709 7.87554 11.1045C8.21724 11.438 8.77124 11.438 9.11294 11.1045L12.2505 8.04165C12.5922 7.70809 12.5922 7.16727 12.2505 6.83371C11.9088 6.50015 11.3547 6.50015 11.013 6.83371Z" fill="#006291"/>
<path d="M14.6144 6.23175L13.377 7.4397L17.7519 11.7104L18.9893 10.5025L14.6144 6.23175Z" fill="#006291"/>
<path d="M25.375 3.41675C23.9253 3.41675 22.75 4.56403 22.75 5.97925C22.75 7.39447 23.9253 8.54175 25.375 8.54175C26.8247 8.54175 28 7.39447 28 5.97925C28.0001 4.56403 26.8248 3.41675 25.375 3.41675ZM25.375 6.83336C24.8918 6.83336 24.5 6.45091 24.5 5.97917C24.5 5.50743 24.8918 5.12497 25.375 5.12497C25.8582 5.12497 26.25 5.50743 26.25 5.97917C26.25 6.45099 25.8582 6.83336 25.375 6.83336Z" fill="#006291"/>
<path d="M23.8808 6.23267L19.5059 10.5034L20.7433 11.7114L25.1182 7.44061L23.8808 6.23267Z" fill="#006291"/>
</g>
<defs>
<clipPath id="clip0">
<rect width="42" height="41" fill="white"/>
</clipPath>
</defs>
</svg>
