<svg width="19" height="18" viewBox="0 0 19 18" fill="none" xmlns="http://www.w3.org/2000/svg">
<path d="M18.2644 14.8058L14.3506 11.1222C15.0844 10.0478 15.4921 8.81999 15.4921 7.43866C15.4921 3.60162 12.2306 0.531982 8.15377 0.531982C4.07692 0.531982 0.81543 3.60162 0.81543 7.43866C0.81543 11.2757 4.07692 14.3453 8.15377 14.3453C9.62144 14.3453 10.926 13.9616 12.0676 13.271L15.9813 16.9545C16.3075 17.2615 16.7152 17.415 17.1229 17.415C18.0198 17.415 18.7536 16.7243 18.7536 15.8801C18.7536 15.4197 18.5905 15.036 18.2644 14.8058ZM4.07692 7.43866C4.07692 5.28991 5.87073 3.60162 8.15377 3.60162C10.4368 3.60162 12.2306 5.28991 12.2306 7.43866C12.2306 9.5874 10.4368 11.2757 8.15377 11.2757C5.87073 11.2757 4.07692 9.5874 4.07692 7.43866Z" fill="#006290"/>
</svg>
