<svg width="41" height="41" viewBox="0 0 41 41" fill="none" xmlns="http://www.w3.org/2000/svg">
<g clip-path="url(#clip0)">
<path d="M7.2666 14.4728C6.82461 14.4728 6.46582 14.8313 6.46582 15.2733C6.46582 15.7153 6.82461 16.074 7.2666 16.074C7.70859 16.074 8.06738 15.7153 8.06738 15.2733C8.06738 14.8313 7.70859 14.4728 7.2666 14.4728Z" fill="#006291"/>
<path d="M29.7031 24.0413C29.5533 23.8911 29.3493 23.8067 29.1369 23.8067C29.1288 23.8083 28.821 23.791 28.5707 24.0413L28.0049 24.6072L26.165 22.7675C30.2252 17.0761 29.6077 9.22496 24.6075 4.22509C18.9751 -1.40728 9.85811 -1.40822 4.22512 4.22509C-1.40725 9.85714 -1.40819 18.9745 4.22512 24.6075C9.2128 29.5955 17.0608 30.2355 22.7673 26.1649L24.6072 28.0048L24.0413 28.5707C23.7288 28.8832 23.7285 29.3906 24.0413 29.7034L34.1649 39.8261C35.7293 41.3913 38.2614 41.3923 39.8261 39.8264C41.3914 38.2624 41.392 35.7299 39.8261 34.1652L29.7031 24.0413ZM25.7395 26.8725L24.0251 25.158C24.2243 24.9794 24.4192 24.7961 24.6075 24.6075C24.7961 24.4192 24.9794 24.2243 25.158 24.0253L26.8725 25.7398L25.7395 26.8725ZM5.35747 23.4751C0.350713 18.4687 0.350087 10.3645 5.35747 5.35744C10.3639 0.350682 18.4681 0.350057 23.4751 5.35744C28.4706 10.3526 28.496 18.4549 23.4751 23.4751C18.3977 28.5532 10.2957 28.4137 5.35747 23.4751ZM29.1369 25.7398L31.4013 28.0045L28.0046 31.4013L25.7399 29.1369L29.1369 25.7398ZM38.6937 38.694C37.7553 39.6334 36.2367 39.6337 35.2976 38.694L29.1369 32.5336L32.5337 29.1369L38.6941 35.2979C39.6331 36.236 39.634 37.7547 38.6937 38.694Z" fill="#006291"/>
<path d="M22.3427 6.48972C17.9638 2.11076 10.8697 2.10826 6.48884 6.4891C2.11895 10.8599 2.11895 17.9719 6.48884 22.343C10.8703 26.7242 17.9603 26.7245 22.3421 22.343C26.7129 17.9719 26.7133 10.8602 22.3427 6.48972ZM21.2098 21.2103C17.4545 24.9656 11.3774 24.9665 7.6212 21.2106C3.87567 17.4639 3.87567 11.3679 7.6212 7.62114C11.3745 3.8681 17.4558 3.86716 21.2104 7.62208C24.9565 11.3682 24.9562 17.4639 21.2098 21.2103Z" fill="#006291"/>
<path d="M14.4158 6.40975C12.2756 6.40975 10.2649 7.24244 8.75401 8.75423C7.87816 9.63008 7.23347 10.6648 6.83808 11.8304C6.69607 12.2489 6.92004 12.7037 7.33888 12.8457C7.75836 12.988 8.21255 12.7628 8.35456 12.3449C8.67018 11.4143 9.18569 10.5873 9.88637 9.88627C11.095 8.67728 12.7035 8.01131 14.4158 8.01131C14.8581 8.01131 15.2166 7.65284 15.2166 7.21053C15.2166 6.76823 14.8581 6.40975 14.4158 6.40975Z" fill="#006291"/>
</g>
<defs>
<clipPath id="clip0">
<rect width="41" height="41" fill="white"/>
</clipPath>
</defs>
</svg>
