<svg width="374" height="293" viewBox="0 0 374 293" fill="none" xmlns="http://www.w3.org/2000/svg">
<rect x="0.5" y="60.3209" width="373" height="231.587" rx="19.5" stroke="#C6DBF8"/>
<rect x="29.3428" y="97.5347" width="315.318" height="122.736" rx="1.5" stroke="#E2EDFB"/>
<rect x="29.3079" y="239.843" width="71.6368" height="0.930348" rx="0.465174" stroke="#E2EDFB" stroke-width="0.930348"/>
<rect x="166.998" y="149.599" width="40.005" height="0.930348" rx="0.465174" stroke="#E2EDFB" stroke-width="0.930348"/>
<rect x="149.09" y="160.531" width="76.7537" height="0.465174" rx="0.232587" stroke="#E2EDFB" stroke-width="0.465174"/>
<rect x="161.184" y="168.904" width="52.5647" height="0.465174" rx="0.232587" stroke="#E2EDFB" stroke-width="0.465174"/>
<rect x="155.603" y="87.9637" width="18.1418" height="0.465174" rx="0.232587" stroke="#E2EDFB" stroke-width="0.465174"/>
<rect x="183.514" y="87.9638" width="8.83831" height="0.465174" rx="0.232587" stroke="#E2EDFB" stroke-width="0.465174"/>
<rect x="202.121" y="87.9638" width="14.4204" height="0.465174" rx="0.232587" stroke="#E2EDFB" stroke-width="0.465174"/>
<rect x="226.311" y="87.9638" width="14.4204" height="0.465174" rx="0.232587" stroke="#E2EDFB" stroke-width="0.465174"/>
<rect x="28.8433" y="85.8706" width="40.9353" height="4.65174" rx="2.32587" fill="#E2EDFB"/>
<rect x="327.053" y="86.3705" width="17.607" height="3.65174" rx="1.5" stroke="#E2EDFB"/>
<rect x="29.0754" y="248.914" width="131.644" height="0.465174" rx="0.232587" stroke="#E2EDFB" stroke-width="0.465174"/>
<rect x="259.804" y="248.914" width="85.1269" height="0.465174" rx="0.232587" stroke="#E2EDFB" stroke-width="0.465174"/>
<rect x="29.0754" y="257.287" width="126.062" height="0.465174" rx="0.232587" stroke="#E2EDFB" stroke-width="0.465174"/>
<rect x="259.804" y="257.287" width="81.4055" height="0.465174" rx="0.232587" stroke="#E2EDFB" stroke-width="0.465174"/>
<rect x="29.0754" y="265.66" width="62.7985" height="0.465174" rx="0.232587" stroke="#E2EDFB" stroke-width="0.465174"/>
<rect x="259.804" y="265.66" width="40.4701" height="0.465174" rx="0.232587" stroke="#E2EDFB" stroke-width="0.465174"/>
<circle r="91.245" transform="matrix(-1 0 0 1 202.364 105.684)" fill="white" fill-opacity="0.5" stroke="#C6DBF8" stroke-width="28"/>
<path d="M88.5381 263.286C88.9323 263.128 90.2724 262.813 91.4549 262.576C92.5585 262.34 94.687 261.157 96.0272 260.054C97.3673 258.871 108.089 245.706 119.835 230.649C131.659 215.671 143.169 201.008 145.455 198.092L149.633 192.81L156.492 196.357C175.254 205.896 198.351 209.601 218.059 206.211C251.957 200.457 278.918 180.827 293.817 151.108C301.149 136.602 304.223 122.965 304.223 105.621C304.223 87.7265 300.833 73.6944 293.029 58.6374C278.287 30.5731 250.933 10.5497 219.794 5.03146C211.359 3.53365 191.808 3.69131 183.373 5.34679C163.586 9.2884 146.243 18.1964 131.975 31.9133C122.594 40.8213 116.524 49.1775 111.005 60.687C106.118 70.6987 105.093 73.7732 106.591 73.3002C107.064 73.1425 113.055 71.1717 119.913 68.9644L132.29 64.8651L135.207 60.4505C139.464 53.9075 152.235 41.5308 159.093 37.2738C166.346 32.7804 174.071 29.3906 182.348 27.1833C190.468 24.976 206.313 24.1877 214.827 25.6067C247.464 30.8096 273.4 54.6958 281.441 86.7805C284.042 97.344 283.884 114.529 281.046 125.093C272.454 157.414 246.203 180.906 213.566 185.715C200.874 187.528 184.398 185.084 170.997 179.408C145.14 168.451 124.801 141.332 122.357 114.608C122.042 111.455 121.411 109.169 120.938 109.169C118.889 109.169 100.757 115.712 100.757 116.421C100.757 119.102 104.305 133.843 106.354 139.677C109.507 148.664 112.109 153.709 118.179 162.696L123.067 170.027L111.715 181.616C105.487 187.922 92.0856 201.481 82.0739 211.651C70.4067 223.476 63.3118 231.201 62.6023 233.093C60.868 237.192 61.0256 242.79 62.9964 246.81C64.8884 250.752 75.0578 260.054 79.8665 262.182C82.7045 263.522 86.4885 263.995 88.5381 263.286Z" fill="#C6DBF8"/>
<path d="M216.675 103.502C216.675 106.365 215.352 109.111 212.997 111.135C210.643 113.16 207.449 114.297 204.119 114.297C200.788 114.297 197.595 113.16 195.24 111.135C192.885 109.111 191.562 106.365 191.562 103.502C191.562 100.639 192.885 97.893 195.24 95.8686C197.595 93.8441 200.788 92.7067 204.119 92.7067C207.449 92.7067 210.643 93.8441 212.997 95.8686C215.352 97.893 216.675 100.639 216.675 103.502ZM155.439 101.015C166.068 81.767 182.133 72.0802 203.67 72.0802C225.218 72.0802 241.273 81.7669 251.901 101.025C252.327 101.801 252.548 102.648 252.548 103.507C252.548 104.365 252.327 105.213 251.901 105.989C241.273 125.237 225.207 134.924 203.67 134.924C182.122 134.924 166.068 125.237 155.439 105.979C154.576 104.418 154.576 102.606 155.439 101.015ZM204.119 120.466C215.016 120.466 223.85 112.871 223.85 103.502C223.85 94.1332 215.016 86.538 204.119 86.538C193.221 86.538 184.387 94.1332 184.387 103.502C184.387 112.871 193.221 120.466 204.119 120.466Z" fill="#C6DBF8"/>
</svg>
