<svg width="402" height="349" viewBox="0 0 402 349" fill="none" xmlns="http://www.w3.org/2000/svg">
<rect x="0.500488" y="99.5" width="401" height="249" rx="19.5" stroke="#C6DBF8"/>
<rect x="1.00049" y="126" width="400" height="1" fill="#E2EDFB"/>
<circle cx="24.0005" cy="113" r="3.5" stroke="#E2EDFB"/>
<circle cx="37.0005" cy="113" r="3.5" stroke="#E2EDFB"/>
<circle cx="50.0005" cy="113" r="3.5" stroke="#E2EDFB"/>
<path d="M74.5005 118C74.5005 112.753 78.7538 108.5 84.0005 108.5H140C145.247 108.5 149.5 112.753 149.5 118V126.5H74.5005V118Z" stroke="#E2EDFB"/>
<rect x="85.5005" y="117.5" width="45" height="1" rx="0.5" stroke="#E2EDFB"/>
<rect x="371.5" y="108.5" width="9" height="9" rx="2.5" stroke="#E2EDFB"/>
<path d="M31.5005 238.051C31.5005 226.701 40.7014 217.5 52.0512 217.5H350.245C361.595 217.5 370.796 226.701 370.796 238.051C370.796 249.401 361.595 258.601 350.245 258.601H52.0512C40.7014 258.601 31.5005 249.401 31.5005 238.051Z" stroke="#E2EDFB"/>
<path d="M62.1115 238.212C62.1115 237.735 62.0734 237.255 61.992 236.786H55.4645V239.488H59.2025C59.0474 240.36 58.549 241.131 57.8192 241.621V243.374H60.0493C61.3588 242.152 62.1115 240.347 62.1115 238.212Z" fill="#C6DBF8"/>
<path d="M55.4685 245.068C57.335 245.068 58.909 244.446 60.0558 243.374L57.8258 241.621C57.2053 242.049 56.4043 242.291 55.4711 242.291C53.6657 242.291 52.1349 241.056 51.5856 239.395H49.2844V241.203C50.4592 243.572 52.852 245.068 55.4685 245.068Z" fill="#C6DBF8"/>
<path d="M51.5814 239.395C51.2915 238.524 51.2915 237.58 51.5814 236.709V234.901H49.2827C48.3011 236.884 48.3028 239.22 49.2844 241.203L51.5814 239.395Z" fill="#C6DBF8"/>
<path d="M55.4685 233.811C56.4552 233.795 57.4087 234.172 58.1233 234.863L60.0991 232.859C58.848 231.668 57.1875 231.013 55.4685 231.034C52.852 231.034 50.4574 232.529 49.2827 234.901L51.5814 236.709C52.1281 235.046 53.6631 233.811 55.4685 233.811Z" fill="#C6DBF8"/>
<path d="M348.405 239.898C349.631 239.898 350.614 238.908 350.614 237.682L350.621 233.25C350.621 232.024 349.631 231.034 348.405 231.034C347.179 231.034 346.189 232.024 346.189 233.25V237.682C346.189 238.908 347.179 239.898 348.405 239.898ZM352.32 237.682C352.32 239.898 350.444 241.449 348.405 241.449C346.367 241.449 344.491 239.898 344.491 237.682H343.235C343.235 240.201 345.244 242.284 347.667 242.646V245.068H349.144V242.646C351.567 242.291 353.576 240.208 353.576 237.682H352.32Z" fill="#C6DBF8"/>
<g clip-path="url(#clip0)">
<path d="M111.192 287.236C109.155 286.401 108.267 285.775 108.163 284.993C107.954 283.532 112.601 278.89 116.048 277.117C118.449 275.865 119.337 275.709 123.88 275.709C129.519 275.709 129.832 275.5 127.483 272.788C125.655 270.753 123.723 265.016 123.723 261.73C123.723 258.288 125.864 252.446 127.117 252.446C127.43 252.446 128.214 252.915 128.84 253.489C129.467 254.063 130.146 254.532 130.354 254.532C131.138 254.584 134.323 259.383 135.367 262.043C136.62 265.173 136.777 270.701 135.785 273.309C134.271 277.117 133.383 278.838 132.234 280.09C131.555 280.82 130.877 281.811 130.72 282.333C130.563 282.802 130.198 283.219 129.937 283.219C129.676 283.219 128.997 283.637 128.475 284.158C123.775 288.383 116.987 289.583 111.192 287.236Z" fill="#E2EDFB"/>
<path d="M279.219 287.496C272.274 284.993 267.471 278.89 265.539 270.127C265.121 268.25 266.008 263.399 267.262 260.582C268.985 256.827 274.259 251.82 275.616 252.707C275.877 252.863 276.608 254.532 277.287 256.462C279.167 262.199 278.122 268.041 274.311 273.1C273.632 273.987 273.058 274.926 273.058 275.239C273.058 275.552 275.042 275.708 277.914 275.708C282.039 275.656 283.135 275.865 285.641 277.012C287.26 277.795 289.766 279.62 291.281 281.133C295.145 285.045 294.988 285.462 289.088 287.861C286.947 288.696 282.039 288.539 279.219 287.496Z" fill="#E2EDFB"/>
<path d="M90.6711 271.536C88.1648 270.284 86.1284 268.771 86.1284 268.041C86.1284 267.102 89.9923 263.921 92.7597 262.617C96.3104 260.948 101.48 260.583 105.605 261.782C106.962 262.2 108.215 262.356 108.372 262.2C108.529 262.043 108.111 260.426 107.38 258.601C105.5 253.959 105.187 250.777 106.179 246.865C106.91 244.101 109.677 238.885 110.461 238.885C110.617 238.885 111.557 239.719 112.549 240.71C117.823 245.978 118.92 255.106 115.16 262.252C114.429 263.556 109.625 268.719 108.007 269.919C107.589 270.232 106.179 271.014 104.821 271.64C101.271 273.257 94.274 273.205 90.6711 271.536Z" fill="#E2EDFB"/>
<path d="M296.608 271.484C292.848 269.71 288.358 265.016 286.165 260.53C284.546 257.14 284.442 256.671 284.651 252.707C284.912 247.804 286.635 243.683 289.611 240.71C291.595 238.728 292.378 238.833 293.527 241.232C293.788 241.806 294.415 243.11 294.989 244.101C296.347 246.656 296.817 251.664 295.981 255.262C295.616 256.879 295.198 258.183 294.989 258.183C294.519 258.183 293.266 261.834 293.632 262.199C293.788 262.408 294.937 262.199 296.138 261.782C299.428 260.739 305.693 260.948 308.565 262.252C311.385 263.503 315.301 266.268 315.666 267.311C316.084 268.302 313.996 270.284 311.698 271.171C310.706 271.588 309.662 272.11 309.401 272.37C309.087 272.579 306.738 272.788 304.179 272.788C300.211 272.788 298.958 272.579 296.608 271.484Z" fill="#E2EDFB"/>
<path d="M77.0968 254.011C73.8072 252.967 70.4132 250.933 68.4813 248.795L67.3325 247.491L68.4813 246.5C70.9876 244.413 75.3214 242.849 79.1332 242.64C82.3705 242.431 83.3104 242.64 86.6521 244.048C88.793 244.935 90.6205 245.509 90.7771 245.405C90.8816 245.248 90.7249 243.944 90.3594 242.431C88.5841 235.599 90.4116 228.662 95.2154 224.124L96.7819 222.611L97.6695 223.863C99.0794 225.689 100.594 228.922 101.272 231.687C102.056 234.608 101.429 239.041 99.7059 242.797C98.4006 245.665 92.7091 251.455 90.2028 252.446C89.2629 252.863 88.3752 253.333 88.2186 253.489C87.9575 253.802 81.4828 255.106 80.5952 255.002C80.3341 255.002 78.7676 254.532 77.0968 254.011Z" fill="#E2EDFB"/>
<path d="M317.442 254.48C309.139 252.811 302.038 245.613 300.733 237.581C300.263 234.556 300.889 229.757 302.038 227.671C303.448 225.167 305.014 222.716 305.276 222.716C305.954 222.716 309.139 226.419 310.236 228.505C311.541 231.009 312.69 234.764 312.742 236.746C312.742 237.424 312.377 239.563 311.855 241.545C311.385 243.527 311.176 245.3 311.332 245.509C311.541 245.665 313.056 245.144 314.674 244.361C320.522 241.441 328.25 242.171 333.054 246.135L334.829 247.595L333.315 249.004C328.459 253.489 322.611 255.575 317.442 254.48Z" fill="#E2EDFB"/>
<path d="M65.7626 233.408C61.8987 232.522 61.2199 232.209 58.2958 230.122C55.8939 228.401 53.231 225.167 53.231 224.02C53.231 223.185 56.3117 221.829 59.9145 221.151C64.8749 220.16 70.1487 221.673 74.3259 225.324C76.78 227.514 77.2499 227.358 76.6234 224.698C75.8923 221.621 76.5189 216.405 77.981 213.171C79.443 209.937 84.3512 204.878 85.8132 205.086C87.223 205.295 88.7895 210.146 88.8417 214.371C88.8417 218.022 87.4319 222.664 85.6044 224.854C82.6281 228.453 82.1582 228.923 81.8449 228.975C81.636 228.975 80.5917 229.601 79.4952 230.331C78.3987 231.061 76.8322 231.948 75.9446 232.313C74.3259 233.043 69.6787 234.243 68.9999 234.138C68.7911 234.086 67.3291 233.773 65.7626 233.408Z" fill="#E2EDFB"/>
<path d="M329.401 233.408C324.127 232.104 318.905 228.662 316.086 224.541C313.057 220.16 312.326 212.493 314.572 207.746C315.25 206.234 316.034 204.982 316.242 204.982C317.913 204.982 322.299 209.52 324.127 213.066C325.171 215.153 325.485 216.665 325.693 220.786C325.85 223.55 326.163 225.845 326.424 225.845C326.685 225.845 327.678 225.271 328.565 224.593C332.847 221.412 337.859 220.108 342.35 221.151C345.953 221.933 348.772 223.185 348.772 224.072C348.772 225.428 343.447 231.061 342.141 231.061C341.776 231.061 341.462 231.322 341.462 231.583C341.462 231.896 340.992 232.104 340.47 232.104C339.896 232.104 339.322 232.313 339.165 232.574C339.008 232.782 337.859 233.147 336.659 233.356C335.405 233.565 333.943 233.825 333.369 233.93C332.795 234.034 331.019 233.773 329.401 233.408Z" fill="#E2EDFB"/>
<path d="M57.6711 210.98C57.41 210.876 56.209 210.511 55.0081 210.25C52.5018 209.572 48.3245 206.964 46.3404 204.721C44.9828 203.209 42.7897 199.245 42.7897 198.253C42.7897 197.367 47.4891 196.48 51.0397 196.741C55.1647 197.054 58.9764 198.775 62.3704 201.905C63.5714 203 64.8245 203.939 65.1901 203.939C65.5033 203.939 65.7644 203.156 65.7644 202.165C65.7644 200.027 67.4353 194.602 68.7407 192.62C69.9939 190.691 72.9179 187.77 73.5967 187.77C73.8578 187.77 74.1189 187.561 74.1189 187.352C74.1189 186.831 77.5128 185.162 78.5049 185.162C80.0714 185.162 80.8024 192.881 79.6014 196.115C79.1315 197.419 78.6094 198.932 78.4527 199.505C77.8783 201.331 74.3277 205.712 72.7613 206.547C71.9258 206.964 70.9337 207.642 70.5682 207.955C68.9495 209.52 59.603 211.658 57.6711 210.98Z" fill="#E2EDFB"/>
<path d="M339.372 210.719C338.641 210.511 336.918 209.989 335.508 209.624C332.793 208.946 328.407 206.182 326.423 203.991C325.796 203.261 324.543 201.174 323.708 199.453C322.454 196.845 322.141 195.541 322.141 192.673C322.141 190.691 322.402 188.187 322.715 187.092C323.185 185.266 323.394 185.11 324.647 185.423C326.005 185.736 328.094 187.092 330.391 189.074C333.576 191.786 336.239 197.575 336.239 201.696C336.239 203 336.5 203.939 336.814 203.939C337.179 203.939 338.432 203 339.633 201.905C344.437 197.471 350.651 195.75 356.551 197.158C358.013 197.471 359.214 197.836 359.214 197.941C359.214 197.993 358.953 198.827 358.587 199.818C357.595 202.791 354.045 207.016 352.583 207.068C352.217 207.068 351.904 207.329 351.904 207.59C351.904 207.903 350.912 208.581 349.711 209.102C344.855 211.241 342.192 211.658 339.372 210.719Z" fill="#E2EDFB"/>
<path d="M51.1462 186.518C44.8803 184.744 40.0765 180.467 38.1446 174.991C37.4658 173.165 37.1003 171.392 37.3091 171.027C37.5702 170.609 39.0322 170.505 41.9563 170.662C45.2458 170.87 46.8123 171.235 49.0053 172.331C52.2427 174 56.1588 177.807 57.2553 180.363C57.6208 181.25 58.143 182.032 58.3518 182.032C58.5607 182.032 59.0306 180.676 59.4484 179.059C60.3882 174.834 62.4246 171.34 65.5053 168.68C67.855 166.593 72.5022 164.298 74.3297 164.298C76.105 164.298 75.6873 171.444 73.6509 175.93C71.249 181.145 65.1398 185.735 59.5006 186.466C58.1952 186.622 56.3155 186.831 55.3234 186.987C54.3313 187.092 52.4515 186.883 51.1462 186.518Z" fill="#E2EDFB"/>
<path d="M342.245 186.466C335.927 185.214 331.28 181.772 328.564 176.399C327.363 174 327.102 172.592 326.946 168.888C326.685 163.62 326.685 163.673 330.966 165.29C337.389 167.689 343.028 174.887 343.028 180.52C343.028 182.554 343.811 182.45 344.856 180.259C346.109 177.599 349.92 173.896 353.053 172.331C355.194 171.236 356.813 170.87 360.05 170.662C362.922 170.505 364.436 170.61 364.645 171.027C365.585 172.487 360.52 182.032 358.849 182.032C358.588 182.032 358.118 182.502 357.753 183.076C357.387 183.649 356.761 184.119 356.343 184.119C355.925 184.119 355.56 184.379 355.56 184.64C355.56 184.953 355.142 185.162 354.62 185.162C354.098 185.162 353.471 185.318 353.262 185.527C352.74 186.101 348.197 187.196 346.683 187.144C345.952 187.144 343.968 186.831 342.245 186.466Z" fill="#E2EDFB"/>
<path d="M48.6382 161.43C42.5813 159.552 37.3598 153.084 36.681 146.513L36.3677 143.279L39.4484 143.539C45.4531 144.009 51.3012 148.338 53.8076 154.075C54.4864 155.692 55.3218 156.996 55.6351 156.996C55.9484 156.996 56.575 156.11 56.9927 154.962C59.499 148.599 67.1746 143.07 72.9183 143.539C74.9025 143.696 74.9025 143.696 74.7458 145.782C74.5892 148.182 73.2316 152.146 72.1873 153.397C71.8218 153.815 71.5085 154.441 71.5085 154.701C71.5085 155.327 67.4879 159.083 66.8091 159.083C66.4958 159.083 66.287 159.291 66.287 159.5C66.287 160.074 63.8851 161.169 62.6319 161.169C62.0576 161.169 61.5876 161.43 61.5876 161.691C61.5876 162.473 51.3012 162.264 48.6382 161.43Z" fill="#E2EDFB"/>
<path d="M339.217 161.378C336.815 160.491 333.264 158.092 331.75 156.37C329.244 153.449 327.364 148.912 327.364 145.73V143.435H329.348C332.115 143.435 335.196 144.374 337.128 145.834C338.016 146.512 338.956 147.086 339.112 147.086C340 147.086 343.237 151.259 344.49 153.971C345.274 155.64 346.161 156.996 346.475 156.996C346.84 156.996 347.623 155.744 348.25 154.18C350.547 148.547 357.544 143.435 363.079 143.435H365.585L365.376 146.199C365.063 149.694 362.818 154.18 359.789 157.257C357.596 159.5 356.813 159.969 352.793 161.638C350.808 162.421 341.671 162.264 339.217 161.378Z" fill="#E2EDFB"/>
<path d="M53.4934 137.489C47.6453 135.664 43.207 131.439 41.3794 126.066C40.1785 122.624 39.813 117.721 40.6484 116.365C41.0139 115.791 41.4839 115.791 43.1025 116.313C47.2798 117.617 51.2481 120.486 53.5456 123.876C54.851 125.701 56.3652 130.083 56.3652 131.804C56.3652 133.629 57.775 133.264 58.7149 131.23C59.9681 128.57 63.2054 125.545 66.4427 123.98C69.419 122.52 74.5883 121.685 76.9902 122.259C78.2434 122.572 78.4 122.781 78.0867 124.189C77.4079 127.631 73.2307 134.047 71.7165 134.047C71.351 134.047 70.9855 134.36 70.8288 134.777C70.6722 135.194 69.6279 135.924 68.5314 136.394C67.4348 136.863 66.1295 137.489 65.6595 137.75C64.3019 138.428 55.9475 138.271 53.4934 137.489Z" fill="#E2EDFB"/>
<path d="M334.412 136.968C330.809 135.298 327.049 131.491 325.222 127.631C324.386 125.858 323.707 123.98 323.707 123.511C323.707 122.259 325.692 121.842 329.712 122.207C335.195 122.728 340.834 126.432 343.288 131.074C344.646 133.629 345.481 133.525 345.899 130.813C346.421 127.788 348.823 123.25 351.12 120.903C353.157 118.816 357.282 116.626 360.206 116.052L361.981 115.687L361.72 120.277C361.511 123.98 361.198 125.441 360.101 127.527C358.483 130.552 354.41 135.09 353.261 135.09C352.843 135.09 352.426 135.298 352.321 135.611C352.269 135.872 350.859 136.602 349.293 137.176C345.116 138.689 337.962 138.584 334.412 136.968Z" fill="#E2EDFB"/>
<path d="M60.3364 113.809C53.444 110.993 48.7968 105.151 48.1702 98.4226C47.8569 94.9801 48.7446 89.7122 49.6322 89.7122C50.8332 89.7122 54.7493 92.0593 56.7857 94.0935C59.6576 96.8057 61.4851 100.665 62.0072 105.047C62.2683 106.924 62.5816 108.646 62.7905 108.802C62.9471 109.011 64.2003 108.072 65.5057 106.768C66.811 105.464 69.2129 103.743 70.8838 102.908C73.3902 101.656 74.4867 101.448 78.0373 101.448C80.3348 101.448 82.8933 101.656 83.7288 101.865C85.0341 102.23 85.1908 102.439 84.9297 103.795C84.5642 105.464 81.6402 109.741 79.8126 111.306C79.186 111.827 77.1496 112.975 75.3221 113.757C70.7794 115.843 65.4534 115.843 60.3364 113.809Z" fill="#E2EDFB"/>
<path d="M327.57 114.279C325.012 113.288 321.67 110.993 320.156 109.271C318.798 107.707 316.918 104.108 316.918 103.065C316.918 101.917 319.059 101.448 323.968 101.448C327.518 101.448 328.615 101.656 331.278 102.96C333.001 103.795 335.403 105.516 336.656 106.82C337.857 108.124 339.058 109.011 339.214 108.802C339.423 108.645 339.736 107.081 339.945 105.412C340.363 101.604 342.295 97.275 344.801 94.5106C346.733 92.4242 352.111 89.1904 352.686 89.8163C352.895 90.025 353.26 91.0681 353.521 92.1635C354.931 98.2138 353.26 104.368 348.979 108.75C346.472 111.358 344.488 112.505 339.214 114.696C337.073 115.53 330.129 115.322 327.57 114.279Z" fill="#E2EDFB"/>
<path d="M74.6391 93.4153C68.6865 91.5376 62.9428 86.4782 61.0631 81.5754C59.6011 77.6113 59.6533 72.1347 61.2197 68.3793C61.8463 66.8146 62.6296 65.4585 62.9951 65.3541C63.8305 65.0412 69.6264 70.8829 70.6185 73.0214C72.1849 76.4117 72.6549 79.4369 72.3416 83.3487C72.1849 85.3829 72.1327 87.1041 72.2894 87.1041C72.446 87.1041 73.647 86.3218 75.0046 85.3308C79.7561 81.9926 80.7482 81.6275 86.1264 81.6797C90.2514 81.6797 91.4523 81.8362 93.3321 82.8272C94.533 83.4531 95.5251 84.3398 95.5251 84.757C95.5251 85.8002 88.7894 92.32 87.7451 92.32C87.2229 92.32 86.6485 92.5286 86.3353 92.7894C85.6565 93.4153 81.2704 94.4063 79.234 94.3541C78.2941 94.3541 76.2055 93.9369 74.6391 93.4153Z" fill="#E2EDFB"/>
<path d="M317.912 93.6762C316.606 93.3632 314.465 92.4244 313.16 91.642C310.602 90.1816 306.477 85.8524 306.477 84.7049C306.477 84.2877 307.469 83.4531 308.722 82.8272C310.549 81.8362 311.75 81.6276 315.875 81.6276C320.314 81.6276 321.149 81.7841 323.655 83.088C325.17 83.9226 327.049 85.1222 327.833 85.8524C328.564 86.5305 329.347 87.1042 329.503 87.1042C329.712 87.1042 329.817 84.9136 329.765 82.3057C329.712 75.7859 331.018 72.3956 335.299 68.1708C337.022 66.5017 338.693 65.2499 339.007 65.3542C340.051 65.6672 341.826 69.9441 342.192 72.8129C342.557 75.9423 341.931 79.3326 340.416 82.6186C339.372 84.9136 335.247 89.5035 333.159 90.651C332.48 91.0683 331.174 91.7985 330.287 92.2679C326.632 94.3021 322.141 94.8237 317.912 93.6762Z" fill="#E2EDFB"/>
<path d="M91.0366 74.8992C85.6062 73.5953 79.5492 68.7445 76.9385 63.5287C74.2755 58.3129 74.7454 51.2715 78.0872 46.0557L79.9147 43.1348L81.9511 45.1168C86.2328 49.2895 88.1647 56.9046 86.4416 62.7985C85.9195 64.4676 85.6584 65.928 85.815 66.0845C85.9717 66.2409 87.9036 65.615 90.1489 64.6762C93.7517 63.1636 94.5872 63.0071 97.8767 63.2158C101.741 63.5287 106.544 65.3021 108.215 67.1798C109.103 68.1186 109.051 68.2751 107.589 69.8399C106.753 70.7265 105.813 71.4568 105.5 71.4568C105.187 71.4568 104.926 71.6654 104.926 71.9262C104.926 72.5521 101.741 74.0125 98.3467 74.8992C95.0049 75.7337 94.5872 75.7337 91.0366 74.8992Z" fill="#E2EDFB"/>
<path d="M302.456 74.6384C299.114 73.6473 296.033 71.874 293.945 69.6312C292.744 68.3794 292.744 68.3272 293.736 67.2319C295.407 65.4063 300.211 63.5286 303.918 63.2157C307.521 62.9549 309.766 63.4765 313.63 65.3542C314.883 65.9279 315.98 66.293 316.136 66.1366C316.293 65.9801 316.032 64.0502 315.562 61.7553C314.518 56.9045 315.092 52.8884 317.233 49.133C319.113 45.9513 321.567 43.2912 322.35 43.6042C322.768 43.7607 323.864 45.4297 324.804 47.3596C326.475 50.5934 326.579 51.1671 326.579 55.8092C326.579 60.034 326.37 61.1294 325.274 63.2678C323.76 66.2409 318.434 71.7175 315.875 72.9171C314.883 73.3866 313.943 73.9081 313.787 74.0646C313.473 74.4297 307.573 75.6294 306.424 75.5772C306.007 75.5772 304.231 75.1599 302.456 74.6384Z" fill="#E2EDFB"/>
<path d="M105.551 57.6347C99.7547 54.9225 94.2199 47.2552 93.5933 40.9441C93.1233 36.6149 94.9509 31.1383 98.0316 27.6437L100.381 24.9836L101.53 26.079C103.932 28.3218 105.133 32.1815 105.185 37.293C105.185 41.4135 105.028 42.3523 103.671 45.0124C102.888 46.6815 102.313 48.1941 102.47 48.3505C102.626 48.507 104.506 48.1941 106.595 47.7246C111.399 46.6293 114.949 47.0466 118.918 49.0808C121.685 50.5412 125.288 53.4621 125.288 54.2444C125.288 54.6617 120.85 57.4782 118.865 58.3128C118.082 58.6779 115.367 58.9387 112.861 58.9387C109.153 58.9387 107.848 58.6779 105.551 57.6347Z" fill="#E2EDFB"/>
<path d="M281.674 57.6348C276.557 55.1834 276.139 54.1923 279.22 51.6366C284.128 47.5682 289.141 46.3686 295.25 47.7247C297.443 48.1941 299.375 48.4549 299.532 48.2985C299.688 48.1941 299.114 46.6816 298.331 45.0125C296.973 42.3524 296.817 41.4136 296.817 37.2931C296.869 32.1816 297.913 28.9477 300.419 26.2877L301.673 24.8794L302.926 26.1834C306.111 29.5215 307.938 33.2247 308.356 37.4495C308.774 41.0485 307.886 45.4819 306.424 47.5682C305.902 48.3506 305.432 49.1852 305.432 49.3938C305.432 50.5413 298.801 56.4873 296.19 57.6348C292.169 59.5125 285.434 59.5125 281.674 57.6348Z" fill="#E2EDFB"/>
<path d="M126.073 44.9082C119.859 42.0395 114.325 33.4855 114.325 26.6528C114.325 22.8452 116.518 17.3686 119.233 14.4999C120.799 12.8308 123.828 10.4316 124.402 10.4316C124.924 10.4316 126.804 16.0647 127.17 18.6204C127.378 20.2895 127.222 22.3237 126.647 24.41C125.76 27.8524 124.872 29.5737 122.575 32.0772C120.59 34.2157 120.643 34.9981 122.783 34.3722C126.961 33.1726 133.435 34.2157 137.038 36.6672C139.336 38.2319 143.043 42.2481 143.043 43.2391C143.043 43.7607 141.999 44.5431 140.38 45.2733C136.412 46.9945 130.302 46.8902 126.073 44.9082Z" fill="#E2EDFB"/>
<path d="M261.467 45.2733C259.953 44.6474 258.961 43.865 258.961 43.3435C258.961 42.3524 262.668 38.2841 264.965 36.7194C267.524 34.946 271.44 33.9028 275.513 33.9028C278.855 33.9028 279.325 33.7985 279.325 32.964C279.325 32.4424 278.907 31.5557 278.385 30.9819C275.774 28.1654 274.364 22.4801 275.095 17.8381C275.565 14.865 276.923 11.214 277.706 10.7445C278.437 10.2751 282.875 14.0827 284.442 16.4819C286.687 19.8201 287.418 22.4801 287.366 27.1222C287.366 30.5647 287.105 31.5035 285.382 34.8938C283.032 39.5359 279.325 43.2913 275.356 45.1168C271.545 46.8381 265.174 46.9424 261.467 45.2733Z" fill="#E2EDFB"/>
<path d="M153.33 37.7625C153.174 37.606 152.077 37.2409 150.876 36.9801C148.474 36.4585 144.401 33.8506 142.887 31.9729C142.365 31.2949 141.634 30.4603 141.269 30.0952C140.485 29.2607 138.553 24.4621 137.77 21.2283C136.987 18.0988 137.457 13.4567 138.814 10.4316C140.694 6.20674 147.43 0.208543 149.727 0.625809C151.451 0.938758 151.92 8.65818 150.511 12.8308C149.466 15.9082 148.631 17.3686 146.072 20.0808C144.976 21.2283 144.088 22.428 144.088 22.7409C144.088 23.0539 145.446 23.4711 147.273 23.6276C153.174 24.1492 159.126 28.0611 161.789 33.1204C163.46 36.2499 163.251 36.7193 160.118 37.4495C157.194 38.1276 153.852 38.2841 153.33 37.7625Z" fill="#E2EDFB"/>
<path d="M241.469 37.3452C240.32 37.0323 239.328 36.4064 239.224 35.937C239.015 34.7895 242.879 29.0521 244.967 27.4873C247.787 25.2967 251.546 23.8884 255.149 23.5754C256.977 23.4711 258.439 23.106 258.439 22.8452C258.439 22.5844 257.708 21.7499 256.872 21.0197C253.165 17.9424 250.607 12.3614 250.607 7.40638C250.607 4.12041 251.546 0.521484 252.382 0.521484C253.009 0.521484 257.603 3.18156 259.013 4.27688C260.736 5.68515 263.556 10.4837 264.183 13.0916C265.801 19.82 262.877 28.9477 257.656 33.5377C255.933 35.0503 251.808 37.0323 250.346 37.0323C249.615 37.0323 249.04 37.2931 249.04 37.5539C249.04 38.2841 244.028 38.1276 241.469 37.3452Z" fill="#E2EDFB"/>
<path d="M162.257 18.4118C160.847 17.9945 159.75 17.4729 159.75 17.2121C159.75 14.6564 164.711 9.38838 168.94 7.45852C172.857 5.68514 177.504 5.32003 181.211 6.51967C182.777 7.04125 184.187 7.51068 184.396 7.66715C184.866 7.92795 182.882 11.3182 180.898 13.5089C176.355 18.5682 169.045 20.4981 162.257 18.4118Z" fill="#E2EDFB"/>
<path d="M228.728 18.4639C225.7 17.3686 224.185 16.4298 221.47 13.874C219.173 11.6833 217.711 9.4927 217.711 8.18874C217.711 7.24989 222.932 5.7373 226.222 5.7373C232.122 5.7373 239.119 9.96212 241.521 15.0215C241.938 15.9603 242.2 16.8992 242.043 17.16C241.469 18.0467 236.56 19.2985 233.793 19.2985C232.279 19.2463 229.981 18.8812 228.728 18.4639Z" fill="#E2EDFB"/>
<path d="M146.174 286.61V283.741H149.568H152.962V262.93V242.119L154.529 240.815C155.364 240.085 156.931 239.198 158.027 238.885C160.481 238.05 163.614 236.538 164.502 235.651C164.92 235.286 166.538 233.93 168.105 232.626C175.415 226.732 182.412 218.282 186.015 210.98C189.252 204.408 191.602 196.063 191.602 190.951V188.5L188.886 187.561C181.472 184.953 174.997 180.728 168.627 174.261C164.815 170.349 163.092 168.993 161.056 168.263C153.484 165.498 141.684 158.665 135.209 153.345C129.1 148.338 121.894 139.941 117.874 133.264C113.279 125.597 108.475 113.914 107.013 106.664C105.812 100.822 104.872 94.0414 105.029 92.0594L105.185 89.973L122.364 89.8166L139.491 89.7122L139.125 83.1925L138.76 76.6727H201.053H263.293L262.98 83.1925L262.666 89.7122L279.741 89.8166L296.815 89.973L296.763 94.4065C296.606 103.899 292.847 116.626 286.529 129.092C280.733 140.567 266.374 155.275 254.834 161.638C251.962 163.203 243.242 167.428 242.877 167.428C242.616 167.428 241.467 167.897 240.266 168.471C239.117 169.045 237.864 169.514 237.551 169.514C237.29 169.514 237.029 169.723 237.029 169.984C237.029 170.61 229.458 178.277 226.847 180.259C223.035 183.18 216.717 186.362 211.234 188.135C210.347 188.396 210.295 188.865 210.556 192.412C210.921 197.106 211.913 201.174 214.106 206.651C215.568 210.302 219.432 217.344 220.32 218.022C220.529 218.178 220.894 218.647 221.155 219.117C222.983 222.403 227.734 227.254 237.029 235.234C238.647 236.642 240.318 237.529 243.973 238.885C245.488 239.459 247.367 240.554 248.046 241.284L249.299 242.64L249.456 263.191L249.613 283.741H252.693H255.826V286.61V289.478H201H146.174V286.61ZM153.484 152.302C153.484 152.041 152.858 150.216 152.127 148.286C146.592 133.942 143.094 120.225 141.475 107.185C141.162 104.317 140.744 101.448 140.64 100.77L140.378 99.5702L128.943 99.7266C122.677 99.8309 117.352 100.04 117.143 100.248C116.621 100.822 117.874 107.498 119.336 111.827C122.677 121.633 125.236 126.588 132.39 136.863C136.828 143.227 153.484 155.432 153.484 152.302ZM251.806 151.728C257.445 148.86 266.217 141.297 270.76 135.351C272.64 132.899 276.556 126.432 278.122 123.094C281.151 116.835 284.388 107.29 284.858 103.326L285.171 100.3L282.404 99.9874C280.837 99.7788 275.564 99.6223 270.603 99.6223H261.622L261.309 102.647C261.1 104.264 260.63 107.603 260.16 110.054C259.742 112.505 259.22 115.791 258.959 117.356C258.072 122.989 254.573 135.872 252.432 141.349C252.067 142.34 251.022 145.052 250.135 147.347C247.785 153.345 247.89 153.658 251.806 151.728Z" fill="#E2EDFB"/>
<path d="M152.962 242.849C152.962 241.806 155.73 239.615 158.027 238.885C160.481 238.05 163.614 236.538 164.502 235.651C164.92 235.286 166.538 233.93 168.105 232.626C175.415 226.732 182.412 218.282 186.015 210.98C189.252 204.408 191.602 196.063 191.602 190.951V188.5L188.886 187.561C181.472 184.953 174.997 180.728 168.627 174.261C164.815 170.349 163.092 168.993 161.056 168.263C153.484 165.498 141.684 158.665 135.209 153.345C129.1 148.338 121.894 139.941 117.874 133.264C113.279 125.597 108.475 113.914 107.013 106.664C105.812 100.822 104.872 94.0414 105.029 92.0594L105.185 89.973L122.364 89.8165L139.491 89.7122L139.125 83.1925L138.76 76.6727H201.053H263.293L262.98 83.1925L262.666 89.7122L279.741 89.8165L296.815 89.973L296.763 94.4065C296.606 103.899 292.847 116.626 286.529 129.092C280.733 140.567 266.374 155.275 254.834 161.638C251.962 163.203 243.242 167.428 242.877 167.428C242.616 167.428 241.467 167.897 240.266 168.471C239.117 169.045 237.864 169.514 237.551 169.514C237.29 169.514 237.029 169.723 237.029 169.984C237.029 170.61 229.458 178.277 226.847 180.259C223.035 183.18 216.717 186.361 211.234 188.135C210.347 188.396 210.295 188.865 210.556 192.412C210.921 197.106 211.913 201.174 214.106 206.651C215.568 210.302 219.432 217.343 220.32 218.022C220.529 218.178 220.894 218.647 221.155 219.117C222.983 222.403 227.682 227.201 237.029 235.234C238.595 236.59 241.258 237.998 243.973 238.885C245.07 239.198 246.636 240.084 247.472 240.815C250.97 243.736 253.163 243.579 201 243.579C160.011 243.579 152.962 243.475 152.962 242.849ZM153.484 152.302C153.484 152.041 152.858 150.216 152.127 148.286C146.592 133.942 143.094 120.225 141.475 107.185C141.162 104.317 140.744 101.448 140.64 100.77L140.378 99.5701L128.943 99.7266C122.677 99.8309 117.352 100.04 117.143 100.248C116.621 100.822 117.874 107.498 119.336 111.827C122.677 121.633 125.236 126.588 132.39 136.863C136.828 143.227 153.484 155.432 153.484 152.302ZM251.806 151.728C257.445 148.86 266.217 141.297 270.76 135.351C272.64 132.899 276.556 126.432 278.122 123.094C281.151 116.835 284.388 107.29 284.858 103.326L285.171 100.3L282.404 99.9874C280.837 99.7788 275.564 99.6223 270.603 99.6223H261.622L261.309 102.647C261.1 104.264 260.63 107.603 260.16 110.054C259.742 112.505 259.22 115.791 258.959 117.356C258.072 122.989 254.573 135.872 252.432 141.349C252.067 142.34 251.022 145.052 250.135 147.347C247.785 153.345 247.89 153.658 251.806 151.728Z" fill="#C6DBF8"/>
<path d="M198.62 143H204.452V117.26H199.34L193.4 121.472V126.44L198.62 123.02V143Z" fill="#006290"/>
<path d="M146.176 286.714V283.897L151.293 283.584C157.925 283.115 244.863 283.115 251.024 283.532L255.828 283.897V286.662V289.478H201.002H146.176V286.714Z" fill="#C6DBF8"/>
</g>
<defs>
<clipPath id="clip0">
<rect width="330" height="290" fill="white" transform="translate(36.0005)"/>
</clipPath>
</defs>
</svg>
