<svg width="402" height="324" viewBox="0 0 402 324" fill="none" xmlns="http://www.w3.org/2000/svg">
<rect x="0.5" y="74.5001" width="401" height="249" rx="19.5" stroke="#C6DBF8"/>
<rect x="31.5" y="114.5" width="339" height="132" rx="1.5" stroke="#E2EDFB"/>
<rect x="31.5" y="267.5" width="77" height="1" rx="0.5" stroke="#E2EDFB"/>
<rect x="179.5" y="170.5" width="43" height="1" rx="0.5" stroke="#E2EDFB"/>
<rect x="160.25" y="182.25" width="82.5" height="0.5" rx="0.25" stroke="#E2EDFB" stroke-width="0.5"/>
<rect x="173.25" y="191.25" width="56.5" height="0.5" rx="0.25" stroke="#E2EDFB" stroke-width="0.5"/>
<rect x="167.25" y="104.25" width="19.5" height="0.5" rx="0.25" stroke="#E2EDFB" stroke-width="0.5"/>
<rect x="197.25" y="104.25" width="9.5" height="0.5" rx="0.25" stroke="#E2EDFB" stroke-width="0.5"/>
<rect x="217.25" y="104.25" width="15.5" height="0.5" rx="0.25" stroke="#E2EDFB" stroke-width="0.5"/>
<rect x="243.25" y="104.25" width="15.5" height="0.5" rx="0.25" stroke="#E2EDFB" stroke-width="0.5"/>
<rect x="31" y="102" width="44" height="5" rx="2.5" fill="#E2EDFB"/>
<rect x="351.5" y="102.5" width="19" height="4" rx="1.5" stroke="#E2EDFB"/>
<rect x="31.25" y="277.25" width="141.5" height="0.5" rx="0.25" stroke="#E2EDFB" stroke-width="0.5"/>
<rect x="279.25" y="277.25" width="91.5" height="0.5" rx="0.25" stroke="#E2EDFB" stroke-width="0.5"/>
<rect x="31.25" y="286.25" width="135.5" height="0.5" rx="0.25" stroke="#E2EDFB" stroke-width="0.5"/>
<rect x="279.25" y="286.25" width="87.5" height="0.5" rx="0.25" stroke="#E2EDFB" stroke-width="0.5"/>
<rect x="31.25" y="295.25" width="67.5" height="0.5" rx="0.25" stroke="#E2EDFB" stroke-width="0.5"/>
<rect x="279.25" y="295.25" width="43.5" height="0.5" rx="0.25" stroke="#E2EDFB" stroke-width="0.5"/>
<path d="M334.908 297.065C334.457 296.885 332.921 296.523 331.567 296.252C330.302 295.982 327.863 294.627 326.328 293.362C324.793 292.007 312.509 276.924 299.052 259.673C285.504 242.513 272.318 225.714 269.698 222.372L264.911 216.321L257.054 220.385C235.558 231.313 209.095 235.558 186.515 231.675C147.678 225.081 116.789 202.592 99.7189 168.542C91.3193 151.923 87.7969 136.298 87.7969 116.428C87.7969 95.926 91.6806 79.8493 100.622 62.5985C117.512 30.4451 148.852 7.50417 184.528 1.18187C194.192 -0.534178 216.591 -0.353541 226.255 1.54315C248.925 6.05907 268.795 16.2651 285.143 31.9805C295.891 42.1865 302.845 51.7602 309.168 64.9467C314.767 76.4172 315.941 79.9396 314.225 79.3977C313.683 79.2171 306.819 76.9591 298.962 74.4302L284.782 69.7336L281.44 64.6758C276.563 57.1794 261.931 42.9993 254.073 38.1221C245.764 32.974 236.913 29.0903 227.429 26.5614C218.126 24.0325 199.972 23.1293 190.218 24.755C152.826 30.716 123.111 58.0825 113.899 94.8422C110.918 106.945 111.099 126.634 114.351 138.737C124.195 175.768 154.271 202.682 191.663 208.192C206.204 210.269 225.081 207.469 240.435 200.966C270.06 188.412 293.362 157.343 296.162 126.725C296.523 123.112 297.246 120.493 297.787 120.493C300.136 120.493 320.909 127.989 320.909 128.802C320.909 131.873 316.845 148.762 314.496 155.446C310.884 165.742 307.903 171.523 300.949 181.819L295.349 190.219L308.355 203.495C315.49 210.721 330.844 226.256 342.314 237.907C355.682 251.454 363.81 260.306 364.623 262.473C366.61 267.17 366.43 273.583 364.172 278.189C362.004 282.705 350.353 293.362 344.843 295.801C341.592 297.336 337.257 297.878 334.908 297.065Z" fill="#C6DBF8"/>
<path d="M185.453 144.358L226.213 71.7543L337.453 109.967M126.861 100.201L172.291 144.358M52.9841 25.475L86.526 55.6202" stroke="#006290" stroke-width="4"/>
<path fill-rule="evenodd" clip-rule="evenodd" d="M178.659 156.246C182.411 156.246 185.452 153.204 185.452 149.452C185.452 145.701 182.411 142.659 178.659 142.659C174.907 142.659 171.866 145.701 171.866 149.452C171.866 153.204 174.907 156.246 178.659 156.246ZM178.659 159.642C184.287 159.642 188.849 155.08 188.849 149.452C188.849 143.825 184.287 139.262 178.659 139.262C173.031 139.262 168.469 143.825 168.469 149.452C168.469 155.08 173.031 159.642 178.659 159.642Z" fill="#006290"/>
<path fill-rule="evenodd" clip-rule="evenodd" d="M345.095 118.883C348.847 118.883 351.888 115.841 351.888 112.089C351.888 108.338 348.847 105.296 345.095 105.296C341.343 105.296 338.301 108.338 338.301 112.089C338.301 115.841 341.343 118.883 345.095 118.883ZM345.095 122.279C350.722 122.279 355.285 117.717 355.285 112.089C355.285 106.462 350.722 101.899 345.095 101.899C339.467 101.899 334.905 106.462 334.905 112.089C334.905 117.717 339.467 122.279 345.095 122.279Z" fill="#006290"/>
<path fill-rule="evenodd" clip-rule="evenodd" d="M46.1899 26.324C49.9418 26.324 52.9832 23.2826 52.9832 19.5308C52.9832 15.7789 49.9418 12.7375 46.1899 12.7375C42.4381 12.7375 39.3966 15.7789 39.3966 19.5308C39.3966 23.2826 42.4381 26.324 46.1899 26.324ZM46.1899 29.7207C51.8177 29.7207 56.3799 25.1585 56.3799 19.5308C56.3799 13.903 51.8177 9.34082 46.1899 9.34082C40.5622 9.34082 36 13.903 36 19.5308C36 25.1585 40.5622 29.7207 46.1899 29.7207Z" fill="#006290"/>
</svg>
