<svg width="402" height="316" viewBox="0 0 402 316" fill="none" xmlns="http://www.w3.org/2000/svg">
<path d="M37.5005 106C37.5005 95.2304 46.2309 86.5 57.0005 86.5H345C355.77 86.5 364.5 95.2304 364.5 106V303.5H37.5005V106Z" stroke="#C6DBF8"/>
<rect x="58.5005" y="107.5" width="285" height="132" rx="1.5" stroke="#E2EDFB"/>
<rect x="58.5005" y="260.5" width="77" height="1" rx="0.5" stroke="#E2EDFB"/>
<rect x="79.5005" y="163.5" width="43" height="1" rx="0.5" stroke="#E2EDFB"/>
<rect x="79.2505" y="175.25" width="82.5" height="0.5" rx="0.25" stroke="#E2EDFB" stroke-width="0.5"/>
<rect x="79.2505" y="184.25" width="56.5" height="0.5" rx="0.25" stroke="#E2EDFB" stroke-width="0.5"/>
<rect x="58.2505" y="270.25" width="285.5" height="0.5" rx="0.25" stroke="#E2EDFB" stroke-width="0.5"/>
<rect x="58.2505" y="279.25" width="273.5" height="0.5" rx="0.25" stroke="#E2EDFB" stroke-width="0.5"/>
<rect x="58.2505" y="288.25" width="136.5" height="0.5" rx="0.25" stroke="#E2EDFB" stroke-width="0.5"/>
<path d="M401.491 303.5C401.228 310.172 395.737 315.5 389 315.5H13.0005C6.26439 315.5 0.772758 310.172 0.510306 303.5H401.491Z" stroke="#C6DBF8"/>
<path d="M198 184.484V245.476C198 258.731 208.746 269.476 222 269.476H251.745" stroke="#E2EDFB" stroke-width="5"/>
<path d="M210.516 159.486V228.23C210.516 237.894 218.35 245.728 228.014 245.728V245.728" stroke="#006290" stroke-width="5"/>
<path d="M64.27 12.872C104.291 0.802891 182.187 4.97964 173.605 118.24" stroke="#E2EDFB" stroke-width="4"/>
<path d="M343 6.72697C302.525 -5.61649 223.744 -1.34481 232.423 114.49" stroke="#006290" stroke-width="4"/>
<path d="M184.488 157.327L189.018 213.231H219.494L224.024 157.327L311.746 59.4954H96.7661L184.488 157.327Z" fill="#C6DBF8"/>
<path d="M52.5037 29C53.1665 28.9992 53.802 28.7356 54.2706 28.2669C54.7393 27.7982 55.0029 27.1628 55.0037 26.5V25.5C55.0037 24.837 54.7403 24.2011 54.2715 23.7322C53.8027 23.2634 53.1668 23 52.5037 23C51.8407 23 51.2048 23.2634 50.736 23.7322C50.2671 24.2011 50.0037 24.837 50.0037 25.5V26.5C50.0045 27.1628 50.2682 27.7982 50.7368 28.2669C51.2055 28.7356 51.8409 28.9992 52.5037 29ZM51.0037 25.5C51.0037 25.1022 51.1618 24.7207 51.4431 24.4393C51.7244 24.158 52.1059 24 52.5037 24C52.9016 24 53.2831 24.158 53.5644 24.4393C53.8457 24.7207 54.0037 25.1022 54.0037 25.5V26.5C54.0037 26.8978 53.8457 27.2794 53.5644 27.5607C53.2831 27.842 52.9016 28 52.5037 28C52.1059 28 51.7244 27.842 51.4431 27.5607C51.1618 27.2794 51.0037 26.8978 51.0037 26.5V25.5Z" fill="#006291"/>
<path d="M53.5005 29.9999H51.5005C50.7392 29.9987 49.9903 30.1929 49.3255 30.5639C49.213 30.6303 49.1309 30.7382 49.0969 30.8644C49.0629 30.9905 49.0797 31.125 49.1436 31.239C49.2075 31.353 49.3135 31.4374 49.4389 31.4742C49.5643 31.511 49.6991 31.4973 49.8145 31.4359C50.3301 31.1491 50.9105 30.999 51.5005 30.9999H53.5005C54.4284 31.0011 55.318 31.3702 55.9741 32.0263C56.6302 32.6825 56.9994 33.572 57.0005 34.4999V38.4999C56.9993 38.809 56.9025 39.1102 56.7235 39.3623C56.5445 39.6143 56.292 39.8049 56.0005 39.9079V35.4999C56.0005 35.3673 55.9479 35.2401 55.8541 35.1464C55.7603 35.0526 55.6332 34.9999 55.5005 34.9999C55.3679 34.9999 55.2408 35.0526 55.147 35.1464C55.0532 35.2401 55.0005 35.3673 55.0005 35.4999V48.5C55.0005 48.8978 54.8425 49.2793 54.5612 49.5606C54.2799 49.8419 53.8984 50 53.5005 50H53.0005V40.4999C53.0005 40.3673 52.9479 40.2401 52.8541 40.1464C52.7603 40.0526 52.6331 39.9999 52.5005 39.9999C52.3679 39.9999 52.2407 40.0526 52.147 40.1464C52.0532 40.2401 52.0005 40.3673 52.0005 40.4999V50H51.5005C51.1027 50 50.7212 49.8419 50.4399 49.5606C50.1586 49.2793 50.0005 48.8978 50.0005 48.5V35.4999C50.0005 35.3673 49.9478 35.2401 49.8541 35.1464C49.7603 35.0526 49.6331 34.9999 49.5005 34.9999C49.3679 34.9999 49.2407 35.0526 49.147 35.1464C49.0532 35.2401 49.0005 35.3673 49.0005 35.4999V39.9079C48.7091 39.8049 48.4566 39.6143 48.2776 39.3623C48.0986 39.1102 48.0018 38.809 48.0005 38.4999V34.4999C47.9991 34.0509 48.0862 33.6061 48.257 33.1909C48.2848 33.1298 48.3001 33.0637 48.3018 32.9966C48.3035 32.9295 48.2917 32.8627 48.2671 32.8003C48.2424 32.7378 48.2055 32.681 48.1584 32.6331C48.1113 32.5852 48.0551 32.5474 47.9931 32.5217C47.931 32.496 47.8645 32.4831 47.7973 32.4838C47.7302 32.4844 47.6639 32.4985 47.6023 32.5253C47.5408 32.5521 47.4853 32.591 47.4391 32.6398C47.3929 32.6885 47.357 32.746 47.3335 32.8089C47.112 33.3451 46.9988 33.9198 47.0005 34.4999V38.4999C47.0011 39.076 47.2004 39.6343 47.5648 40.0806C47.9291 40.5269 48.4362 40.834 49.0005 40.9499V48.5C49.0013 49.1628 49.265 49.7982 49.7336 50.2669C50.2023 50.7355 50.8377 50.9992 51.5005 51H53.5005C54.1633 50.9992 54.7988 50.7355 55.2674 50.2669C55.7361 49.7982 55.9997 49.1628 56.0005 48.5V40.9499C56.5648 40.8339 57.0719 40.5268 57.4362 40.0805C57.8005 39.6343 57.9998 39.076 58.0006 38.4999V34.4999C57.9992 33.3068 57.5247 32.163 56.6811 31.3194C55.8374 30.4757 54.6936 30.0012 53.5005 29.9999Z" fill="#006291"/>
<path d="M72.5037 29C73.1665 28.9992 73.802 28.7356 74.2706 28.2669C74.7393 27.7982 75.0029 27.1628 75.0037 26.5V25.5C75.0037 24.837 74.7403 24.2011 74.2715 23.7322C73.8027 23.2634 73.1668 23 72.5037 23C71.8407 23 71.2048 23.2634 70.736 23.7322C70.2671 24.2011 70.0037 24.837 70.0037 25.5V26.5C70.0045 27.1628 70.2682 27.7982 70.7368 28.2669C71.2055 28.7356 71.8409 28.9992 72.5037 29ZM71.0037 25.5C71.0037 25.1022 71.1618 24.7207 71.4431 24.4393C71.7244 24.158 72.1059 24 72.5037 24C72.9016 24 73.2831 24.158 73.5644 24.4393C73.8457 24.7207 74.0037 25.1022 74.0037 25.5V26.5C74.0037 26.8978 73.8457 27.2794 73.5644 27.5607C73.2831 27.842 72.9016 28 72.5037 28C72.1059 28 71.7244 27.842 71.4431 27.5607C71.1618 27.2794 71.0037 26.8978 71.0037 26.5V25.5Z" fill="#006291"/>
<path d="M73.5005 29.9999H71.5005C70.7392 29.9987 69.9903 30.1929 69.3255 30.5639C69.213 30.6303 69.1309 30.7382 69.0969 30.8644C69.0629 30.9905 69.0797 31.125 69.1436 31.239C69.2075 31.353 69.3135 31.4374 69.4389 31.4742C69.5643 31.511 69.6991 31.4973 69.8145 31.4359C70.3301 31.1491 70.9105 30.999 71.5005 30.9999H73.5005C74.4284 31.0011 75.318 31.3702 75.9741 32.0263C76.6302 32.6825 76.9994 33.572 77.0005 34.4999V38.4999C76.9993 38.809 76.9025 39.1102 76.7235 39.3623C76.5445 39.6143 76.292 39.8049 76.0005 39.9079V35.4999C76.0005 35.3673 75.9479 35.2401 75.8541 35.1464C75.7603 35.0526 75.6332 34.9999 75.5005 34.9999C75.3679 34.9999 75.2408 35.0526 75.147 35.1464C75.0532 35.2401 75.0005 35.3673 75.0005 35.4999V48.5C75.0005 48.8978 74.8425 49.2793 74.5612 49.5606C74.2799 49.8419 73.8984 50 73.5005 50H73.0005V40.4999C73.0005 40.3673 72.9479 40.2401 72.8541 40.1464C72.7603 40.0526 72.6331 39.9999 72.5005 39.9999C72.3679 39.9999 72.2407 40.0526 72.147 40.1464C72.0532 40.2401 72.0005 40.3673 72.0005 40.4999V50H71.5005C71.1027 50 70.7212 49.8419 70.4399 49.5606C70.1586 49.2793 70.0005 48.8978 70.0005 48.5V35.4999C70.0005 35.3673 69.9478 35.2401 69.8541 35.1464C69.7603 35.0526 69.6331 34.9999 69.5005 34.9999C69.3679 34.9999 69.2407 35.0526 69.147 35.1464C69.0532 35.2401 69.0005 35.3673 69.0005 35.4999V39.9079C68.7091 39.8049 68.4566 39.6143 68.2776 39.3623C68.0986 39.1102 68.0018 38.809 68.0005 38.4999V34.4999C67.9991 34.0509 68.0862 33.6061 68.257 33.1909C68.2848 33.1298 68.3001 33.0637 68.3018 32.9966C68.3035 32.9295 68.2917 32.8627 68.2671 32.8003C68.2424 32.7378 68.2055 32.681 68.1584 32.6331C68.1113 32.5852 68.0551 32.5474 67.9931 32.5217C67.931 32.496 67.8645 32.4831 67.7973 32.4838C67.7302 32.4844 67.6639 32.4985 67.6023 32.5253C67.5408 32.5521 67.4853 32.591 67.4391 32.6398C67.3929 32.6885 67.357 32.746 67.3335 32.8089C67.112 33.3451 66.9988 33.9198 67.0005 34.4999V38.4999C67.0011 39.076 67.2004 39.6343 67.5648 40.0806C67.9291 40.5269 68.4362 40.834 69.0005 40.9499V48.5C69.0013 49.1628 69.265 49.7982 69.7336 50.2669C70.2023 50.7355 70.8377 50.9992 71.5005 51H73.5005C74.1633 50.9992 74.7988 50.7355 75.2674 50.2669C75.7361 49.7982 75.9997 49.1628 76.0005 48.5V40.9499C76.5648 40.8339 77.0719 40.5268 77.4362 40.0805C77.8005 39.6343 77.9998 39.076 78.0006 38.4999V34.4999C77.9992 33.3068 77.5247 32.163 76.6811 31.3194C75.8374 30.4757 74.6936 30.0012 73.5005 29.9999Z" fill="#006291"/>
<path d="M92.5037 29C93.1665 28.9992 93.802 28.7356 94.2706 28.2669C94.7393 27.7982 95.0029 27.1628 95.0037 26.5V25.5C95.0037 24.837 94.7403 24.2011 94.2715 23.7322C93.8027 23.2634 93.1668 23 92.5037 23C91.8407 23 91.2048 23.2634 90.736 23.7322C90.2671 24.2011 90.0037 24.837 90.0037 25.5V26.5C90.0045 27.1628 90.2682 27.7982 90.7368 28.2669C91.2055 28.7356 91.8409 28.9992 92.5037 29ZM91.0037 25.5C91.0037 25.1022 91.1618 24.7207 91.4431 24.4393C91.7244 24.158 92.1059 24 92.5037 24C92.9016 24 93.2831 24.158 93.5644 24.4393C93.8457 24.7207 94.0037 25.1022 94.0037 25.5V26.5C94.0037 26.8978 93.8457 27.2794 93.5644 27.5607C93.2831 27.842 92.9016 28 92.5037 28C92.1059 28 91.7244 27.842 91.4431 27.5607C91.1618 27.2794 91.0037 26.8978 91.0037 26.5V25.5Z" fill="#006291"/>
<path d="M93.5005 29.9999H91.5005C90.7392 29.9987 89.9903 30.1929 89.3255 30.5639C89.213 30.6303 89.1309 30.7382 89.0969 30.8644C89.0629 30.9905 89.0797 31.125 89.1436 31.239C89.2075 31.353 89.3135 31.4374 89.4389 31.4742C89.5643 31.511 89.6991 31.4973 89.8145 31.4359C90.3301 31.1491 90.9105 30.999 91.5005 30.9999H93.5005C94.4284 31.0011 95.318 31.3702 95.9741 32.0263C96.6302 32.6825 96.9994 33.572 97.0005 34.4999V38.4999C96.9993 38.809 96.9025 39.1102 96.7235 39.3623C96.5445 39.6143 96.292 39.8049 96.0005 39.9079V35.4999C96.0005 35.3673 95.9479 35.2401 95.8541 35.1464C95.7603 35.0526 95.6332 34.9999 95.5005 34.9999C95.3679 34.9999 95.2408 35.0526 95.147 35.1464C95.0532 35.2401 95.0005 35.3673 95.0005 35.4999V48.5C95.0005 48.8978 94.8425 49.2793 94.5612 49.5606C94.2799 49.8419 93.8984 50 93.5005 50H93.0005V40.4999C93.0005 40.3673 92.9479 40.2401 92.8541 40.1464C92.7603 40.0526 92.6331 39.9999 92.5005 39.9999C92.3679 39.9999 92.2407 40.0526 92.147 40.1464C92.0532 40.2401 92.0005 40.3673 92.0005 40.4999V50H91.5005C91.1027 50 90.7212 49.8419 90.4399 49.5606C90.1586 49.2793 90.0005 48.8978 90.0005 48.5V35.4999C90.0005 35.3673 89.9478 35.2401 89.8541 35.1464C89.7603 35.0526 89.6331 34.9999 89.5005 34.9999C89.3679 34.9999 89.2407 35.0526 89.147 35.1464C89.0532 35.2401 89.0005 35.3673 89.0005 35.4999V39.9079C88.7091 39.8049 88.4566 39.6143 88.2776 39.3623C88.0986 39.1102 88.0018 38.809 88.0005 38.4999V34.4999C87.9991 34.0509 88.0862 33.6061 88.257 33.1909C88.2848 33.1298 88.3001 33.0637 88.3018 32.9966C88.3035 32.9295 88.2917 32.8627 88.2671 32.8003C88.2424 32.7378 88.2055 32.681 88.1584 32.6331C88.1113 32.5852 88.0551 32.5474 87.9931 32.5217C87.931 32.496 87.8645 32.4831 87.7973 32.4838C87.7302 32.4844 87.6639 32.4985 87.6023 32.5253C87.5408 32.5521 87.4853 32.591 87.4391 32.6398C87.3929 32.6885 87.357 32.746 87.3335 32.8089C87.112 33.3451 86.9988 33.9198 87.0005 34.4999V38.4999C87.0011 39.076 87.2004 39.6343 87.5648 40.0806C87.9291 40.5269 88.4362 40.834 89.0005 40.9499V48.5C89.0013 49.1628 89.265 49.7982 89.7336 50.2669C90.2023 50.7355 90.8377 50.9992 91.5005 51H93.5005C94.1633 50.9992 94.7988 50.7355 95.2674 50.2669C95.7361 49.7982 95.9997 49.1628 96.0005 48.5V40.9499C96.5648 40.8339 97.0719 40.5268 97.4362 40.0805C97.8005 39.6343 97.9998 39.076 98.0006 38.4999V34.4999C97.9992 33.3068 97.5247 32.163 96.6811 31.3194C95.8374 30.4757 94.6936 30.0012 93.5005 29.9999Z" fill="#006291"/>
<path d="M112.504 29C113.167 28.9992 113.802 28.7356 114.271 28.2669C114.739 27.7982 115.003 27.1628 115.004 26.5V25.5C115.004 24.837 114.74 24.2011 114.272 23.7322C113.803 23.2634 113.167 23 112.504 23C111.841 23 111.205 23.2634 110.736 23.7322C110.267 24.2011 110.004 24.837 110.004 25.5V26.5C110.005 27.1628 110.268 27.7982 110.737 28.2669C111.206 28.7356 111.841 28.9992 112.504 29ZM111.004 25.5C111.004 25.1022 111.162 24.7207 111.443 24.4393C111.724 24.158 112.106 24 112.504 24C112.902 24 113.283 24.158 113.564 24.4393C113.846 24.7207 114.004 25.1022 114.004 25.5V26.5C114.004 26.8978 113.846 27.2794 113.564 27.5607C113.283 27.842 112.902 28 112.504 28C112.106 28 111.724 27.842 111.443 27.5607C111.162 27.2794 111.004 26.8978 111.004 26.5V25.5Z" fill="#006291"/>
<path d="M113.501 29.9999H111.501C110.739 29.9987 109.99 30.1929 109.326 30.5639C109.213 30.6303 109.131 30.7382 109.097 30.8644C109.063 30.9905 109.08 31.125 109.144 31.239C109.208 31.353 109.314 31.4374 109.439 31.4742C109.564 31.511 109.699 31.4973 109.815 31.4359C110.33 31.1491 110.911 30.999 111.501 30.9999H113.501C114.428 31.0011 115.318 31.3702 115.974 32.0263C116.63 32.6825 116.999 33.572 117.001 34.4999V38.4999C116.999 38.809 116.903 39.1102 116.724 39.3623C116.544 39.6143 116.292 39.8049 116.001 39.9079V35.4999C116.001 35.3673 115.948 35.2401 115.854 35.1464C115.76 35.0526 115.633 34.9999 115.501 34.9999C115.368 34.9999 115.241 35.0526 115.147 35.1464C115.053 35.2401 115.001 35.3673 115.001 35.4999V48.5C115.001 48.8978 114.843 49.2793 114.561 49.5606C114.28 49.8419 113.898 50 113.501 50H113.001V40.4999C113.001 40.3673 112.948 40.2401 112.854 40.1464C112.76 40.0526 112.633 39.9999 112.501 39.9999C112.368 39.9999 112.241 40.0526 112.147 40.1464C112.053 40.2401 112.001 40.3673 112.001 40.4999V50H111.501C111.103 50 110.721 49.8419 110.44 49.5606C110.159 49.2793 110.001 48.8978 110.001 48.5V35.4999C110.001 35.3673 109.948 35.2401 109.854 35.1464C109.76 35.0526 109.633 34.9999 109.501 34.9999C109.368 34.9999 109.241 35.0526 109.147 35.1464C109.053 35.2401 109.001 35.3673 109.001 35.4999V39.9079C108.709 39.8049 108.457 39.6143 108.278 39.3623C108.099 39.1102 108.002 38.809 108.001 38.4999V34.4999C107.999 34.0509 108.086 33.6061 108.257 33.1909C108.285 33.1298 108.3 33.0637 108.302 32.9966C108.304 32.9295 108.292 32.8627 108.267 32.8003C108.242 32.7378 108.205 32.681 108.158 32.6331C108.111 32.5852 108.055 32.5474 107.993 32.5217C107.931 32.496 107.864 32.4831 107.797 32.4838C107.73 32.4844 107.664 32.4985 107.602 32.5253C107.541 32.5521 107.485 32.591 107.439 32.6398C107.393 32.6885 107.357 32.746 107.334 32.8089C107.112 33.3451 106.999 33.9198 107.001 34.4999V38.4999C107.001 39.076 107.2 39.6343 107.565 40.0806C107.929 40.5269 108.436 40.834 109.001 40.9499V48.5C109.001 49.1628 109.265 49.7982 109.734 50.2669C110.202 50.7355 110.838 50.9992 111.501 51H113.501C114.163 50.9992 114.799 50.7355 115.267 50.2669C115.736 49.7982 116 49.1628 116.001 48.5V40.9499C116.565 40.8339 117.072 40.5268 117.436 40.0805C117.801 39.6343 118 39.076 118.001 38.4999V34.4999C117.999 33.3068 117.525 32.163 116.681 31.3194C115.837 30.4757 114.694 30.0012 113.501 29.9999Z" fill="#006291"/>
<path d="M309.504 29C310.167 28.9992 310.802 28.7356 311.271 28.2669C311.739 27.7982 312.003 27.1628 312.004 26.5V25.5C312.004 24.837 311.74 24.2011 311.272 23.7322C310.803 23.2634 310.167 23 309.504 23C308.841 23 308.205 23.2634 307.736 23.7322C307.267 24.2011 307.004 24.837 307.004 25.5V26.5C307.005 27.1628 307.268 27.7982 307.737 28.2669C308.206 28.7356 308.841 28.9992 309.504 29ZM308.004 25.5C308.004 25.1022 308.162 24.7207 308.443 24.4393C308.724 24.158 309.106 24 309.504 24C309.902 24 310.283 24.158 310.564 24.4393C310.846 24.7207 311.004 25.1022 311.004 25.5V26.5C311.004 26.8978 310.846 27.2794 310.564 27.5607C310.283 27.842 309.902 28 309.504 28C309.106 28 308.724 27.842 308.443 27.5607C308.162 27.2794 308.004 26.8978 308.004 26.5V25.5Z" fill="#006291"/>
<path d="M310.501 29.9999H308.501C307.739 29.9987 306.99 30.1929 306.326 30.5639C306.213 30.6303 306.131 30.7382 306.097 30.8644C306.063 30.9905 306.08 31.125 306.144 31.239C306.208 31.353 306.314 31.4374 306.439 31.4742C306.564 31.511 306.699 31.4973 306.815 31.4359C307.33 31.1491 307.911 30.999 308.501 30.9999H310.501C311.428 31.0011 312.318 31.3702 312.974 32.0263C313.63 32.6825 313.999 33.572 314.001 34.4999V38.4999C313.999 38.809 313.903 39.1102 313.724 39.3623C313.544 39.6143 313.292 39.8049 313.001 39.9079V35.4999C313.001 35.3673 312.948 35.2401 312.854 35.1464C312.76 35.0526 312.633 34.9999 312.501 34.9999C312.368 34.9999 312.241 35.0526 312.147 35.1464C312.053 35.2401 312.001 35.3673 312.001 35.4999V48.5C312.001 48.8978 311.843 49.2793 311.561 49.5606C311.28 49.8419 310.898 50 310.501 50H310.001V40.4999C310.001 40.3673 309.948 40.2401 309.854 40.1464C309.76 40.0526 309.633 39.9999 309.501 39.9999C309.368 39.9999 309.241 40.0526 309.147 40.1464C309.053 40.2401 309.001 40.3673 309.001 40.4999V50H308.501C308.103 50 307.721 49.8419 307.44 49.5606C307.159 49.2793 307.001 48.8978 307.001 48.5V35.4999C307.001 35.3673 306.948 35.2401 306.854 35.1464C306.76 35.0526 306.633 34.9999 306.501 34.9999C306.368 34.9999 306.241 35.0526 306.147 35.1464C306.053 35.2401 306.001 35.3673 306.001 35.4999V39.9079C305.709 39.8049 305.457 39.6143 305.278 39.3623C305.099 39.1102 305.002 38.809 305.001 38.4999V34.4999C304.999 34.0509 305.086 33.6061 305.257 33.1909C305.285 33.1298 305.3 33.0637 305.302 32.9966C305.304 32.9295 305.292 32.8627 305.267 32.8003C305.242 32.7378 305.205 32.681 305.158 32.6331C305.111 32.5852 305.055 32.5474 304.993 32.5217C304.931 32.496 304.864 32.4831 304.797 32.4838C304.73 32.4844 304.664 32.4985 304.602 32.5253C304.541 32.5521 304.485 32.591 304.439 32.6398C304.393 32.6885 304.357 32.746 304.334 32.8089C304.112 33.3451 303.999 33.9198 304.001 34.4999V38.4999C304.001 39.076 304.2 39.6343 304.565 40.0806C304.929 40.5269 305.436 40.834 306.001 40.9499V48.5C306.001 49.1628 306.265 49.7982 306.734 50.2669C307.202 50.7355 307.838 50.9992 308.501 51H310.501C311.163 50.9992 311.799 50.7355 312.267 50.2669C312.736 49.7982 313 49.1628 313.001 48.5V40.9499C313.565 40.8339 314.072 40.5268 314.436 40.0805C314.801 39.6343 315 39.076 315.001 38.4999V34.4999C314.999 33.3068 314.525 32.163 313.681 31.3194C312.837 30.4757 311.694 30.0012 310.501 29.9999Z" fill="#006291"/>
<path d="M289.504 29C290.167 28.9992 290.802 28.7356 291.271 28.2669C291.739 27.7982 292.003 27.1628 292.004 26.5V25.5C292.004 24.837 291.74 24.2011 291.272 23.7322C290.803 23.2634 290.167 23 289.504 23C288.841 23 288.205 23.2634 287.736 23.7322C287.267 24.2011 287.004 24.837 287.004 25.5V26.5C287.005 27.1628 287.268 27.7982 287.737 28.2669C288.206 28.7356 288.841 28.9992 289.504 29ZM288.004 25.5C288.004 25.1022 288.162 24.7207 288.443 24.4393C288.724 24.158 289.106 24 289.504 24C289.902 24 290.283 24.158 290.564 24.4393C290.846 24.7207 291.004 25.1022 291.004 25.5V26.5C291.004 26.8978 290.846 27.2794 290.564 27.5607C290.283 27.842 289.902 28 289.504 28C289.106 28 288.724 27.842 288.443 27.5607C288.162 27.2794 288.004 26.8978 288.004 26.5V25.5Z" fill="#006291"/>
<path d="M290.501 29.9999H288.501C287.739 29.9987 286.99 30.1929 286.326 30.5639C286.213 30.6303 286.131 30.7382 286.097 30.8644C286.063 30.9905 286.08 31.125 286.144 31.239C286.208 31.353 286.314 31.4374 286.439 31.4742C286.564 31.511 286.699 31.4973 286.815 31.4359C287.33 31.1491 287.911 30.999 288.501 30.9999H290.501C291.428 31.0011 292.318 31.3702 292.974 32.0263C293.63 32.6825 293.999 33.572 294.001 34.4999V38.4999C293.999 38.809 293.903 39.1102 293.724 39.3623C293.544 39.6143 293.292 39.8049 293.001 39.9079V35.4999C293.001 35.3673 292.948 35.2401 292.854 35.1464C292.76 35.0526 292.633 34.9999 292.501 34.9999C292.368 34.9999 292.241 35.0526 292.147 35.1464C292.053 35.2401 292.001 35.3673 292.001 35.4999V48.5C292.001 48.8978 291.843 49.2793 291.561 49.5606C291.28 49.8419 290.898 50 290.501 50H290.001V40.4999C290.001 40.3673 289.948 40.2401 289.854 40.1464C289.76 40.0526 289.633 39.9999 289.501 39.9999C289.368 39.9999 289.241 40.0526 289.147 40.1464C289.053 40.2401 289.001 40.3673 289.001 40.4999V50H288.501C288.103 50 287.721 49.8419 287.44 49.5606C287.159 49.2793 287.001 48.8978 287.001 48.5V35.4999C287.001 35.3673 286.948 35.2401 286.854 35.1464C286.76 35.0526 286.633 34.9999 286.501 34.9999C286.368 34.9999 286.241 35.0526 286.147 35.1464C286.053 35.2401 286.001 35.3673 286.001 35.4999V39.9079C285.709 39.8049 285.457 39.6143 285.278 39.3623C285.099 39.1102 285.002 38.809 285.001 38.4999V34.4999C284.999 34.0509 285.086 33.6061 285.257 33.1909C285.285 33.1298 285.3 33.0637 285.302 32.9966C285.304 32.9295 285.292 32.8627 285.267 32.8003C285.242 32.7378 285.205 32.681 285.158 32.6331C285.111 32.5852 285.055 32.5474 284.993 32.5217C284.931 32.496 284.864 32.4831 284.797 32.4838C284.73 32.4844 284.664 32.4985 284.602 32.5253C284.541 32.5521 284.485 32.591 284.439 32.6398C284.393 32.6885 284.357 32.746 284.334 32.8089C284.112 33.3451 283.999 33.9198 284.001 34.4999V38.4999C284.001 39.076 284.2 39.6343 284.565 40.0806C284.929 40.5269 285.436 40.834 286.001 40.9499V48.5C286.001 49.1628 286.265 49.7982 286.734 50.2669C287.202 50.7355 287.838 50.9992 288.501 51H290.501C291.163 50.9992 291.799 50.7355 292.267 50.2669C292.736 49.7982 293 49.1628 293.001 48.5V40.9499C293.565 40.8339 294.072 40.5268 294.436 40.0805C294.801 39.6343 295 39.076 295.001 38.4999V34.4999C294.999 33.3068 294.525 32.163 293.681 31.3194C292.837 30.4757 291.694 30.0012 290.501 29.9999Z" fill="#006291"/>
<path d="M329.504 29C330.167 28.9992 330.802 28.7356 331.271 28.2669C331.739 27.7982 332.003 27.1628 332.004 26.5V25.5C332.004 24.837 331.74 24.2011 331.272 23.7322C330.803 23.2634 330.167 23 329.504 23C328.841 23 328.205 23.2634 327.736 23.7322C327.267 24.2011 327.004 24.837 327.004 25.5V26.5C327.005 27.1628 327.268 27.7982 327.737 28.2669C328.206 28.7356 328.841 28.9992 329.504 29ZM328.004 25.5C328.004 25.1022 328.162 24.7207 328.443 24.4393C328.724 24.158 329.106 24 329.504 24C329.902 24 330.283 24.158 330.564 24.4393C330.846 24.7207 331.004 25.1022 331.004 25.5V26.5C331.004 26.8978 330.846 27.2794 330.564 27.5607C330.283 27.842 329.902 28 329.504 28C329.106 28 328.724 27.842 328.443 27.5607C328.162 27.2794 328.004 26.8978 328.004 26.5V25.5Z" fill="#006291"/>
<path d="M330.501 29.9999H328.501C327.739 29.9987 326.99 30.1929 326.326 30.5639C326.213 30.6303 326.131 30.7382 326.097 30.8644C326.063 30.9905 326.08 31.125 326.144 31.239C326.208 31.353 326.314 31.4374 326.439 31.4742C326.564 31.511 326.699 31.4973 326.815 31.4359C327.33 31.1491 327.911 30.999 328.501 30.9999H330.501C331.428 31.0011 332.318 31.3702 332.974 32.0263C333.63 32.6825 333.999 33.572 334.001 34.4999V38.4999C333.999 38.809 333.903 39.1102 333.724 39.3623C333.544 39.6143 333.292 39.8049 333.001 39.9079V35.4999C333.001 35.3673 332.948 35.2401 332.854 35.1464C332.76 35.0526 332.633 34.9999 332.501 34.9999C332.368 34.9999 332.241 35.0526 332.147 35.1464C332.053 35.2401 332.001 35.3673 332.001 35.4999V48.5C332.001 48.8978 331.843 49.2793 331.561 49.5606C331.28 49.8419 330.898 50 330.501 50H330.001V40.4999C330.001 40.3673 329.948 40.2401 329.854 40.1464C329.76 40.0526 329.633 39.9999 329.501 39.9999C329.368 39.9999 329.241 40.0526 329.147 40.1464C329.053 40.2401 329.001 40.3673 329.001 40.4999V50H328.501C328.103 50 327.721 49.8419 327.44 49.5606C327.159 49.2793 327.001 48.8978 327.001 48.5V35.4999C327.001 35.3673 326.948 35.2401 326.854 35.1464C326.76 35.0526 326.633 34.9999 326.501 34.9999C326.368 34.9999 326.241 35.0526 326.147 35.1464C326.053 35.2401 326.001 35.3673 326.001 35.4999V39.9079C325.709 39.8049 325.457 39.6143 325.278 39.3623C325.099 39.1102 325.002 38.809 325.001 38.4999V34.4999C324.999 34.0509 325.086 33.6061 325.257 33.1909C325.285 33.1298 325.3 33.0637 325.302 32.9966C325.304 32.9295 325.292 32.8627 325.267 32.8003C325.242 32.7378 325.205 32.681 325.158 32.6331C325.111 32.5852 325.055 32.5474 324.993 32.5217C324.931 32.496 324.864 32.4831 324.797 32.4838C324.73 32.4844 324.664 32.4985 324.602 32.5253C324.541 32.5521 324.485 32.591 324.439 32.6398C324.393 32.6885 324.357 32.746 324.334 32.8089C324.112 33.3451 323.999 33.9198 324.001 34.4999V38.4999C324.001 39.076 324.2 39.6343 324.565 40.0806C324.929 40.5269 325.436 40.834 326.001 40.9499V48.5C326.001 49.1628 326.265 49.7982 326.734 50.2669C327.202 50.7355 327.838 50.9992 328.501 51H330.501C331.163 50.9992 331.799 50.7355 332.267 50.2669C332.736 49.7982 333 49.1628 333.001 48.5V40.9499C333.565 40.8339 334.072 40.5268 334.436 40.0805C334.801 39.6343 335 39.076 335.001 38.4999V34.4999C334.999 33.3068 334.525 32.163 333.681 31.3194C332.837 30.4757 331.694 30.0012 330.501 29.9999Z" fill="#006291"/>
<path d="M349.504 29C350.167 28.9992 350.802 28.7356 351.271 28.2669C351.739 27.7982 352.003 27.1628 352.004 26.5V25.5C352.004 24.837 351.74 24.2011 351.272 23.7322C350.803 23.2634 350.167 23 349.504 23C348.841 23 348.205 23.2634 347.736 23.7322C347.267 24.2011 347.004 24.837 347.004 25.5V26.5C347.005 27.1628 347.268 27.7982 347.737 28.2669C348.206 28.7356 348.841 28.9992 349.504 29ZM348.004 25.5C348.004 25.1022 348.162 24.7207 348.443 24.4393C348.724 24.158 349.106 24 349.504 24C349.902 24 350.283 24.158 350.564 24.4393C350.846 24.7207 351.004 25.1022 351.004 25.5V26.5C351.004 26.8978 350.846 27.2794 350.564 27.5607C350.283 27.842 349.902 28 349.504 28C349.106 28 348.724 27.842 348.443 27.5607C348.162 27.2794 348.004 26.8978 348.004 26.5V25.5Z" fill="#006291"/>
<path d="M350.501 29.9999H348.501C347.739 29.9987 346.99 30.1929 346.326 30.5639C346.213 30.6303 346.131 30.7382 346.097 30.8644C346.063 30.9905 346.08 31.125 346.144 31.239C346.208 31.353 346.314 31.4374 346.439 31.4742C346.564 31.511 346.699 31.4973 346.815 31.4359C347.33 31.1491 347.911 30.999 348.501 30.9999H350.501C351.428 31.0011 352.318 31.3702 352.974 32.0263C353.63 32.6825 353.999 33.572 354.001 34.4999V38.4999C353.999 38.809 353.903 39.1102 353.724 39.3623C353.544 39.6143 353.292 39.8049 353.001 39.9079V35.4999C353.001 35.3673 352.948 35.2401 352.854 35.1464C352.76 35.0526 352.633 34.9999 352.501 34.9999C352.368 34.9999 352.241 35.0526 352.147 35.1464C352.053 35.2401 352.001 35.3673 352.001 35.4999V48.5C352.001 48.8978 351.843 49.2793 351.561 49.5606C351.28 49.8419 350.898 50 350.501 50H350.001V40.4999C350.001 40.3673 349.948 40.2401 349.854 40.1464C349.76 40.0526 349.633 39.9999 349.501 39.9999C349.368 39.9999 349.241 40.0526 349.147 40.1464C349.053 40.2401 349.001 40.3673 349.001 40.4999V50H348.501C348.103 50 347.721 49.8419 347.44 49.5606C347.159 49.2793 347.001 48.8978 347.001 48.5V35.4999C347.001 35.3673 346.948 35.2401 346.854 35.1464C346.76 35.0526 346.633 34.9999 346.501 34.9999C346.368 34.9999 346.241 35.0526 346.147 35.1464C346.053 35.2401 346.001 35.3673 346.001 35.4999V39.9079C345.709 39.8049 345.457 39.6143 345.278 39.3623C345.099 39.1102 345.002 38.809 345.001 38.4999V34.4999C344.999 34.0509 345.086 33.6061 345.257 33.1909C345.285 33.1298 345.3 33.0637 345.302 32.9966C345.304 32.9295 345.292 32.8627 345.267 32.8003C345.242 32.7378 345.205 32.681 345.158 32.6331C345.111 32.5852 345.055 32.5474 344.993 32.5217C344.931 32.496 344.864 32.4831 344.797 32.4838C344.73 32.4844 344.664 32.4985 344.602 32.5253C344.541 32.5521 344.485 32.591 344.439 32.6398C344.393 32.6885 344.357 32.746 344.334 32.8089C344.112 33.3451 343.999 33.9198 344.001 34.4999V38.4999C344.001 39.076 344.2 39.6343 344.565 40.0806C344.929 40.5269 345.436 40.834 346.001 40.9499V48.5C346.001 49.1628 346.265 49.7982 346.734 50.2669C347.202 50.7355 347.838 50.9992 348.501 51H350.501C351.163 50.9992 351.799 50.7355 352.267 50.2669C352.736 49.7982 353 49.1628 353.001 48.5V40.9499C353.565 40.8339 354.072 40.5268 354.436 40.0805C354.801 39.6343 355 39.076 355.001 38.4999V34.4999C354.999 33.3068 354.525 32.163 353.681 31.3194C352.837 30.4757 351.694 30.0012 350.501 29.9999Z" fill="#006291"/>
<path d="M246.256 197.985C246.917 197.984 247.551 197.721 248.018 197.254C248.486 196.786 248.749 196.152 248.749 195.491V194.494C248.749 193.832 248.487 193.198 248.019 192.73C247.551 192.263 246.917 192 246.256 192C245.594 192 244.96 192.263 244.492 192.73C244.025 193.198 243.762 193.832 243.762 194.494V195.491C243.763 196.152 244.026 196.786 244.493 197.254C244.961 197.721 245.594 197.984 246.256 197.985ZM244.759 194.494C244.759 194.097 244.917 193.716 245.198 193.436C245.478 193.155 245.859 192.998 246.256 192.998C246.652 192.998 247.033 193.155 247.314 193.436C247.594 193.716 247.752 194.097 247.752 194.494V195.491C247.752 195.888 247.594 196.269 247.314 196.549C247.033 196.83 246.652 196.988 246.256 196.988C245.859 196.988 245.478 196.83 245.198 196.549C244.917 196.269 244.759 195.888 244.759 195.491V194.494Z" fill="#006291"/>
<path d="M247.25 198.982H245.255C244.495 198.981 243.748 199.175 243.085 199.545C242.973 199.611 242.891 199.719 242.857 199.845C242.823 199.97 242.84 200.105 242.904 200.218C242.968 200.332 243.073 200.416 243.198 200.453C243.324 200.49 243.458 200.476 243.573 200.415C244.087 200.129 244.666 199.979 245.255 199.98H247.25C248.175 199.981 249.063 200.349 249.717 201.004C250.372 201.658 250.74 202.545 250.741 203.471V207.461C250.74 207.769 250.643 208.07 250.465 208.321C250.286 208.573 250.034 208.763 249.744 208.866V204.469C249.744 204.336 249.691 204.209 249.598 204.116C249.504 204.022 249.377 203.97 249.245 203.97C249.113 203.97 248.986 204.022 248.892 204.116C248.799 204.209 248.746 204.336 248.746 204.469V217.436C248.746 217.833 248.588 218.213 248.308 218.494C248.027 218.775 247.647 218.932 247.25 218.932H246.751V209.456C246.751 209.324 246.699 209.197 246.605 209.103C246.512 209.01 246.385 208.957 246.252 208.957C246.12 208.957 245.993 209.01 245.9 209.103C245.806 209.197 245.754 209.324 245.754 209.456V218.932H245.255C244.858 218.932 244.477 218.775 244.197 218.494C243.916 218.213 243.759 217.833 243.759 217.436V204.469C243.759 204.336 243.706 204.209 243.613 204.116C243.519 204.022 243.392 203.97 243.26 203.97C243.128 203.97 243.001 204.022 242.907 204.116C242.814 204.209 242.761 204.336 242.761 204.469V208.866C242.47 208.763 242.219 208.573 242.04 208.321C241.861 208.07 241.765 207.769 241.764 207.461V203.471C241.762 203.023 241.849 202.58 242.019 202.165C242.047 202.104 242.062 202.038 242.064 201.972C242.066 201.905 242.054 201.838 242.03 201.776C242.005 201.713 241.968 201.657 241.921 201.609C241.874 201.561 241.818 201.523 241.756 201.498C241.694 201.472 241.628 201.459 241.561 201.46C241.494 201.461 241.428 201.475 241.366 201.501C241.305 201.528 241.25 201.567 241.204 201.616C241.158 201.664 241.122 201.722 241.098 201.784C240.877 202.319 240.764 202.892 240.766 203.471V207.461C240.767 208.036 240.966 208.593 241.329 209.038C241.692 209.483 242.198 209.789 242.761 209.905V217.436C242.762 218.097 243.025 218.731 243.492 219.199C243.96 219.666 244.594 219.929 245.255 219.93H247.25C247.911 219.929 248.545 219.666 249.012 219.199C249.48 218.731 249.743 218.097 249.744 217.436V209.905C250.307 209.789 250.812 209.483 251.176 209.038C251.539 208.593 251.738 208.036 251.739 207.461V203.471C251.737 202.281 251.264 201.14 250.422 200.298C249.581 199.457 248.44 198.984 247.25 198.982Z" fill="#006291"/>
<path d="M259.866 220.582C259.866 221.447 260.569 222.15 261.434 222.15C262.298 222.15 263.002 221.447 263.002 220.582C263.002 219.717 262.298 219.014 261.434 219.014C260.569 219.014 259.866 219.717 259.866 220.582ZM260.661 220.582C260.661 220.156 261.008 219.809 261.434 219.809C261.86 219.809 262.206 220.156 262.206 220.582C262.206 221.008 261.86 221.354 261.434 221.354C261.008 221.354 260.661 221.008 260.661 220.582Z" fill="#006291" stroke="#006291" stroke-width="0.3"/>
<path d="M254.26 220.582C254.26 221.447 254.964 222.15 255.828 222.15C256.693 222.15 257.396 221.447 257.396 220.582C257.396 219.717 256.693 219.014 255.828 219.014C254.964 219.014 254.26 219.717 254.26 220.582ZM255.056 220.582C255.056 220.156 255.402 219.809 255.828 219.809C256.254 219.809 256.601 220.156 256.601 220.582C256.601 221.008 256.254 221.354 255.828 221.354C255.402 221.354 255.056 221.008 255.056 220.582Z" fill="#006291" stroke="#006291" stroke-width="0.3"/>
<path d="M261.995 218.683H261.995H261.995H261.995H261.995H261.995H261.995H261.995H261.995H261.995H261.995H261.995H261.995H261.995H261.995H261.995H261.995H261.995H261.995H261.995H261.995H261.995H261.995H261.995H261.995H261.995H261.995H261.995H261.995H261.995H261.995H261.995H261.995H261.995H261.995H261.995H261.995H261.995H261.995H261.995H261.995H261.995H261.995H261.995H261.995H261.995H261.995H261.995H261.995H261.995H261.995H261.995H261.995H261.995H261.995H261.995H261.995H261.995H261.995H261.995H261.995H261.995H261.995H261.995H261.995H261.995H261.995H261.995H261.995H261.995H261.995H261.995H261.995H261.995H261.995H261.995H261.995H261.995H261.995H261.995H261.995H261.995H261.995H261.995H261.995H261.995H261.995H261.995H261.995H261.995H261.995C262.543 218.683 263.042 218.341 263.24 217.829L263.241 217.827L265.57 211.625C265.57 211.625 265.57 211.625 265.57 211.625C265.673 211.358 265.638 211.059 265.476 210.823C265.315 210.588 265.048 210.447 264.762 210.447H253.04C252.922 210.447 252.81 210.5 252.734 210.591C252.659 210.682 252.628 210.802 252.649 210.918L252.65 210.918L253.904 217.599L253.904 217.6C254.025 218.226 254.576 218.68 255.213 218.681H255.213L261.995 218.683ZM253.52 211.242H264.762C264.787 211.242 264.807 211.253 264.82 211.273C264.834 211.292 264.837 211.314 264.827 211.34L264.827 211.342L262.498 217.543C262.498 217.544 262.497 217.544 262.497 217.544C262.418 217.749 262.215 217.888 261.995 217.888H261.995H261.995H261.995H261.995H261.995H261.995H261.995H261.995H261.995H261.995H261.995H261.995H261.995H261.995H261.995H261.995H261.995H261.995H261.995H261.995H261.995H261.995H261.995H261.995H261.995H261.995H261.995H261.995H261.995H261.995H261.995H261.995H261.995H261.995H261.995H261.995H261.995H261.995H261.995H261.995H261.995H261.995H261.995H261.995H261.995H261.995L255.214 217.885C254.957 217.885 254.734 217.701 254.686 217.45C254.686 217.45 254.686 217.45 254.686 217.45L253.52 211.242Z" fill="#006291" stroke="#006291" stroke-width="0.3"/>
<path d="M253.123 209.485L253.123 209.485L253.421 210.753L253.421 210.753L253.275 210.787C253.306 210.92 253.224 211.054 253.091 211.085L253.123 209.485ZM253.123 209.485C252.98 208.88 252.446 208.457 251.824 208.457H250.693C250.474 208.457 250.295 208.635 250.295 208.855C250.295 209.074 250.474 209.252 250.693 209.252H251.824C252.076 209.252 252.291 209.423 252.348 209.667C252.348 209.667 252.348 209.667 252.348 209.667L252.647 210.935L253.123 209.485Z" fill="#006291" stroke="#006291" stroke-width="0.3"/>
<path d="M253.396 212.844H257.464C257.683 212.844 257.862 212.666 257.862 212.446C257.862 212.226 257.683 212.048 257.464 212.048H253.396C253.176 212.048 252.998 212.226 252.998 212.446C252.998 212.666 253.176 212.844 253.396 212.844Z" fill="#006291" stroke="#006291" stroke-width="0.3"/>
<path d="M280.49 197.985C281.151 197.984 281.785 197.721 282.252 197.254C282.72 196.786 282.983 196.152 282.984 195.491V194.494C282.984 193.832 282.721 193.198 282.253 192.73C281.786 192.263 281.151 192 280.49 192C279.829 192 279.194 192.263 278.727 192.73C278.259 193.198 277.996 193.832 277.996 194.494V195.491C277.997 196.152 278.26 196.786 278.727 197.254C279.195 197.721 279.829 197.984 280.49 197.985ZM278.994 194.494C278.994 194.097 279.151 193.716 279.432 193.436C279.713 193.155 280.093 192.998 280.49 192.998C280.887 192.998 281.267 193.155 281.548 193.436C281.829 193.716 281.986 194.097 281.986 194.494V195.491C281.986 195.888 281.829 196.269 281.548 196.549C281.267 196.83 280.887 196.988 280.49 196.988C280.093 196.988 279.713 196.83 279.432 196.549C279.151 196.269 278.994 195.888 278.994 195.491V194.494Z" fill="#006291"/>
<path d="M281.484 198.982H279.489C278.73 198.981 277.983 199.175 277.32 199.545C277.207 199.611 277.126 199.719 277.092 199.845C277.058 199.97 277.074 200.105 277.138 200.218C277.202 200.332 277.308 200.416 277.433 200.453C277.558 200.49 277.692 200.476 277.807 200.415C278.322 200.129 278.901 199.979 279.489 199.98H281.484C282.41 199.981 283.297 200.349 283.952 201.004C284.606 201.658 284.974 202.545 284.976 203.471V207.461C284.974 207.769 284.878 208.07 284.699 208.321C284.521 208.573 284.269 208.763 283.978 208.866V204.469C283.978 204.336 283.925 204.209 283.832 204.116C283.738 204.022 283.612 203.97 283.479 203.97C283.347 203.97 283.22 204.022 283.127 204.116C283.033 204.209 282.981 204.336 282.981 204.469V217.436C282.981 217.833 282.823 218.213 282.542 218.494C282.262 218.775 281.881 218.932 281.484 218.932H280.986V209.456C280.986 209.324 280.933 209.197 280.839 209.103C280.746 209.01 280.619 208.957 280.487 208.957C280.354 208.957 280.228 209.01 280.134 209.103C280.041 209.197 279.988 209.324 279.988 209.456V218.932H279.489C279.092 218.932 278.712 218.775 278.431 218.494C278.151 218.213 277.993 217.833 277.993 217.436V204.469C277.993 204.336 277.94 204.209 277.847 204.116C277.753 204.022 277.627 203.97 277.494 203.97C277.362 203.97 277.235 204.022 277.142 204.116C277.048 204.209 276.996 204.336 276.996 204.469V208.866C276.705 208.763 276.453 208.573 276.274 208.321C276.096 208.07 275.999 207.769 275.998 207.461V203.471C275.997 203.023 276.084 202.58 276.254 202.165C276.282 202.104 276.297 202.038 276.299 201.972C276.3 201.905 276.288 201.838 276.264 201.776C276.239 201.713 276.202 201.657 276.156 201.609C276.109 201.561 276.052 201.523 275.991 201.498C275.929 201.472 275.862 201.459 275.795 201.46C275.728 201.461 275.662 201.475 275.601 201.501C275.539 201.528 275.484 201.567 275.438 201.616C275.392 201.664 275.356 201.722 275.333 201.784C275.112 202.319 274.999 202.892 275.001 203.471V207.461C275.001 208.036 275.2 208.593 275.563 209.038C275.927 209.483 276.433 209.789 276.996 209.905V217.436C276.996 218.097 277.259 218.731 277.727 219.199C278.194 219.666 278.828 219.929 279.489 219.93H281.484C282.145 219.929 282.779 219.666 283.247 219.199C283.714 218.731 283.977 218.097 283.978 217.436V209.905C284.541 209.789 285.047 209.483 285.41 209.038C285.773 208.593 285.972 208.036 285.973 207.461V203.471C285.972 202.281 285.498 201.14 284.657 200.298C283.815 199.457 282.674 198.984 281.484 198.982Z" fill="#006291"/>
<path d="M294.1 220.582C294.1 221.447 294.803 222.15 295.668 222.15C296.533 222.15 297.236 221.447 297.236 220.582C297.236 219.717 296.533 219.014 295.668 219.014C294.803 219.014 294.1 219.717 294.1 220.582ZM294.896 220.582C294.896 220.156 295.242 219.809 295.668 219.809C296.094 219.809 296.441 220.156 296.441 220.582C296.441 221.008 296.094 221.354 295.668 221.354C295.242 221.354 294.896 221.008 294.896 220.582Z" fill="#006291" stroke="#006291" stroke-width="0.3"/>
<path d="M288.495 220.582C288.495 221.447 289.198 222.15 290.063 222.15C290.927 222.15 291.63 221.447 291.63 220.582C291.63 219.717 290.927 219.014 290.063 219.014C289.198 219.014 288.495 219.717 288.495 220.582ZM289.29 220.582C289.29 220.156 289.637 219.809 290.063 219.809C290.488 219.809 290.835 220.156 290.835 220.582C290.835 221.008 290.488 221.354 290.063 221.354C289.637 221.354 289.29 221.008 289.29 220.582Z" fill="#006291" stroke="#006291" stroke-width="0.3"/>
<path d="M296.229 218.683H296.229H296.229H296.229H296.229H296.229H296.229H296.229H296.229H296.229H296.229H296.229H296.229H296.229H296.229H296.229H296.229H296.229H296.229H296.229H296.229H296.229H296.229H296.229H296.229H296.229H296.229H296.229H296.229H296.229H296.229H296.229H296.229H296.229H296.229H296.229H296.229H296.229H296.229H296.229H296.229H296.229H296.229H296.229H296.229H296.229H296.229H296.229H296.229H296.229H296.229H296.229H296.229H296.229H296.229H296.229H296.229H296.23H296.23H296.23H296.23H296.23H296.23H296.23H296.23H296.23H296.23H296.23H296.23H296.23H296.23H296.23H296.23H296.23H296.23H296.23H296.23H296.23H296.23H296.23H296.23H296.23H296.23H296.23H296.23H296.23H296.23H296.23H296.23H296.23H296.23C296.777 218.683 297.276 218.341 297.474 217.829L297.475 217.827L299.804 211.625C299.804 211.625 299.804 211.625 299.804 211.625C299.907 211.358 299.872 211.059 299.711 210.823C299.549 210.588 299.282 210.447 298.997 210.447H287.275C287.156 210.447 287.044 210.5 286.969 210.591C286.893 210.682 286.862 210.802 286.884 210.918L286.884 210.918L288.139 217.599L288.139 217.6C288.26 218.226 288.81 218.68 289.448 218.681H289.448L296.229 218.683ZM287.754 211.242H298.997C299.021 211.242 299.041 211.253 299.055 211.273C299.068 211.292 299.072 211.314 299.062 211.34L299.061 211.342L296.732 217.543C296.732 217.544 296.732 217.544 296.732 217.544C296.652 217.749 296.45 217.888 296.23 217.888H296.23H296.23H296.23H296.23H296.23H296.23H296.23H296.23H296.23H296.23H296.23H296.23H296.23H296.23H296.23H296.23H296.23H296.23H296.23H296.23H296.23H296.23H296.23H296.23H296.23H296.23H296.23H296.23H296.23H296.23H296.23H296.23H296.23H296.23H296.23H296.23H296.229H296.229H296.229H296.229H296.229H296.229H296.229H296.229H296.229H296.229L289.448 217.885C289.191 217.885 288.969 217.701 288.92 217.45C288.92 217.45 288.92 217.45 288.92 217.45L287.754 211.242Z" fill="#006291" stroke="#006291" stroke-width="0.3"/>
<path d="M287.357 209.485L287.357 209.485L287.655 210.753L287.655 210.753L287.509 210.787C287.541 210.92 287.458 211.054 287.325 211.085L287.357 209.485ZM287.357 209.485C287.215 208.88 286.68 208.457 286.059 208.457H284.927C284.708 208.457 284.53 208.635 284.53 208.855C284.53 209.074 284.708 209.252 284.927 209.252H286.059C286.31 209.252 286.525 209.423 286.583 209.667C286.583 209.667 286.583 209.667 286.583 209.667L286.881 210.935L287.357 209.485Z" fill="#006291" stroke="#006291" stroke-width="0.3"/>
<path d="M287.63 212.844H291.698C291.918 212.844 292.096 212.666 292.096 212.446C292.096 212.226 291.918 212.048 291.698 212.048H287.63C287.41 212.048 287.232 212.226 287.232 212.446C287.232 212.666 287.41 212.844 287.63 212.844Z" fill="#006291" stroke="#006291" stroke-width="0.3"/>
</svg>
