<svg width="419" height="181" viewBox="0 0 419 181" fill="none" xmlns="http://www.w3.org/2000/svg">
<path d="M365.785 118.516L355.902 128.374L374.447 146.966L384.33 137.108L365.785 118.516Z" fill="#E2EDFB"/>
<path d="M0 106.27L25.6278 105.757C27.2509 114.812 30.5312 121.459 35.4688 125.696C40.4065 129.933 47.0868 132.068 55.4756 132.068C64.377 132.068 71.0744 130.189 75.5849 126.413C80.0953 122.637 82.3506 118.229 82.3506 113.172C82.3506 109.926 81.4109 107.175 79.5144 104.886C77.618 102.614 74.3205 100.632 69.605 98.9403C66.3759 97.8298 59.0293 95.8308 47.5651 92.9605C32.8035 89.2872 22.4499 84.7767 16.4872 79.4119C8.11546 71.8774 3.92959 62.6855 3.92959 51.8535C3.92959 44.8828 5.89439 38.3562 9.84106 32.291C13.7877 26.2258 19.46 21.5957 26.8921 18.4178C34.307 15.24 43.2597 13.6511 53.7671 13.6511C70.9035 13.6511 83.8028 17.444 92.465 25.0127C101.127 32.5814 105.672 42.6959 106.116 55.3389H78.4381C77.2592 48.2998 74.7477 44.2677 70.8864 41.1753C67.0252 38.0829 61.2333 36.5452 53.5108 36.5452C45.532 36.5452 39.2959 38.2025 34.7854 41.4999C31.881 43.6185 30.4287 46.4546 30.4287 50.0083C30.4287 53.2545 31.7955 56.0223 34.5292 58.3288C37.9975 61.2504 46.4375 64.3086 59.8323 67.4865C73.2271 70.6643 83.1365 73.9447 89.5435 77.3446C95.9675 80.7446 100.991 85.3918 104.613 91.2862C108.235 97.1805 110.046 104.459 110.046 113.121C110.046 120.98 107.859 128.327 103.519 135.195C99.1795 142.063 93.0117 147.155 85.05 150.486C77.0883 153.818 67.1619 155.492 55.2877 155.492C37.9975 155.492 24.7052 151.477 15.445 143.447C6.18482 135.417 0 124.722 0 106.27Z" fill="#C6DBF8"/>
<path d="M133.645 154.45V14.8642H230.125V38.5613H160.007V69.4001H225.255V93.1143H160.007V130.753H232.568V154.45H133.645Z" fill="#C6DBF8"/>
<path d="M314.436 13.6682C333.521 13.6682 349.939 20.5364 363.676 34.2558C377.412 47.9752 384.281 64.7016 384.281 84.435C384.281 103.98 377.498 120.536 363.949 134.067C350.401 147.616 333.948 154.382 314.624 154.382C294.378 154.382 277.549 147.428 264.155 133.521C250.76 119.613 244.062 103.109 244.062 83.9737C244.062 71.1598 247.189 59.3881 253.425 48.6415C259.661 37.8949 268.238 29.3694 279.173 23.0992C290.073 16.8118 301.845 13.6682 314.436 13.6682ZM315.376 39.1422C302.682 39.1422 292.004 43.5331 283.341 52.3148C274.679 61.0966 270.357 72.2533 270.357 85.7847C270.357 100.871 275.807 112.796 286.707 121.578C295.164 128.446 304.886 131.863 315.837 131.863C328.224 131.863 338.783 127.421 347.496 118.503C356.21 109.601 360.566 98.6328 360.566 85.5797C360.566 72.595 356.176 61.6092 347.394 52.6224C338.629 43.6356 327.951 39.1422 315.376 39.1422Z" fill="#C6DBF8"/>
<path d="M415.84 162.702C418.677 165.555 419.087 170.032 416.558 172.56L409.861 179.24C407.332 181.752 402.856 181.342 400.002 178.506L374.614 153.049C371.761 150.196 371.504 145.839 374.033 143.327L380.73 136.647C383.259 134.136 387.599 134.409 390.452 137.245L415.84 162.702Z" fill="#95B0D6"/>
<path d="M367.258 18.0419L395.38 12.643L392.168 41.3119" fill="#9FB9DD"/>
<path d="M412.471 2.08435V-3.05176e-05H407.67H405.688H400.887V2.08435H405.346V21.8519H400.887V23.5775H405.688H407.67H412.471V21.8519H408.012V2.08435H412.471Z" fill="#B7BBBC"/>
<path d="M301.721 65.6241L271.583 97.505C272.71 102.562 274.624 107.175 277.323 111.327L303.139 84.0248L323.47 99.7261L393.041 25.0638L383.046 15.7524L321.984 81.2912L301.721 65.6241Z" fill="#9FB9DD"/>
</svg>
