<svg width="50" height="49" viewBox="0 0 50 49" fill="none" xmlns="http://www.w3.org/2000/svg">
<path d="M2.45501 41.6583H25.3264C25.7773 41.6583 26.143 41.2926 26.143 40.8413C26.143 40.3904 25.7773 40.0247 25.3264 40.0247H2.45501C2.00407 40.0247 1.63801 39.659 1.63801 39.2077V35.1237C1.63801 34.6724 2.00407 34.3067 2.45501 34.3067H25.3264C25.7773 34.3067 26.143 33.941 26.143 33.4901C26.143 33.0388 25.7773 32.6731 25.3264 32.6731H2.45501C1.10181 32.6731 0.00436401 33.7702 0.00436401 35.1237V39.2077C0.00436401 40.5612 1.10181 41.6583 2.45501 41.6583Z" fill="#006290"/>
<path d="M36.759 44.9258C38.6432 44.9273 40.469 44.2741 41.9247 43.0783L47.6172 48.7708C47.938 49.0804 48.4473 49.0759 48.7625 48.7607C49.0773 48.4455 49.0818 47.9362 48.7722 47.6158L43.0797 41.9233C45.4933 38.9652 45.5345 34.7295 43.1788 31.7255C40.8231 28.721 36.7 27.7507 33.2517 29.3889C29.8034 31.027 27.951 34.8361 28.7916 38.5599C29.6322 42.2841 32.9417 44.9281 36.759 44.9258ZM36.759 30.2227C40.3681 30.2227 43.294 33.1486 43.294 36.7576C43.294 40.3667 40.3681 43.2922 36.759 43.2922C33.1504 43.2922 30.2245 40.3667 30.2245 36.7576C30.2286 33.1501 33.1519 30.2268 36.759 30.2227Z" fill="#006290"/>
<path d="M36.759 41.6585C39.4657 41.6585 41.6603 39.4644 41.6603 36.7576C41.6603 34.0508 39.4657 31.8563 36.759 31.8563C34.0522 31.8563 31.858 34.0508 31.858 36.7576C31.8606 39.4633 34.0533 41.6559 36.759 41.6585ZM36.759 33.4903C38.5635 33.4903 40.0266 34.9531 40.0266 36.7576C40.0266 38.5621 38.5635 40.0249 36.759 40.0249C34.9544 40.0249 33.4917 38.5621 33.4917 36.7576C33.4917 34.9531 34.9544 33.4903 36.759 33.4903Z" fill="#006290"/>
<path d="M3.26761 35.9404V38.3911C3.26761 38.842 3.6333 39.2077 4.08424 39.2077C4.53556 39.2077 4.90125 38.842 4.90125 38.3911V35.9404C4.90125 35.4895 4.53556 35.1238 4.08424 35.1238C3.6333 35.1238 3.26761 35.4895 3.26761 35.9404Z" fill="#006290"/>
<path d="M3.26761 24.505V30.2225C3.26761 30.6738 3.6333 31.0395 4.08424 31.0395H13.8861C14.3374 31.0395 14.7031 30.6738 14.7031 30.2225V24.505C14.7031 23.1514 13.606 22.0543 12.2525 22.0543H5.71788C4.36468 22.0543 3.26761 23.1514 3.26761 24.505ZM13.0695 24.505V29.4059H4.90125V24.505C4.90125 24.0537 5.26694 23.688 5.71788 23.688H12.2525C12.7038 23.688 13.0695 24.0537 13.0695 24.505Z" fill="#006290"/>
<path d="M19.6086 31.0396H29.4109C29.8618 31.0396 30.2275 30.6739 30.2275 30.2226V18.7871C30.2275 17.4339 29.1304 16.3364 27.7772 16.3364H21.2423C19.8891 16.3364 18.792 17.4339 18.792 18.7871V30.2226C18.792 30.6739 19.1577 31.0396 19.6086 31.0396ZM20.4256 18.7871C20.4256 18.3358 20.7913 17.9701 21.2423 17.9701H27.7772C28.2282 17.9701 28.5938 18.3358 28.5938 18.7871V29.4059H20.4256V18.7871Z" fill="#006290"/>
<path d="M34.3076 12.2525V26.1387C34.3076 26.5896 34.6733 26.9553 35.1243 26.9553C35.5756 26.9553 35.9413 26.5896 35.9413 26.1387V12.2525C35.9413 11.8012 36.307 11.4355 36.7579 11.4355H43.2929C43.7438 11.4355 44.1095 11.8012 44.1095 12.2525V30.2226C44.1095 30.6739 44.4752 31.0396 44.9265 31.0396C45.3774 31.0396 45.7431 30.6739 45.7431 30.2226V12.2525C45.7431 10.899 44.6461 9.80188 43.2929 9.80188H36.7579C35.4047 9.80188 34.3076 10.899 34.3076 12.2525Z" fill="#006290"/>
<path d="M33.4947 6.53457C33.0437 6.53457 32.678 6.16888 32.678 5.71756C32.678 5.26662 32.3124 4.90093 31.861 4.90093C31.4101 4.90093 31.0444 5.26662 31.0444 5.71756C31.0444 7.07114 32.1415 8.16821 33.4947 8.16821C34.8337 8.13418 35.9113 7.05693 35.9453 5.71756C35.9453 4.39614 34.7394 3.79338 33.86 3.35291C33.1679 3.00741 32.678 2.73969 32.678 2.45028C32.7053 2.0113 33.0557 1.66094 33.4947 1.63364C33.946 1.63364 34.3117 1.99933 34.3117 2.45028C34.3117 2.90159 34.6774 3.26728 35.1283 3.26728C35.5796 3.26728 35.9453 2.90159 35.9453 2.45028C35.9453 1.09707 34.8483 0 33.4947 0C32.1557 0.0336525 31.0781 1.11128 31.0444 2.45028C31.0444 3.77207 32.2499 4.37482 33.1297 4.8153C33.8215 5.1608 34.3117 5.42852 34.3117 5.71756C34.284 6.15691 33.934 6.5069 33.4947 6.53457Z" fill="#006290"/>
<path d="M40.8425 1.63364C41.2939 1.63364 41.6595 1.26795 41.6595 0.816634C41.6595 0.36569 41.2939 0 40.8425 0H39.2089C38.3066 0 37.5753 0.731381 37.5753 1.63364V6.53457C37.5753 7.43683 38.3066 8.16821 39.2089 8.16821H40.8425C41.2939 8.16821 41.6595 7.80252 41.6595 7.3512C41.6595 6.90026 41.2939 6.53457 40.8425 6.53457H39.2089V4.90093H40.8425C41.2939 4.90093 41.6595 4.53523 41.6595 4.08392C41.6595 3.63297 41.2939 3.26728 40.8425 3.26728H39.2089V1.63364H40.8425Z" fill="#006290"/>
<path d="M49.0057 2.85897C49.0057 1.27992 47.7258 0 46.1471 0C44.568 0 43.2881 1.27992 43.2881 2.85897V5.30924C43.2881 6.88829 44.568 8.16821 46.1471 8.16821C47.7258 8.16821 49.0057 6.88829 49.0057 5.30924V2.85897ZM47.372 5.30924C47.372 5.98603 46.8235 6.53457 46.1471 6.53457C45.4703 6.53457 44.9218 5.98603 44.9218 5.30924V2.85897C44.9218 2.18218 45.4703 1.63364 46.1471 1.63364C46.8235 1.63364 47.372 2.18218 47.372 2.85897V5.30924Z" fill="#006290"/>
<path d="M10.6219 10.6189C11.0732 10.6189 11.4389 10.2532 11.4389 9.80188V2.7887L11.6782 3.02801C11.9986 3.33761 12.5083 3.33312 12.8231 3.01791C13.1383 2.70307 13.1428 2.19342 12.8332 1.87298L11.1996 0.239335C11.1233 0.163056 11.0328 0.102856 10.9333 0.0620987C10.7333 -0.0205368 10.5089 -0.0205368 10.3093 0.0620987C10.2094 0.102856 10.1189 0.163056 10.0427 0.239335L8.40902 1.87298C8.09979 2.19342 8.1039 2.70307 8.41911 3.01791C8.73433 3.33312 9.2436 3.33761 9.56405 3.02801L9.80522 2.7887V9.80188C9.80522 10.2532 10.1709 10.6189 10.6219 10.6189Z" fill="#006290"/>
<path d="M18.7845 13.886C19.2355 13.886 19.6012 13.5203 19.6012 13.069V6.87244L19.8405 7.11175C20.1609 7.42135 20.6706 7.41686 20.9858 7.10202C21.3006 6.78681 21.3051 6.27754 20.9955 5.95709L19.3619 4.32308C19.286 4.24717 19.1955 4.1866 19.0956 4.14584C18.896 4.0632 18.6713 4.0632 18.4716 4.14584C18.3717 4.1866 18.2813 4.24717 18.2054 4.32308L16.5717 5.95709C16.2621 6.27754 16.2666 6.78681 16.5814 7.10202C16.8966 7.41686 17.4063 7.42135 17.7267 7.11175L17.9675 6.87244V13.069C17.9675 13.5203 18.3332 13.886 18.7845 13.886Z" fill="#006290"/>
<path d="M1.3955 7.11175L1.63481 6.87244V13.069C1.63481 13.5203 2.00087 13.886 2.45182 13.886C2.90276 13.886 3.26883 13.5203 3.26883 13.069V6.87244L3.50813 7.11175C3.82858 7.42135 4.33785 7.41686 4.65307 7.10202C4.96828 6.78681 4.97239 6.27754 4.66316 5.95709L3.02915 4.32308C2.95324 4.24717 2.86275 4.1866 2.76292 4.14584C2.56325 4.0632 2.3389 4.0632 2.13885 4.14584C2.03939 4.1866 1.9489 4.24717 1.87262 4.32308L0.23898 5.95709C-0.0799713 6.27642 -0.0795973 6.79392 0.239727 7.11287C0.559052 7.43182 1.07655 7.43144 1.3955 7.11175Z" fill="#006290"/>
</svg>
