<svg width="54" height="56" viewBox="0 0 54 56" fill="none" xmlns="http://www.w3.org/2000/svg">
<path d="M51.3003 50.2817H50.4005V25.5321C50.4005 24.0131 49.1913 22.782 47.7004 22.782H38.7006C37.2092 22.782 36.0005 24.0131 36.0005 25.5321V50.2817H34.2005V16.3653C34.2005 14.8467 32.9917 13.6156 31.5004 13.6156H30.2566L28.3433 9.71694C29.5921 9.32082 30.6101 8.39138 31.1333 7.17031C32.7886 7.1594 34.3579 6.41753 35.4344 5.13645C36.0519 4.38157 36.1768 3.32792 35.7528 2.44506C35.2284 1.40484 34.1679 0.759474 33.0198 0.782133H20.9824C19.8338 0.759474 18.773 1.40442 18.2481 2.44506C17.8246 3.32792 17.949 4.38157 18.5666 5.13645C19.6431 6.41711 21.2119 7.1594 22.8668 7.17031C23.3901 8.39138 24.4081 9.32082 25.6568 9.71694L23.7444 13.6156H22.5006C21.0096 13.6156 19.8005 14.8467 19.8005 16.3653V50.2817H18.0005V34.6985C18.0005 33.18 16.7917 31.9488 15.3008 31.9488H6.30061C4.80964 31.9488 3.60088 33.18 3.60088 34.6985V50.2817H2.7007C1.20973 50.2817 0.000976562 51.5128 0.000976562 53.0318C0.000976562 54.5504 1.20973 55.7815 2.7007 55.7815H51.3003C52.7916 55.7815 54.0004 54.5504 54.0004 53.0318C54.0004 51.5128 52.7916 50.2817 51.3003 50.2817ZM37.8004 25.5321C37.8004 25.0257 38.2033 24.6153 38.7006 24.6153H47.7004C48.1972 24.6153 48.6005 25.0257 48.6005 25.5321V50.2817H37.8004V25.5321ZM34.1292 3.23728C34.2541 3.48318 34.2153 3.78236 34.032 3.98713C33.3893 4.74411 32.4801 5.21324 31.5004 5.29422V2.61542H33.0198C33.4758 2.58982 33.9063 2.8311 34.1292 3.23728ZM19.8717 3.23728C20.095 2.83068 20.526 2.58982 20.9824 2.61542H22.5006V5.29422C21.5217 5.2145 20.6129 4.74663 19.9698 3.99049C19.7848 3.78572 19.7453 3.48444 19.8717 3.23728ZM24.3005 5.36556V2.61542H29.7004V5.36556C29.7004 6.88455 28.4917 8.1157 27.0007 8.1157C25.5093 8.1157 24.3005 6.88455 24.3005 5.36556ZM27.0007 11.0819L28.2445 13.6156H25.7569L27.0007 11.0819ZM21.6008 16.3653C21.6008 15.8592 22.0037 15.4488 22.5006 15.4488H31.5004C31.9976 15.4488 32.4005 15.8592 32.4005 16.3653V50.2817H21.6008V16.3653ZM5.40084 34.6985C5.40084 34.1925 5.80376 33.7821 6.30061 33.7821H15.3008C15.7976 33.7821 16.2006 34.1925 16.2006 34.6985V50.2817H5.40084V34.6985ZM51.3003 53.9483H2.7007C2.20385 53.9483 1.80093 53.5379 1.80093 53.0318C1.80093 52.5254 2.20385 52.115 2.7007 52.115H51.3003C51.7975 52.115 52.2004 52.5254 52.2004 53.0318C52.2004 53.5379 51.7975 53.9483 51.3003 53.9483Z" fill="#006291"/>
</svg>
