<svg width="50" height="51" viewBox="0 0 50 51" fill="none" xmlns="http://www.w3.org/2000/svg">
<g clip-path="url(#clip0)">
<path d="M25.0003 16.1043C25.0003 10.7679 20.6594 6.42691 15.3229 6.42691C9.98649 6.42691 5.64551 10.7679 5.64551 16.1043C5.64551 21.4408 9.98649 25.7817 15.3229 25.7817C20.6594 25.7817 25.0003 21.4408 25.0003 16.1043ZM7.25841 16.1043C7.25841 11.6574 10.876 8.03981 15.3229 8.03981C19.7698 8.03981 23.3874 11.6574 23.3874 16.1043C23.3874 20.5512 19.7698 24.1688 15.3229 24.1688C10.876 24.1688 7.25841 20.5512 7.25841 16.1043Z" fill="#006291"/>
<path d="M21.7743 16.1043C21.7743 12.547 18.8801 9.65271 15.3227 9.65271C11.7653 9.65271 8.87109 12.547 8.87109 16.1043C8.87109 19.6617 11.7653 22.5559 15.3227 22.5559C18.8801 22.5559 21.7743 19.6617 21.7743 16.1043ZM10.484 16.1043C10.484 13.4357 12.6541 11.2656 15.3227 11.2656C17.9913 11.2656 20.1614 13.4357 20.1614 16.1043C20.1614 18.7729 17.9913 20.943 15.3227 20.943C12.6541 20.943 10.484 18.7729 10.484 16.1043Z" fill="#006291"/>
<path d="M47.1944 26.0574C46.7218 23.7526 45.8276 21.5947 44.5305 19.6286L46.013 17.1423L41.7032 12.8324L39.2169 14.3146C37.2507 13.0187 35.0929 12.1244 32.7881 11.6511L32.0797 8.84625H27.467L28.312 7.42354L24.0041 3.11564L21.3379 4.69862C20.6378 4.32926 19.8998 4.02448 19.1355 3.789L18.3684 0.781738H12.2767L11.5097 3.789C10.7453 4.02448 10.0074 4.33005 9.30727 4.69862L6.64181 3.11564L2.33391 7.42354L3.91688 10.0898C3.54752 10.7899 3.24274 11.5279 3.00726 12.2922L0 13.0585V19.1502L3.00726 19.9172C3.24274 20.6816 3.54831 21.4195 3.91688 22.1196L2.33391 24.7859L6.64181 29.0938L8.06452 28.248V32.8606L10.8702 33.5706C11.3427 35.8746 12.237 38.0333 13.5341 40.0002L12.0515 42.4857L16.3614 46.7956L18.8477 45.3134C20.8138 46.6093 22.9717 47.5036 25.2764 47.9769L25.9848 50.7817H32.0797L32.7889 47.9761C35.0936 47.5028 37.2515 46.6093 39.2176 45.3122L41.7039 46.7948L46.0138 42.4849L44.5316 39.9994C45.8276 38.0333 46.7218 35.8746 47.1951 33.5698L50 32.8606V26.7666L47.1944 26.0574ZM4.36145 24.5311L5.78062 22.1405L5.54514 21.7318C5.06198 20.8954 4.68789 19.9897 4.43312 19.0407L4.31066 18.5851L1.6129 17.8972V14.3115L4.30987 13.6243L4.43233 13.1687C4.68711 12.2197 5.06198 11.314 5.54435 10.4777L5.77983 10.0689L4.36067 7.67832L6.89579 5.14319L9.2864 6.56236L9.69514 6.32688C10.5315 5.84372 11.4372 5.46963 12.3862 5.21486L12.8418 5.0924L13.5297 2.39464H17.1154L17.8026 5.09161L18.2582 5.21407C19.2072 5.46884 20.1129 5.84372 20.9492 6.32609L21.358 6.56157L23.7486 5.14241L26.2837 7.67753L24.8645 10.0681L25.1 10.4769C25.5832 11.3133 25.9573 12.2189 26.212 13.1679L26.3345 13.6235L29.0323 14.3115V17.8972L26.3353 18.5843L26.2128 19.0399C25.9581 19.9889 25.5832 20.8946 25.1008 21.731L24.8653 22.1397L26.2845 24.5303L23.7494 27.0654L21.3588 25.6455L20.95 25.881C20.1136 26.3641 19.208 26.7382 18.259 26.993L17.8034 27.1155L17.1154 29.814H13.5297L12.8426 27.117L12.387 26.9946C11.438 26.7398 10.5323 26.3649 9.69593 25.8825L9.28719 25.6471L6.89658 27.0674L4.36145 24.5311ZM30.6452 19.1502V17.8357C36.588 18.6284 41.129 23.7262 41.129 29.814C41.129 36.4842 35.7024 41.9108 29.0323 41.9108C22.9445 41.9108 17.8467 37.3698 17.0532 31.4269H18.3676L19.1347 28.4196C19.5517 28.2905 19.9581 28.1373 20.3574 27.9688C20.2298 28.572 20.1613 29.1875 20.1613 29.814C20.1613 34.7051 24.1412 38.685 29.0323 38.685C33.9233 38.685 37.9032 34.7051 37.9032 29.814C37.9032 24.9229 33.9233 20.943 29.0323 20.943C28.4058 20.943 27.7903 21.0115 27.1878 21.1399C27.3564 20.7406 27.5095 20.3343 27.6387 19.9172L30.6452 19.1502ZM22.0305 27.9211L24.0034 29.093L28.3113 24.7851L27.1402 22.8123C27.7533 22.6469 28.3857 22.5559 29.0323 22.5559C33.0338 22.5559 36.2903 25.8125 36.2903 29.814C36.2903 33.8163 33.0338 37.0721 29.0323 37.0721C25.0307 37.0721 21.7742 33.8163 21.7742 29.814C21.7742 29.1674 21.8652 28.535 22.0305 27.9211ZM48.3871 31.6061L45.7953 32.2609L45.7047 32.7744C45.2751 35.2115 44.3363 37.4784 42.9152 39.5099L42.6163 39.9376L43.9855 42.2341L41.4515 44.7672L39.1546 43.3981L38.7274 43.6969C36.6967 45.1189 34.4305 46.0576 31.9927 46.4872L31.4792 46.5778L30.8235 49.1688H27.241L26.5861 46.577L26.0726 46.4864C23.6348 46.0568 21.3686 45.1181 19.3379 43.6961L18.9107 43.3969L16.6138 44.7664L14.0798 42.2333L15.4494 39.9364L15.1501 39.5091C13.7282 37.4776 12.7902 35.2115 12.3606 32.7736L12.27 32.2601L9.67742 31.6061V27.6833C10.2677 27.9703 10.8765 28.2243 11.5097 28.4204L12.2767 31.4269H15.4324C16.2369 38.2664 22.0605 43.5237 29.0323 43.5237C36.592 43.5237 42.7419 37.3737 42.7419 29.814C42.7419 22.8422 37.4846 17.0187 30.6452 16.215V13.0585L27.6379 12.2914C27.4426 11.6582 27.1886 11.0486 26.9015 10.4592H30.8235L31.4784 13.051L31.9919 13.1416C34.4297 13.5712 36.6959 14.5099 38.7266 15.9311L39.1539 16.2299L41.4507 14.8608L43.9847 17.3947L42.6151 19.6916L42.9144 20.1189C44.3355 22.1496 45.2743 24.4157 45.7039 26.8536L45.7945 27.3671L48.3871 28.0219V31.6061Z" fill="#006291"/>
<path d="M34.6203 30.618C34.6834 30.1771 34.3163 29.814 33.8709 29.814C33.4255 29.814 33.0729 30.1787 32.9845 30.6152C32.6643 32.197 31.4152 33.4461 29.8335 33.7663C29.3969 33.8547 29.0322 34.2073 29.0322 34.6527C29.0322 35.0981 29.3954 35.4652 29.8363 35.4021C32.3069 35.0482 34.2664 33.0882 34.6203 30.618Z" fill="#006291"/>
<path d="M33.597 28.201C34.0166 28.0523 34.2413 27.5878 34.0346 27.1935C33.9433 27.0196 33.8431 26.8506 33.734 26.687C33.487 26.3165 32.9715 26.2911 32.6398 26.5881L32.6248 26.6016C32.3013 26.8912 32.2826 27.3857 32.5042 27.7591C32.7259 28.1327 33.1687 28.3527 33.5782 28.2076L33.597 28.201Z" fill="#006291"/>
<path d="M28.2256 46.7495C28.2256 46.3041 28.5866 45.943 29.032 45.943C29.4774 45.943 29.8385 46.3041 29.8385 46.7495C29.8385 47.1949 29.4774 47.5559 29.032 47.5559C28.5866 47.5559 28.2256 47.1949 28.2256 46.7495Z" fill="#006291"/>
<path d="M40.4364 42.3601C40.1215 42.0452 40.1215 41.5346 40.4364 41.2197C40.7513 40.9048 41.2619 40.9048 41.5768 41.2197C41.8917 41.5346 41.8917 42.0452 41.5768 42.3601C41.2619 42.675 40.7513 42.675 40.4364 42.3601Z" fill="#006291"/>
<path d="M45.1611 29.814C45.1611 29.3686 45.5222 29.0075 45.9676 29.0075C46.413 29.0075 46.774 29.3686 46.774 29.814C46.774 30.2594 46.413 30.6204 45.9676 30.6204C45.5222 30.6204 45.1611 30.2594 45.1611 29.814Z" fill="#006291"/>
<path d="M40.4364 18.4095C40.1215 18.0946 40.1214 17.584 40.4363 17.2691C40.7512 16.954 41.262 16.954 41.5769 17.2691C41.8918 17.584 41.8917 18.0946 41.5768 18.4095C41.2619 18.7244 40.7513 18.7244 40.4364 18.4095Z" fill="#006291"/>
<path d="M16.4865 42.3598C16.1715 42.0449 16.1715 41.5341 16.4865 41.2191C16.8015 40.9043 17.312 40.9044 17.6269 41.2192C17.9419 41.5342 17.9419 42.0448 17.6269 42.3597C17.312 42.6746 16.8015 42.6747 16.4865 42.3598Z" fill="#006291"/>
</g>
<defs>
<clipPath id="clip0">
<rect width="50" height="50" fill="white" transform="translate(0 0.781738)"/>
</clipPath>
</defs>
</svg>
