<svg width="34" height="50" viewBox="0 0 34 50" fill="none" xmlns="http://www.w3.org/2000/svg">
<path d="M27.73 36.9787C28.6927 36.0862 29.2967 34.8121 29.2967 33.3989C29.2967 30.7065 27.1062 28.5161 24.4139 28.5161C21.7215 28.5161 19.5311 30.7065 19.5311 33.3989C19.5311 33.3998 19.5312 33.4006 19.5312 33.4014C18.7145 32.787 17.6998 32.4222 16.6015 32.4222C15.5031 32.4222 14.4884 32.7869 13.6717 33.4014C13.6717 33.4006 13.6718 33.3998 13.6718 33.3989C13.6718 30.7065 11.4814 28.5161 8.78903 28.5161C6.09666 28.5161 3.90623 30.7065 3.90623 33.3989C3.90623 34.8121 4.51024 36.0862 5.47293 36.9787C2.26571 38.2902 0 41.444 0 45.1176C0 45.657 0.437205 46.0942 0.976559 46.0942H8.3151C7.99001 47.011 7.81247 47.9969 7.81247 49.0236C7.81247 49.563 8.24967 50.0002 8.78903 50.0002H12.6953C13.2346 50.0002 13.6718 49.563 13.6718 49.0236C13.6718 48.4843 13.2346 48.0471 12.6953 48.0471H9.83512C10.3104 44.7387 13.1636 42.1877 16.6015 42.1877C20.0394 42.1877 22.8926 44.7387 23.3679 48.0471H20.5076C19.9683 48.0471 19.5311 48.4843 19.5311 49.0236C19.5311 49.563 19.9683 50.0002 20.5076 50.0002H24.4139C24.9532 50.0002 25.3904 49.563 25.3904 49.0236C25.3904 47.9969 25.2129 47.011 24.8878 46.0942H32.2263C32.7657 46.0942 33.2029 45.657 33.2029 45.1176C33.2029 41.444 30.9372 38.2902 27.73 36.9787ZM24.4139 30.4691C26.0293 30.4691 27.3435 31.7834 27.3435 33.3988C27.3435 35.0138 26.03 36.3278 24.4151 36.3285C24.4147 36.3285 24.4143 36.3285 24.4139 36.3285C24.4135 36.3285 24.4131 36.3285 24.4128 36.3285C22.7979 36.3279 21.4842 35.0138 21.4842 33.3988C21.4842 31.7834 22.7984 30.4691 24.4139 30.4691ZM16.6015 34.3753C18.2169 34.3753 19.5312 35.6895 19.5312 37.3049C19.5312 38.9204 18.2169 40.2346 16.6015 40.2346C14.9861 40.2346 13.6718 38.9204 13.6718 37.3049C13.6718 35.6895 14.986 34.3753 16.6015 34.3753ZM5.85935 33.3989C5.85935 31.7835 7.1736 30.4692 8.78903 30.4692C10.4045 30.4692 11.7187 31.7835 11.7187 33.3989C11.7187 35.0139 10.405 36.3279 8.7901 36.3286C8.78971 36.3286 8.78932 36.3286 8.78903 36.3286C8.78864 36.3286 8.78815 36.3286 8.78776 36.3286C7.17292 36.3279 5.85935 35.0139 5.85935 33.3989ZM9.29703 44.1409H2.02265C2.49784 40.8329 5.35066 38.2821 8.78805 38.2816C8.78834 38.2816 8.78874 38.2816 8.78903 38.2816C8.78942 38.2816 8.78981 38.2816 8.7901 38.2816C9.94185 38.2818 11.0685 38.5714 12.0701 39.1204C12.3417 39.7959 12.7597 40.3973 13.2854 40.8846C11.6543 41.5517 10.2669 42.6949 9.29703 44.1409ZM23.9059 44.1409C22.936 42.6949 21.5485 41.5516 19.9175 40.8847C20.4432 40.3974 20.8611 39.796 21.1328 39.1205C22.1345 38.5715 23.2612 38.2819 24.4128 38.2817C24.4132 38.2817 24.4136 38.2817 24.4139 38.2817C24.4142 38.2817 24.4146 38.2817 24.4148 38.2817C27.8522 38.2822 30.705 40.833 31.1802 44.141H23.9059V44.1409Z" fill="#006290"/>
<path d="M16.6015 19.5312C19.2939 19.5312 21.4843 17.3408 21.4843 14.6484C21.4843 11.956 19.2939 9.76562 16.6015 9.76562C13.9092 9.76562 11.7188 11.956 11.7188 14.6484C11.7188 17.3408 13.9092 19.5312 16.6015 19.5312ZM16.6015 11.7187C18.217 11.7187 19.5312 13.033 19.5312 14.6484C19.5312 16.2638 18.217 17.5781 16.6015 17.5781C14.9861 17.5781 13.6719 16.2638 13.6719 14.6484C13.6719 13.033 14.9861 11.7187 16.6015 11.7187Z" fill="#006290"/>
<path d="M2.92968 15.6249H3.94345C4.41913 21.8483 9.40163 26.8309 15.625 27.3064V28.3202C15.625 28.8596 16.0622 29.2968 16.6016 29.2968C17.141 29.2968 17.5782 28.8596 17.5782 28.3202V27.3065C23.8015 26.8309 28.784 21.8483 29.2597 15.6249H30.2734C30.8128 15.6249 31.25 15.1877 31.25 14.6484C31.25 14.109 30.8128 13.6718 30.2734 13.6718H29.2597C28.784 7.44851 23.8015 2.46601 17.5782 1.99032V0.976559C17.5782 0.437205 17.141 0 16.6016 0C16.0622 0 15.625 0.437205 15.625 0.976559V1.99062C14.0595 2.10849 12.5506 2.51024 11.1279 3.1911C10.6415 3.42391 10.4358 4.00702 10.6685 4.49354C10.9013 4.98006 11.4845 5.18553 11.971 4.95291C13.1284 4.39901 14.3538 4.06366 15.6249 3.95018V5.91384C11.5574 6.3657 8.31882 9.60426 7.86716 13.6718H5.9034C6.01678 12.4006 6.35223 11.1752 6.90613 10.0178C7.13894 9.53131 6.93328 8.94821 6.44676 8.7154C5.96024 8.48249 5.37704 8.68825 5.14432 9.17477C4.46347 10.5975 4.06171 12.1065 3.94384 13.6719H2.92968C2.39033 13.6719 1.95312 14.1091 1.95312 14.6485C1.95312 15.1878 2.39033 15.6249 2.92968 15.6249ZM5.90428 15.6249H7.86716C8.31892 19.6926 11.5575 22.9311 15.625 23.3828V25.3456C10.4796 24.8798 6.3702 20.7704 5.90428 15.6249ZM17.5782 25.3457V23.3829C21.6458 22.9312 24.8843 19.6926 25.336 15.625H27.2988C26.8329 20.7704 22.7236 24.8798 17.5782 25.3457ZM27.2989 13.6718H25.3361C24.8844 9.60416 21.6458 6.3657 17.5783 5.91394V3.95116C22.7236 4.41707 26.8329 8.52643 27.2989 13.6718ZM16.6016 7.81247C20.3709 7.81247 23.4375 10.8791 23.4375 14.6484C23.4375 18.4177 20.3709 21.4843 16.6016 21.4843C12.8323 21.4843 9.76569 18.4177 9.76569 14.6484C9.76569 10.8791 12.8323 7.81247 16.6016 7.81247Z" fill="#006290"/>
<path d="M16.6019 48.0469H16.6012C16.0618 48.0469 15.625 48.4841 15.625 49.0234C15.625 49.5628 16.0626 50 16.6019 50C17.1413 50 17.5785 49.5628 17.5785 49.0234C17.5785 48.4841 17.1413 48.0469 16.6019 48.0469Z" fill="#006290"/>
<path d="M8.31601 7.33854C8.56611 7.33854 8.8162 7.24303 9.00693 7.05231C9.38827 6.67097 9.38827 6.05261 9.00693 5.67126C8.62558 5.28992 8.00732 5.28992 7.62588 5.67126L7.62539 5.67175C7.24404 6.0531 7.24424 6.67116 7.62558 7.05251C7.81621 7.24333 8.06611 7.33854 8.31601 7.33854Z" fill="#006290"/>
</svg>
