<svg width="50" height="50" viewBox="0 0 50 50" fill="none" xmlns="http://www.w3.org/2000/svg">
<g clip-path="url(#clip0)">
<path d="M49.9815 47.8395C49.9055 47.1438 49.4719 43.7235 48.0066 40.3236C47.7932 39.8283 47.2189 39.5999 46.7233 39.8133C46.228 40.0268 45.9995 40.6013 46.2129 41.0966C47.2173 43.4271 47.6977 45.7693 47.9077 47.0877H43.5113V45.1234C43.5113 44.584 43.074 44.1468 42.5347 44.1468C41.9954 44.1468 41.5581 44.584 41.5581 45.1234V47.0877H25.9766V40.0888C26.112 40.0717 26.2468 40.0501 26.381 40.0258C27.6179 39.8015 28.7935 39.2733 29.7834 38.4824C32.555 36.2667 35.7161 34.9193 37.611 34.2419C38.0779 34.0751 38.5488 33.9197 39.0246 33.78C39.7544 34.0699 40.4358 34.4184 41.0535 34.8183C41.5064 35.1114 42.1109 34.9819 42.4039 34.5292C42.697 34.0765 42.5676 33.4718 42.1149 33.1787C41.4196 32.7286 40.6589 32.3358 39.8492 32.007C38.3934 28.1609 34.2537 27.0579 32.2867 26.7474C32.8123 26.2239 33.257 25.6712 33.6121 25.0946C33.8325 24.7375 33.998 24.3751 34.1582 24.0246C34.3766 23.5464 34.5832 23.0946 34.8846 22.779C37.0331 20.5316 37.3862 17.3925 35.7849 14.7833C35.606 14.491 35.4892 14.2343 35.4196 13.9831C36.3343 13.7628 37.0168 12.94 37.0168 11.9587V10.2916C37.0168 9.1864 36.1514 8.28201 35.0631 8.21405C34.5813 4.13458 31.1042 0.959106 26.8974 0.959106H23.0415C18.8346 0.959106 15.3575 4.13458 14.8758 8.21405C13.7874 8.28192 12.9222 9.1864 12.9222 10.2916V11.9587C12.9222 12.9511 13.6199 13.7823 14.5502 13.9911C14.4789 14.2432 14.3633 14.4959 14.1881 14.7823C12.5859 17.3929 12.9391 20.5319 15.0882 22.7797C15.3906 23.0958 15.5973 23.5484 15.8161 24.0274C15.9756 24.3767 16.1405 24.7379 16.3599 25.0942C16.7169 25.6737 17.1643 26.229 17.6933 26.7549C15.7341 27.0763 11.6609 28.1964 10.2117 32.0189C8.93519 32.5136 7.81889 33.1457 6.89038 33.9038C5.3401 35.0835 3.99714 36.6029 3.00378 38.3022C0.731237 42.2221 0.12128 46.8971 0.0181552 47.8396C0.00526467 47.9314 -0.00420793 48.0177 0.00165141 48.1167C0.0308505 48.6302 0.458094 49.041 0.978501 49.041H49.0231C49.5451 49.041 49.9715 48.6278 49.9983 48.1123C50.0037 48.0151 49.9942 47.9299 49.9815 47.8395ZM19.875 35.7663C18.2534 34.6786 16.5113 33.772 14.7084 33.0247C16.3857 32.8203 17.9663 32.7512 18.5723 32.7308C19.5407 33.2671 20.5603 33.6743 21.6073 33.9504C23.2726 34.3897 25.0054 34.5 26.7046 34.2808C28.0349 34.1083 29.3385 33.734 30.5566 33.1722C30.8263 33.0478 31.4199 32.7348 31.4199 32.7348C33.0151 32.7507 34.3318 32.8914 35.358 33.0136C33.0933 33.9583 30.918 35.1518 28.9655 36.6431C27.5682 37.7104 26.0643 38.3994 24.2605 38.1463C22.491 37.898 21.295 36.7188 19.875 35.7663ZM24.7753 29.8023C24.9164 29.807 25.0532 29.8056 25.1941 29.8023C26.9741 29.7687 28.6987 29.2767 30.2105 28.3837L30.209 31.1701C30.0054 31.2757 29.7993 31.3748 29.591 31.4671C27.2879 32.4886 24.7179 32.7035 22.3023 32.1124C21.439 31.9011 20.5954 31.5873 19.7908 31.17L19.79 28.651C19.79 28.6505 19.7899 28.6499 19.7899 28.6492V28.3843C21.2889 29.2694 22.9964 29.7605 24.7589 29.8016C24.7644 29.8017 24.7698 29.8021 24.7753 29.8023ZM37.216 31.3113C35.3435 30.9824 33.3236 30.8521 32.1636 30.8014L32.164 28.7126C33.4961 28.9505 35.8172 29.5979 37.216 31.3113ZM30.1873 15.3259C30.1873 16.0334 29.6117 16.6091 28.9042 16.6091C28.1967 16.6091 27.621 16.0334 27.621 15.3259C27.621 14.6194 28.1951 14.0445 28.9014 14.0429H28.907C29.6133 14.0445 30.1873 14.6194 30.1873 15.3259ZM22.4925 15.3259C22.4925 16.0334 21.9169 16.6091 21.2093 16.6091C20.5018 16.6091 19.9261 16.0334 19.9261 15.3259C19.9261 14.6194 20.5003 14.0445 21.2065 14.0429H21.2122C21.9184 14.0445 22.4925 14.6194 22.4925 15.3259ZM14.8754 10.2915C14.8754 10.2192 14.9342 10.1605 15.0064 10.1605H18.3044V12.0897H15.0064C14.9342 12.0897 14.8754 12.0309 14.8754 11.9587V10.2915ZM23.993 10.1604V12.0897H20.2575V10.1605H23.993V10.1604ZM24.9802 3.09093C25.5777 3.52286 26.6286 4.45938 27.1696 5.99365C27.445 6.77509 27.5712 7.59618 27.6289 8.20731H22.3307C22.388 7.59862 22.5141 6.77987 22.7914 5.99365C23.3326 4.4584 24.3845 3.52179 24.9802 3.09093ZM34.9327 10.1604C35.005 10.1604 35.0638 10.2192 35.0638 10.2914V11.9586C35.0638 12.0308 35.005 12.0896 34.9327 12.0896H31.8826V10.1604H34.9327ZM29.9295 12.0897H25.9461V10.1605H29.9295V12.0897ZM33.0933 8.20731H29.5902C29.5295 7.45878 29.3795 6.38798 29.0115 5.34424C28.6686 4.37139 28.1765 3.58351 27.666 2.96046C30.4413 3.30118 32.6621 5.46055 33.0933 8.20731ZM22.2972 2.95763C21.786 3.58116 21.2928 4.36983 20.9494 5.34424C20.5814 6.38808 20.4314 7.45878 20.3708 8.20731H16.8458C17.2782 5.45264 19.5106 3.28888 22.2972 2.95763ZM17.5928 23.2161C17.3291 22.6386 17.0302 21.9841 16.4997 21.4296C14.9596 19.8188 14.7116 17.663 15.8534 15.8026C16.1336 15.3447 16.3274 14.9066 16.4476 14.458C16.4628 14.3997 16.5008 14.2059 16.5319 14.0429H18.2388C18.0681 14.4366 17.9729 14.8703 17.9729 15.3259C17.9729 17.1104 19.4247 18.5622 21.2092 18.5622C22.9938 18.5622 24.4456 17.1105 24.4456 15.3259C24.4456 14.8703 24.3504 14.4366 24.1797 14.0429H25.9337C25.763 14.4366 25.6679 14.8703 25.6679 15.3259C25.6679 17.1104 27.1197 18.5622 28.9042 18.5622C30.6886 18.5622 32.1404 17.1105 32.1404 15.3259C32.1404 14.8703 32.0453 14.4366 31.8746 14.0429H33.4403C33.4717 14.2066 33.5101 14.402 33.5263 14.4637C33.6451 14.9069 33.839 15.3449 34.1197 15.8037C35.2607 17.663 35.0129 19.8188 33.4727 21.4296C33.4726 21.4297 33.4725 21.4298 33.4725 21.4299C32.9435 21.9835 32.645 22.6366 32.3817 23.2129C32.2402 23.5226 32.1065 23.8153 31.9495 24.0697C31.5269 24.7559 30.9035 25.4382 30.1475 26.0423C28.7511 27.1568 26.9878 27.797 25.1737 27.8484C22.0203 27.9145 18.9114 26.1028 17.5928 23.2161ZM17.8364 28.7177L17.8368 29.6266V30.8053C16.6893 30.8601 14.6959 30.9968 12.8394 31.3278C14.2257 29.6166 16.5156 28.9614 17.8364 28.7177ZM4.69176 39.2847C5.55806 37.8026 6.73159 36.4762 8.08549 35.4487C8.09516 35.4413 8.10473 35.4338 8.1141 35.4261C8.91136 34.7727 9.89027 34.2253 11.0273 33.7964C11.998 34.0748 15.3527 35.1322 18.6207 37.2796C19.1919 37.6552 19.7476 38.055 20.2817 38.4818C21.3616 39.3451 22.6627 39.896 24.0236 40.0798V47.0877H9.07181V45.1234C9.07181 44.584 8.63461 44.1468 8.09526 44.1468C7.5559 44.1468 7.1187 44.584 7.1187 45.1234V47.0877H2.09383C2.35994 45.4378 3.06355 42.0931 4.69176 39.2847Z" fill="#006290"/>
<path d="M25.0373 26.1804C27.7525 26.1804 29.8793 24.6605 29.8793 22.7201C29.8793 20.7798 27.7525 19.2598 25.0373 19.2598C22.3222 19.2598 20.1953 20.7797 20.1953 22.7201C20.1953 24.6606 22.3221 26.1804 25.0373 26.1804ZM25.0373 21.2129C26.6907 21.2129 27.9262 22.0086 27.9262 22.7201C27.9262 23.4316 26.6907 24.2273 25.0373 24.2273C23.3839 24.2273 22.1484 23.4316 22.1484 22.7201C22.1484 22.0087 23.3839 21.2129 25.0373 21.2129Z" fill="#006290"/>
<path d="M44.0729 37.4617C44.2748 37.9543 44.8576 38.1932 45.3483 37.99C45.8398 37.7864 46.0801 37.2061 45.8767 36.7146C45.6731 36.223 45.0917 35.9846 44.6012 36.1873C44.1104 36.3902 43.8683 36.9706 44.0729 37.4617Z" fill="#006290"/>
</g>
<defs>
<clipPath id="clip0">
<rect width="50" height="50" fill="white"/>
</clipPath>
</defs>
</svg>
