<svg width="46" height="46" viewBox="0 0 46 46" fill="none" xmlns="http://www.w3.org/2000/svg">
<path d="M39.3006 23.6645L36.5097 18.5662V15.0716C36.5097 6.7611 29.7485 0 21.438 0C13.1274 0 6.3663 6.7611 6.36621 15.0716V17.6598C6.36621 20.8747 7.33275 23.9501 9.1643 26.5734V33.9924C9.1643 34.4886 9.56663 34.8908 10.0627 34.8908C10.5589 34.8908 10.9612 34.4886 10.9612 33.9924V26.2863C10.9612 26.0966 10.9012 25.9118 10.7898 25.7584C9.07141 23.3923 8.16318 20.5918 8.16318 17.6598V15.0716C8.16318 7.7519 14.1182 1.79688 21.438 1.79688C28.7578 1.79688 34.7128 7.7519 34.7128 15.0716V18.7961C34.7128 18.9469 34.7508 19.0953 34.8232 19.2276L37.7246 24.5274C37.9438 24.928 37.7864 25.275 37.7086 25.4057C37.631 25.5359 37.4019 25.838 36.9485 25.838C36.947 25.838 36.9454 25.838 36.9438 25.838L35.6154 25.8319C35.6139 25.8319 35.6126 25.8319 35.6112 25.8319C35.3737 25.8319 35.1458 25.9259 34.9774 26.0936C34.808 26.2622 34.7128 26.4913 34.7128 26.7303V30.7399C34.7128 32.8825 32.9697 34.6257 30.827 34.6257H28.1298C26.9058 34.6257 25.9099 35.6215 25.9099 36.8456V43.7128L13.6965 38.2232C13.2438 38.0197 12.7121 38.2217 12.5086 38.6743C12.3052 39.127 12.5072 39.6587 12.9598 39.8621L26.44 45.921C26.5577 45.9739 26.6831 46 26.8083 46C26.979 46 27.1487 45.9514 27.2963 45.8559C27.5522 45.6904 27.7067 45.4064 27.7067 45.1016V36.8455C27.7067 36.6122 27.8965 36.4225 28.1297 36.4225H30.8269C33.9604 36.4225 36.5096 33.8732 36.5096 30.7399V27.6328L36.9355 27.6348C36.9398 27.6348 36.944 27.6348 36.9483 27.6348C37.9027 27.6348 38.7633 27.1459 39.2522 26.3252C39.7433 25.5008 39.7614 24.5061 39.3006 23.6645Z" fill="#006291"/>
<path d="M30.2193 11.971L29.6162 11.8997C29.5776 11.8017 29.5373 11.7045 29.4953 11.608L29.8713 11.131C30.5781 10.2346 30.56 9.0074 29.8292 8.27643L28.2545 6.70174C27.5235 5.97077 26.2963 5.9528 25.3998 6.65969L24.9228 7.03578C24.8264 6.99382 24.7291 6.95348 24.6312 6.91494L24.5599 6.31191C24.4257 5.17817 23.5451 4.32322 22.5114 4.32322H20.2846C19.251 4.32322 18.3704 5.17826 18.2362 6.31218L18.165 6.91512C18.0671 6.95366 17.97 6.99391 17.8736 7.03587L17.3967 6.65978C16.5002 5.95289 15.2731 5.97086 14.542 6.70183L12.9673 8.27661C12.2365 9.00749 12.2184 10.2348 12.9253 11.1311L13.3013 11.608C13.2593 11.7046 13.2189 11.8018 13.1804 11.8997L12.5772 11.9711C11.4434 12.1052 10.5884 12.9858 10.5884 14.0194V16.2464C10.5884 17.28 11.4434 18.1606 12.5772 18.2947L13.1802 18.3661C13.2188 18.464 13.2591 18.5613 13.3011 18.6578L12.925 19.1348C12.2181 20.0313 12.2362 21.2586 12.9671 21.9895L14.5418 23.5642C15.2725 24.295 16.4997 24.3132 17.3963 23.6063L17.8733 23.2302C17.9698 23.2722 18.067 23.3126 18.1649 23.3511L18.2362 23.9542C18.3704 25.088 19.251 25.943 20.2846 25.943H22.5114C23.5451 25.943 24.4257 25.0881 24.5599 23.9542L24.6312 23.3512C24.7293 23.3125 24.8267 23.2722 24.9233 23.2301L25.4003 23.6061C26.2966 24.3129 27.5238 24.2949 28.2549 23.564L29.8295 21.9894C30.5604 21.2585 30.5784 20.0311 29.8715 19.1346L29.4954 18.6577C29.5375 18.5612 29.5777 18.4639 29.6164 18.366L30.2194 18.2946C31.3531 18.1605 32.2082 17.2799 32.2082 16.2463V14.0193C32.2083 12.9857 31.3531 12.1051 30.2193 11.971ZM30.4112 16.2464C30.4112 16.3367 30.2579 16.4808 30.0083 16.5103L28.8517 16.6471C28.5016 16.6885 28.208 16.931 28.1012 17.267C27.9814 17.6435 27.8285 18.0123 27.6469 18.3628C27.4846 18.6761 27.5206 19.0554 27.7391 19.3324L28.4604 20.2472C28.6161 20.4447 28.6227 20.655 28.5588 20.7189L26.9843 22.2935C26.9203 22.3573 26.7099 22.3506 26.5127 22.1951L25.5978 21.4739C25.3207 21.2554 24.9415 21.2195 24.6282 21.3817C24.2775 21.5633 23.9086 21.7162 23.5321 21.836C23.196 21.9428 22.9537 22.2364 22.9122 22.5867L22.7755 23.7431C22.7459 23.9928 22.6018 24.1462 22.5115 24.1462H20.2847C20.1944 24.1462 20.0503 23.9928 20.0207 23.7432L19.8841 22.5867C19.8426 22.2364 19.6002 21.9427 19.2641 21.8359C18.888 21.7162 18.5191 21.5634 18.1683 21.3817C18.0379 21.3141 17.8962 21.281 17.7552 21.281C17.5572 21.281 17.3605 21.3464 17.1988 21.4739L16.2839 22.1953C16.0865 22.3509 15.8763 22.3575 15.8124 22.2937L14.2378 20.719C14.174 20.6551 14.1806 20.4448 14.3362 20.2474L15.0576 19.3325C15.276 19.0554 15.3121 18.6762 15.1497 18.3629C14.9681 18.0123 14.8153 17.6436 14.6955 17.2671C14.5887 16.9311 14.2951 16.6886 13.9449 16.6472L12.7884 16.5104C12.5387 16.4808 12.3854 16.3368 12.3854 16.2465V14.0195C12.3854 13.9292 12.5388 13.7851 12.7884 13.7556L13.9449 13.6188C14.2951 13.5774 14.5888 13.335 14.6956 12.9989C14.8153 12.6227 14.9682 12.2541 15.1499 11.9032C15.3123 11.5899 15.2762 11.2106 15.0577 10.9336L14.3365 10.0186C14.1808 9.82111 14.1743 9.61088 14.2381 9.54709L15.8128 7.9724C15.8767 7.90852 16.0868 7.91517 16.2843 8.07078L17.1993 8.79213C17.4762 9.01054 17.8554 9.04666 18.1688 8.88431C18.5192 8.70274 18.8879 8.54991 19.2641 8.43024C19.6002 8.32333 19.8426 8.02972 19.8841 7.67951L20.0207 6.52304C20.0504 6.27336 20.1944 6.12 20.2847 6.12H22.5115C22.6017 6.12 22.7459 6.27336 22.7755 6.52295L22.9122 7.67951C22.9537 8.02963 23.196 8.32324 23.5321 8.43015C23.9085 8.54991 24.2772 8.70274 24.6279 8.8844C24.941 9.04666 25.3204 9.01063 25.5974 8.79213L26.5123 8.07078C26.7097 7.91508 26.9202 7.90852 26.9839 7.9724L28.5585 9.547C28.6223 9.61088 28.6158 9.8212 28.4602 10.0186L27.7389 10.9335C27.5205 11.2105 27.4844 11.5899 27.6467 11.9031C27.8284 12.2536 27.9812 12.6224 28.1011 12.999C28.208 13.335 28.5016 13.5774 28.8517 13.6187L30.0083 13.7555C30.2579 13.7851 30.4112 13.9291 30.4112 14.0194V16.2464Z" fill="#006291"/>
<path d="M21.3982 10.5881C18.8919 10.5881 16.853 12.627 16.853 15.1333C16.853 17.6395 18.8919 19.6785 21.3982 19.6785C23.9044 19.6785 25.9435 17.6395 25.9435 15.1333C25.9435 12.6271 23.9045 10.5881 21.3982 10.5881ZM21.3982 17.8816C19.8828 17.8816 18.6499 16.6487 18.6499 15.1333C18.6499 13.6179 19.8828 12.3849 21.3982 12.3849C22.9137 12.3849 24.1465 13.6178 24.1466 15.1333C24.1466 16.6487 22.9137 17.8816 21.3982 17.8816Z" fill="#006291"/>
<path d="M10.144 38.4071C10.6402 38.4071 11.0425 38.0049 11.0425 37.5087C11.0425 37.0125 10.6402 36.6102 10.144 36.6102C9.64785 36.6102 9.24561 37.0125 9.24561 37.5087C9.24561 38.0049 9.64785 38.4071 10.144 38.4071Z" fill="#006291"/>
</svg>
