<svg width="48" height="49" viewBox="0 0 48 49" fill="none" xmlns="http://www.w3.org/2000/svg">
<path d="M43.875 4.7478H4.125C3.42905 4.7486 2.76183 5.02541 2.26972 5.51752C1.77761 6.00964 1.50079 6.67685 1.5 7.3728V42.6228C1.50079 43.3188 1.77761 43.986 2.26972 44.4781C2.76183 44.9702 3.42905 45.247 4.125 45.2478H43.875C44.5709 45.247 45.2382 44.9702 45.7303 44.4781C46.2224 43.986 46.4992 43.3188 46.5 42.6228V7.3728C46.4992 6.67685 46.2224 6.00964 45.7303 5.51752C45.2382 5.02541 44.5709 4.7486 43.875 4.7478ZM45 42.6228C44.9997 42.9211 44.881 43.207 44.6701 43.4179C44.4592 43.6288 44.1733 43.7475 43.875 43.7478H4.125C3.82673 43.7475 3.54077 43.6288 3.32986 43.4179C3.11895 43.207 3.00032 42.9211 3 42.6228V10.7478H45V42.6228ZM45 9.2478H3V7.3728C3.00032 7.07453 3.11895 6.78857 3.32986 6.57766C3.54077 6.36676 3.82673 6.24813 4.125 6.2478H43.875C44.1733 6.24813 44.4592 6.36676 44.6701 6.57766C44.881 6.78857 44.9997 7.07453 45 7.3728V9.2478Z" fill="#006291"/>
<path d="M5.25 8.4978C5.66421 8.4978 6 8.16202 6 7.7478C6 7.33359 5.66421 6.9978 5.25 6.9978C4.83579 6.9978 4.5 7.33359 4.5 7.7478C4.5 8.16202 4.83579 8.4978 5.25 8.4978Z" fill="#006291"/>
<path d="M8.25 8.4978C8.66421 8.4978 9 8.16202 9 7.7478C9 7.33359 8.66421 6.9978 8.25 6.9978C7.83579 6.9978 7.5 7.33359 7.5 7.7478C7.5 8.16202 7.83579 8.4978 8.25 8.4978Z" fill="#006291"/>
<path d="M33 24.9978C33.4142 24.9978 33.75 24.662 33.75 24.2478C33.75 23.8336 33.4142 23.4978 33 23.4978C32.5858 23.4978 32.25 23.8336 32.25 24.2478C32.25 24.662 32.5858 24.9978 33 24.9978Z" fill="#006291"/>
<path d="M36 24.9978C36.4142 24.9978 36.75 24.662 36.75 24.2478C36.75 23.8336 36.4142 23.4978 36 23.4978C35.5858 23.4978 35.25 23.8336 35.25 24.2478C35.25 24.662 35.5858 24.9978 36 24.9978Z" fill="#006291"/>
<path d="M39 24.9978C39.4142 24.9978 39.75 24.662 39.75 24.2478C39.75 23.8336 39.4142 23.4978 39 23.4978C38.5858 23.4978 38.25 23.8336 38.25 24.2478C38.25 24.662 38.5858 24.9978 39 24.9978Z" fill="#006291"/>
<path d="M11.25 8.4978C11.6642 8.4978 12 8.16202 12 7.7478C12 7.33359 11.6642 6.9978 11.25 6.9978C10.8358 6.9978 10.5 7.33359 10.5 7.7478C10.5 8.16202 10.8358 8.4978 11.25 8.4978Z" fill="#006291"/>
<path d="M6 30.9978H36V32.4978C36 32.6371 36.0388 32.7736 36.112 32.8921C36.1852 33.0106 36.29 33.1063 36.4146 33.1686C36.5392 33.2309 36.6786 33.2573 36.8174 33.2448C36.9561 33.2323 37.0886 33.1814 37.2 33.0978L40 30.9978H42C42.1989 30.9978 42.3897 30.9188 42.5303 30.7781C42.671 30.6375 42.75 30.4467 42.75 30.2478V18.2478C42.75 18.0489 42.671 17.8581 42.5303 17.7175C42.3897 17.5768 42.1989 17.4978 42 17.4978H6C5.80109 17.4978 5.61032 17.5768 5.46967 17.7175C5.32902 17.8581 5.25 18.0489 5.25 18.2478V30.2478C5.25 30.4467 5.32902 30.6375 5.46967 30.7781C5.61032 30.9188 5.80109 30.9978 6 30.9978ZM30.75 26.4983V18.9978H41.25V29.4978H39.75C39.5877 29.4978 39.4298 29.5504 39.3 29.6478L37.5 30.9978V30.2478C37.5 30.0489 37.421 29.8581 37.2803 29.7175C37.1397 29.5768 36.9489 29.4978 36.75 29.4978H30.75V26.4983ZM18.75 18.9978H29.25V24.6871L29.0303 24.4675C28.912 24.3492 28.7576 24.2739 28.5916 24.2536C28.4256 24.2332 28.2575 24.2689 28.1141 24.355L24.8662 26.3034L23.7803 25.2175C23.664 25.1011 23.5126 25.0263 23.3496 25.0044C23.1865 24.9826 23.0208 25.015 22.8779 25.0966L18.75 27.4555V18.9978ZM18.75 29.183L23.1248 26.6832L24.2197 27.7782C24.338 27.8964 24.4924 27.9717 24.6584 27.9921C24.8244 28.0124 24.9925 27.9767 25.1359 27.8906L28.3838 25.942L29.25 26.8082V29.4978H18.75V29.183ZM6.75 18.9978H17.25V29.4978H6.75V18.9978Z" fill="#006291"/>
<path d="M15.3721 23.5966L10.1221 20.5966C10.008 20.5314 9.87885 20.4974 9.74749 20.4978C9.61612 20.4982 9.48717 20.5332 9.37355 20.5991C9.25993 20.6651 9.16562 20.7597 9.10006 20.8735C9.03451 20.9874 9 21.1164 9 21.2478V27.2478C9 27.3792 9.03451 27.5082 9.10006 27.6221C9.16562 27.7359 9.25993 27.8305 9.37355 27.8965C9.48717 27.9624 9.61612 27.9974 9.74749 27.9978C9.87885 27.9982 10.008 27.9642 10.1221 27.899L15.3721 24.899C15.4869 24.8334 15.5823 24.7386 15.6487 24.6242C15.715 24.5099 15.75 24.38 15.75 24.2478C15.75 24.1156 15.715 23.9857 15.6487 23.8714C15.5823 23.757 15.4869 23.6622 15.3721 23.5966ZM10.5 25.9554V22.5402L13.4883 24.2478L10.5 25.9554Z" fill="#006291"/>
<path d="M25.25 24.5C25.695 24.5 26.13 24.368 26.5 24.1208C26.87 23.8736 27.1584 23.5222 27.3287 23.111C27.499 22.6999 27.5436 22.2475 27.4568 21.811C27.37 21.3746 27.1557 20.9737 26.841 20.659C26.5263 20.3443 26.1254 20.1301 25.689 20.0432C25.2525 19.9564 24.8001 20.001 24.389 20.1713C23.9778 20.3416 23.6264 20.63 23.3792 21C23.132 21.37 23 21.805 23 22.25C23.0007 22.8465 23.2379 23.4184 23.6597 23.8403C24.0816 24.2621 24.6535 24.4993 25.25 24.5V24.5ZM25.25 21.5C25.3983 21.5 25.5433 21.544 25.6667 21.6264C25.79 21.7088 25.8861 21.8259 25.9429 21.963C25.9997 22.1 26.0145 22.2508 25.9856 22.3963C25.9567 22.5418 25.8852 22.6754 25.7803 22.7803C25.6754 22.8852 25.5418 22.9567 25.3963 22.9856C25.2508 23.0145 25.1 22.9997 24.963 22.9429C24.8259 22.8861 24.7088 22.79 24.6264 22.6667C24.544 22.5433 24.5 22.3983 24.5 22.25C24.5002 22.0512 24.5793 21.8605 24.7199 21.7199C24.8605 21.5793 25.0512 21.5002 25.25 21.5V21.5Z" fill="#006291"/>
<path d="M35.25 36.9978H21.75V36.2478C21.75 36.0489 21.671 35.8581 21.5303 35.7175C21.3897 35.5768 21.1989 35.4978 21 35.4978H18C17.8011 35.4978 17.6103 35.5768 17.4697 35.7175C17.329 35.8581 17.25 36.0489 17.25 36.2478V36.9978H12.75C12.5511 36.9978 12.3603 37.0768 12.2197 37.2175C12.079 37.3581 12 37.5489 12 37.7478C12 37.9467 12.079 38.1375 12.2197 38.2781C12.3603 38.4188 12.5511 38.4978 12.75 38.4978H17.25V39.2478C17.25 39.4467 17.329 39.6375 17.4697 39.7781C17.6103 39.9188 17.8011 39.9978 18 39.9978H21C21.1989 39.9978 21.3897 39.9188 21.5303 39.7781C21.671 39.6375 21.75 39.4467 21.75 39.2478V38.4978H35.25C35.4489 38.4978 35.6397 38.4188 35.7803 38.2781C35.921 38.1375 36 37.9467 36 37.7478C36 37.5489 35.921 37.3581 35.7803 37.2175C35.6397 37.0768 35.4489 36.9978 35.25 36.9978ZM20.25 38.4978H18.75V36.9978H20.25V38.4978Z" fill="#006291"/>
</svg>
